<?xml version="1.0" encoding="utf-8" standalone="no"?>
<!DOCTYPE svg PUBLIC "-//W3C//DTD SVG 1.1//EN"
  "http://www.w3.org/Graphics/SVG/1.1/DTD/svg11.dtd">
<!-- Created with matplotlib (http://matplotlib.org/) -->
<svg height="864pt" version="1.1" viewBox="0 0 1296 864" width="1296pt" xmlns="http://www.w3.org/2000/svg" xmlns:xlink="http://www.w3.org/1999/xlink">
 <defs>
  <style type="text/css">
*{stroke-linecap:butt;stroke-linejoin:round;}
  </style>
 </defs>
 <g id="figure_1">
  <g id="patch_1">
   <path d="
M0 864
L1296 864
L1296 0
L0 0
z
" style="fill:#ffffff;"/>
  </g>
  <g id="axes_1">
   <g id="patch_2">
    <path d="
M62.3178 833.397
L1252.74 833.397
L1252.74 17.2017
L62.3178 17.2017
z
" style="fill:#ffffff;"/>
   </g>
   <g id="matplotlib.axis_1">
    <g id="xtick_1">
     <g id="line2d_1">
      <path clip-path="url(#p5e523f567a)" d="
M62.3178 833.397
L62.3178 17.2017" style="fill:none;stroke:#cccccc;stroke-linecap:round;"/>
     </g>
     <g id="line2d_2">
      <defs>
       <path d="
M0 0
L0 0" id="m219da94a98" style="stroke:#262626;"/>
      </defs>
      <g>
       <use style="fill:#262626;stroke:#262626;" x="62.3178125" xlink:href="#m219da94a98" y="833.3965625"/>
      </g>
     </g>
     <g id="line2d_3">
      <g>
       <use style="fill:#262626;stroke:#262626;" x="62.3178125" xlink:href="#m219da94a98" y="17.20171875"/>
      </g>
     </g>
     <g id="text_1">
      <!-- 0.0000000 -->
      <defs>
       <path d="
M4.15625 35.2969
Q4.15625 48 6.76562 55.7344
Q9.375 63.4844 14.5156 67.6719
Q19.6719 71.875 27.4844 71.875
Q33.25 71.875 37.5938 69.5469
Q41.9375 67.2344 44.7656 62.8594
Q47.6094 58.5 49.2188 52.2188
Q50.8281 45.9531 50.8281 35.2969
Q50.8281 22.7031 48.2344 14.9688
Q45.6562 7.23438 40.5 3
Q35.3594 -1.21875 27.4844 -1.21875
Q17.1406 -1.21875 11.2344 6.20312
Q4.15625 15.1406 4.15625 35.2969
M13.1875 35.2969
Q13.1875 17.6719 17.3125 11.8281
Q21.4375 6 27.4844 6
Q33.5469 6 37.6719 11.8594
Q41.7969 17.7188 41.7969 35.2969
Q41.7969 52.9844 37.6719 58.7812
Q33.5469 64.5938 27.3906 64.5938
Q21.3438 64.5938 17.7188 59.4688
Q13.1875 52.9375 13.1875 35.2969" id="ArialMT-30"/>
       <path d="
M9.07812 0
L9.07812 10.0156
L19.0938 10.0156
L19.0938 0
z
" id="ArialMT-2e"/>
      </defs>
      <g style="fill:#262626;" transform="translate(29.8575 850.4175)scale(0.14 -0.14)">
       <use xlink:href="#ArialMT-30"/>
       <use x="55.615234375" xlink:href="#ArialMT-2e"/>
       <use x="83.3984375" xlink:href="#ArialMT-30"/>
       <use x="139.013671875" xlink:href="#ArialMT-30"/>
       <use x="194.62890625" xlink:href="#ArialMT-30"/>
       <use x="250.244140625" xlink:href="#ArialMT-30"/>
       <use x="305.859375" xlink:href="#ArialMT-30"/>
       <use x="361.474609375" xlink:href="#ArialMT-30"/>
       <use x="417.08984375" xlink:href="#ArialMT-30"/>
      </g>
     </g>
    </g>
    <g id="xtick_2">
     <g id="line2d_4">
      <path clip-path="url(#p5e523f567a)" d="
M300.402 833.397
L300.402 17.2017" style="fill:none;stroke:#cccccc;stroke-linecap:round;"/>
     </g>
     <g id="line2d_5">
      <g>
       <use style="fill:#262626;stroke:#262626;" x="300.4021875" xlink:href="#m219da94a98" y="833.3965625"/>
      </g>
     </g>
     <g id="line2d_6">
      <g>
       <use style="fill:#262626;stroke:#262626;" x="300.4021875" xlink:href="#m219da94a98" y="17.20171875"/>
      </g>
     </g>
     <g id="text_2">
      <!-- 0.0000002 -->
      <defs>
       <path d="
M50.3438 8.45312
L50.3438 0
L3.03125 0
Q2.9375 3.17188 4.04688 6.10938
Q5.85938 10.9375 9.82812 15.625
Q13.8125 20.3125 21.3438 26.4688
Q33.0156 36.0312 37.1094 41.625
Q41.2188 47.2188 41.2188 52.2031
Q41.2188 57.4219 37.4688 61
Q33.7344 64.5938 27.7344 64.5938
Q21.3906 64.5938 17.5781 60.7812
Q13.7656 56.9844 13.7188 50.25
L4.6875 51.1719
Q5.60938 61.2812 11.6562 66.5781
Q17.7188 71.875 27.9375 71.875
Q38.2344 71.875 44.2344 66.1562
Q50.25 60.4531 50.25 52
Q50.25 47.7031 48.4844 43.5469
Q46.7344 39.4062 42.6562 34.8125
Q38.5781 30.2188 29.1094 22.2188
Q21.1875 15.5781 18.9375 13.2031
Q16.7031 10.8438 15.2344 8.45312
z
" id="ArialMT-32"/>
      </defs>
      <g style="fill:#262626;" transform="translate(267.97578125 850.4175)scale(0.14 -0.14)">
       <use xlink:href="#ArialMT-30"/>
       <use x="55.615234375" xlink:href="#ArialMT-2e"/>
       <use x="83.3984375" xlink:href="#ArialMT-30"/>
       <use x="139.013671875" xlink:href="#ArialMT-30"/>
       <use x="194.62890625" xlink:href="#ArialMT-30"/>
       <use x="250.244140625" xlink:href="#ArialMT-30"/>
       <use x="305.859375" xlink:href="#ArialMT-30"/>
       <use x="361.474609375" xlink:href="#ArialMT-30"/>
       <use x="417.08984375" xlink:href="#ArialMT-32"/>
      </g>
     </g>
    </g>
    <g id="xtick_3">
     <g id="line2d_7">
      <path clip-path="url(#p5e523f567a)" d="
M538.487 833.397
L538.487 17.2017" style="fill:none;stroke:#cccccc;stroke-linecap:round;"/>
     </g>
     <g id="line2d_8">
      <g>
       <use style="fill:#262626;stroke:#262626;" x="538.4865625" xlink:href="#m219da94a98" y="833.3965625"/>
      </g>
     </g>
     <g id="line2d_9">
      <g>
       <use style="fill:#262626;stroke:#262626;" x="538.4865625" xlink:href="#m219da94a98" y="17.20171875"/>
      </g>
     </g>
     <g id="text_3">
      <!-- 0.0000004 -->
      <defs>
       <path d="
M32.3281 0
L32.3281 17.1406
L1.26562 17.1406
L1.26562 25.2031
L33.9375 71.5781
L41.1094 71.5781
L41.1094 25.2031
L50.7812 25.2031
L50.7812 17.1406
L41.1094 17.1406
L41.1094 0
z

M32.3281 25.2031
L32.3281 57.4688
L9.90625 25.2031
z
" id="ArialMT-34"/>
      </defs>
      <g style="fill:#262626;" transform="translate(506.02953125 850.4175)scale(0.14 -0.14)">
       <use xlink:href="#ArialMT-30"/>
       <use x="55.615234375" xlink:href="#ArialMT-2e"/>
       <use x="83.3984375" xlink:href="#ArialMT-30"/>
       <use x="139.013671875" xlink:href="#ArialMT-30"/>
       <use x="194.62890625" xlink:href="#ArialMT-30"/>
       <use x="250.244140625" xlink:href="#ArialMT-30"/>
       <use x="305.859375" xlink:href="#ArialMT-30"/>
       <use x="361.474609375" xlink:href="#ArialMT-30"/>
       <use x="417.08984375" xlink:href="#ArialMT-34"/>
      </g>
     </g>
    </g>
    <g id="xtick_4">
     <g id="line2d_10">
      <path clip-path="url(#p5e523f567a)" d="
M776.571 833.397
L776.571 17.2017" style="fill:none;stroke:#cccccc;stroke-linecap:round;"/>
     </g>
     <g id="line2d_11">
      <g>
       <use style="fill:#262626;stroke:#262626;" x="776.5709375" xlink:href="#m219da94a98" y="833.3965625"/>
      </g>
     </g>
     <g id="line2d_12">
      <g>
       <use style="fill:#262626;stroke:#262626;" x="776.5709375" xlink:href="#m219da94a98" y="17.20171875"/>
      </g>
     </g>
     <g id="text_4">
      <!-- 0.0000006 -->
      <defs>
       <path d="
M49.75 54.0469
L41.0156 53.375
Q39.8438 58.5469 37.7031 60.8906
Q34.125 64.6562 28.9062 64.6562
Q24.7031 64.6562 21.5312 62.3125
Q17.3906 59.2812 14.9844 53.4688
Q12.5938 47.6562 12.5 36.9219
Q15.6719 41.75 20.2656 44.0938
Q24.8594 46.4375 29.8906 46.4375
Q38.6719 46.4375 44.8438 39.9688
Q51.0312 33.5 51.0312 23.25
Q51.0312 16.5 48.125 10.7188
Q45.2188 4.9375 40.1406 1.85938
Q35.0625 -1.21875 28.6094 -1.21875
Q17.625 -1.21875 10.6875 6.85938
Q3.76562 14.9375 3.76562 33.5
Q3.76562 54.25 11.4219 63.6719
Q18.1094 71.875 29.4375 71.875
Q37.8906 71.875 43.2812 67.1406
Q48.6875 62.4062 49.75 54.0469
M13.875 23.1875
Q13.875 18.6562 15.7969 14.5
Q17.7188 10.3594 21.1875 8.17188
Q24.6562 6 28.4688 6
Q34.0312 6 38.0312 10.4844
Q42.0469 14.9844 42.0469 22.7031
Q42.0469 30.125 38.0781 34.3906
Q34.125 38.6719 28.125 38.6719
Q22.1719 38.6719 18.0156 34.3906
Q13.875 30.125 13.875 23.1875" id="ArialMT-36"/>
      </defs>
      <g style="fill:#262626;" transform="translate(744.09640625 850.4175)scale(0.14 -0.14)">
       <use xlink:href="#ArialMT-30"/>
       <use x="55.615234375" xlink:href="#ArialMT-2e"/>
       <use x="83.3984375" xlink:href="#ArialMT-30"/>
       <use x="139.013671875" xlink:href="#ArialMT-30"/>
       <use x="194.62890625" xlink:href="#ArialMT-30"/>
       <use x="250.244140625" xlink:href="#ArialMT-30"/>
       <use x="305.859375" xlink:href="#ArialMT-30"/>
       <use x="361.474609375" xlink:href="#ArialMT-30"/>
       <use x="417.08984375" xlink:href="#ArialMT-36"/>
      </g>
     </g>
    </g>
    <g id="xtick_5">
     <g id="line2d_13">
      <path clip-path="url(#p5e523f567a)" d="
M1014.66 833.397
L1014.66 17.2017" style="fill:none;stroke:#cccccc;stroke-linecap:round;"/>
     </g>
     <g id="line2d_14">
      <g>
       <use style="fill:#262626;stroke:#262626;" x="1014.6553125" xlink:href="#m219da94a98" y="833.3965625"/>
      </g>
     </g>
     <g id="line2d_15">
      <g>
       <use style="fill:#262626;stroke:#262626;" x="1014.6553125" xlink:href="#m219da94a98" y="17.20171875"/>
      </g>
     </g>
     <g id="text_5">
      <!-- 0.0000008 -->
      <defs>
       <path d="
M17.6719 38.8125
Q12.2031 40.8281 9.5625 44.5312
Q6.9375 48.25 6.9375 53.4219
Q6.9375 61.2344 12.5469 66.5469
Q18.1719 71.875 27.4844 71.875
Q36.8594 71.875 42.5781 66.4219
Q48.2969 60.9844 48.2969 53.1719
Q48.2969 48.1875 45.6719 44.5
Q43.0625 40.8281 37.75 38.8125
Q44.3438 36.6719 47.7812 31.875
Q51.2188 27.0938 51.2188 20.4531
Q51.2188 11.2812 44.7188 5.03125
Q38.2344 -1.21875 27.6406 -1.21875
Q17.0469 -1.21875 10.5469 5.04688
Q4.04688 11.3281 4.04688 20.7031
Q4.04688 27.6875 7.59375 32.3906
Q11.1406 37.1094 17.6719 38.8125
M15.9219 53.7188
Q15.9219 48.6406 19.1875 45.4062
Q22.4688 42.1875 27.6875 42.1875
Q32.7656 42.1875 36.0156 45.375
Q39.2656 48.5781 39.2656 53.2188
Q39.2656 58.0625 35.9062 61.3594
Q32.5625 64.6562 27.5938 64.6562
Q22.5625 64.6562 19.2344 61.4219
Q15.9219 58.2031 15.9219 53.7188
M13.0938 20.6562
Q13.0938 16.8906 14.875 13.375
Q16.6562 9.85938 20.1719 7.92188
Q23.6875 6 27.7344 6
Q34.0312 6 38.125 10.0469
Q42.2344 14.1094 42.2344 20.3594
Q42.2344 26.7031 38.0156 30.8594
Q33.7969 35.0156 27.4375 35.0156
Q21.2344 35.0156 17.1562 30.9062
Q13.0938 26.8125 13.0938 20.6562" id="ArialMT-38"/>
      </defs>
      <g style="fill:#262626;" transform="translate(982.16765625 850.4175)scale(0.14 -0.14)">
       <use xlink:href="#ArialMT-30"/>
       <use x="55.615234375" xlink:href="#ArialMT-2e"/>
       <use x="83.3984375" xlink:href="#ArialMT-30"/>
       <use x="139.013671875" xlink:href="#ArialMT-30"/>
       <use x="194.62890625" xlink:href="#ArialMT-30"/>
       <use x="250.244140625" xlink:href="#ArialMT-30"/>
       <use x="305.859375" xlink:href="#ArialMT-30"/>
       <use x="361.474609375" xlink:href="#ArialMT-30"/>
       <use x="417.08984375" xlink:href="#ArialMT-38"/>
      </g>
     </g>
    </g>
    <g id="xtick_6">
     <g id="line2d_16">
      <path clip-path="url(#p5e523f567a)" d="
M1252.74 833.397
L1252.74 17.2017" style="fill:none;stroke:#cccccc;stroke-linecap:round;"/>
     </g>
     <g id="line2d_17">
      <g>
       <use style="fill:#262626;stroke:#262626;" x="1252.7396875" xlink:href="#m219da94a98" y="833.3965625"/>
      </g>
     </g>
     <g id="line2d_18">
      <g>
       <use style="fill:#262626;stroke:#262626;" x="1252.7396875" xlink:href="#m219da94a98" y="17.20171875"/>
      </g>
     </g>
     <g id="text_6">
      <!-- 0.0000010 -->
      <defs>
       <path d="
M37.25 0
L28.4688 0
L28.4688 56
Q25.2969 52.9844 20.1406 49.9531
Q14.9844 46.9219 10.8906 45.4062
L10.8906 53.9062
Q18.2656 57.375 23.7812 62.2969
Q29.2969 67.2344 31.5938 71.875
L37.25 71.875
z
" id="ArialMT-31"/>
      </defs>
      <g style="fill:#262626;" transform="translate(1220.279375 850.4175)scale(0.14 -0.14)">
       <use xlink:href="#ArialMT-30"/>
       <use x="55.615234375" xlink:href="#ArialMT-2e"/>
       <use x="83.3984375" xlink:href="#ArialMT-30"/>
       <use x="139.013671875" xlink:href="#ArialMT-30"/>
       <use x="194.62890625" xlink:href="#ArialMT-30"/>
       <use x="250.244140625" xlink:href="#ArialMT-30"/>
       <use x="305.859375" xlink:href="#ArialMT-30"/>
       <use x="361.474609375" xlink:href="#ArialMT-31"/>
       <use x="417.08984375" xlink:href="#ArialMT-30"/>
      </g>
     </g>
    </g>
   </g>
   <g id="matplotlib.axis_2">
    <g id="ytick_1">
     <g id="line2d_19">
      <path clip-path="url(#p5e523f567a)" d="
M62.3178 833.397
L1252.74 833.397" style="fill:none;stroke:#cccccc;stroke-linecap:round;"/>
     </g>
     <g id="line2d_20">
      <g>
       <use style="fill:#262626;stroke:#262626;" x="62.3178125" xlink:href="#m219da94a98" y="833.3965625"/>
      </g>
     </g>
     <g id="line2d_21">
      <g>
       <use style="fill:#262626;stroke:#262626;" x="1252.7396875" xlink:href="#m219da94a98" y="833.3965625"/>
      </g>
     </g>
     <g id="text_7">
      <!-- 0 -->
      <g style="fill:#262626;" transform="translate(48.78375 837.01578125)scale(0.14 -0.14)">
       <use xlink:href="#ArialMT-30"/>
      </g>
     </g>
    </g>
    <g id="ytick_2">
     <g id="line2d_22">
      <path clip-path="url(#p5e523f567a)" d="
M62.3178 697.364
L1252.74 697.364" style="fill:none;stroke:#cccccc;stroke-linecap:round;"/>
     </g>
     <g id="line2d_23">
      <g>
       <use style="fill:#262626;stroke:#262626;" x="62.3178125" xlink:href="#m219da94a98" y="697.364088542"/>
      </g>
     </g>
     <g id="line2d_24">
      <g>
       <use style="fill:#262626;stroke:#262626;" x="1252.7396875" xlink:href="#m219da94a98" y="697.364088542"/>
      </g>
     </g>
     <g id="text_8">
      <!-- 20000 -->
      <g style="fill:#262626;" transform="translate(17.471875 700.983307292)scale(0.14 -0.14)">
       <use xlink:href="#ArialMT-32"/>
       <use x="55.615234375" xlink:href="#ArialMT-30"/>
       <use x="111.23046875" xlink:href="#ArialMT-30"/>
       <use x="166.845703125" xlink:href="#ArialMT-30"/>
       <use x="222.4609375" xlink:href="#ArialMT-30"/>
      </g>
     </g>
    </g>
    <g id="ytick_3">
     <g id="line2d_25">
      <path clip-path="url(#p5e523f567a)" d="
M62.3178 561.332
L1252.74 561.332" style="fill:none;stroke:#cccccc;stroke-linecap:round;"/>
     </g>
     <g id="line2d_26">
      <g>
       <use style="fill:#262626;stroke:#262626;" x="62.3178125" xlink:href="#m219da94a98" y="561.331614583"/>
      </g>
     </g>
     <g id="line2d_27">
      <g>
       <use style="fill:#262626;stroke:#262626;" x="1252.7396875" xlink:href="#m219da94a98" y="561.331614583"/>
      </g>
     </g>
     <g id="text_9">
      <!-- 40000 -->
      <g style="fill:#262626;" transform="translate(17.2378125 564.950833333)scale(0.14 -0.14)">
       <use xlink:href="#ArialMT-34"/>
       <use x="55.615234375" xlink:href="#ArialMT-30"/>
       <use x="111.23046875" xlink:href="#ArialMT-30"/>
       <use x="166.845703125" xlink:href="#ArialMT-30"/>
       <use x="222.4609375" xlink:href="#ArialMT-30"/>
      </g>
     </g>
    </g>
    <g id="ytick_4">
     <g id="line2d_28">
      <path clip-path="url(#p5e523f567a)" d="
M62.3178 425.299
L1252.74 425.299" style="fill:none;stroke:#cccccc;stroke-linecap:round;"/>
     </g>
     <g id="line2d_29">
      <g>
       <use style="fill:#262626;stroke:#262626;" x="62.3178125" xlink:href="#m219da94a98" y="425.299140625"/>
      </g>
     </g>
     <g id="line2d_30">
      <g>
       <use style="fill:#262626;stroke:#262626;" x="1252.7396875" xlink:href="#m219da94a98" y="425.299140625"/>
      </g>
     </g>
     <g id="text_10">
      <!-- 60000 -->
      <g style="fill:#262626;" transform="translate(17.5878125 428.918359375)scale(0.14 -0.14)">
       <use xlink:href="#ArialMT-36"/>
       <use x="55.615234375" xlink:href="#ArialMT-30"/>
       <use x="111.23046875" xlink:href="#ArialMT-30"/>
       <use x="166.845703125" xlink:href="#ArialMT-30"/>
       <use x="222.4609375" xlink:href="#ArialMT-30"/>
      </g>
     </g>
    </g>
    <g id="ytick_5">
     <g id="line2d_31">
      <path clip-path="url(#p5e523f567a)" d="
M62.3178 289.267
L1252.74 289.267" style="fill:none;stroke:#cccccc;stroke-linecap:round;"/>
     </g>
     <g id="line2d_32">
      <g>
       <use style="fill:#262626;stroke:#262626;" x="62.3178125" xlink:href="#m219da94a98" y="289.266666667"/>
      </g>
     </g>
     <g id="line2d_33">
      <g>
       <use style="fill:#262626;stroke:#262626;" x="1252.7396875" xlink:href="#m219da94a98" y="289.266666667"/>
      </g>
     </g>
     <g id="text_11">
      <!-- 80000 -->
      <g style="fill:#262626;" transform="translate(17.6271875 292.885885417)scale(0.14 -0.14)">
       <use xlink:href="#ArialMT-38"/>
       <use x="55.615234375" xlink:href="#ArialMT-30"/>
       <use x="111.23046875" xlink:href="#ArialMT-30"/>
       <use x="166.845703125" xlink:href="#ArialMT-30"/>
       <use x="222.4609375" xlink:href="#ArialMT-30"/>
      </g>
     </g>
    </g>
    <g id="ytick_6">
     <g id="line2d_34">
      <path clip-path="url(#p5e523f567a)" d="
M62.3178 153.234
L1252.74 153.234" style="fill:none;stroke:#cccccc;stroke-linecap:round;"/>
     </g>
     <g id="line2d_35">
      <g>
       <use style="fill:#262626;stroke:#262626;" x="62.3178125" xlink:href="#m219da94a98" y="153.234192708"/>
      </g>
     </g>
     <g id="line2d_36">
      <g>
       <use style="fill:#262626;stroke:#262626;" x="1252.7396875" xlink:href="#m219da94a98" y="153.234192708"/>
      </g>
     </g>
     <g id="text_12">
      <!-- 100000 -->
      <g style="fill:#262626;" transform="translate(10.8 156.853411458)scale(0.14 -0.14)">
       <use xlink:href="#ArialMT-31"/>
       <use x="55.615234375" xlink:href="#ArialMT-30"/>
       <use x="111.23046875" xlink:href="#ArialMT-30"/>
       <use x="166.845703125" xlink:href="#ArialMT-30"/>
       <use x="222.4609375" xlink:href="#ArialMT-30"/>
       <use x="278.076171875" xlink:href="#ArialMT-30"/>
      </g>
     </g>
    </g>
    <g id="ytick_7">
     <g id="line2d_37">
      <path clip-path="url(#p5e523f567a)" d="
M62.3178 17.2017
L1252.74 17.2017" style="fill:none;stroke:#cccccc;stroke-linecap:round;"/>
     </g>
     <g id="line2d_38">
      <g>
       <use style="fill:#262626;stroke:#262626;" x="62.3178125" xlink:href="#m219da94a98" y="17.20171875"/>
      </g>
     </g>
     <g id="line2d_39">
      <g>
       <use style="fill:#262626;stroke:#262626;" x="1252.7396875" xlink:href="#m219da94a98" y="17.20171875"/>
      </g>
     </g>
     <g id="text_13">
      <!-- 120000 -->
      <g style="fill:#262626;" transform="translate(10.8 20.8209375)scale(0.14 -0.14)">
       <use xlink:href="#ArialMT-31"/>
       <use x="55.615234375" xlink:href="#ArialMT-32"/>
       <use x="111.23046875" xlink:href="#ArialMT-30"/>
       <use x="166.845703125" xlink:href="#ArialMT-30"/>
       <use x="222.4609375" xlink:href="#ArialMT-30"/>
       <use x="278.076171875" xlink:href="#ArialMT-30"/>
      </g>
     </g>
    </g>
   </g>
   <g id="patch_3">
    <path clip-path="url(#p5e523f567a)" d="
M62.3178 833.397
L74.222 833.397
L74.222 143.433
L62.3178 143.433
z
" style="fill:#b2cad7;stroke:#000000;stroke-width:0.3;"/>
   </g>
   <g id="patch_4">
    <path clip-path="url(#p5e523f567a)" d="
M74.222 833.397
L86.1263 833.397
L86.1263 829.594
L74.222 829.594
z
" style="fill:#b2cad7;stroke:#000000;stroke-width:0.3;"/>
   </g>
   <g id="patch_5">
    <path clip-path="url(#p5e523f567a)" d="
M86.1262 833.397
L98.0305 833.397
L98.0305 826.024
L86.1262 826.024
z
" style="fill:#b2cad7;stroke:#000000;stroke-width:0.3;"/>
   </g>
   <g id="patch_6">
    <path clip-path="url(#p5e523f567a)" d="
M98.0305 833.397
L109.935 833.397
L109.935 833.397
L98.0305 833.397
z
" style="fill:#b2cad7;stroke:#000000;stroke-width:0.3;"/>
   </g>
   <g id="patch_7">
    <path clip-path="url(#p5e523f567a)" d="
M109.935 833.397
L121.839 833.397
L121.839 830.948
L109.935 830.948
z
" style="fill:#b2cad7;stroke:#000000;stroke-width:0.3;"/>
   </g>
   <g id="patch_8">
    <path clip-path="url(#p5e523f567a)" d="
M121.839 833.397
L133.743 833.397
L133.743 830.193
L121.839 830.193
z
" style="fill:#b2cad7;stroke:#000000;stroke-width:0.3;"/>
   </g>
   <g id="patch_9">
    <path clip-path="url(#p5e523f567a)" d="
M133.743 833.397
L145.647 833.397
L145.647 833.397
L133.743 833.397
z
" style="fill:#b2cad7;stroke:#000000;stroke-width:0.3;"/>
   </g>
   <g id="patch_10">
    <path clip-path="url(#p5e523f567a)" d="
M145.647 833.397
L157.552 833.397
L157.552 832.397
L145.647 832.397
z
" style="fill:#b2cad7;stroke:#000000;stroke-width:0.3;"/>
   </g>
   <g id="patch_11">
    <path clip-path="url(#p5e523f567a)" d="
M157.552 833.397
L169.456 833.397
L169.456 832.281
L157.552 832.281
z
" style="fill:#b2cad7;stroke:#000000;stroke-width:0.3;"/>
   </g>
   <g id="patch_12">
    <path clip-path="url(#p5e523f567a)" d="
M169.456 833.397
L181.36 833.397
L181.36 832.424
L169.456 832.424
z
" style="fill:#b2cad7;stroke:#000000;stroke-width:0.3;"/>
   </g>
   <g id="patch_13">
    <path clip-path="url(#p5e523f567a)" d="
M181.36 833.397
L193.264 833.397
L193.264 829.642
L181.36 829.642
z
" style="fill:#b2cad7;stroke:#000000;stroke-width:0.3;"/>
   </g>
   <g id="patch_14">
    <path clip-path="url(#p5e523f567a)" d="
M193.264 833.397
L205.168 833.397
L205.168 833.397
L193.264 833.397
z
" style="fill:#b2cad7;stroke:#000000;stroke-width:0.3;"/>
   </g>
   <g id="patch_15">
    <path clip-path="url(#p5e523f567a)" d="
M205.168 833.397
L217.073 833.397
L217.073 833.397
L205.168 833.397
z
" style="fill:#b2cad7;stroke:#000000;stroke-width:0.3;"/>
   </g>
   <g id="patch_16">
    <path clip-path="url(#p5e523f567a)" d="
M217.073 833.397
L228.977 833.397
L228.977 833.397
L217.073 833.397
z
" style="fill:#b2cad7;stroke:#000000;stroke-width:0.3;"/>
   </g>
   <g id="patch_17">
    <path clip-path="url(#p5e523f567a)" d="
M228.977 833.397
L240.881 833.397
L240.881 833.397
L228.977 833.397
z
" style="fill:#b2cad7;stroke:#000000;stroke-width:0.3;"/>
   </g>
   <g id="patch_18">
    <path clip-path="url(#p5e523f567a)" d="
M240.881 833.397
L252.785 833.397
L252.785 833.397
L240.881 833.397
z
" style="fill:#b2cad7;stroke:#000000;stroke-width:0.3;"/>
   </g>
   <g id="patch_19">
    <path clip-path="url(#p5e523f567a)" d="
M252.785 833.397
L264.69 833.397
L264.69 833.397
L252.785 833.397
z
" style="fill:#b2cad7;stroke:#000000;stroke-width:0.3;"/>
   </g>
   <g id="patch_20">
    <path clip-path="url(#p5e523f567a)" d="
M264.69 833.397
L276.594 833.397
L276.594 833.397
L264.69 833.397
z
" style="fill:#b2cad7;stroke:#000000;stroke-width:0.3;"/>
   </g>
   <g id="patch_21">
    <path clip-path="url(#p5e523f567a)" d="
M276.594 833.397
L288.498 833.397
L288.498 833.397
L276.594 833.397
z
" style="fill:#b2cad7;stroke:#000000;stroke-width:0.3;"/>
   </g>
   <g id="patch_22">
    <path clip-path="url(#p5e523f567a)" d="
M288.498 833.397
L300.402 833.397
L300.402 833.397
L288.498 833.397
z
" style="fill:#b2cad7;stroke:#000000;stroke-width:0.3;"/>
   </g>
   <g id="patch_23">
    <path clip-path="url(#p5e523f567a)" d="
M300.402 833.397
L312.306 833.397
L312.306 829.751
L300.402 829.751
z
" style="fill:#b2cad7;stroke:#000000;stroke-width:0.3;"/>
   </g>
   <g id="patch_24">
    <path clip-path="url(#p5e523f567a)" d="
M312.306 833.397
L324.211 833.397
L324.211 833.397
L312.306 833.397
z
" style="fill:#b2cad7;stroke:#000000;stroke-width:0.3;"/>
   </g>
   <g id="patch_25">
    <path clip-path="url(#p5e523f567a)" d="
M324.211 833.397
L336.115 833.397
L336.115 833.397
L324.211 833.397
z
" style="fill:#b2cad7;stroke:#000000;stroke-width:0.3;"/>
   </g>
   <g id="patch_26">
    <path clip-path="url(#p5e523f567a)" d="
M336.115 833.397
L348.019 833.397
L348.019 833.397
L336.115 833.397
z
" style="fill:#b2cad7;stroke:#000000;stroke-width:0.3;"/>
   </g>
   <g id="patch_27">
    <path clip-path="url(#p5e523f567a)" d="
M348.019 833.397
L359.923 833.397
L359.923 833.397
L348.019 833.397
z
" style="fill:#b2cad7;stroke:#000000;stroke-width:0.3;"/>
   </g>
   <g id="patch_28">
    <path clip-path="url(#p5e523f567a)" d="
M359.923 833.397
L371.827 833.397
L371.827 833.397
L359.923 833.397
z
" style="fill:#b2cad7;stroke:#000000;stroke-width:0.3;"/>
   </g>
   <g id="patch_29">
    <path clip-path="url(#p5e523f567a)" d="
M371.827 833.397
L383.732 833.397
L383.732 833.397
L371.827 833.397
z
" style="fill:#b2cad7;stroke:#000000;stroke-width:0.3;"/>
   </g>
   <g id="patch_30">
    <path clip-path="url(#p5e523f567a)" d="
M383.732 833.397
L395.636 833.397
L395.636 833.397
L383.732 833.397
z
" style="fill:#b2cad7;stroke:#000000;stroke-width:0.3;"/>
   </g>
   <g id="patch_31">
    <path clip-path="url(#p5e523f567a)" d="
M395.636 833.397
L407.54 833.397
L407.54 833.397
L395.636 833.397
z
" style="fill:#b2cad7;stroke:#000000;stroke-width:0.3;"/>
   </g>
   <g id="patch_32">
    <path clip-path="url(#p5e523f567a)" d="
M407.54 833.397
L419.444 833.397
L419.444 833.397
L407.54 833.397
z
" style="fill:#b2cad7;stroke:#000000;stroke-width:0.3;"/>
   </g>
   <g id="patch_33">
    <path clip-path="url(#p5e523f567a)" d="
M419.444 833.397
L431.349 833.397
L431.349 830.962
L419.444 830.962
z
" style="fill:#b2cad7;stroke:#000000;stroke-width:0.3;"/>
   </g>
   <g id="patch_34">
    <path clip-path="url(#p5e523f567a)" d="
M431.349 833.397
L443.253 833.397
L443.253 833.397
L431.349 833.397
z
" style="fill:#b2cad7;stroke:#000000;stroke-width:0.3;"/>
   </g>
   <g id="patch_35">
    <path clip-path="url(#p5e523f567a)" d="
M443.253 833.397
L455.157 833.397
L455.157 833.397
L443.253 833.397
z
" style="fill:#b2cad7;stroke:#000000;stroke-width:0.3;"/>
   </g>
   <g id="patch_36">
    <path clip-path="url(#p5e523f567a)" d="
M455.157 833.397
L467.061 833.397
L467.061 833.397
L455.157 833.397
z
" style="fill:#b2cad7;stroke:#000000;stroke-width:0.3;"/>
   </g>
   <g id="patch_37">
    <path clip-path="url(#p5e523f567a)" d="
M467.061 833.397
L478.965 833.397
L478.965 833.397
L467.061 833.397
z
" style="fill:#b2cad7;stroke:#000000;stroke-width:0.3;"/>
   </g>
   <g id="patch_38">
    <path clip-path="url(#p5e523f567a)" d="
M478.965 833.397
L490.87 833.397
L490.87 833.397
L478.965 833.397
z
" style="fill:#b2cad7;stroke:#000000;stroke-width:0.3;"/>
   </g>
   <g id="patch_39">
    <path clip-path="url(#p5e523f567a)" d="
M490.87 833.397
L502.774 833.397
L502.774 833.397
L490.87 833.397
z
" style="fill:#b2cad7;stroke:#000000;stroke-width:0.3;"/>
   </g>
   <g id="patch_40">
    <path clip-path="url(#p5e523f567a)" d="
M502.774 833.397
L514.678 833.397
L514.678 833.397
L502.774 833.397
z
" style="fill:#b2cad7;stroke:#000000;stroke-width:0.3;"/>
   </g>
   <g id="patch_41">
    <path clip-path="url(#p5e523f567a)" d="
M514.678 833.397
L526.582 833.397
L526.582 833.397
L514.678 833.397
z
" style="fill:#b2cad7;stroke:#000000;stroke-width:0.3;"/>
   </g>
   <g id="patch_42">
    <path clip-path="url(#p5e523f567a)" d="
M526.582 833.397
L538.487 833.397
L538.487 833.397
L526.582 833.397
z
" style="fill:#b2cad7;stroke:#000000;stroke-width:0.3;"/>
   </g>
   <g id="patch_43">
    <path clip-path="url(#p5e523f567a)" d="
M538.487 833.397
L550.391 833.397
L550.391 831.832
L538.487 831.832
z
" style="fill:#b2cad7;stroke:#000000;stroke-width:0.3;"/>
   </g>
   <g id="patch_44">
    <path clip-path="url(#p5e523f567a)" d="
M550.391 833.397
L562.295 833.397
L562.295 833.397
L550.391 833.397
z
" style="fill:#b2cad7;stroke:#000000;stroke-width:0.3;"/>
   </g>
   <g id="patch_45">
    <path clip-path="url(#p5e523f567a)" d="
M562.295 833.397
L574.199 833.397
L574.199 833.397
L562.295 833.397
z
" style="fill:#b2cad7;stroke:#000000;stroke-width:0.3;"/>
   </g>
   <g id="patch_46">
    <path clip-path="url(#p5e523f567a)" d="
M574.199 833.397
L586.103 833.397
L586.103 833.397
L574.199 833.397
z
" style="fill:#b2cad7;stroke:#000000;stroke-width:0.3;"/>
   </g>
   <g id="patch_47">
    <path clip-path="url(#p5e523f567a)" d="
M586.103 833.397
L598.008 833.397
L598.008 833.397
L586.103 833.397
z
" style="fill:#b2cad7;stroke:#000000;stroke-width:0.3;"/>
   </g>
   <g id="patch_48">
    <path clip-path="url(#p5e523f567a)" d="
M598.008 833.397
L609.912 833.397
L609.912 833.397
L598.008 833.397
z
" style="fill:#b2cad7;stroke:#000000;stroke-width:0.3;"/>
   </g>
   <g id="patch_49">
    <path clip-path="url(#p5e523f567a)" d="
M609.912 833.397
L621.816 833.397
L621.816 833.397
L609.912 833.397
z
" style="fill:#b2cad7;stroke:#000000;stroke-width:0.3;"/>
   </g>
   <g id="patch_50">
    <path clip-path="url(#p5e523f567a)" d="
M621.816 833.397
L633.72 833.397
L633.72 833.397
L621.816 833.397
z
" style="fill:#b2cad7;stroke:#000000;stroke-width:0.3;"/>
   </g>
   <g id="patch_51">
    <path clip-path="url(#p5e523f567a)" d="
M633.72 833.397
L645.625 833.397
L645.625 833.397
L633.72 833.397
z
" style="fill:#b2cad7;stroke:#000000;stroke-width:0.3;"/>
   </g>
   <g id="patch_52">
    <path clip-path="url(#p5e523f567a)" d="
M645.625 833.397
L657.529 833.397
L657.529 833.397
L645.625 833.397
z
" style="fill:#b2cad7;stroke:#000000;stroke-width:0.3;"/>
   </g>
   <g id="patch_53">
    <path clip-path="url(#p5e523f567a)" d="
M657.529 833.397
L669.433 833.397
L669.433 832.152
L657.529 832.152
z
" style="fill:#b2cad7;stroke:#000000;stroke-width:0.3;"/>
   </g>
   <g id="patch_54">
    <path clip-path="url(#p5e523f567a)" d="
M669.433 833.397
L681.337 833.397
L681.337 833.397
L669.433 833.397
z
" style="fill:#b2cad7;stroke:#000000;stroke-width:0.3;"/>
   </g>
   <g id="patch_55">
    <path clip-path="url(#p5e523f567a)" d="
M681.337 833.397
L693.241 833.397
L693.241 833.397
L681.337 833.397
z
" style="fill:#b2cad7;stroke:#000000;stroke-width:0.3;"/>
   </g>
   <g id="patch_56">
    <path clip-path="url(#p5e523f567a)" d="
M693.241 833.397
L705.146 833.397
L705.146 833.397
L693.241 833.397
z
" style="fill:#b2cad7;stroke:#000000;stroke-width:0.3;"/>
   </g>
   <g id="patch_57">
    <path clip-path="url(#p5e523f567a)" d="
M705.146 833.397
L717.05 833.397
L717.05 833.397
L705.146 833.397
z
" style="fill:#b2cad7;stroke:#000000;stroke-width:0.3;"/>
   </g>
   <g id="patch_58">
    <path clip-path="url(#p5e523f567a)" d="
M717.05 833.397
L728.954 833.397
L728.954 833.397
L717.05 833.397
z
" style="fill:#b2cad7;stroke:#000000;stroke-width:0.3;"/>
   </g>
   <g id="patch_59">
    <path clip-path="url(#p5e523f567a)" d="
M728.954 833.397
L740.858 833.397
L740.858 833.397
L728.954 833.397
z
" style="fill:#b2cad7;stroke:#000000;stroke-width:0.3;"/>
   </g>
   <g id="patch_60">
    <path clip-path="url(#p5e523f567a)" d="
M740.858 833.397
L752.763 833.397
L752.763 833.397
L740.858 833.397
z
" style="fill:#b2cad7;stroke:#000000;stroke-width:0.3;"/>
   </g>
   <g id="patch_61">
    <path clip-path="url(#p5e523f567a)" d="
M752.763 833.397
L764.667 833.397
L764.667 833.397
L752.763 833.397
z
" style="fill:#b2cad7;stroke:#000000;stroke-width:0.3;"/>
   </g>
   <g id="patch_62">
    <path clip-path="url(#p5e523f567a)" d="
M764.667 833.397
L776.571 833.397
L776.571 833.397
L764.667 833.397
z
" style="fill:#b2cad7;stroke:#000000;stroke-width:0.3;"/>
   </g>
   <g id="patch_63">
    <path clip-path="url(#p5e523f567a)" d="
M776.571 833.397
L788.475 833.397
L788.475 832.336
L776.571 832.336
z
" style="fill:#b2cad7;stroke:#000000;stroke-width:0.3;"/>
   </g>
   <g id="patch_64">
    <path clip-path="url(#p5e523f567a)" d="
M788.475 833.397
L800.379 833.397
L800.379 833.397
L788.475 833.397
z
" style="fill:#b2cad7;stroke:#000000;stroke-width:0.3;"/>
   </g>
   <g id="patch_65">
    <path clip-path="url(#p5e523f567a)" d="
M800.379 833.397
L812.284 833.397
L812.284 833.397
L800.379 833.397
z
" style="fill:#b2cad7;stroke:#000000;stroke-width:0.3;"/>
   </g>
   <g id="patch_66">
    <path clip-path="url(#p5e523f567a)" d="
M812.284 833.397
L824.188 833.397
L824.188 833.397
L812.284 833.397
z
" style="fill:#b2cad7;stroke:#000000;stroke-width:0.3;"/>
   </g>
   <g id="patch_67">
    <path clip-path="url(#p5e523f567a)" d="
M824.188 833.397
L836.092 833.397
L836.092 833.397
L824.188 833.397
z
" style="fill:#b2cad7;stroke:#000000;stroke-width:0.3;"/>
   </g>
   <g id="patch_68">
    <path clip-path="url(#p5e523f567a)" d="
M836.092 833.397
L847.996 833.397
L847.996 833.397
L836.092 833.397
z
" style="fill:#b2cad7;stroke:#000000;stroke-width:0.3;"/>
   </g>
   <g id="patch_69">
    <path clip-path="url(#p5e523f567a)" d="
M847.996 833.397
L859.9 833.397
L859.9 833.397
L847.996 833.397
z
" style="fill:#b2cad7;stroke:#000000;stroke-width:0.3;"/>
   </g>
   <g id="patch_70">
    <path clip-path="url(#p5e523f567a)" d="
M859.9 833.397
L871.805 833.397
L871.805 833.397
L859.9 833.397
z
" style="fill:#b2cad7;stroke:#000000;stroke-width:0.3;"/>
   </g>
   <g id="patch_71">
    <path clip-path="url(#p5e523f567a)" d="
M871.805 833.397
L883.709 833.397
L883.709 833.397
L871.805 833.397
z
" style="fill:#b2cad7;stroke:#000000;stroke-width:0.3;"/>
   </g>
   <g id="patch_72">
    <path clip-path="url(#p5e523f567a)" d="
M883.709 833.397
L895.613 833.397
L895.613 833.397
L883.709 833.397
z
" style="fill:#b2cad7;stroke:#000000;stroke-width:0.3;"/>
   </g>
   <g id="patch_73">
    <path clip-path="url(#p5e523f567a)" d="
M895.613 833.397
L907.517 833.397
L907.517 832.404
L895.613 832.404
z
" style="fill:#b2cad7;stroke:#000000;stroke-width:0.3;"/>
   </g>
   <g id="patch_74">
    <path clip-path="url(#p5e523f567a)" d="
M907.517 833.397
L919.422 833.397
L919.422 833.397
L907.517 833.397
z
" style="fill:#b2cad7;stroke:#000000;stroke-width:0.3;"/>
   </g>
   <g id="patch_75">
    <path clip-path="url(#p5e523f567a)" d="
M919.422 833.397
L931.326 833.397
L931.326 833.397
L919.422 833.397
z
" style="fill:#b2cad7;stroke:#000000;stroke-width:0.3;"/>
   </g>
   <g id="patch_76">
    <path clip-path="url(#p5e523f567a)" d="
M931.326 833.397
L943.23 833.397
L943.23 833.397
L931.326 833.397
z
" style="fill:#b2cad7;stroke:#000000;stroke-width:0.3;"/>
   </g>
   <g id="patch_77">
    <path clip-path="url(#p5e523f567a)" d="
M943.23 833.397
L955.134 833.397
L955.134 833.397
L943.23 833.397
z
" style="fill:#b2cad7;stroke:#000000;stroke-width:0.3;"/>
   </g>
   <g id="patch_78">
    <path clip-path="url(#p5e523f567a)" d="
M955.134 833.397
L967.038 833.397
L967.038 833.397
L955.134 833.397
z
" style="fill:#b2cad7;stroke:#000000;stroke-width:0.3;"/>
   </g>
   <g id="patch_79">
    <path clip-path="url(#p5e523f567a)" d="
M967.038 833.397
L978.943 833.397
L978.943 833.397
L967.038 833.397
z
" style="fill:#b2cad7;stroke:#000000;stroke-width:0.3;"/>
   </g>
   <g id="patch_80">
    <path clip-path="url(#p5e523f567a)" d="
M978.943 833.397
L990.847 833.397
L990.847 833.397
L978.943 833.397
z
" style="fill:#b2cad7;stroke:#000000;stroke-width:0.3;"/>
   </g>
   <g id="patch_81">
    <path clip-path="url(#p5e523f567a)" d="
M990.847 833.397
L1002.75 833.397
L1002.75 833.397
L990.847 833.397
z
" style="fill:#b2cad7;stroke:#000000;stroke-width:0.3;"/>
   </g>
   <g id="patch_82">
    <path clip-path="url(#p5e523f567a)" d="
M1002.75 833.397
L1014.66 833.397
L1014.66 833.397
L1002.75 833.397
z
" style="fill:#b2cad7;stroke:#000000;stroke-width:0.3;"/>
   </g>
   <g id="patch_83">
    <path clip-path="url(#p5e523f567a)" d="
M1014.66 833.397
L1026.56 833.397
L1026.56 832.703
L1014.66 832.703
z
" style="fill:#b2cad7;stroke:#000000;stroke-width:0.3;"/>
   </g>
   <g id="patch_84">
    <path clip-path="url(#p5e523f567a)" d="
M1026.56 833.397
L1038.46 833.397
L1038.46 833.397
L1026.56 833.397
z
" style="fill:#b2cad7;stroke:#000000;stroke-width:0.3;"/>
   </g>
   <g id="patch_85">
    <path clip-path="url(#p5e523f567a)" d="
M1038.46 833.397
L1050.37 833.397
L1050.37 833.397
L1038.46 833.397
z
" style="fill:#b2cad7;stroke:#000000;stroke-width:0.3;"/>
   </g>
   <g id="patch_86">
    <path clip-path="url(#p5e523f567a)" d="
M1050.37 833.397
L1062.27 833.397
L1062.27 833.397
L1050.37 833.397
z
" style="fill:#b2cad7;stroke:#000000;stroke-width:0.3;"/>
   </g>
   <g id="patch_87">
    <path clip-path="url(#p5e523f567a)" d="
M1062.27 833.397
L1074.18 833.397
L1074.18 833.397
L1062.27 833.397
z
" style="fill:#b2cad7;stroke:#000000;stroke-width:0.3;"/>
   </g>
   <g id="patch_88">
    <path clip-path="url(#p5e523f567a)" d="
M1074.18 833.397
L1086.08 833.397
L1086.08 833.397
L1074.18 833.397
z
" style="fill:#b2cad7;stroke:#000000;stroke-width:0.3;"/>
   </g>
   <g id="patch_89">
    <path clip-path="url(#p5e523f567a)" d="
M1086.08 833.397
L1097.98 833.397
L1097.98 833.397
L1086.08 833.397
z
" style="fill:#b2cad7;stroke:#000000;stroke-width:0.3;"/>
   </g>
   <g id="patch_90">
    <path clip-path="url(#p5e523f567a)" d="
M1097.98 833.397
L1109.89 833.397
L1109.89 833.397
L1097.98 833.397
z
" style="fill:#b2cad7;stroke:#000000;stroke-width:0.3;"/>
   </g>
   <g id="patch_91">
    <path clip-path="url(#p5e523f567a)" d="
M1109.89 833.397
L1121.79 833.397
L1121.79 833.397
L1109.89 833.397
z
" style="fill:#b2cad7;stroke:#000000;stroke-width:0.3;"/>
   </g>
   <g id="patch_92">
    <path clip-path="url(#p5e523f567a)" d="
M1121.79 833.397
L1133.7 833.397
L1133.7 833.397
L1121.79 833.397
z
" style="fill:#b2cad7;stroke:#000000;stroke-width:0.3;"/>
   </g>
   <g id="patch_93">
    <path clip-path="url(#p5e523f567a)" d="
M1133.7 833.397
L1145.6 833.397
L1145.6 832.567
L1133.7 832.567
z
" style="fill:#b2cad7;stroke:#000000;stroke-width:0.3;"/>
   </g>
   <g id="patch_94">
    <path clip-path="url(#p5e523f567a)" d="
M1145.6 833.397
L1157.51 833.397
L1157.51 833.397
L1145.6 833.397
z
" style="fill:#b2cad7;stroke:#000000;stroke-width:0.3;"/>
   </g>
   <g id="patch_95">
    <path clip-path="url(#p5e523f567a)" d="
M1157.51 833.397
L1169.41 833.397
L1169.41 833.397
L1157.51 833.397
z
" style="fill:#b2cad7;stroke:#000000;stroke-width:0.3;"/>
   </g>
   <g id="patch_96">
    <path clip-path="url(#p5e523f567a)" d="
M1169.41 833.397
L1181.31 833.397
L1181.31 833.397
L1169.41 833.397
z
" style="fill:#b2cad7;stroke:#000000;stroke-width:0.3;"/>
   </g>
   <g id="patch_97">
    <path clip-path="url(#p5e523f567a)" d="
M1181.31 833.397
L1193.22 833.397
L1193.22 833.397
L1181.31 833.397
z
" style="fill:#b2cad7;stroke:#000000;stroke-width:0.3;"/>
   </g>
   <g id="patch_98">
    <path clip-path="url(#p5e523f567a)" d="
M1193.22 833.397
L1205.12 833.397
L1205.12 833.397
L1193.22 833.397
z
" style="fill:#b2cad7;stroke:#000000;stroke-width:0.3;"/>
   </g>
   <g id="patch_99">
    <path clip-path="url(#p5e523f567a)" d="
M1205.12 833.397
L1217.03 833.397
L1217.03 833.397
L1205.12 833.397
z
" style="fill:#b2cad7;stroke:#000000;stroke-width:0.3;"/>
   </g>
   <g id="patch_100">
    <path clip-path="url(#p5e523f567a)" d="
M1217.03 833.397
L1228.93 833.397
L1228.93 833.397
L1217.03 833.397
z
" style="fill:#b2cad7;stroke:#000000;stroke-width:0.3;"/>
   </g>
   <g id="patch_101">
    <path clip-path="url(#p5e523f567a)" d="
M1228.93 833.397
L1240.84 833.397
L1240.84 833.397
L1228.93 833.397
z
" style="fill:#b2cad7;stroke:#000000;stroke-width:0.3;"/>
   </g>
   <g id="patch_102">
    <path clip-path="url(#p5e523f567a)" d="
M1240.84 833.397
L1252.74 833.397
L1252.74 833.097
L1240.84 833.097
z
" style="fill:#b2cad7;stroke:#000000;stroke-width:0.3;"/>
   </g>
   <g id="patch_103">
    <path d="
M62.3178 17.2017
L1252.74 17.2017" style="fill:none;stroke:#cccccc;"/>
   </g>
   <g id="patch_104">
    <path d="
M1252.74 833.397
L1252.74 17.2017" style="fill:none;stroke:#cccccc;"/>
   </g>
   <g id="patch_105">
    <path d="
M62.3178 833.397
L1252.74 833.397" style="fill:none;stroke:#cccccc;"/>
   </g>
   <g id="patch_106">
    <path d="
M62.3178 833.397
L62.3178 17.2017" style="fill:none;stroke:#cccccc;"/>
   </g>
  </g>
 </g>
 <defs>
  <clipPath id="p5e523f567a">
   <rect height="816.19484375" width="1190.421875" x="62.3178125" y="17.20171875"/>
  </clipPath>
 </defs>
</svg>
