<?xml version="1.0" encoding="utf-8" standalone="no"?>
<!DOCTYPE svg PUBLIC "-//W3C//DTD SVG 1.1//EN"
  "http://www.w3.org/Graphics/SVG/1.1/DTD/svg11.dtd">
<!-- Created with matplotlib (http://matplotlib.org/) -->
<svg height="864pt" version="1.1" viewBox="0 0 1296 864" width="1296pt" xmlns="http://www.w3.org/2000/svg" xmlns:xlink="http://www.w3.org/1999/xlink">
 <defs>
  <style type="text/css">
*{stroke-linecap:butt;stroke-linejoin:round;}
  </style>
 </defs>
 <g id="figure_1">
  <g id="patch_1">
   <path d="
M0 864
L1296 864
L1296 0
L0 0
z
" style="fill:#ffffff;"/>
  </g>
  <g id="axes_1">
   <g id="patch_2">
    <path d="
M55.88 769.605
L1285.2 769.605
L1285.2 32.9787
L55.88 32.9787
z
" style="fill:#ffffff;"/>
   </g>
   <g id="matplotlib.axis_1">
    <g id="xtick_1">
     <g id="line2d_1">
      <path clip-path="url(#pffd6b2215b)" d="
M103.162 769.605
L103.162 32.9787" style="fill:none;stroke:#cccccc;stroke-linecap:round;"/>
     </g>
     <g id="line2d_2">
      <defs>
       <path d="
M0 0
L0 0" id="m219da94a98" style="stroke:#262626;"/>
      </defs>
      <g>
       <use style="fill:#262626;stroke:#262626;" x="103.161538462" xlink:href="#m219da94a98" y="769.605"/>
      </g>
     </g>
     <g id="line2d_3">
      <g>
       <use style="fill:#262626;stroke:#262626;" x="103.161538462" xlink:href="#m219da94a98" y="32.97875"/>
      </g>
     </g>
     <g id="text_1">
      <!-- liver -->
      <defs>
       <path d="
M6.39062 0
L6.39062 71.5781
L15.1875 71.5781
L15.1875 0
z
" id="ArialMT-6c"/>
       <path d="
M6.64062 61.4688
L6.64062 71.5781
L15.4375 71.5781
L15.4375 61.4688
z

M6.64062 0
L6.64062 51.8594
L15.4375 51.8594
L15.4375 0
z
" id="ArialMT-69"/>
       <path d="
M21 0
L1.26562 51.8594
L10.5469 51.8594
L21.6875 20.7969
Q23.4844 15.7656 25 10.3594
Q26.1719 14.4531 28.2656 20.2188
L39.7969 51.8594
L48.8281 51.8594
L29.2031 0
z
" id="ArialMT-76"/>
       <path d="
M42.0938 16.7031
L51.1719 15.5781
Q49.0312 7.625 43.2188 3.21875
Q37.4062 -1.17188 28.375 -1.17188
Q17 -1.17188 10.3281 5.82812
Q3.65625 12.8438 3.65625 25.4844
Q3.65625 38.5781 10.3906 45.7969
Q17.1406 53.0312 27.875 53.0312
Q38.2812 53.0312 44.875 45.9531
Q51.4688 38.875 51.4688 26.0312
Q51.4688 25.25 51.4219 23.6875
L12.75 23.6875
Q13.2344 15.1406 17.5781 10.5938
Q21.9219 6.0625 28.4219 6.0625
Q33.25 6.0625 36.6719 8.59375
Q40.0938 11.1406 42.0938 16.7031
M13.2344 30.9062
L42.1875 30.9062
Q41.6094 37.4531 38.875 40.7188
Q34.6719 45.7969 27.9844 45.7969
Q21.9219 45.7969 17.7969 41.75
Q13.6719 37.7031 13.2344 30.9062" id="ArialMT-65"/>
       <path d="
M6.5 0
L6.5 51.8594
L14.4062 51.8594
L14.4062 44
Q17.4375 49.5156 20 51.2656
Q22.5625 53.0312 25.6406 53.0312
Q30.0781 53.0312 34.6719 50.2031
L31.6406 42.0469
Q28.4219 43.9531 25.2031 43.9531
Q22.3125 43.9531 20.0156 42.2188
Q17.7188 40.4844 16.75 37.4062
Q15.2812 32.7188 15.2812 27.1562
L15.2812 0
z
" id="ArialMT-72"/>
      </defs>
      <g style="fill:#262626;" transform="translate(107.297788462 805.1375)rotate(-90.0)scale(0.16 -0.16)">
       <use xlink:href="#ArialMT-6c"/>
       <use x="22.216796875" xlink:href="#ArialMT-69"/>
       <use x="44.43359375" xlink:href="#ArialMT-76"/>
       <use x="94.43359375" xlink:href="#ArialMT-65"/>
       <use x="150.048828125" xlink:href="#ArialMT-72"/>
      </g>
     </g>
    </g>
    <g id="xtick_2">
     <g id="line2d_4">
      <path clip-path="url(#pffd6b2215b)" d="
M178.812 769.605
L178.812 32.9787" style="fill:none;stroke:#cccccc;stroke-linecap:round;"/>
     </g>
     <g id="line2d_5">
      <g>
       <use style="fill:#262626;stroke:#262626;" x="178.812" xlink:href="#m219da94a98" y="769.605"/>
      </g>
     </g>
     <g id="line2d_6">
      <g>
       <use style="fill:#262626;stroke:#262626;" x="178.812" xlink:href="#m219da94a98" y="32.97875"/>
      </g>
     </g>
     <g id="text_2">
      <!-- kidney -->
      <defs>
       <path d="
M6.64062 0
L6.64062 71.5781
L15.4375 71.5781
L15.4375 30.7656
L36.2344 51.8594
L47.6094 51.8594
L27.7812 32.625
L49.6094 0
L38.7656 0
L21.625 26.5156
L15.4375 20.5625
L15.4375 0
z
" id="ArialMT-6b"/>
       <path d="
M6.20312 -19.9688
L5.21875 -11.7188
Q8.10938 -12.5 10.25 -12.5
Q13.1875 -12.5 14.9375 -11.5156
Q16.7031 -10.5469 17.8281 -8.79688
Q18.6562 -7.46875 20.5156 -2.25
Q20.75 -1.51562 21.2969 -0.09375
L1.60938 51.8594
L11.0781 51.8594
L21.875 21.8281
Q23.9688 16.1094 25.6406 9.8125
Q27.1562 15.875 29.25 21.625
L40.3281 51.8594
L49.125 51.8594
L29.3906 -0.875
Q26.2188 -9.42188 24.4688 -12.6406
Q22.125 -17 19.0938 -19.0156
Q16.0625 -21.0469 11.8594 -21.0469
Q9.32812 -21.0469 6.20312 -19.9688" id="ArialMT-79"/>
       <path d="
M6.59375 0
L6.59375 51.8594
L14.5 51.8594
L14.5 44.4844
Q20.2188 53.0312 31 53.0312
Q35.6875 53.0312 39.625 51.3438
Q43.5625 49.6562 45.5156 46.9219
Q47.4688 44.1875 48.25 40.4375
Q48.7344 37.9844 48.7344 31.8906
L48.7344 0
L39.9375 0
L39.9375 31.5469
Q39.9375 36.9219 38.9062 39.5781
Q37.8906 42.2344 35.2812 43.8125
Q32.6719 45.4062 29.1562 45.4062
Q23.5312 45.4062 19.4531 41.8438
Q15.375 38.2812 15.375 28.3281
L15.375 0
z
" id="ArialMT-6e"/>
       <path d="
M40.2344 0
L40.2344 6.54688
Q35.2969 -1.17188 25.7344 -1.17188
Q19.5312 -1.17188 14.3281 2.25
Q9.125 5.67188 6.26562 11.7969
Q3.42188 17.9219 3.42188 25.875
Q3.42188 33.6406 6 39.9688
Q8.59375 46.2969 13.7656 49.6562
Q18.9531 53.0312 25.3438 53.0312
Q30.0312 53.0312 33.6875 51.0469
Q37.3594 49.0781 39.6562 45.9062
L39.6562 71.5781
L48.3906 71.5781
L48.3906 0
z

M12.4531 25.875
Q12.4531 15.9219 16.6406 10.9844
Q20.8438 6.0625 26.5625 6.0625
Q32.3281 6.0625 36.3438 10.7656
Q40.375 15.4844 40.375 25.1406
Q40.375 35.7969 36.2656 40.7656
Q32.1719 45.75 26.1719 45.75
Q20.3125 45.75 16.375 40.9688
Q12.4531 36.1875 12.4531 25.875" id="ArialMT-64"/>
      </defs>
      <g style="fill:#262626;" transform="translate(182.8545 821.65)rotate(-90.0)scale(0.16 -0.16)">
       <use xlink:href="#ArialMT-6b"/>
       <use x="50.0" xlink:href="#ArialMT-69"/>
       <use x="72.216796875" xlink:href="#ArialMT-64"/>
       <use x="127.83203125" xlink:href="#ArialMT-6e"/>
       <use x="183.447265625" xlink:href="#ArialMT-65"/>
       <use x="239.0625" xlink:href="#ArialMT-79"/>
      </g>
     </g>
    </g>
    <g id="xtick_3">
     <g id="line2d_7">
      <path clip-path="url(#pffd6b2215b)" d="
M254.462 769.605
L254.462 32.9787" style="fill:none;stroke:#cccccc;stroke-linecap:round;"/>
     </g>
     <g id="line2d_8">
      <g>
       <use style="fill:#262626;stroke:#262626;" x="254.462461538" xlink:href="#m219da94a98" y="769.605"/>
      </g>
     </g>
     <g id="line2d_9">
      <g>
       <use style="fill:#262626;stroke:#262626;" x="254.462461538" xlink:href="#m219da94a98" y="32.97875"/>
      </g>
     </g>
     <g id="text_3">
      <!-- brain -->
      <defs>
       <path d="
M14.7031 0
L6.54688 0
L6.54688 71.5781
L15.3281 71.5781
L15.3281 46.0469
Q20.9062 53.0312 29.5469 53.0312
Q34.3281 53.0312 38.5938 51.0938
Q42.875 49.1719 45.625 45.6719
Q48.3906 42.1875 49.9531 37.25
Q51.5156 32.3281 51.5156 26.7031
Q51.5156 13.375 44.9219 6.09375
Q38.3281 -1.17188 29.1094 -1.17188
Q19.9219 -1.17188 14.7031 6.5
z

M14.5938 26.3125
Q14.5938 17 17.1406 12.8438
Q21.2969 6.0625 28.375 6.0625
Q34.125 6.0625 38.3281 11.0625
Q42.5312 16.0625 42.5312 25.9844
Q42.5312 36.1406 38.5 40.9688
Q34.4688 45.7969 28.7656 45.7969
Q23 45.7969 18.7969 40.7969
Q14.5938 35.7969 14.5938 26.3125" id="ArialMT-62"/>
       <path d="
M40.4375 6.39062
Q35.5469 2.25 31.0312 0.53125
Q26.5156 -1.17188 21.3438 -1.17188
Q12.7969 -1.17188 8.20312 3
Q3.60938 7.17188 3.60938 13.6719
Q3.60938 17.4844 5.34375 20.625
Q7.07812 23.7812 9.89062 25.6875
Q12.7031 27.5938 16.2188 28.5625
Q18.7969 29.25 24.0312 29.8906
Q34.6719 31.1562 39.7031 32.9062
Q39.75 34.7188 39.75 35.2031
Q39.75 40.5781 37.25 42.7812
Q33.8906 45.75 27.25 45.75
Q21.0469 45.75 18.0938 43.5781
Q15.1406 41.4062 13.7188 35.8906
L5.125 37.0625
Q6.29688 42.5781 8.98438 45.9688
Q11.6719 49.3594 16.75 51.1875
Q21.8281 53.0312 28.5156 53.0312
Q35.1562 53.0312 39.2969 51.4688
Q43.4531 49.9062 45.4062 47.5312
Q47.3594 45.1719 48.1406 41.5469
Q48.5781 39.3125 48.5781 33.4531
L48.5781 21.7344
Q48.5781 9.46875 49.1406 6.21875
Q49.7031 2.98438 51.375 0
L42.1875 0
Q40.8281 2.73438 40.4375 6.39062
M39.7031 26.0312
Q34.9062 24.0781 25.3438 22.7031
Q19.9219 21.9219 17.6719 20.9375
Q15.4375 19.9688 14.2031 18.0938
Q12.9844 16.2188 12.9844 13.9219
Q12.9844 10.4062 15.6406 8.0625
Q18.3125 5.71875 23.4375 5.71875
Q28.5156 5.71875 32.4688 7.9375
Q36.4219 10.1562 38.2812 14.0156
Q39.7031 17 39.7031 22.7969
z
" id="ArialMT-61"/>
      </defs>
      <g style="fill:#262626;" transform="translate(258.598711538 810.0325)rotate(-90.0)scale(0.16 -0.16)">
       <use xlink:href="#ArialMT-62"/>
       <use x="55.615234375" xlink:href="#ArialMT-72"/>
       <use x="88.916015625" xlink:href="#ArialMT-61"/>
       <use x="144.53125" xlink:href="#ArialMT-69"/>
       <use x="166.748046875" xlink:href="#ArialMT-6e"/>
      </g>
     </g>
    </g>
    <g id="xtick_4">
     <g id="line2d_10">
      <path clip-path="url(#pffd6b2215b)" d="
M330.113 769.605
L330.113 32.9787" style="fill:none;stroke:#cccccc;stroke-linecap:round;"/>
     </g>
     <g id="line2d_11">
      <g>
       <use style="fill:#262626;stroke:#262626;" x="330.112923077" xlink:href="#m219da94a98" y="769.605"/>
      </g>
     </g>
     <g id="line2d_12">
      <g>
       <use style="fill:#262626;stroke:#262626;" x="330.112923077" xlink:href="#m219da94a98" y="32.97875"/>
      </g>
     </g>
     <g id="text_4">
      <!-- gill -->
      <defs>
       <path d="
M4.98438 -4.29688
L13.5312 -5.5625
Q14.0625 -9.51562 16.5 -11.3281
Q19.7812 -13.7656 25.4375 -13.7656
Q31.5469 -13.7656 34.8594 -11.3281
Q38.1875 -8.89062 39.3594 -4.5
Q40.0469 -1.8125 39.9844 6.78125
Q34.2344 0 25.6406 0
Q14.9375 0 9.07812 7.71875
Q3.21875 15.4375 3.21875 26.2188
Q3.21875 33.6406 5.90625 39.9062
Q8.59375 46.1875 13.6875 49.6094
Q18.7969 53.0312 25.6875 53.0312
Q34.8594 53.0312 40.8281 45.6094
L40.8281 51.8594
L48.9219 51.8594
L48.9219 7.03125
Q48.9219 -5.07812 46.4531 -10.125
Q44 -15.1875 38.6406 -18.1094
Q33.2969 -21.0469 25.4844 -21.0469
Q16.2188 -21.0469 10.5 -16.875
Q4.78125 -12.7031 4.98438 -4.29688
M12.25 26.8594
Q12.25 16.6562 16.2969 11.9688
Q20.3594 7.28125 26.4688 7.28125
Q32.5156 7.28125 36.6094 11.9375
Q40.7188 16.6094 40.7188 26.5625
Q40.7188 36.0781 36.5 40.9062
Q32.2812 45.75 26.3125 45.75
Q20.4531 45.75 16.3438 40.9844
Q12.25 36.2344 12.25 26.8594" id="ArialMT-67"/>
      </defs>
      <g style="fill:#262626;" transform="translate(334.155423077 794.5275)rotate(-90.0)scale(0.16 -0.16)">
       <use xlink:href="#ArialMT-67"/>
       <use x="55.615234375" xlink:href="#ArialMT-69"/>
       <use x="77.83203125" xlink:href="#ArialMT-6c"/>
       <use x="100.048828125" xlink:href="#ArialMT-6c"/>
      </g>
     </g>
    </g>
    <g id="xtick_5">
     <g id="line2d_13">
      <path clip-path="url(#pffd6b2215b)" d="
M405.763 769.605
L405.763 32.9787" style="fill:none;stroke:#cccccc;stroke-linecap:round;"/>
     </g>
     <g id="line2d_14">
      <g>
       <use style="fill:#262626;stroke:#262626;" x="405.763384615" xlink:href="#m219da94a98" y="769.605"/>
      </g>
     </g>
     <g id="line2d_15">
      <g>
       <use style="fill:#262626;stroke:#262626;" x="405.763384615" xlink:href="#m219da94a98" y="32.97875"/>
      </g>
     </g>
     <g id="text_5">
      <!-- intest -->
      <defs>
       <path d="
M25.7812 7.85938
L27.0469 0.09375
Q23.3438 -0.6875 20.4062 -0.6875
Q15.625 -0.6875 12.9844 0.828125
Q10.3594 2.34375 9.28125 4.8125
Q8.20312 7.28125 8.20312 15.1875
L8.20312 45.0156
L1.76562 45.0156
L1.76562 51.8594
L8.20312 51.8594
L8.20312 64.7031
L16.9375 69.9688
L16.9375 51.8594
L25.7812 51.8594
L25.7812 45.0156
L16.9375 45.0156
L16.9375 14.7031
Q16.9375 10.9375 17.4062 9.85938
Q17.875 8.79688 18.9219 8.15625
Q19.9688 7.51562 21.9219 7.51562
Q23.3906 7.51562 25.7812 7.85938" id="ArialMT-74"/>
       <path d="
M3.07812 15.4844
L11.7656 16.8438
Q12.5 11.625 15.8438 8.84375
Q19.1875 6.0625 25.2031 6.0625
Q31.25 6.0625 34.1719 8.51562
Q37.1094 10.9844 37.1094 14.3125
Q37.1094 17.2812 34.5156 19
Q32.7188 20.1719 25.5312 21.9688
Q15.875 24.4219 12.1406 26.2031
Q8.40625 27.9844 6.46875 31.125
Q4.54688 34.2812 4.54688 38.0938
Q4.54688 41.5469 6.125 44.5
Q7.71875 47.4688 10.4531 49.4219
Q12.5 50.9219 16.0312 51.9688
Q19.5781 53.0312 23.6406 53.0312
Q29.7344 53.0312 34.3438 51.2656
Q38.9688 49.5156 41.1562 46.5
Q43.3594 43.5 44.1875 38.4844
L35.5938 37.3125
Q35.0156 41.3125 32.2031 43.5469
Q29.3906 45.7969 24.2656 45.7969
Q18.2188 45.7969 15.625 43.7969
Q13.0312 41.7969 13.0312 39.1094
Q13.0312 37.4062 14.1094 36.0312
Q15.1875 34.625 17.4844 33.6875
Q18.7969 33.2031 25.25 31.4531
Q34.5781 28.9531 38.25 27.3594
Q41.9375 25.7812 44.0312 22.75
Q46.1406 19.7344 46.1406 15.2344
Q46.1406 10.8438 43.5781 6.95312
Q41.0156 3.07812 36.1719 0.953125
Q31.3438 -1.17188 25.25 -1.17188
Q15.1406 -1.17188 9.84375 3.03125
Q4.54688 7.23438 3.07812 15.4844" id="ArialMT-73"/>
      </defs>
      <g style="fill:#262626;" transform="translate(409.899634615 813.665)rotate(-90.0)scale(0.16 -0.16)">
       <use xlink:href="#ArialMT-69"/>
       <use x="22.216796875" xlink:href="#ArialMT-6e"/>
       <use x="77.83203125" xlink:href="#ArialMT-74"/>
       <use x="105.615234375" xlink:href="#ArialMT-65"/>
       <use x="161.23046875" xlink:href="#ArialMT-73"/>
       <use x="211.23046875" xlink:href="#ArialMT-74"/>
      </g>
     </g>
    </g>
    <g id="xtick_6">
     <g id="line2d_16">
      <path clip-path="url(#pffd6b2215b)" d="
M481.414 769.605
L481.414 32.9787" style="fill:none;stroke:#cccccc;stroke-linecap:round;"/>
     </g>
     <g id="line2d_17">
      <g>
       <use style="fill:#262626;stroke:#262626;" x="481.413846154" xlink:href="#m219da94a98" y="769.605"/>
      </g>
     </g>
     <g id="line2d_18">
      <g>
       <use style="fill:#262626;stroke:#262626;" x="481.413846154" xlink:href="#m219da94a98" y="32.97875"/>
      </g>
     </g>
     <g id="text_6">
      <!-- embryo -->
      <defs>
       <path d="
M3.32812 25.9219
Q3.32812 40.3281 11.3281 47.2656
Q18.0156 53.0312 27.6406 53.0312
Q38.3281 53.0312 45.1094 46.0156
Q51.9062 39.0156 51.9062 26.6562
Q51.9062 16.6562 48.9062 10.9062
Q45.9062 5.17188 40.1562 2
Q34.4219 -1.17188 27.6406 -1.17188
Q16.75 -1.17188 10.0312 5.8125
Q3.32812 12.7969 3.32812 25.9219
M12.3594 25.9219
Q12.3594 15.9688 16.7031 11.0156
Q21.0469 6.0625 27.6406 6.0625
Q34.1875 6.0625 38.5312 11.0312
Q42.875 16.0156 42.875 26.2188
Q42.875 35.8438 38.5 40.7969
Q34.125 45.75 27.6406 45.75
Q21.0469 45.75 16.7031 40.8125
Q12.3594 35.8906 12.3594 25.9219" id="ArialMT-6f"/>
       <path d="
M6.59375 0
L6.59375 51.8594
L14.4531 51.8594
L14.4531 44.5781
Q16.8906 48.3906 20.9375 50.7031
Q25 53.0312 30.1719 53.0312
Q35.9375 53.0312 39.625 50.6406
Q43.3125 48.25 44.8281 43.9531
Q50.9844 53.0312 60.8438 53.0312
Q68.5625 53.0312 72.7031 48.75
Q76.8594 44.4844 76.8594 35.5938
L76.8594 0
L68.1094 0
L68.1094 32.6719
Q68.1094 37.9375 67.25 40.25
Q66.4062 42.5781 64.1562 43.9844
Q61.9219 45.4062 58.8906 45.4062
Q53.4219 45.4062 49.7969 41.7656
Q46.1875 38.1406 46.1875 30.125
L46.1875 0
L37.4062 0
L37.4062 33.6875
Q37.4062 39.5469 35.25 42.4688
Q33.1094 45.4062 28.2188 45.4062
Q24.5156 45.4062 21.3594 43.4531
Q18.2188 41.5 16.7969 37.7344
Q15.375 33.9844 15.375 26.9062
L15.375 0
z
" id="ArialMT-6d"/>
      </defs>
      <g style="fill:#262626;" transform="translate(485.456346154 828.775)rotate(-90.0)scale(0.16 -0.16)">
       <use xlink:href="#ArialMT-65"/>
       <use x="55.615234375" xlink:href="#ArialMT-6d"/>
       <use x="138.916015625" xlink:href="#ArialMT-62"/>
       <use x="194.53125" xlink:href="#ArialMT-72"/>
       <use x="227.83203125" xlink:href="#ArialMT-79"/>
       <use x="277.83203125" xlink:href="#ArialMT-6f"/>
      </g>
     </g>
    </g>
    <g id="xtick_7">
     <g id="line2d_19">
      <path clip-path="url(#pffd6b2215b)" d="
M557.064 769.605
L557.064 32.9787" style="fill:none;stroke:#cccccc;stroke-linecap:round;"/>
     </g>
     <g id="line2d_20">
      <g>
       <use style="fill:#262626;stroke:#262626;" x="557.064307692" xlink:href="#m219da94a98" y="769.605"/>
      </g>
     </g>
     <g id="line2d_21">
      <g>
       <use style="fill:#262626;stroke:#262626;" x="557.064307692" xlink:href="#m219da94a98" y="32.97875"/>
      </g>
     </g>
     <g id="text_7">
      <!-- spinal -->
      <defs>
       <path d="
M6.59375 -19.875
L6.59375 51.8594
L14.5938 51.8594
L14.5938 45.125
Q17.4375 49.0781 21 51.0469
Q24.5625 53.0312 29.6406 53.0312
Q36.2812 53.0312 41.3594 49.6094
Q46.4375 46.1875 49.0156 39.9531
Q51.6094 33.7344 51.6094 26.3125
Q51.6094 18.3594 48.75 11.9844
Q45.9062 5.60938 40.4531 2.21875
Q35.0156 -1.17188 29 -1.17188
Q24.6094 -1.17188 21.1094 0.6875
Q17.625 2.54688 15.375 5.375
L15.375 -19.875
z

M14.5469 25.6406
Q14.5469 15.625 18.5938 10.8438
Q22.6562 6.0625 28.4219 6.0625
Q34.2812 6.0625 38.4531 11.0156
Q42.625 15.9688 42.625 26.375
Q42.625 36.2812 38.5469 41.2031
Q34.4688 46.1406 28.8125 46.1406
Q23.1875 46.1406 18.8594 40.8906
Q14.5469 35.6406 14.5469 25.6406" id="ArialMT-70"/>
      </defs>
      <g style="fill:#262626;" transform="translate(561.200557692 816.79)rotate(-90.0)scale(0.16 -0.16)">
       <use xlink:href="#ArialMT-73"/>
       <use x="50.0" xlink:href="#ArialMT-70"/>
       <use x="105.615234375" xlink:href="#ArialMT-69"/>
       <use x="127.83203125" xlink:href="#ArialMT-6e"/>
       <use x="183.447265625" xlink:href="#ArialMT-61"/>
       <use x="239.0625" xlink:href="#ArialMT-6c"/>
      </g>
     </g>
    </g>
    <g id="xtick_8">
     <g id="line2d_22">
      <path clip-path="url(#pffd6b2215b)" d="
M632.715 769.605
L632.715 32.9787" style="fill:none;stroke:#cccccc;stroke-linecap:round;"/>
     </g>
     <g id="line2d_23">
      <g>
       <use style="fill:#262626;stroke:#262626;" x="632.714769231" xlink:href="#m219da94a98" y="769.605"/>
      </g>
     </g>
     <g id="line2d_24">
      <g>
       <use style="fill:#262626;stroke:#262626;" x="632.714769231" xlink:href="#m219da94a98" y="32.97875"/>
      </g>
     </g>
     <g id="text_8">
      <!-- eye -->
      <g style="fill:#262626;" transform="translate(636.663519231 801.1525)rotate(-90.0)scale(0.16 -0.16)">
       <use xlink:href="#ArialMT-65"/>
       <use x="55.615234375" xlink:href="#ArialMT-79"/>
       <use x="105.615234375" xlink:href="#ArialMT-65"/>
      </g>
     </g>
    </g>
    <g id="xtick_9">
     <g id="line2d_25">
      <path clip-path="url(#pffd6b2215b)" d="
M708.365 769.605
L708.365 32.9787" style="fill:none;stroke:#cccccc;stroke-linecap:round;"/>
     </g>
     <g id="line2d_26">
      <g>
       <use style="fill:#262626;stroke:#262626;" x="708.365230769" xlink:href="#m219da94a98" y="769.605"/>
      </g>
     </g>
     <g id="line2d_27">
      <g>
       <use style="fill:#262626;stroke:#262626;" x="708.365230769" xlink:href="#m219da94a98" y="32.97875"/>
      </g>
     </g>
     <g id="text_9">
      <!-- headskin -->
      <defs>
       <path d="
M6.59375 0
L6.59375 71.5781
L15.375 71.5781
L15.375 45.9062
Q21.5312 53.0312 30.9062 53.0312
Q36.6719 53.0312 40.9219 50.75
Q45.1719 48.4844 47 44.4844
Q48.8281 40.4844 48.8281 32.8594
L48.8281 0
L40.0469 0
L40.0469 32.8594
Q40.0469 39.4531 37.1875 42.4531
Q34.3281 45.4531 29.1094 45.4531
Q25.2031 45.4531 21.75 43.4219
Q18.3125 41.4062 16.8438 37.9375
Q15.375 34.4688 15.375 28.375
L15.375 0
z
" id="ArialMT-68"/>
      </defs>
      <g style="fill:#262626;" transform="translate(712.501480769 838.4925)rotate(-90.0)scale(0.16 -0.16)">
       <use xlink:href="#ArialMT-68"/>
       <use x="55.615234375" xlink:href="#ArialMT-65"/>
       <use x="111.23046875" xlink:href="#ArialMT-61"/>
       <use x="166.845703125" xlink:href="#ArialMT-64"/>
       <use x="222.4609375" xlink:href="#ArialMT-73"/>
       <use x="272.4609375" xlink:href="#ArialMT-6b"/>
       <use x="322.4609375" xlink:href="#ArialMT-69"/>
       <use x="344.677734375" xlink:href="#ArialMT-6e"/>
      </g>
     </g>
    </g>
    <g id="xtick_10">
     <g id="line2d_28">
      <path clip-path="url(#pffd6b2215b)" d="
M784.016 769.605
L784.016 32.9787" style="fill:none;stroke:#cccccc;stroke-linecap:round;"/>
     </g>
     <g id="line2d_29">
      <g>
       <use style="fill:#262626;stroke:#262626;" x="784.015692308" xlink:href="#m219da94a98" y="769.605"/>
      </g>
     </g>
     <g id="line2d_30">
      <g>
       <use style="fill:#262626;stroke:#262626;" x="784.015692308" xlink:href="#m219da94a98" y="32.97875"/>
      </g>
     </g>
     <g id="text_10">
      <!-- rope -->
      <g style="fill:#262626;" transform="translate(788.151942308 806.9225)rotate(-90.0)scale(0.16 -0.16)">
       <use xlink:href="#ArialMT-72"/>
       <use x="33.30078125" xlink:href="#ArialMT-6f"/>
       <use x="88.916015625" xlink:href="#ArialMT-70"/>
       <use x="144.53125" xlink:href="#ArialMT-65"/>
      </g>
     </g>
    </g>
    <g id="xtick_11">
     <g id="line2d_31">
      <path clip-path="url(#pffd6b2215b)" d="
M859.666 769.605
L859.666 32.9787" style="fill:none;stroke:#cccccc;stroke-linecap:round;"/>
     </g>
     <g id="line2d_32">
      <g>
       <use style="fill:#262626;stroke:#262626;" x="859.666153846" xlink:href="#m219da94a98" y="769.605"/>
      </g>
     </g>
     <g id="line2d_33">
      <g>
       <use style="fill:#262626;stroke:#262626;" x="859.666153846" xlink:href="#m219da94a98" y="32.97875"/>
      </g>
     </g>
     <g id="text_11">
      <!-- tailskin -->
      <g style="fill:#262626;" transform="translate(863.802403846 824.1275)rotate(-90.0)scale(0.16 -0.16)">
       <use xlink:href="#ArialMT-74"/>
       <use x="27.783203125" xlink:href="#ArialMT-61"/>
       <use x="83.3984375" xlink:href="#ArialMT-69"/>
       <use x="105.615234375" xlink:href="#ArialMT-6c"/>
       <use x="127.83203125" xlink:href="#ArialMT-73"/>
       <use x="177.83203125" xlink:href="#ArialMT-6b"/>
       <use x="227.83203125" xlink:href="#ArialMT-69"/>
       <use x="250.048828125" xlink:href="#ArialMT-6e"/>
      </g>
     </g>
    </g>
    <g id="xtick_12">
     <g id="line2d_34">
      <path clip-path="url(#pffd6b2215b)" d="
M935.317 769.605
L935.317 32.9787" style="fill:none;stroke:#cccccc;stroke-linecap:round;"/>
     </g>
     <g id="line2d_35">
      <g>
       <use style="fill:#262626;stroke:#262626;" x="935.316615385" xlink:href="#m219da94a98" y="769.605"/>
      </g>
     </g>
     <g id="line2d_36">
      <g>
       <use style="fill:#262626;stroke:#262626;" x="935.316615385" xlink:href="#m219da94a98" y="32.97875"/>
      </g>
     </g>
     <g id="text_12">
      <!-- muscle -->
      <defs>
       <path d="
M40.4375 19
L49.0781 17.875
Q47.6562 8.9375 41.8125 3.875
Q35.9844 -1.17188 27.4844 -1.17188
Q16.8438 -1.17188 10.375 5.78125
Q3.90625 12.75 3.90625 25.7344
Q3.90625 34.125 6.6875 40.4219
Q9.46875 46.7344 15.1562 49.875
Q20.8438 53.0312 27.5469 53.0312
Q35.9844 53.0312 41.3594 48.75
Q46.7344 44.4844 48.25 36.625
L39.7031 35.2969
Q38.4844 40.5312 35.375 43.1562
Q32.2812 45.7969 27.875 45.7969
Q21.2344 45.7969 17.0781 41.0312
Q12.9375 36.2812 12.9375 25.9844
Q12.9375 15.5312 16.9375 10.7969
Q20.9531 6.0625 27.3906 6.0625
Q32.5625 6.0625 36.0312 9.23438
Q39.5 12.4062 40.4375 19" id="ArialMT-63"/>
       <path d="
M40.5781 0
L40.5781 7.625
Q34.5156 -1.17188 24.125 -1.17188
Q19.5312 -1.17188 15.5469 0.578125
Q11.5781 2.34375 9.64062 5
Q7.71875 7.67188 6.9375 11.5312
Q6.39062 14.1094 6.39062 19.7344
L6.39062 51.8594
L15.1875 51.8594
L15.1875 23.0938
Q15.1875 16.2188 15.7188 13.8125
Q16.5469 10.3594 19.2344 8.375
Q21.9219 6.39062 25.875 6.39062
Q29.8281 6.39062 33.2969 8.42188
Q36.7656 10.4531 38.2031 13.9375
Q39.6562 17.4375 39.6562 24.0781
L39.6562 51.8594
L48.4375 51.8594
L48.4375 0
z
" id="ArialMT-75"/>
      </defs>
      <g style="fill:#262626;" transform="translate(939.452865385 825.565)rotate(-90.0)scale(0.16 -0.16)">
       <use xlink:href="#ArialMT-6d"/>
       <use x="83.30078125" xlink:href="#ArialMT-75"/>
       <use x="138.916015625" xlink:href="#ArialMT-73"/>
       <use x="188.916015625" xlink:href="#ArialMT-63"/>
       <use x="238.916015625" xlink:href="#ArialMT-6c"/>
       <use x="261.1328125" xlink:href="#ArialMT-65"/>
      </g>
     </g>
    </g>
    <g id="xtick_13">
     <g id="line2d_37">
      <path clip-path="url(#pffd6b2215b)" d="
M1010.97 769.605
L1010.97 32.9787" style="fill:none;stroke:#cccccc;stroke-linecap:round;"/>
     </g>
     <g id="line2d_38">
      <g>
       <use style="fill:#262626;stroke:#262626;" x="1010.96707692" xlink:href="#m219da94a98" y="769.605"/>
      </g>
     </g>
     <g id="line2d_39">
      <g>
       <use style="fill:#262626;stroke:#262626;" x="1010.96707692" xlink:href="#m219da94a98" y="32.97875"/>
      </g>
     </g>
     <g id="text_13">
      <!-- lips -->
      <g style="fill:#262626;" transform="translate(1015.10332692 798.9725)rotate(-90.0)scale(0.16 -0.16)">
       <use xlink:href="#ArialMT-6c"/>
       <use x="22.216796875" xlink:href="#ArialMT-69"/>
       <use x="44.43359375" xlink:href="#ArialMT-70"/>
       <use x="100.048828125" xlink:href="#ArialMT-73"/>
      </g>
     </g>
    </g>
    <g id="xtick_14">
     <g id="line2d_40">
      <path clip-path="url(#pffd6b2215b)" d="
M1086.62 769.605
L1086.62 32.9787" style="fill:none;stroke:#cccccc;stroke-linecap:round;"/>
     </g>
     <g id="line2d_41">
      <g>
       <use style="fill:#262626;stroke:#262626;" x="1086.61753846" xlink:href="#m219da94a98" y="769.605"/>
      </g>
     </g>
     <g id="line2d_42">
      <g>
       <use style="fill:#262626;stroke:#262626;" x="1086.61753846" xlink:href="#m219da94a98" y="32.97875"/>
      </g>
     </g>
     <g id="text_14">
      <!-- neutrophils -->
      <g style="fill:#262626;" transform="translate(1090.75378846 853.2)rotate(-90.0)scale(0.16 -0.16)">
       <use xlink:href="#ArialMT-6e"/>
       <use x="55.615234375" xlink:href="#ArialMT-65"/>
       <use x="111.23046875" xlink:href="#ArialMT-75"/>
       <use x="166.845703125" xlink:href="#ArialMT-74"/>
       <use x="194.62890625" xlink:href="#ArialMT-72"/>
       <use x="227.9296875" xlink:href="#ArialMT-6f"/>
       <use x="283.544921875" xlink:href="#ArialMT-70"/>
       <use x="339.16015625" xlink:href="#ArialMT-68"/>
       <use x="394.775390625" xlink:href="#ArialMT-69"/>
       <use x="416.9921875" xlink:href="#ArialMT-6c"/>
       <use x="439.208984375" xlink:href="#ArialMT-73"/>
      </g>
     </g>
    </g>
    <g id="xtick_15">
     <g id="line2d_43">
      <path clip-path="url(#pffd6b2215b)" d="
M1162.27 769.605
L1162.27 32.9787" style="fill:none;stroke:#cccccc;stroke-linecap:round;"/>
     </g>
     <g id="line2d_44">
      <g>
       <use style="fill:#262626;stroke:#262626;" x="1162.268" xlink:href="#m219da94a98" y="769.605"/>
      </g>
     </g>
     <g id="line2d_45">
      <g>
       <use style="fill:#262626;stroke:#262626;" x="1162.268" xlink:href="#m219da94a98" y="32.97875"/>
      </g>
     </g>
     <g id="text_15">
      <!-- monocytes -->
      <g style="fill:#262626;" transform="translate(1166.21675 852.295)rotate(-90.0)scale(0.16 -0.16)">
       <use xlink:href="#ArialMT-6d"/>
       <use x="83.30078125" xlink:href="#ArialMT-6f"/>
       <use x="138.916015625" xlink:href="#ArialMT-6e"/>
       <use x="194.53125" xlink:href="#ArialMT-6f"/>
       <use x="250.146484375" xlink:href="#ArialMT-63"/>
       <use x="300.146484375" xlink:href="#ArialMT-79"/>
       <use x="350.146484375" xlink:href="#ArialMT-74"/>
       <use x="377.9296875" xlink:href="#ArialMT-65"/>
       <use x="433.544921875" xlink:href="#ArialMT-73"/>
      </g>
     </g>
    </g>
    <g id="xtick_16">
     <g id="line2d_46">
      <path clip-path="url(#pffd6b2215b)" d="
M1237.92 769.605
L1237.92 32.9787" style="fill:none;stroke:#cccccc;stroke-linecap:round;"/>
     </g>
     <g id="line2d_47">
      <g>
       <use style="fill:#262626;stroke:#262626;" x="1237.91846154" xlink:href="#m219da94a98" y="769.605"/>
      </g>
     </g>
     <g id="line2d_48">
      <g>
       <use style="fill:#262626;stroke:#262626;" x="1237.91846154" xlink:href="#m219da94a98" y="32.97875"/>
      </g>
     </g>
     <g id="text_16">
      <!-- unknown -->
      <defs>
       <path d="
M16.1562 0
L0.296875 51.8594
L9.375 51.8594
L17.625 21.9219
L20.7031 10.7969
Q20.9062 11.625 23.3906 21.4844
L31.6406 51.8594
L40.6719 51.8594
L48.4375 21.7812
L51.0312 11.8594
L54 21.875
L62.8906 51.8594
L71.4375 51.8594
L55.2188 0
L46.0938 0
L37.8438 31.0625
L35.8438 39.8906
L25.3438 0
z
" id="ArialMT-77"/>
      </defs>
      <g style="fill:#262626;" transform="translate(1242.05471154 838.525)rotate(-90.0)scale(0.16 -0.16)">
       <use xlink:href="#ArialMT-75"/>
       <use x="55.615234375" xlink:href="#ArialMT-6e"/>
       <use x="111.23046875" xlink:href="#ArialMT-6b"/>
       <use x="161.23046875" xlink:href="#ArialMT-6e"/>
       <use x="216.845703125" xlink:href="#ArialMT-6f"/>
       <use x="272.4609375" xlink:href="#ArialMT-77"/>
       <use x="344.677734375" xlink:href="#ArialMT-6e"/>
      </g>
     </g>
    </g>
   </g>
   <g id="matplotlib.axis_2">
    <g id="ytick_1">
     <g id="line2d_49">
      <path clip-path="url(#pffd6b2215b)" d="
M55.88 769.605
L1285.2 769.605" style="fill:none;stroke:#cccccc;stroke-linecap:round;"/>
     </g>
     <g id="line2d_50">
      <g>
       <use style="fill:#262626;stroke:#262626;" x="55.88" xlink:href="#m219da94a98" y="769.605"/>
      </g>
     </g>
     <g id="line2d_51">
      <g>
       <use style="fill:#262626;stroke:#262626;" x="1285.2" xlink:href="#m219da94a98" y="769.605"/>
      </g>
     </g>
     <g id="text_17">
      <!-- 0 -->
      <defs>
       <path d="
M4.15625 35.2969
Q4.15625 48 6.76562 55.7344
Q9.375 63.4844 14.5156 67.6719
Q19.6719 71.875 27.4844 71.875
Q33.25 71.875 37.5938 69.5469
Q41.9375 67.2344 44.7656 62.8594
Q47.6094 58.5 49.2188 52.2188
Q50.8281 45.9531 50.8281 35.2969
Q50.8281 22.7031 48.2344 14.9688
Q45.6562 7.23438 40.5 3
Q35.3594 -1.21875 27.4844 -1.21875
Q17.1406 -1.21875 11.2344 6.20312
Q4.15625 15.1406 4.15625 35.2969
M13.1875 35.2969
Q13.1875 17.6719 17.3125 11.8281
Q21.4375 6 27.4844 6
Q33.5469 6 37.6719 11.8594
Q41.7969 17.7188 41.7969 35.2969
Q41.7969 52.9844 37.6719 58.7812
Q33.5469 64.5938 27.3906 64.5938
Q21.3438 64.5938 17.7188 59.4688
Q13.1875 52.9375 13.1875 35.2969" id="ArialMT-30"/>
      </defs>
      <g style="fill:#262626;" transform="translate(42.3459375 773.22421875)scale(0.14 -0.14)">
       <use xlink:href="#ArialMT-30"/>
      </g>
     </g>
    </g>
    <g id="ytick_2">
     <g id="line2d_52">
      <path clip-path="url(#pffd6b2215b)" d="
M55.88 687.758
L1285.2 687.758" style="fill:none;stroke:#cccccc;stroke-linecap:round;"/>
     </g>
     <g id="line2d_53">
      <g>
       <use style="fill:#262626;stroke:#262626;" x="55.88" xlink:href="#m219da94a98" y="687.757638889"/>
      </g>
     </g>
     <g id="line2d_54">
      <g>
       <use style="fill:#262626;stroke:#262626;" x="1285.2" xlink:href="#m219da94a98" y="687.757638889"/>
      </g>
     </g>
     <g id="text_18">
      <!-- 10000 -->
      <defs>
       <path d="
M37.25 0
L28.4688 0
L28.4688 56
Q25.2969 52.9844 20.1406 49.9531
Q14.9844 46.9219 10.8906 45.4062
L10.8906 53.9062
Q18.2656 57.375 23.7812 62.2969
Q29.2969 67.2344 31.5938 71.875
L37.25 71.875
z
" id="ArialMT-31"/>
      </defs>
      <g style="fill:#262626;" transform="translate(12.1475 691.376857639)scale(0.14 -0.14)">
       <use xlink:href="#ArialMT-31"/>
       <use x="55.615234375" xlink:href="#ArialMT-30"/>
       <use x="111.23046875" xlink:href="#ArialMT-30"/>
       <use x="166.845703125" xlink:href="#ArialMT-30"/>
       <use x="222.4609375" xlink:href="#ArialMT-30"/>
      </g>
     </g>
    </g>
    <g id="ytick_3">
     <g id="line2d_55">
      <path clip-path="url(#pffd6b2215b)" d="
M55.88 605.91
L1285.2 605.91" style="fill:none;stroke:#cccccc;stroke-linecap:round;"/>
     </g>
     <g id="line2d_56">
      <g>
       <use style="fill:#262626;stroke:#262626;" x="55.88" xlink:href="#m219da94a98" y="605.910277778"/>
      </g>
     </g>
     <g id="line2d_57">
      <g>
       <use style="fill:#262626;stroke:#262626;" x="1285.2" xlink:href="#m219da94a98" y="605.910277778"/>
      </g>
     </g>
     <g id="text_19">
      <!-- 20000 -->
      <defs>
       <path d="
M50.3438 8.45312
L50.3438 0
L3.03125 0
Q2.9375 3.17188 4.04688 6.10938
Q5.85938 10.9375 9.82812 15.625
Q13.8125 20.3125 21.3438 26.4688
Q33.0156 36.0312 37.1094 41.625
Q41.2188 47.2188 41.2188 52.2031
Q41.2188 57.4219 37.4688 61
Q33.7344 64.5938 27.7344 64.5938
Q21.3906 64.5938 17.5781 60.7812
Q13.7656 56.9844 13.7188 50.25
L4.6875 51.1719
Q5.60938 61.2812 11.6562 66.5781
Q17.7188 71.875 27.9375 71.875
Q38.2344 71.875 44.2344 66.1562
Q50.25 60.4531 50.25 52
Q50.25 47.7031 48.4844 43.5469
Q46.7344 39.4062 42.6562 34.8125
Q38.5781 30.2188 29.1094 22.2188
Q21.1875 15.5781 18.9375 13.2031
Q16.7031 10.8438 15.2344 8.45312
z
" id="ArialMT-32"/>
      </defs>
      <g style="fill:#262626;" transform="translate(11.0340625 609.529496528)scale(0.14 -0.14)">
       <use xlink:href="#ArialMT-32"/>
       <use x="55.615234375" xlink:href="#ArialMT-30"/>
       <use x="111.23046875" xlink:href="#ArialMT-30"/>
       <use x="166.845703125" xlink:href="#ArialMT-30"/>
       <use x="222.4609375" xlink:href="#ArialMT-30"/>
      </g>
     </g>
    </g>
    <g id="ytick_4">
     <g id="line2d_58">
      <path clip-path="url(#pffd6b2215b)" d="
M55.88 524.063
L1285.2 524.063" style="fill:none;stroke:#cccccc;stroke-linecap:round;"/>
     </g>
     <g id="line2d_59">
      <g>
       <use style="fill:#262626;stroke:#262626;" x="55.88" xlink:href="#m219da94a98" y="524.062916667"/>
      </g>
     </g>
     <g id="line2d_60">
      <g>
       <use style="fill:#262626;stroke:#262626;" x="1285.2" xlink:href="#m219da94a98" y="524.062916667"/>
      </g>
     </g>
     <g id="text_20">
      <!-- 30000 -->
      <defs>
       <path d="
M4.20312 18.8906
L12.9844 20.0625
Q14.5 12.5938 18.1406 9.29688
Q21.7812 6 27 6
Q33.2031 6 37.4688 10.2969
Q41.75 14.5938 41.75 20.9531
Q41.75 27 37.7969 30.9219
Q33.8438 34.8594 27.7344 34.8594
Q25.25 34.8594 21.5312 33.8906
L22.5156 41.6094
Q23.3906 41.5 23.9219 41.5
Q29.5469 41.5 34.0312 44.4219
Q38.5312 47.3594 38.5312 53.4688
Q38.5312 58.2969 35.25 61.4688
Q31.9844 64.6562 26.8125 64.6562
Q21.6875 64.6562 18.2656 61.4219
Q14.8438 58.2031 13.875 51.7656
L5.07812 53.3281
Q6.6875 62.1562 12.3906 67.0156
Q18.1094 71.875 26.6094 71.875
Q32.4688 71.875 37.3906 69.3594
Q42.3281 66.8438 44.9375 62.5
Q47.5625 58.1562 47.5625 53.2656
Q47.5625 48.6406 45.0625 44.8281
Q42.5781 41.0156 37.7031 38.7656
Q44.0469 37.3125 47.5625 32.6875
Q51.0781 28.0781 51.0781 21.1406
Q51.0781 11.7656 44.2344 5.25
Q37.4062 -1.26562 26.9531 -1.26562
Q17.5312 -1.26562 11.2969 4.34375
Q5.07812 9.96875 4.20312 18.8906" id="ArialMT-33"/>
      </defs>
      <g style="fill:#262626;" transform="translate(11.21125 527.682135417)scale(0.14 -0.14)">
       <use xlink:href="#ArialMT-33"/>
       <use x="55.615234375" xlink:href="#ArialMT-30"/>
       <use x="111.23046875" xlink:href="#ArialMT-30"/>
       <use x="166.845703125" xlink:href="#ArialMT-30"/>
       <use x="222.4609375" xlink:href="#ArialMT-30"/>
      </g>
     </g>
    </g>
    <g id="ytick_5">
     <g id="line2d_61">
      <path clip-path="url(#pffd6b2215b)" d="
M55.88 442.216
L1285.2 442.216" style="fill:none;stroke:#cccccc;stroke-linecap:round;"/>
     </g>
     <g id="line2d_62">
      <g>
       <use style="fill:#262626;stroke:#262626;" x="55.88" xlink:href="#m219da94a98" y="442.215555556"/>
      </g>
     </g>
     <g id="line2d_63">
      <g>
       <use style="fill:#262626;stroke:#262626;" x="1285.2" xlink:href="#m219da94a98" y="442.215555556"/>
      </g>
     </g>
     <g id="text_21">
      <!-- 40000 -->
      <defs>
       <path d="
M32.3281 0
L32.3281 17.1406
L1.26562 17.1406
L1.26562 25.2031
L33.9375 71.5781
L41.1094 71.5781
L41.1094 25.2031
L50.7812 25.2031
L50.7812 17.1406
L41.1094 17.1406
L41.1094 0
z

M32.3281 25.2031
L32.3281 57.4688
L9.90625 25.2031
z
" id="ArialMT-34"/>
      </defs>
      <g style="fill:#262626;" transform="translate(10.8 445.834774306)scale(0.14 -0.14)">
       <use xlink:href="#ArialMT-34"/>
       <use x="55.615234375" xlink:href="#ArialMT-30"/>
       <use x="111.23046875" xlink:href="#ArialMT-30"/>
       <use x="166.845703125" xlink:href="#ArialMT-30"/>
       <use x="222.4609375" xlink:href="#ArialMT-30"/>
      </g>
     </g>
    </g>
    <g id="ytick_6">
     <g id="line2d_64">
      <path clip-path="url(#pffd6b2215b)" d="
M55.88 360.368
L1285.2 360.368" style="fill:none;stroke:#cccccc;stroke-linecap:round;"/>
     </g>
     <g id="line2d_65">
      <g>
       <use style="fill:#262626;stroke:#262626;" x="55.88" xlink:href="#m219da94a98" y="360.368194444"/>
      </g>
     </g>
     <g id="line2d_66">
      <g>
       <use style="fill:#262626;stroke:#262626;" x="1285.2" xlink:href="#m219da94a98" y="360.368194444"/>
      </g>
     </g>
     <g id="text_22">
      <!-- 50000 -->
      <defs>
       <path d="
M4.15625 18.75
L13.375 19.5312
Q14.4062 12.7969 18.1406 9.39062
Q21.875 6 27.1562 6
Q33.5 6 37.8906 10.7812
Q42.2812 15.5781 42.2812 23.4844
Q42.2812 31 38.0625 35.3438
Q33.8438 39.7031 27 39.7031
Q22.75 39.7031 19.3281 37.7656
Q15.9219 35.8438 13.9688 32.7656
L5.71875 33.8438
L12.6406 70.6094
L48.25 70.6094
L48.25 62.2031
L19.6719 62.2031
L15.8281 42.9688
Q22.2656 47.4688 29.3438 47.4688
Q38.7188 47.4688 45.1562 40.9688
Q51.6094 34.4688 51.6094 24.2656
Q51.6094 14.5469 45.9531 7.46875
Q39.0625 -1.21875 27.1562 -1.21875
Q17.3906 -1.21875 11.2031 4.25
Q5.03125 9.71875 4.15625 18.75" id="ArialMT-35"/>
      </defs>
      <g style="fill:#262626;" transform="translate(11.2046875 363.987413194)scale(0.14 -0.14)">
       <use xlink:href="#ArialMT-35"/>
       <use x="55.615234375" xlink:href="#ArialMT-30"/>
       <use x="111.23046875" xlink:href="#ArialMT-30"/>
       <use x="166.845703125" xlink:href="#ArialMT-30"/>
       <use x="222.4609375" xlink:href="#ArialMT-30"/>
      </g>
     </g>
    </g>
    <g id="ytick_7">
     <g id="line2d_67">
      <path clip-path="url(#pffd6b2215b)" d="
M55.88 278.521
L1285.2 278.521" style="fill:none;stroke:#cccccc;stroke-linecap:round;"/>
     </g>
     <g id="line2d_68">
      <g>
       <use style="fill:#262626;stroke:#262626;" x="55.88" xlink:href="#m219da94a98" y="278.520833333"/>
      </g>
     </g>
     <g id="line2d_69">
      <g>
       <use style="fill:#262626;stroke:#262626;" x="1285.2" xlink:href="#m219da94a98" y="278.520833333"/>
      </g>
     </g>
     <g id="text_23">
      <!-- 60000 -->
      <defs>
       <path d="
M49.75 54.0469
L41.0156 53.375
Q39.8438 58.5469 37.7031 60.8906
Q34.125 64.6562 28.9062 64.6562
Q24.7031 64.6562 21.5312 62.3125
Q17.3906 59.2812 14.9844 53.4688
Q12.5938 47.6562 12.5 36.9219
Q15.6719 41.75 20.2656 44.0938
Q24.8594 46.4375 29.8906 46.4375
Q38.6719 46.4375 44.8438 39.9688
Q51.0312 33.5 51.0312 23.25
Q51.0312 16.5 48.125 10.7188
Q45.2188 4.9375 40.1406 1.85938
Q35.0625 -1.21875 28.6094 -1.21875
Q17.625 -1.21875 10.6875 6.85938
Q3.76562 14.9375 3.76562 33.5
Q3.76562 54.25 11.4219 63.6719
Q18.1094 71.875 29.4375 71.875
Q37.8906 71.875 43.2812 67.1406
Q48.6875 62.4062 49.75 54.0469
M13.875 23.1875
Q13.875 18.6562 15.7969 14.5
Q17.7188 10.3594 21.1875 8.17188
Q24.6562 6 28.4688 6
Q34.0312 6 38.0312 10.4844
Q42.0469 14.9844 42.0469 22.7031
Q42.0469 30.125 38.0781 34.3906
Q34.125 38.6719 28.125 38.6719
Q22.1719 38.6719 18.0156 34.3906
Q13.875 30.125 13.875 23.1875" id="ArialMT-36"/>
      </defs>
      <g style="fill:#262626;" transform="translate(11.15 282.140052083)scale(0.14 -0.14)">
       <use xlink:href="#ArialMT-36"/>
       <use x="55.615234375" xlink:href="#ArialMT-30"/>
       <use x="111.23046875" xlink:href="#ArialMT-30"/>
       <use x="166.845703125" xlink:href="#ArialMT-30"/>
       <use x="222.4609375" xlink:href="#ArialMT-30"/>
      </g>
     </g>
    </g>
    <g id="ytick_8">
     <g id="line2d_70">
      <path clip-path="url(#pffd6b2215b)" d="
M55.88 196.673
L1285.2 196.673" style="fill:none;stroke:#cccccc;stroke-linecap:round;"/>
     </g>
     <g id="line2d_71">
      <g>
       <use style="fill:#262626;stroke:#262626;" x="55.88" xlink:href="#m219da94a98" y="196.673472222"/>
      </g>
     </g>
     <g id="line2d_72">
      <g>
       <use style="fill:#262626;stroke:#262626;" x="1285.2" xlink:href="#m219da94a98" y="196.673472222"/>
      </g>
     </g>
     <g id="text_24">
      <!-- 70000 -->
      <defs>
       <path d="
M4.73438 62.2031
L4.73438 70.6562
L51.0781 70.6562
L51.0781 63.8125
Q44.2344 56.5469 37.5156 44.4844
Q30.8125 32.4219 27.1562 19.6719
Q24.5156 10.6875 23.7812 0
L14.75 0
Q14.8906 8.45312 18.0625 20.4062
Q21.2344 32.375 27.1719 43.4844
Q33.1094 54.5938 39.7969 62.2031
z
" id="ArialMT-37"/>
      </defs>
      <g style="fill:#262626;" transform="translate(11.285625 200.292690972)scale(0.14 -0.14)">
       <use xlink:href="#ArialMT-37"/>
       <use x="55.615234375" xlink:href="#ArialMT-30"/>
       <use x="111.23046875" xlink:href="#ArialMT-30"/>
       <use x="166.845703125" xlink:href="#ArialMT-30"/>
       <use x="222.4609375" xlink:href="#ArialMT-30"/>
      </g>
     </g>
    </g>
    <g id="ytick_9">
     <g id="line2d_73">
      <path clip-path="url(#pffd6b2215b)" d="
M55.88 114.826
L1285.2 114.826" style="fill:none;stroke:#cccccc;stroke-linecap:round;"/>
     </g>
     <g id="line2d_74">
      <g>
       <use style="fill:#262626;stroke:#262626;" x="55.88" xlink:href="#m219da94a98" y="114.826111111"/>
      </g>
     </g>
     <g id="line2d_75">
      <g>
       <use style="fill:#262626;stroke:#262626;" x="1285.2" xlink:href="#m219da94a98" y="114.826111111"/>
      </g>
     </g>
     <g id="text_25">
      <!-- 80000 -->
      <defs>
       <path d="
M17.6719 38.8125
Q12.2031 40.8281 9.5625 44.5312
Q6.9375 48.25 6.9375 53.4219
Q6.9375 61.2344 12.5469 66.5469
Q18.1719 71.875 27.4844 71.875
Q36.8594 71.875 42.5781 66.4219
Q48.2969 60.9844 48.2969 53.1719
Q48.2969 48.1875 45.6719 44.5
Q43.0625 40.8281 37.75 38.8125
Q44.3438 36.6719 47.7812 31.875
Q51.2188 27.0938 51.2188 20.4531
Q51.2188 11.2812 44.7188 5.03125
Q38.2344 -1.21875 27.6406 -1.21875
Q17.0469 -1.21875 10.5469 5.04688
Q4.04688 11.3281 4.04688 20.7031
Q4.04688 27.6875 7.59375 32.3906
Q11.1406 37.1094 17.6719 38.8125
M15.9219 53.7188
Q15.9219 48.6406 19.1875 45.4062
Q22.4688 42.1875 27.6875 42.1875
Q32.7656 42.1875 36.0156 45.375
Q39.2656 48.5781 39.2656 53.2188
Q39.2656 58.0625 35.9062 61.3594
Q32.5625 64.6562 27.5938 64.6562
Q22.5625 64.6562 19.2344 61.4219
Q15.9219 58.2031 15.9219 53.7188
M13.0938 20.6562
Q13.0938 16.8906 14.875 13.375
Q16.6562 9.85938 20.1719 7.92188
Q23.6875 6 27.7344 6
Q34.0312 6 38.125 10.0469
Q42.2344 14.1094 42.2344 20.3594
Q42.2344 26.7031 38.0156 30.8594
Q33.7969 35.0156 27.4375 35.0156
Q21.2344 35.0156 17.1562 30.9062
Q13.0938 26.8125 13.0938 20.6562" id="ArialMT-38"/>
      </defs>
      <g style="fill:#262626;" transform="translate(11.189375 118.445329861)scale(0.14 -0.14)">
       <use xlink:href="#ArialMT-38"/>
       <use x="55.615234375" xlink:href="#ArialMT-30"/>
       <use x="111.23046875" xlink:href="#ArialMT-30"/>
       <use x="166.845703125" xlink:href="#ArialMT-30"/>
       <use x="222.4609375" xlink:href="#ArialMT-30"/>
      </g>
     </g>
    </g>
    <g id="ytick_10">
     <g id="line2d_76">
      <path clip-path="url(#pffd6b2215b)" d="
M55.88 32.9787
L1285.2 32.9787" style="fill:none;stroke:#cccccc;stroke-linecap:round;"/>
     </g>
     <g id="line2d_77">
      <g>
       <use style="fill:#262626;stroke:#262626;" x="55.88" xlink:href="#m219da94a98" y="32.97875"/>
      </g>
     </g>
     <g id="line2d_78">
      <g>
       <use style="fill:#262626;stroke:#262626;" x="1285.2" xlink:href="#m219da94a98" y="32.97875"/>
      </g>
     </g>
     <g id="text_26">
      <!-- 90000 -->
      <defs>
       <path d="
M5.46875 16.5469
L13.9219 17.3281
Q14.9844 11.375 18.0156 8.6875
Q21.0469 6 25.7812 6
Q29.8281 6 32.875 7.85938
Q35.9375 9.71875 37.8906 12.8125
Q39.8438 15.9219 41.1562 21.1875
Q42.4844 26.4688 42.4844 31.9375
Q42.4844 32.5156 42.4375 33.6875
Q39.7969 29.5 35.2344 26.875
Q30.6719 24.2656 25.3438 24.2656
Q16.4531 24.2656 10.2969 30.7031
Q4.15625 37.1562 4.15625 47.7031
Q4.15625 58.5938 10.5781 65.2344
Q17 71.875 26.6562 71.875
Q33.6406 71.875 39.4219 68.1094
Q45.2188 64.3594 48.2188 57.3906
Q51.2188 50.4375 51.2188 37.25
Q51.2188 23.5312 48.2344 15.4062
Q45.2656 7.28125 39.375 3.03125
Q33.5 -1.21875 25.5938 -1.21875
Q17.1875 -1.21875 11.8594 3.4375
Q6.54688 8.10938 5.46875 16.5469
M41.4531 48.1406
Q41.4531 55.7188 37.4219 60.1562
Q33.4062 64.5938 27.7344 64.5938
Q21.875 64.5938 17.5312 59.8125
Q13.1875 55.0312 13.1875 47.4062
Q13.1875 40.5781 17.3125 36.2969
Q21.4375 32.0312 27.4844 32.0312
Q33.5938 32.0312 37.5156 36.2969
Q41.4531 40.5781 41.4531 48.1406" id="ArialMT-39"/>
      </defs>
      <g style="fill:#262626;" transform="translate(11.2046875 36.59796875)scale(0.14 -0.14)">
       <use xlink:href="#ArialMT-39"/>
       <use x="55.615234375" xlink:href="#ArialMT-30"/>
       <use x="111.23046875" xlink:href="#ArialMT-30"/>
       <use x="166.845703125" xlink:href="#ArialMT-30"/>
       <use x="222.4609375" xlink:href="#ArialMT-30"/>
      </g>
     </g>
    </g>
   </g>
   <g id="patch_3">
    <path clip-path="url(#pffd6b2215b)" d="
M74.7926 769.605
L86.1402 769.605
L86.1402 709.676
L74.7926 709.676
z
" style="fill:#66c2a5;stroke:#000000;stroke-width:0.3;"/>
   </g>
   <g id="patch_4">
    <path clip-path="url(#pffd6b2215b)" d="
M150.443 769.605
L161.791 769.605
L161.791 708.653
L150.443 708.653
z
" style="fill:#66c2a5;stroke:#000000;stroke-width:0.3;"/>
   </g>
   <g id="patch_5">
    <path clip-path="url(#pffd6b2215b)" d="
M226.094 769.605
L237.441 769.605
L237.441 712.042
L226.094 712.042
z
" style="fill:#66c2a5;stroke:#000000;stroke-width:0.3;"/>
   </g>
   <g id="patch_6">
    <path clip-path="url(#pffd6b2215b)" d="
M301.744 769.605
L313.092 769.605
L313.092 712.926
L301.744 712.926
z
" style="fill:#66c2a5;stroke:#000000;stroke-width:0.3;"/>
   </g>
   <g id="patch_7">
    <path clip-path="url(#pffd6b2215b)" d="
M377.394 769.605
L388.742 769.605
L388.742 713.851
L377.394 713.851
z
" style="fill:#66c2a5;stroke:#000000;stroke-width:0.3;"/>
   </g>
   <g id="patch_8">
    <path clip-path="url(#pffd6b2215b)" d="
M453.045 769.605
L464.392 769.605
L464.392 712.009
L453.045 712.009
z
" style="fill:#66c2a5;stroke:#000000;stroke-width:0.3;"/>
   </g>
   <g id="patch_9">
    <path clip-path="url(#pffd6b2215b)" d="
M528.695 769.605
L540.043 769.605
L540.043 718.827
L528.695 718.827
z
" style="fill:#66c2a5;stroke:#000000;stroke-width:0.3;"/>
   </g>
   <g id="patch_10">
    <path clip-path="url(#pffd6b2215b)" d="
M604.346 769.605
L615.693 769.605
L615.693 731.178
L604.346 731.178
z
" style="fill:#66c2a5;stroke:#000000;stroke-width:0.3;"/>
   </g>
   <g id="patch_11">
    <path clip-path="url(#pffd6b2215b)" d="
M679.996 769.605
L691.344 769.605
L691.344 733.617
L679.996 733.617
z
" style="fill:#66c2a5;stroke:#000000;stroke-width:0.3;"/>
   </g>
   <g id="patch_12">
    <path clip-path="url(#pffd6b2215b)" d="
M755.647 769.605
L766.994 769.605
L766.994 735.966
L755.647 735.966
z
" style="fill:#66c2a5;stroke:#000000;stroke-width:0.3;"/>
   </g>
   <g id="patch_13">
    <path clip-path="url(#pffd6b2215b)" d="
M831.297 769.605
L842.645 769.605
L842.645 737.341
L831.297 737.341
z
" style="fill:#66c2a5;stroke:#000000;stroke-width:0.3;"/>
   </g>
   <g id="patch_14">
    <path clip-path="url(#pffd6b2215b)" d="
M906.948 769.605
L918.295 769.605
L918.295 741.703
L906.948 741.703
z
" style="fill:#66c2a5;stroke:#000000;stroke-width:0.3;"/>
   </g>
   <g id="patch_15">
    <path clip-path="url(#pffd6b2215b)" d="
M982.598 769.605
L993.946 769.605
L993.946 744.625
L982.598 744.625
z
" style="fill:#66c2a5;stroke:#000000;stroke-width:0.3;"/>
   </g>
   <g id="patch_16">
    <path clip-path="url(#pffd6b2215b)" d="
M1058.25 769.605
L1069.6 769.605
L1069.6 744.535
L1058.25 744.535
z
" style="fill:#66c2a5;stroke:#000000;stroke-width:0.3;"/>
   </g>
   <g id="patch_17">
    <path clip-path="url(#pffd6b2215b)" d="
M1133.9 769.605
L1145.25 769.605
L1145.25 744.421
L1133.9 744.421
z
" style="fill:#66c2a5;stroke:#000000;stroke-width:0.3;"/>
   </g>
   <g id="patch_18">
    <path clip-path="url(#pffd6b2215b)" d="
M1209.55 769.605
L1220.9 769.605
L1220.9 752.409
L1209.55 752.409
z
" style="fill:#66c2a5;stroke:#000000;stroke-width:0.3;"/>
   </g>
   <g id="patch_19">
    <path clip-path="url(#pffd6b2215b)" d="
M86.1402 769.605
L97.4878 769.605
L97.4878 176.269
L86.1402 176.269
z
" style="fill:#fa8e63;stroke:#000000;stroke-width:0.3;"/>
   </g>
   <g id="patch_20">
    <path clip-path="url(#pffd6b2215b)" d="
M161.791 769.605
L173.138 769.605
L173.138 176.375
L161.791 176.375
z
" style="fill:#fa8e63;stroke:#000000;stroke-width:0.3;"/>
   </g>
   <g id="patch_21">
    <path clip-path="url(#pffd6b2215b)" d="
M237.441 769.605
L248.789 769.605
L248.789 206.512
L237.441 206.512
z
" style="fill:#fa8e63;stroke:#000000;stroke-width:0.3;"/>
   </g>
   <g id="patch_22">
    <path clip-path="url(#pffd6b2215b)" d="
M313.092 769.605
L324.439 769.605
L324.439 212.806
L313.092 212.806
z
" style="fill:#fa8e63;stroke:#000000;stroke-width:0.3;"/>
   </g>
   <g id="patch_23">
    <path clip-path="url(#pffd6b2215b)" d="
M388.742 769.605
L400.09 769.605
L400.09 217.201
L388.742 217.201
z
" style="fill:#fa8e63;stroke:#000000;stroke-width:0.3;"/>
   </g>
   <g id="patch_24">
    <path clip-path="url(#pffd6b2215b)" d="
M464.392 769.605
L475.74 769.605
L475.74 240.282
L464.392 240.282
z
" style="fill:#fa8e63;stroke:#000000;stroke-width:0.3;"/>
   </g>
   <g id="patch_25">
    <path clip-path="url(#pffd6b2215b)" d="
M540.043 769.605
L551.391 769.605
L551.391 287.131
L540.043 287.131
z
" style="fill:#fa8e63;stroke:#000000;stroke-width:0.3;"/>
   </g>
   <g id="patch_26">
    <path clip-path="url(#pffd6b2215b)" d="
M615.693 769.605
L627.041 769.605
L627.041 411.392
L615.693 411.392
z
" style="fill:#fa8e63;stroke:#000000;stroke-width:0.3;"/>
   </g>
   <g id="patch_27">
    <path clip-path="url(#pffd6b2215b)" d="
M691.344 769.605
L702.691 769.605
L702.691 421.664
L691.344 421.664
z
" style="fill:#fa8e63;stroke:#000000;stroke-width:0.3;"/>
   </g>
   <g id="patch_28">
    <path clip-path="url(#pffd6b2215b)" d="
M766.994 769.605
L778.342 769.605
L778.342 444.917
L766.994 444.917
z
" style="fill:#fa8e63;stroke:#000000;stroke-width:0.3;"/>
   </g>
   <g id="patch_29">
    <path clip-path="url(#pffd6b2215b)" d="
M842.645 769.605
L853.992 769.605
L853.992 458.249
L842.645 458.249
z
" style="fill:#fa8e63;stroke:#000000;stroke-width:0.3;"/>
   </g>
   <g id="patch_30">
    <path clip-path="url(#pffd6b2215b)" d="
M918.295 769.605
L929.643 769.605
L929.643 497.978
L918.295 497.978
z
" style="fill:#fa8e63;stroke:#000000;stroke-width:0.3;"/>
   </g>
   <g id="patch_31">
    <path clip-path="url(#pffd6b2215b)" d="
M993.946 769.605
L1005.29 769.605
L1005.29 519.627
L993.946 519.627
z
" style="fill:#fa8e63;stroke:#000000;stroke-width:0.3;"/>
   </g>
   <g id="patch_32">
    <path clip-path="url(#pffd6b2215b)" d="
M1069.6 769.605
L1080.94 769.605
L1080.94 524.063
L1069.6 524.063
z
" style="fill:#fa8e63;stroke:#000000;stroke-width:0.3;"/>
   </g>
   <g id="patch_33">
    <path clip-path="url(#pffd6b2215b)" d="
M1145.25 769.605
L1156.59 769.605
L1156.59 527.255
L1145.25 527.255
z
" style="fill:#fa8e63;stroke:#000000;stroke-width:0.3;"/>
   </g>
   <g id="patch_34">
    <path clip-path="url(#pffd6b2215b)" d="
M1220.9 769.605
L1232.24 769.605
L1232.24 598.847
L1220.9 598.847
z
" style="fill:#fa8e63;stroke:#000000;stroke-width:0.3;"/>
   </g>
   <g id="patch_35">
    <path clip-path="url(#pffd6b2215b)" d="
M97.4878 769.605
L108.835 769.605
L108.835 74.6882
L97.4878 74.6882
z
" style="fill:#8da0cb;stroke:#000000;stroke-width:0.3;"/>
   </g>
   <g id="patch_36">
    <path clip-path="url(#pffd6b2215b)" d="
M173.138 769.605
L184.486 769.605
L184.486 75.212
L173.138 75.212
z
" style="fill:#8da0cb;stroke:#000000;stroke-width:0.3;"/>
   </g>
   <g id="patch_37">
    <path clip-path="url(#pffd6b2215b)" d="
M248.789 769.605
L260.136 769.605
L260.136 101.166
L248.789 101.166
z
" style="fill:#8da0cb;stroke:#000000;stroke-width:0.3;"/>
   </g>
   <g id="patch_38">
    <path clip-path="url(#pffd6b2215b)" d="
M324.439 769.605
L335.787 769.605
L335.787 115.358
L324.439 115.358
z
" style="fill:#8da0cb;stroke:#000000;stroke-width:0.3;"/>
   </g>
   <g id="patch_39">
    <path clip-path="url(#pffd6b2215b)" d="
M400.09 769.605
L411.437 769.605
L411.437 123.044
L400.09 123.044
z
" style="fill:#8da0cb;stroke:#000000;stroke-width:0.3;"/>
   </g>
   <g id="patch_40">
    <path clip-path="url(#pffd6b2215b)" d="
M475.74 769.605
L487.088 769.605
L487.088 151.215
L475.74 151.215
z
" style="fill:#8da0cb;stroke:#000000;stroke-width:0.3;"/>
   </g>
   <g id="patch_41">
    <path clip-path="url(#pffd6b2215b)" d="
M551.391 769.605
L562.738 769.605
L562.738 200.987
L551.391 200.987
z
" style="fill:#8da0cb;stroke:#000000;stroke-width:0.3;"/>
   </g>
   <g id="patch_42">
    <path clip-path="url(#pffd6b2215b)" d="
M627.041 769.605
L638.389 769.605
L638.389 351.349
L627.041 351.349
z
" style="fill:#8da0cb;stroke:#000000;stroke-width:0.3;"/>
   </g>
   <g id="patch_43">
    <path clip-path="url(#pffd6b2215b)" d="
M702.691 769.605
L714.039 769.605
L714.039 364.1
L702.691 364.1
z
" style="fill:#8da0cb;stroke:#000000;stroke-width:0.3;"/>
   </g>
   <g id="patch_44">
    <path clip-path="url(#pffd6b2215b)" d="
M778.342 769.605
L789.689 769.605
L789.689 386.666
L778.342 386.666
z
" style="fill:#8da0cb;stroke:#000000;stroke-width:0.3;"/>
   </g>
   <g id="patch_45">
    <path clip-path="url(#pffd6b2215b)" d="
M853.992 769.605
L865.34 769.605
L865.34 406.219
L853.992 406.219
z
" style="fill:#8da0cb;stroke:#000000;stroke-width:0.3;"/>
   </g>
   <g id="patch_46">
    <path clip-path="url(#pffd6b2215b)" d="
M929.643 769.605
L940.99 769.605
L940.99 449.132
L929.643 449.132
z
" style="fill:#8da0cb;stroke:#000000;stroke-width:0.3;"/>
   </g>
   <g id="patch_47">
    <path clip-path="url(#pffd6b2215b)" d="
M1005.29 769.605
L1016.64 769.605
L1016.64 477.557
L1005.29 477.557
z
" style="fill:#8da0cb;stroke:#000000;stroke-width:0.3;"/>
   </g>
   <g id="patch_48">
    <path clip-path="url(#pffd6b2215b)" d="
M1080.94 769.605
L1092.29 769.605
L1092.29 487.076
L1080.94 487.076
z
" style="fill:#8da0cb;stroke:#000000;stroke-width:0.3;"/>
   </g>
   <g id="patch_49">
    <path clip-path="url(#pffd6b2215b)" d="
M1156.59 769.605
L1167.94 769.605
L1167.94 491.185
L1156.59 491.185
z
" style="fill:#8da0cb;stroke:#000000;stroke-width:0.3;"/>
   </g>
   <g id="patch_50">
    <path clip-path="url(#pffd6b2215b)" d="
M1232.24 769.605
L1243.59 769.605
L1243.59 572.533
L1232.24 572.533
z
" style="fill:#8da0cb;stroke:#000000;stroke-width:0.3;"/>
   </g>
   <g id="patch_51">
    <path clip-path="url(#pffd6b2215b)" d="
M108.835 769.605
L120.183 769.605
L120.183 80.8513
L108.835 80.8513
z
" style="fill:#e68ac3;stroke:#000000;stroke-width:0.3;"/>
   </g>
   <g id="patch_52">
    <path clip-path="url(#pffd6b2215b)" d="
M184.486 769.605
L195.833 769.605
L195.833 79.9428
L184.486 79.9428
z
" style="fill:#e68ac3;stroke:#000000;stroke-width:0.3;"/>
   </g>
   <g id="patch_53">
    <path clip-path="url(#pffd6b2215b)" d="
M260.136 769.605
L271.484 769.605
L271.484 106.756
L260.136 106.756
z
" style="fill:#e68ac3;stroke:#000000;stroke-width:0.3;"/>
   </g>
   <g id="patch_54">
    <path clip-path="url(#pffd6b2215b)" d="
M335.787 769.605
L347.134 769.605
L347.134 121.145
L335.787 121.145
z
" style="fill:#e68ac3;stroke:#000000;stroke-width:0.3;"/>
   </g>
   <g id="patch_55">
    <path clip-path="url(#pffd6b2215b)" d="
M411.437 769.605
L422.785 769.605
L422.785 127.136
L411.437 127.136
z
" style="fill:#e68ac3;stroke:#000000;stroke-width:0.3;"/>
   </g>
   <g id="patch_56">
    <path clip-path="url(#pffd6b2215b)" d="
M487.088 769.605
L498.435 769.605
L498.435 154.948
L487.088 154.948
z
" style="fill:#e68ac3;stroke:#000000;stroke-width:0.3;"/>
   </g>
   <g id="patch_57">
    <path clip-path="url(#pffd6b2215b)" d="
M562.738 769.605
L574.086 769.605
L574.086 202.067
L562.738 202.067
z
" style="fill:#e68ac3;stroke:#000000;stroke-width:0.3;"/>
   </g>
   <g id="patch_58">
    <path clip-path="url(#pffd6b2215b)" d="
M638.389 769.605
L649.736 769.605
L649.736 353.493
L638.389 353.493
z
" style="fill:#e68ac3;stroke:#000000;stroke-width:0.3;"/>
   </g>
   <g id="patch_59">
    <path clip-path="url(#pffd6b2215b)" d="
M714.039 769.605
L725.387 769.605
L725.387 366.834
L714.039 366.834
z
" style="fill:#e68ac3;stroke:#000000;stroke-width:0.3;"/>
   </g>
   <g id="patch_60">
    <path clip-path="url(#pffd6b2215b)" d="
M789.689 769.605
L801.037 769.605
L801.037 389.244
L789.689 389.244
z
" style="fill:#e68ac3;stroke:#000000;stroke-width:0.3;"/>
   </g>
   <g id="patch_61">
    <path clip-path="url(#pffd6b2215b)" d="
M865.34 769.605
L876.688 769.605
L876.688 407.971
L865.34 407.971
z
" style="fill:#e68ac3;stroke:#000000;stroke-width:0.3;"/>
   </g>
   <g id="patch_62">
    <path clip-path="url(#pffd6b2215b)" d="
M940.99 769.605
L952.338 769.605
L952.338 450.695
L940.99 450.695
z
" style="fill:#e68ac3;stroke:#000000;stroke-width:0.3;"/>
   </g>
   <g id="patch_63">
    <path clip-path="url(#pffd6b2215b)" d="
M1016.64 769.605
L1027.99 769.605
L1027.99 478.85
L1016.64 478.85
z
" style="fill:#e68ac3;stroke:#000000;stroke-width:0.3;"/>
   </g>
   <g id="patch_64">
    <path clip-path="url(#pffd6b2215b)" d="
M1092.29 769.605
L1103.64 769.605
L1103.64 487.657
L1092.29 487.657
z
" style="fill:#e68ac3;stroke:#000000;stroke-width:0.3;"/>
   </g>
   <g id="patch_65">
    <path clip-path="url(#pffd6b2215b)" d="
M1167.94 769.605
L1179.29 769.605
L1179.29 491.275
L1167.94 491.275
z
" style="fill:#e68ac3;stroke:#000000;stroke-width:0.3;"/>
   </g>
   <g id="patch_66">
    <path clip-path="url(#pffd6b2215b)" d="
M1243.59 769.605
L1254.94 769.605
L1254.94 574.072
L1243.59 574.072
z
" style="fill:#e68ac3;stroke:#000000;stroke-width:0.3;"/>
   </g>
   <g id="patch_67">
    <path clip-path="url(#pffd6b2215b)" d="
M120.183 769.605
L131.53 769.605
L131.53 82.7665
L120.183 82.7665
z
" style="fill:#a7d854;stroke:#000000;stroke-width:0.3;"/>
   </g>
   <g id="patch_68">
    <path clip-path="url(#pffd6b2215b)" d="
M195.833 769.605
L207.181 769.605
L207.181 82.0708
L195.833 82.0708
z
" style="fill:#a7d854;stroke:#000000;stroke-width:0.3;"/>
   </g>
   <g id="patch_69">
    <path clip-path="url(#pffd6b2215b)" d="
M271.484 769.605
L282.831 769.605
L282.831 109.31
L271.484 109.31
z
" style="fill:#a7d854;stroke:#000000;stroke-width:0.3;"/>
   </g>
   <g id="patch_70">
    <path clip-path="url(#pffd6b2215b)" d="
M347.134 769.605
L358.482 769.605
L358.482 122.675
L347.134 122.675
z
" style="fill:#a7d854;stroke:#000000;stroke-width:0.3;"/>
   </g>
   <g id="patch_71">
    <path clip-path="url(#pffd6b2215b)" d="
M422.785 769.605
L434.132 769.605
L434.132 129.411
L422.785 129.411
z
" style="fill:#a7d854;stroke:#000000;stroke-width:0.3;"/>
   </g>
   <g id="patch_72">
    <path clip-path="url(#pffd6b2215b)" d="
M498.435 769.605
L509.783 769.605
L509.783 156.92
L498.435 156.92
z
" style="fill:#a7d854;stroke:#000000;stroke-width:0.3;"/>
   </g>
   <g id="patch_73">
    <path clip-path="url(#pffd6b2215b)" d="
M574.086 769.605
L585.433 769.605
L585.433 204.572
L574.086 204.572
z
" style="fill:#a7d854;stroke:#000000;stroke-width:0.3;"/>
   </g>
   <g id="patch_74">
    <path clip-path="url(#pffd6b2215b)" d="
M649.736 769.605
L661.084 769.605
L661.084 354.655
L649.736 354.655
z
" style="fill:#a7d854;stroke:#000000;stroke-width:0.3;"/>
   </g>
   <g id="patch_75">
    <path clip-path="url(#pffd6b2215b)" d="
M725.387 769.605
L736.734 769.605
L736.734 367.399
L725.387 367.399
z
" style="fill:#a7d854;stroke:#000000;stroke-width:0.3;"/>
   </g>
   <g id="patch_76">
    <path clip-path="url(#pffd6b2215b)" d="
M801.037 769.605
L812.385 769.605
L812.385 390.136
L801.037 390.136
z
" style="fill:#a7d854;stroke:#000000;stroke-width:0.3;"/>
   </g>
   <g id="patch_77">
    <path clip-path="url(#pffd6b2215b)" d="
M876.688 769.605
L888.035 769.605
L888.035 408.38
L876.688 408.38
z
" style="fill:#a7d854;stroke:#000000;stroke-width:0.3;"/>
   </g>
   <g id="patch_78">
    <path clip-path="url(#pffd6b2215b)" d="
M952.338 769.605
L963.686 769.605
L963.686 451.546
L952.338 451.546
z
" style="fill:#a7d854;stroke:#000000;stroke-width:0.3;"/>
   </g>
   <g id="patch_79">
    <path clip-path="url(#pffd6b2215b)" d="
M1027.99 769.605
L1039.34 769.605
L1039.34 479.26
L1027.99 479.26
z
" style="fill:#a7d854;stroke:#000000;stroke-width:0.3;"/>
   </g>
   <g id="patch_80">
    <path clip-path="url(#pffd6b2215b)" d="
M1103.64 769.605
L1114.99 769.605
L1114.99 488.058
L1103.64 488.058
z
" style="fill:#a7d854;stroke:#000000;stroke-width:0.3;"/>
   </g>
   <g id="patch_81">
    <path clip-path="url(#pffd6b2215b)" d="
M1179.29 769.605
L1190.64 769.605
L1190.64 491.586
L1179.29 491.586
z
" style="fill:#a7d854;stroke:#000000;stroke-width:0.3;"/>
   </g>
   <g id="patch_82">
    <path clip-path="url(#pffd6b2215b)" d="
M1254.94 769.605
L1266.29 769.605
L1266.29 574.325
L1254.94 574.325
z
" style="fill:#a7d854;stroke:#000000;stroke-width:0.3;"/>
   </g>
   <g id="line2d_79">
    <path clip-path="url(#pffd6b2215b)" d="
M55.88 769.605
L1285.2 769.605" style="fill:none;stroke:#000000;stroke-dasharray:6.000000,6.000000;stroke-dashoffset:0.0;stroke-width:1.75;"/>
   </g>
   <g id="patch_83">
    <path d="
M55.88 32.9787
L1285.2 32.9787" style="fill:none;stroke:#cccccc;"/>
   </g>
   <g id="patch_84">
    <path d="
M1285.2 769.605
L1285.2 32.9787" style="fill:none;stroke:#cccccc;"/>
   </g>
   <g id="patch_85">
    <path d="
M55.88 769.605
L1285.2 769.605" style="fill:none;stroke:#cccccc;"/>
   </g>
   <g id="patch_86">
    <path d="
M55.88 769.605
L55.88 32.9787" style="fill:none;stroke:#cccccc;"/>
   </g>
   <g id="text_27">
    <!-- Homologies per Tissue per Database -->
    <defs>
     <path d="
M8.01562 0
L8.01562 71.5781
L17.4844 71.5781
L17.4844 42.1875
L54.6875 42.1875
L54.6875 71.5781
L64.1562 71.5781
L64.1562 0
L54.6875 0
L54.6875 33.7344
L17.4844 33.7344
L17.4844 0
z
" id="ArialMT-48"/>
     <path d="
M7.71875 0
L7.71875 71.5781
L32.375 71.5781
Q40.7188 71.5781 45.125 70.5625
Q51.2656 69.1406 55.6094 65.4375
Q61.2812 60.6406 64.0781 53.1875
Q66.8906 45.75 66.8906 36.1875
Q66.8906 28.0312 64.9844 21.7344
Q63.0938 15.4375 60.1094 11.2969
Q57.125 7.17188 53.5781 4.79688
Q50.0469 2.4375 45.0469 1.21875
Q40.0469 0 33.5469 0
z

M17.1875 8.45312
L32.4688 8.45312
Q39.5469 8.45312 43.5781 9.76562
Q47.6094 11.0781 50 13.4844
Q53.375 16.8438 55.25 22.5312
Q57.125 28.2188 57.125 36.3281
Q57.125 47.5625 53.4375 53.5938
Q49.75 59.625 44.4844 61.6719
Q40.6719 63.1406 32.2344 63.1406
L17.1875 63.1406
z
" id="ArialMT-44"/>
     <path d="
M25.9219 0
L25.9219 63.1406
L2.34375 63.1406
L2.34375 71.5781
L59.0781 71.5781
L59.0781 63.1406
L35.4062 63.1406
L35.4062 0
z
" id="ArialMT-54"/>
     <path id="ArialMT-20"/>
    </defs>
    <g style="fill:#262626;" transform="translate(473.610625 27.97875)scale(0.24 -0.24)">
     <use xlink:href="#ArialMT-48"/>
     <use x="72.216796875" xlink:href="#ArialMT-6f"/>
     <use x="127.83203125" xlink:href="#ArialMT-6d"/>
     <use x="211.1328125" xlink:href="#ArialMT-6f"/>
     <use x="266.748046875" xlink:href="#ArialMT-6c"/>
     <use x="288.96484375" xlink:href="#ArialMT-6f"/>
     <use x="344.580078125" xlink:href="#ArialMT-67"/>
     <use x="400.1953125" xlink:href="#ArialMT-69"/>
     <use x="422.412109375" xlink:href="#ArialMT-65"/>
     <use x="478.02734375" xlink:href="#ArialMT-73"/>
     <use x="528.02734375" xlink:href="#ArialMT-20"/>
     <use x="555.810546875" xlink:href="#ArialMT-70"/>
     <use x="611.42578125" xlink:href="#ArialMT-65"/>
     <use x="667.041015625" xlink:href="#ArialMT-72"/>
     <use x="700.341796875" xlink:href="#ArialMT-20"/>
     <use x="726.375" xlink:href="#ArialMT-54"/>
     <use x="783.708984375" xlink:href="#ArialMT-69"/>
     <use x="805.92578125" xlink:href="#ArialMT-73"/>
     <use x="855.92578125" xlink:href="#ArialMT-73"/>
     <use x="905.92578125" xlink:href="#ArialMT-75"/>
     <use x="961.541015625" xlink:href="#ArialMT-65"/>
     <use x="1017.15625" xlink:href="#ArialMT-20"/>
     <use x="1044.93945312" xlink:href="#ArialMT-70"/>
     <use x="1100.5546875" xlink:href="#ArialMT-65"/>
     <use x="1156.16992188" xlink:href="#ArialMT-72"/>
     <use x="1189.47070312" xlink:href="#ArialMT-20"/>
     <use x="1217.25390625" xlink:href="#ArialMT-44"/>
     <use x="1289.47070312" xlink:href="#ArialMT-61"/>
     <use x="1345.0859375" xlink:href="#ArialMT-74"/>
     <use x="1372.86914062" xlink:href="#ArialMT-61"/>
     <use x="1428.484375" xlink:href="#ArialMT-62"/>
     <use x="1484.09960938" xlink:href="#ArialMT-61"/>
     <use x="1539.71484375" xlink:href="#ArialMT-73"/>
     <use x="1589.71484375" xlink:href="#ArialMT-65"/>
    </g>
   </g>
   <g id="legend_1">
    <g id="patch_87">
     <path d="
M1182.08 49.1366
L1202.08 49.1366
L1202.08 42.1366
L1182.08 42.1366
z
" style="fill:#66c2a5;stroke:#000000;stroke-width:0.3;"/>
    </g>
    <g id="text_28">
     <!-- Myxinidae_pep -->
     <defs>
      <path d="
M-1.51562 -19.875
L-1.51562 -13.5312
L56.7344 -13.5312
L56.7344 -19.875
z
" id="ArialMT-5f"/>
      <path d="
M0.734375 0
L19.6719 26.9531
L2.15625 51.8594
L13.1406 51.8594
L21.0938 39.7031
Q23.3438 36.2344 24.7031 33.8906
Q26.8594 37.1094 28.6562 39.5938
L37.4062 51.8594
L47.9062 51.8594
L29.9844 27.4375
L49.2656 0
L38.4844 0
L27.8281 16.1094
L25 20.4531
L11.375 0
z
" id="ArialMT-78"/>
      <path d="
M7.42188 0
L7.42188 71.5781
L21.6875 71.5781
L38.625 20.9062
Q40.9688 13.8125 42.0469 10.2969
Q43.2656 14.2031 45.8438 21.7812
L62.9844 71.5781
L75.7344 71.5781
L75.7344 0
L66.6094 0
L66.6094 59.9062
L45.7969 0
L37.25 0
L16.5469 60.9375
L16.5469 0
z
" id="ArialMT-4d"/>
     </defs>
     <g style="fill:#262626;" transform="translate(1210.08125 49.1365625)scale(0.1 -0.1)">
      <use xlink:href="#ArialMT-4d"/>
      <use x="83.30078125" xlink:href="#ArialMT-79"/>
      <use x="133.30078125" xlink:href="#ArialMT-78"/>
      <use x="183.30078125" xlink:href="#ArialMT-69"/>
      <use x="205.517578125" xlink:href="#ArialMT-6e"/>
      <use x="261.1328125" xlink:href="#ArialMT-69"/>
      <use x="283.349609375" xlink:href="#ArialMT-64"/>
      <use x="338.96484375" xlink:href="#ArialMT-61"/>
      <use x="394.580078125" xlink:href="#ArialMT-65"/>
      <use x="450.1953125" xlink:href="#ArialMT-5f"/>
      <use x="505.810546875" xlink:href="#ArialMT-70"/>
      <use x="561.42578125" xlink:href="#ArialMT-65"/>
      <use x="617.041015625" xlink:href="#ArialMT-70"/>
     </g>
    </g>
    <g id="patch_88">
     <path d="
M1182.08 63.3991
L1202.08 63.3991
L1202.08 56.3991
L1182.08 56.3991
z
" style="fill:#fa8e63;stroke:#000000;stroke-width:0.3;"/>
    </g>
    <g id="text_29">
     <!-- braFlo_pep -->
     <defs>
      <path d="
M8.20312 0
L8.20312 71.5781
L56.5 71.5781
L56.5 63.1406
L17.6719 63.1406
L17.6719 40.9688
L51.2656 40.9688
L51.2656 32.5156
L17.6719 32.5156
L17.6719 0
z
" id="ArialMT-46"/>
     </defs>
     <g style="fill:#262626;" transform="translate(1210.08125 63.3990625)scale(0.1 -0.1)">
      <use xlink:href="#ArialMT-62"/>
      <use x="55.615234375" xlink:href="#ArialMT-72"/>
      <use x="88.916015625" xlink:href="#ArialMT-61"/>
      <use x="144.53125" xlink:href="#ArialMT-46"/>
      <use x="205.615234375" xlink:href="#ArialMT-6c"/>
      <use x="227.83203125" xlink:href="#ArialMT-6f"/>
      <use x="283.447265625" xlink:href="#ArialMT-5f"/>
      <use x="339.0625" xlink:href="#ArialMT-70"/>
      <use x="394.677734375" xlink:href="#ArialMT-65"/>
      <use x="450.29296875" xlink:href="#ArialMT-70"/>
     </g>
    </g>
    <g id="patch_89">
     <path d="
M1182.08 77.5444
L1202.08 77.5444
L1202.08 70.5444
L1182.08 70.5444
z
" style="fill:#8da0cb;stroke:#000000;stroke-width:0.3;"/>
    </g>
    <g id="text_30">
     <!-- danRer_pep -->
     <defs>
      <path d="
M7.85938 0
L7.85938 71.5781
L39.5938 71.5781
Q49.1719 71.5781 54.1406 69.6406
Q59.125 67.7188 62.1094 62.8281
Q65.0938 57.9531 65.0938 52.0469
Q65.0938 44.4375 60.1562 39.2031
Q55.2188 33.9844 44.9219 32.5625
Q48.6875 30.7656 50.6406 29
Q54.7812 25.2031 58.5 19.4844
L70.9531 0
L59.0312 0
L49.5625 14.8906
Q45.4062 21.3438 42.7188 24.75
Q40.0469 28.1719 37.9219 29.5312
Q35.7969 30.9062 33.5938 31.4531
Q31.9844 31.7812 28.3281 31.7812
L17.3281 31.7812
L17.3281 0
z

M17.3281 39.9844
L37.7031 39.9844
Q44.1875 39.9844 47.8438 41.3281
Q51.5156 42.6719 53.4219 45.625
Q55.3281 48.5781 55.3281 52.0469
Q55.3281 57.125 51.6406 60.3906
Q47.9531 63.6719 39.9844 63.6719
L17.3281 63.6719
z
" id="ArialMT-52"/>
     </defs>
     <g style="fill:#262626;" transform="translate(1210.08125 77.544375)scale(0.1 -0.1)">
      <use xlink:href="#ArialMT-64"/>
      <use x="55.615234375" xlink:href="#ArialMT-61"/>
      <use x="111.23046875" xlink:href="#ArialMT-6e"/>
      <use x="166.845703125" xlink:href="#ArialMT-52"/>
      <use x="239.0625" xlink:href="#ArialMT-65"/>
      <use x="294.677734375" xlink:href="#ArialMT-72"/>
      <use x="327.978515625" xlink:href="#ArialMT-5f"/>
      <use x="383.59375" xlink:href="#ArialMT-70"/>
      <use x="439.208984375" xlink:href="#ArialMT-65"/>
      <use x="494.82421875" xlink:href="#ArialMT-70"/>
     </g>
    </g>
    <g id="patch_90">
     <path d="
M1182.08 91.8116
L1202.08 91.8116
L1202.08 84.8116
L1182.08 84.8116
z
" style="fill:#e68ac3;stroke:#000000;stroke-width:0.3;"/>
    </g>
    <g id="text_31">
     <!-- homSap_pep -->
     <defs>
      <path d="
M4.5 23
L13.4219 23.7812
Q14.0625 18.4062 16.375 14.9688
Q18.7031 11.5312 23.5781 9.40625
Q28.4688 7.28125 34.5781 7.28125
Q39.9844 7.28125 44.1406 8.89062
Q48.2969 10.5 50.3125 13.2969
Q52.3438 16.1094 52.3438 19.4375
Q52.3438 22.7969 50.3906 25.3125
Q48.4375 27.8281 43.9531 29.5469
Q41.0625 30.6719 31.2031 33.0312
Q21.3438 35.4062 17.3906 37.5
Q12.25 40.1875 9.73438 44.1562
Q7.23438 48.1406 7.23438 53.0781
Q7.23438 58.5 10.2969 63.2031
Q13.375 67.9219 19.2812 70.3594
Q25.2031 72.7969 32.4219 72.7969
Q40.375 72.7969 46.4531 70.2344
Q52.5469 67.6719 55.8125 62.6875
Q59.0781 57.7188 59.3281 51.4219
L50.25 50.7344
Q49.5156 57.5156 45.2812 60.9844
Q41.0625 64.4531 32.8125 64.4531
Q24.2188 64.4531 20.2812 61.2969
Q16.3594 58.1562 16.3594 53.7188
Q16.3594 49.8594 19.1406 47.3594
Q21.875 44.875 33.4219 42.2656
Q44.9688 39.6562 49.2656 37.7031
Q55.5156 34.8125 58.4844 30.3906
Q61.4688 25.9844 61.4688 20.2188
Q61.4688 14.5 58.2031 9.4375
Q54.9375 4.39062 48.7969 1.57812
Q42.6719 -1.21875 35.0156 -1.21875
Q25.2969 -1.21875 18.7188 1.60938
Q12.1562 4.4375 8.42188 10.125
Q4.6875 15.8281 4.5 23" id="ArialMT-53"/>
     </defs>
     <g style="fill:#262626;" transform="translate(1210.08125 91.8115625)scale(0.1 -0.1)">
      <use xlink:href="#ArialMT-68"/>
      <use x="55.615234375" xlink:href="#ArialMT-6f"/>
      <use x="111.23046875" xlink:href="#ArialMT-6d"/>
      <use x="194.53125" xlink:href="#ArialMT-53"/>
      <use x="261.23046875" xlink:href="#ArialMT-61"/>
      <use x="316.845703125" xlink:href="#ArialMT-70"/>
      <use x="372.4609375" xlink:href="#ArialMT-5f"/>
      <use x="428.076171875" xlink:href="#ArialMT-70"/>
      <use x="483.69140625" xlink:href="#ArialMT-65"/>
      <use x="539.306640625" xlink:href="#ArialMT-70"/>
     </g>
    </g>
    <g id="patch_91">
     <path d="
M1182.08 105.957
L1202.08 105.957
L1202.08 98.9569
L1182.08 98.9569
z
" style="fill:#a7d854;stroke:#000000;stroke-width:0.3;"/>
    </g>
    <g id="text_32">
     <!-- musMus_pep -->
     <g style="fill:#262626;" transform="translate(1210.08125 105.956875)scale(0.1 -0.1)">
      <use xlink:href="#ArialMT-6d"/>
      <use x="83.30078125" xlink:href="#ArialMT-75"/>
      <use x="138.916015625" xlink:href="#ArialMT-73"/>
      <use x="188.916015625" xlink:href="#ArialMT-4d"/>
      <use x="272.216796875" xlink:href="#ArialMT-75"/>
      <use x="327.83203125" xlink:href="#ArialMT-73"/>
      <use x="377.83203125" xlink:href="#ArialMT-5f"/>
      <use x="433.447265625" xlink:href="#ArialMT-70"/>
      <use x="489.0625" xlink:href="#ArialMT-65"/>
      <use x="544.677734375" xlink:href="#ArialMT-70"/>
     </g>
    </g>
   </g>
  </g>
 </g>
 <defs>
  <clipPath id="pffd6b2215b">
   <rect height="736.62625" width="1229.32" x="55.88" y="32.97875"/>
  </clipPath>
 </defs>
</svg>
