<?xml version="1.0" encoding="utf-8" standalone="no"?>
<!DOCTYPE svg PUBLIC "-//W3C//DTD SVG 1.1//EN"
  "http://www.w3.org/Graphics/SVG/1.1/DTD/svg11.dtd">
<!-- Created with matplotlib (http://matplotlib.org/) -->
<svg height="1728pt" version="1.1" viewBox="0 0 864 1728" width="864pt" xmlns="http://www.w3.org/2000/svg" xmlns:xlink="http://www.w3.org/1999/xlink">
 <defs>
  <style type="text/css">
*{stroke-linecap:butt;stroke-linejoin:round;}
  </style>
 </defs>
 <g id="figure_1">
  <g id="patch_1">
   <path d="
M0 1728
L864 1728
L864 0
L0 0
z
" style="fill:#ffffff;"/>
  </g>
  <g id="axes_1">
   <g id="patch_2">
    <path d="
M94.395 1697.4
L830.473 1697.4
L830.473 32.9787
L94.395 32.9787
z
" style="fill:#ffffff;"/>
   </g>
   <g id="matplotlib.axis_1">
    <g id="xtick_1">
     <g id="line2d_1">
      <path clip-path="url(#p42e688bd08)" d="
M94.395 1697.4
L94.395 32.9787" style="fill:none;stroke:#cccccc;stroke-linecap:round;"/>
     </g>
     <g id="line2d_2">
      <defs>
       <path d="
M0 0
L0 0" id="m219da94a98" style="stroke:#262626;"/>
      </defs>
      <g>
       <use style="fill:#262626;stroke:#262626;" x="94.395" xlink:href="#m219da94a98" y="1697.3965625"/>
      </g>
     </g>
     <g id="line2d_3">
      <g>
       <use style="fill:#262626;stroke:#262626;" x="94.395" xlink:href="#m219da94a98" y="32.97875"/>
      </g>
     </g>
     <g id="text_1">
      <!-- 0 -->
      <defs>
       <path d="
M4.15625 35.2969
Q4.15625 48 6.76562 55.7344
Q9.375 63.4844 14.5156 67.6719
Q19.6719 71.875 27.4844 71.875
Q33.25 71.875 37.5938 69.5469
Q41.9375 67.2344 44.7656 62.8594
Q47.6094 58.5 49.2188 52.2188
Q50.8281 45.9531 50.8281 35.2969
Q50.8281 22.7031 48.2344 14.9688
Q45.6562 7.23438 40.5 3
Q35.3594 -1.21875 27.4844 -1.21875
Q17.1406 -1.21875 11.2344 6.20312
Q4.15625 15.1406 4.15625 35.2969
M13.1875 35.2969
Q13.1875 17.6719 17.3125 11.8281
Q21.4375 6 27.4844 6
Q33.5469 6 37.6719 11.8594
Q41.7969 17.7188 41.7969 35.2969
Q41.7969 52.9844 37.6719 58.7812
Q33.5469 64.5938 27.3906 64.5938
Q21.3438 64.5938 17.7188 59.4688
Q13.1875 52.9375 13.1875 35.2969" id="ArialMT-30"/>
      </defs>
      <g style="fill:#262626;" transform="translate(91.12796875 1714.4175)scale(0.14 -0.14)">
       <use xlink:href="#ArialMT-30"/>
      </g>
     </g>
    </g>
    <g id="xtick_2">
     <g id="line2d_4">
      <path clip-path="url(#p42e688bd08)" d="
M199.549 1697.4
L199.549 32.9787" style="fill:none;stroke:#cccccc;stroke-linecap:round;"/>
     </g>
     <g id="line2d_5">
      <g>
       <use style="fill:#262626;stroke:#262626;" x="199.548995536" xlink:href="#m219da94a98" y="1697.3965625"/>
      </g>
     </g>
     <g id="line2d_6">
      <g>
       <use style="fill:#262626;stroke:#262626;" x="199.548995536" xlink:href="#m219da94a98" y="32.97875"/>
      </g>
     </g>
     <g id="text_2">
      <!-- 50000 -->
      <defs>
       <path d="
M4.15625 18.75
L13.375 19.5312
Q14.4062 12.7969 18.1406 9.39062
Q21.875 6 27.1562 6
Q33.5 6 37.8906 10.7812
Q42.2812 15.5781 42.2812 23.4844
Q42.2812 31 38.0625 35.3438
Q33.8438 39.7031 27 39.7031
Q22.75 39.7031 19.3281 37.7656
Q15.9219 35.8438 13.9688 32.7656
L5.71875 33.8438
L12.6406 70.6094
L48.25 70.6094
L48.25 62.2031
L19.6719 62.2031
L15.8281 42.9688
Q22.2656 47.4688 29.3438 47.4688
Q38.7188 47.4688 45.1562 40.9688
Q51.6094 34.4688 51.6094 24.2656
Q51.6094 14.5469 45.9531 7.46875
Q39.0625 -1.21875 27.1562 -1.21875
Q17.3906 -1.21875 11.2031 4.25
Q5.03125 9.71875 4.15625 18.75" id="ArialMT-35"/>
      </defs>
      <g style="fill:#262626;" transform="translate(180.711339286 1714.4175)scale(0.14 -0.14)">
       <use xlink:href="#ArialMT-35"/>
       <use x="55.615234375" xlink:href="#ArialMT-30"/>
       <use x="111.23046875" xlink:href="#ArialMT-30"/>
       <use x="166.845703125" xlink:href="#ArialMT-30"/>
       <use x="222.4609375" xlink:href="#ArialMT-30"/>
      </g>
     </g>
    </g>
    <g id="xtick_3">
     <g id="line2d_7">
      <path clip-path="url(#p42e688bd08)" d="
M304.703 1697.4
L304.703 32.9787" style="fill:none;stroke:#cccccc;stroke-linecap:round;"/>
     </g>
     <g id="line2d_8">
      <g>
       <use style="fill:#262626;stroke:#262626;" x="304.702991071" xlink:href="#m219da94a98" y="1697.3965625"/>
      </g>
     </g>
     <g id="line2d_9">
      <g>
       <use style="fill:#262626;stroke:#262626;" x="304.702991071" xlink:href="#m219da94a98" y="32.97875"/>
      </g>
     </g>
     <g id="text_3">
      <!-- 100000 -->
      <defs>
       <path d="
M37.25 0
L28.4688 0
L28.4688 56
Q25.2969 52.9844 20.1406 49.9531
Q14.9844 46.9219 10.8906 45.4062
L10.8906 53.9062
Q18.2656 57.375 23.7812 62.2969
Q29.2969 67.2344 31.5938 71.875
L37.25 71.875
z
" id="ArialMT-31"/>
      </defs>
      <g style="fill:#262626;" transform="translate(282.444084821 1714.4175)scale(0.14 -0.14)">
       <use xlink:href="#ArialMT-31"/>
       <use x="55.615234375" xlink:href="#ArialMT-30"/>
       <use x="111.23046875" xlink:href="#ArialMT-30"/>
       <use x="166.845703125" xlink:href="#ArialMT-30"/>
       <use x="222.4609375" xlink:href="#ArialMT-30"/>
       <use x="278.076171875" xlink:href="#ArialMT-30"/>
      </g>
     </g>
    </g>
    <g id="xtick_4">
     <g id="line2d_10">
      <path clip-path="url(#p42e688bd08)" d="
M409.857 1697.4
L409.857 32.9787" style="fill:none;stroke:#cccccc;stroke-linecap:round;"/>
     </g>
     <g id="line2d_11">
      <g>
       <use style="fill:#262626;stroke:#262626;" x="409.856986607" xlink:href="#m219da94a98" y="1697.3965625"/>
      </g>
     </g>
     <g id="line2d_12">
      <g>
       <use style="fill:#262626;stroke:#262626;" x="409.856986607" xlink:href="#m219da94a98" y="32.97875"/>
      </g>
     </g>
     <g id="text_4">
      <!-- 150000 -->
      <g style="fill:#262626;" transform="translate(387.598080357 1714.4175)scale(0.14 -0.14)">
       <use xlink:href="#ArialMT-31"/>
       <use x="55.615234375" xlink:href="#ArialMT-35"/>
       <use x="111.23046875" xlink:href="#ArialMT-30"/>
       <use x="166.845703125" xlink:href="#ArialMT-30"/>
       <use x="222.4609375" xlink:href="#ArialMT-30"/>
       <use x="278.076171875" xlink:href="#ArialMT-30"/>
      </g>
     </g>
    </g>
    <g id="xtick_5">
     <g id="line2d_13">
      <path clip-path="url(#p42e688bd08)" d="
M515.011 1697.4
L515.011 32.9787" style="fill:none;stroke:#cccccc;stroke-linecap:round;"/>
     </g>
     <g id="line2d_14">
      <g>
       <use style="fill:#262626;stroke:#262626;" x="515.010982143" xlink:href="#m219da94a98" y="1697.3965625"/>
      </g>
     </g>
     <g id="line2d_15">
      <g>
       <use style="fill:#262626;stroke:#262626;" x="515.010982143" xlink:href="#m219da94a98" y="32.97875"/>
      </g>
     </g>
     <g id="text_5">
      <!-- 200000 -->
      <defs>
       <path d="
M50.3438 8.45312
L50.3438 0
L3.03125 0
Q2.9375 3.17188 4.04688 6.10938
Q5.85938 10.9375 9.82812 15.625
Q13.8125 20.3125 21.3438 26.4688
Q33.0156 36.0312 37.1094 41.625
Q41.2188 47.2188 41.2188 52.2031
Q41.2188 57.4219 37.4688 61
Q33.7344 64.5938 27.7344 64.5938
Q21.3906 64.5938 17.5781 60.7812
Q13.7656 56.9844 13.7188 50.25
L4.6875 51.1719
Q5.60938 61.2812 11.6562 66.5781
Q17.7188 71.875 27.9375 71.875
Q38.2344 71.875 44.2344 66.1562
Q50.25 60.4531 50.25 52
Q50.25 47.7031 48.4844 43.5469
Q46.7344 39.4062 42.6562 34.8125
Q38.5781 30.2188 29.1094 22.2188
Q21.1875 15.5781 18.9375 13.2031
Q16.7031 10.8438 15.2344 8.45312
z
" id="ArialMT-32"/>
      </defs>
      <g style="fill:#262626;" transform="translate(492.195357143 1714.4175)scale(0.14 -0.14)">
       <use xlink:href="#ArialMT-32"/>
       <use x="55.615234375" xlink:href="#ArialMT-30"/>
       <use x="111.23046875" xlink:href="#ArialMT-30"/>
       <use x="166.845703125" xlink:href="#ArialMT-30"/>
       <use x="222.4609375" xlink:href="#ArialMT-30"/>
       <use x="278.076171875" xlink:href="#ArialMT-30"/>
      </g>
     </g>
    </g>
    <g id="xtick_6">
     <g id="line2d_16">
      <path clip-path="url(#p42e688bd08)" d="
M620.165 1697.4
L620.165 32.9787" style="fill:none;stroke:#cccccc;stroke-linecap:round;"/>
     </g>
     <g id="line2d_17">
      <g>
       <use style="fill:#262626;stroke:#262626;" x="620.164977679" xlink:href="#m219da94a98" y="1697.3965625"/>
      </g>
     </g>
     <g id="line2d_18">
      <g>
       <use style="fill:#262626;stroke:#262626;" x="620.164977679" xlink:href="#m219da94a98" y="32.97875"/>
      </g>
     </g>
     <g id="text_6">
      <!-- 250000 -->
      <g style="fill:#262626;" transform="translate(597.349352679 1714.4175)scale(0.14 -0.14)">
       <use xlink:href="#ArialMT-32"/>
       <use x="55.615234375" xlink:href="#ArialMT-35"/>
       <use x="111.23046875" xlink:href="#ArialMT-30"/>
       <use x="166.845703125" xlink:href="#ArialMT-30"/>
       <use x="222.4609375" xlink:href="#ArialMT-30"/>
       <use x="278.076171875" xlink:href="#ArialMT-30"/>
      </g>
     </g>
    </g>
    <g id="xtick_7">
     <g id="line2d_19">
      <path clip-path="url(#p42e688bd08)" d="
M725.319 1697.4
L725.319 32.9787" style="fill:none;stroke:#cccccc;stroke-linecap:round;"/>
     </g>
     <g id="line2d_20">
      <g>
       <use style="fill:#262626;stroke:#262626;" x="725.318973214" xlink:href="#m219da94a98" y="1697.3965625"/>
      </g>
     </g>
     <g id="line2d_21">
      <g>
       <use style="fill:#262626;stroke:#262626;" x="725.318973214" xlink:href="#m219da94a98" y="32.97875"/>
      </g>
     </g>
     <g id="text_7">
      <!-- 300000 -->
      <defs>
       <path d="
M4.20312 18.8906
L12.9844 20.0625
Q14.5 12.5938 18.1406 9.29688
Q21.7812 6 27 6
Q33.2031 6 37.4688 10.2969
Q41.75 14.5938 41.75 20.9531
Q41.75 27 37.7969 30.9219
Q33.8438 34.8594 27.7344 34.8594
Q25.25 34.8594 21.5312 33.8906
L22.5156 41.6094
Q23.3906 41.5 23.9219 41.5
Q29.5469 41.5 34.0312 44.4219
Q38.5312 47.3594 38.5312 53.4688
Q38.5312 58.2969 35.25 61.4688
Q31.9844 64.6562 26.8125 64.6562
Q21.6875 64.6562 18.2656 61.4219
Q14.8438 58.2031 13.875 51.7656
L5.07812 53.3281
Q6.6875 62.1562 12.3906 67.0156
Q18.1094 71.875 26.6094 71.875
Q32.4688 71.875 37.3906 69.3594
Q42.3281 66.8438 44.9375 62.5
Q47.5625 58.1562 47.5625 53.2656
Q47.5625 48.6406 45.0625 44.8281
Q42.5781 41.0156 37.7031 38.7656
Q44.0469 37.3125 47.5625 32.6875
Q51.0781 28.0781 51.0781 21.1406
Q51.0781 11.7656 44.2344 5.25
Q37.4062 -1.26562 26.9531 -1.26562
Q17.5312 -1.26562 11.2969 4.34375
Q5.07812 9.96875 4.20312 18.8906" id="ArialMT-33"/>
      </defs>
      <g style="fill:#262626;" transform="translate(702.591941964 1714.4175)scale(0.14 -0.14)">
       <use xlink:href="#ArialMT-33"/>
       <use x="55.615234375" xlink:href="#ArialMT-30"/>
       <use x="111.23046875" xlink:href="#ArialMT-30"/>
       <use x="166.845703125" xlink:href="#ArialMT-30"/>
       <use x="222.4609375" xlink:href="#ArialMT-30"/>
       <use x="278.076171875" xlink:href="#ArialMT-30"/>
      </g>
     </g>
    </g>
    <g id="xtick_8">
     <g id="line2d_22">
      <path clip-path="url(#p42e688bd08)" d="
M830.473 1697.4
L830.473 32.9787" style="fill:none;stroke:#cccccc;stroke-linecap:round;"/>
     </g>
     <g id="line2d_23">
      <g>
       <use style="fill:#262626;stroke:#262626;" x="830.47296875" xlink:href="#m219da94a98" y="1697.3965625"/>
      </g>
     </g>
     <g id="line2d_24">
      <g>
       <use style="fill:#262626;stroke:#262626;" x="830.47296875" xlink:href="#m219da94a98" y="32.97875"/>
      </g>
     </g>
     <g id="text_8">
      <!-- 350000 -->
      <g style="fill:#262626;" transform="translate(807.7459375 1714.4175)scale(0.14 -0.14)">
       <use xlink:href="#ArialMT-33"/>
       <use x="55.615234375" xlink:href="#ArialMT-35"/>
       <use x="111.23046875" xlink:href="#ArialMT-30"/>
       <use x="166.845703125" xlink:href="#ArialMT-30"/>
       <use x="222.4609375" xlink:href="#ArialMT-30"/>
       <use x="278.076171875" xlink:href="#ArialMT-30"/>
      </g>
     </g>
    </g>
   </g>
   <g id="matplotlib.axis_2">
    <g id="ytick_1">
     <g id="line2d_25">
      <path clip-path="url(#p42e688bd08)" d="
M94.395 1633.38
L830.473 1633.38" style="fill:none;stroke:#cccccc;stroke-linecap:round;"/>
     </g>
     <g id="line2d_26">
      <g>
       <use style="fill:#262626;stroke:#262626;" x="94.395" xlink:href="#m219da94a98" y="1633.38049279"/>
      </g>
     </g>
     <g id="line2d_27">
      <g>
       <use style="fill:#262626;stroke:#262626;" x="830.47296875" xlink:href="#m219da94a98" y="1633.38049279"/>
      </g>
     </g>
     <g id="text_9">
      <!-- brain -->
      <defs>
       <path d="
M6.59375 0
L6.59375 51.8594
L14.5 51.8594
L14.5 44.4844
Q20.2188 53.0312 31 53.0312
Q35.6875 53.0312 39.625 51.3438
Q43.5625 49.6562 45.5156 46.9219
Q47.4688 44.1875 48.25 40.4375
Q48.7344 37.9844 48.7344 31.8906
L48.7344 0
L39.9375 0
L39.9375 31.5469
Q39.9375 36.9219 38.9062 39.5781
Q37.8906 42.2344 35.2812 43.8125
Q32.6719 45.4062 29.1562 45.4062
Q23.5312 45.4062 19.4531 41.8438
Q15.375 38.2812 15.375 28.3281
L15.375 0
z
" id="ArialMT-6e"/>
       <path d="
M14.7031 0
L6.54688 0
L6.54688 71.5781
L15.3281 71.5781
L15.3281 46.0469
Q20.9062 53.0312 29.5469 53.0312
Q34.3281 53.0312 38.5938 51.0938
Q42.875 49.1719 45.625 45.6719
Q48.3906 42.1875 49.9531 37.25
Q51.5156 32.3281 51.5156 26.7031
Q51.5156 13.375 44.9219 6.09375
Q38.3281 -1.17188 29.1094 -1.17188
Q19.9219 -1.17188 14.7031 6.5
z

M14.5938 26.3125
Q14.5938 17 17.1406 12.8438
Q21.2969 6.0625 28.375 6.0625
Q34.125 6.0625 38.3281 11.0625
Q42.5312 16.0625 42.5312 25.9844
Q42.5312 36.1406 38.5 40.9688
Q34.4688 45.7969 28.7656 45.7969
Q23 45.7969 18.7969 40.7969
Q14.5938 35.7969 14.5938 26.3125" id="ArialMT-62"/>
       <path d="
M40.4375 6.39062
Q35.5469 2.25 31.0312 0.53125
Q26.5156 -1.17188 21.3438 -1.17188
Q12.7969 -1.17188 8.20312 3
Q3.60938 7.17188 3.60938 13.6719
Q3.60938 17.4844 5.34375 20.625
Q7.07812 23.7812 9.89062 25.6875
Q12.7031 27.5938 16.2188 28.5625
Q18.7969 29.25 24.0312 29.8906
Q34.6719 31.1562 39.7031 32.9062
Q39.75 34.7188 39.75 35.2031
Q39.75 40.5781 37.25 42.7812
Q33.8906 45.75 27.25 45.75
Q21.0469 45.75 18.0938 43.5781
Q15.1406 41.4062 13.7188 35.8906
L5.125 37.0625
Q6.29688 42.5781 8.98438 45.9688
Q11.6719 49.3594 16.75 51.1875
Q21.8281 53.0312 28.5156 53.0312
Q35.1562 53.0312 39.2969 51.4688
Q43.4531 49.9062 45.4062 47.5312
Q47.3594 45.1719 48.1406 41.5469
Q48.5781 39.3125 48.5781 33.4531
L48.5781 21.7344
Q48.5781 9.46875 49.1406 6.21875
Q49.7031 2.98438 51.375 0
L42.1875 0
Q40.8281 2.73438 40.4375 6.39062
M39.7031 26.0312
Q34.9062 24.0781 25.3438 22.7031
Q19.9219 21.9219 17.6719 20.9375
Q15.4375 19.9688 14.2031 18.0938
Q12.9844 16.2188 12.9844 13.9219
Q12.9844 10.4062 15.6406 8.0625
Q18.3125 5.71875 23.4375 5.71875
Q28.5156 5.71875 32.4688 7.9375
Q36.4219 10.1562 38.2812 14.0156
Q39.7031 17 39.7031 22.7969
z
" id="ArialMT-61"/>
       <path d="
M6.64062 61.4688
L6.64062 71.5781
L15.4375 71.5781
L15.4375 61.4688
z

M6.64062 0
L6.64062 51.8594
L15.4375 51.8594
L15.4375 0
z
" id="ArialMT-69"/>
       <path d="
M6.5 0
L6.5 51.8594
L14.4062 51.8594
L14.4062 44
Q17.4375 49.5156 20 51.2656
Q22.5625 53.0312 25.6406 53.0312
Q30.0781 53.0312 34.6719 50.2031
L31.6406 42.0469
Q28.4219 43.9531 25.2031 43.9531
Q22.3125 43.9531 20.0156 42.2188
Q17.7188 40.4844 16.75 37.4062
Q15.2812 32.7188 15.2812 27.1562
L15.2812 0
z
" id="ArialMT-72"/>
      </defs>
      <g style="fill:#262626;" transform="translate(53.9675 1637.51674279)scale(0.16 -0.16)">
       <use xlink:href="#ArialMT-62"/>
       <use x="55.615234375" xlink:href="#ArialMT-72"/>
       <use x="88.916015625" xlink:href="#ArialMT-61"/>
       <use x="144.53125" xlink:href="#ArialMT-69"/>
       <use x="166.748046875" xlink:href="#ArialMT-6e"/>
      </g>
     </g>
    </g>
    <g id="ytick_2">
     <g id="line2d_28">
      <path clip-path="url(#p42e688bd08)" d="
M94.395 1530.95
L830.473 1530.95" style="fill:none;stroke:#cccccc;stroke-linecap:round;"/>
     </g>
     <g id="line2d_29">
      <g>
       <use style="fill:#262626;stroke:#262626;" x="94.395" xlink:href="#m219da94a98" y="1530.95478125"/>
      </g>
     </g>
     <g id="line2d_30">
      <g>
       <use style="fill:#262626;stroke:#262626;" x="830.47296875" xlink:href="#m219da94a98" y="1530.95478125"/>
      </g>
     </g>
     <g id="text_10">
      <!-- embryo -->
      <defs>
       <path d="
M3.32812 25.9219
Q3.32812 40.3281 11.3281 47.2656
Q18.0156 53.0312 27.6406 53.0312
Q38.3281 53.0312 45.1094 46.0156
Q51.9062 39.0156 51.9062 26.6562
Q51.9062 16.6562 48.9062 10.9062
Q45.9062 5.17188 40.1562 2
Q34.4219 -1.17188 27.6406 -1.17188
Q16.75 -1.17188 10.0312 5.8125
Q3.32812 12.7969 3.32812 25.9219
M12.3594 25.9219
Q12.3594 15.9688 16.7031 11.0156
Q21.0469 6.0625 27.6406 6.0625
Q34.1875 6.0625 38.5312 11.0312
Q42.875 16.0156 42.875 26.2188
Q42.875 35.8438 38.5 40.7969
Q34.125 45.75 27.6406 45.75
Q21.0469 45.75 16.7031 40.8125
Q12.3594 35.8906 12.3594 25.9219" id="ArialMT-6f"/>
       <path d="
M6.20312 -19.9688
L5.21875 -11.7188
Q8.10938 -12.5 10.25 -12.5
Q13.1875 -12.5 14.9375 -11.5156
Q16.7031 -10.5469 17.8281 -8.79688
Q18.6562 -7.46875 20.5156 -2.25
Q20.75 -1.51562 21.2969 -0.09375
L1.60938 51.8594
L11.0781 51.8594
L21.875 21.8281
Q23.9688 16.1094 25.6406 9.8125
Q27.1562 15.875 29.25 21.625
L40.3281 51.8594
L49.125 51.8594
L29.3906 -0.875
Q26.2188 -9.42188 24.4688 -12.6406
Q22.125 -17 19.0938 -19.0156
Q16.0625 -21.0469 11.8594 -21.0469
Q9.32812 -21.0469 6.20312 -19.9688" id="ArialMT-79"/>
       <path d="
M42.0938 16.7031
L51.1719 15.5781
Q49.0312 7.625 43.2188 3.21875
Q37.4062 -1.17188 28.375 -1.17188
Q17 -1.17188 10.3281 5.82812
Q3.65625 12.8438 3.65625 25.4844
Q3.65625 38.5781 10.3906 45.7969
Q17.1406 53.0312 27.875 53.0312
Q38.2812 53.0312 44.875 45.9531
Q51.4688 38.875 51.4688 26.0312
Q51.4688 25.25 51.4219 23.6875
L12.75 23.6875
Q13.2344 15.1406 17.5781 10.5938
Q21.9219 6.0625 28.4219 6.0625
Q33.25 6.0625 36.6719 8.59375
Q40.0938 11.1406 42.0938 16.7031
M13.2344 30.9062
L42.1875 30.9062
Q41.6094 37.4531 38.875 40.7188
Q34.6719 45.7969 27.9844 45.7969
Q21.9219 45.7969 17.7969 41.75
Q13.6719 37.7031 13.2344 30.9062" id="ArialMT-65"/>
       <path d="
M6.59375 0
L6.59375 51.8594
L14.4531 51.8594
L14.4531 44.5781
Q16.8906 48.3906 20.9375 50.7031
Q25 53.0312 30.1719 53.0312
Q35.9375 53.0312 39.625 50.6406
Q43.3125 48.25 44.8281 43.9531
Q50.9844 53.0312 60.8438 53.0312
Q68.5625 53.0312 72.7031 48.75
Q76.8594 44.4844 76.8594 35.5938
L76.8594 0
L68.1094 0
L68.1094 32.6719
Q68.1094 37.9375 67.25 40.25
Q66.4062 42.5781 64.1562 43.9844
Q61.9219 45.4062 58.8906 45.4062
Q53.4219 45.4062 49.7969 41.7656
Q46.1875 38.1406 46.1875 30.125
L46.1875 0
L37.4062 0
L37.4062 33.6875
Q37.4062 39.5469 35.25 42.4688
Q33.1094 45.4062 28.2188 45.4062
Q24.5156 45.4062 21.3594 43.4531
Q18.2188 41.5 16.7969 37.7344
Q15.375 33.9844 15.375 26.9062
L15.375 0
z
" id="ArialMT-6d"/>
      </defs>
      <g style="fill:#262626;" transform="translate(35.225 1534.99728125)scale(0.16 -0.16)">
       <use xlink:href="#ArialMT-65"/>
       <use x="55.615234375" xlink:href="#ArialMT-6d"/>
       <use x="138.916015625" xlink:href="#ArialMT-62"/>
       <use x="194.53125" xlink:href="#ArialMT-72"/>
       <use x="227.83203125" xlink:href="#ArialMT-79"/>
       <use x="277.83203125" xlink:href="#ArialMT-6f"/>
      </g>
     </g>
    </g>
    <g id="ytick_3">
     <g id="line2d_31">
      <path clip-path="url(#p42e688bd08)" d="
M94.395 1428.53
L830.473 1428.53" style="fill:none;stroke:#cccccc;stroke-linecap:round;"/>
     </g>
     <g id="line2d_32">
      <g>
       <use style="fill:#262626;stroke:#262626;" x="94.395" xlink:href="#m219da94a98" y="1428.52906971"/>
      </g>
     </g>
     <g id="line2d_33">
      <g>
       <use style="fill:#262626;stroke:#262626;" x="830.47296875" xlink:href="#m219da94a98" y="1428.52906971"/>
      </g>
     </g>
     <g id="text_11">
      <!-- eye -->
      <g style="fill:#262626;" transform="translate(62.8475 1432.47781971)scale(0.16 -0.16)">
       <use xlink:href="#ArialMT-65"/>
       <use x="55.615234375" xlink:href="#ArialMT-79"/>
       <use x="105.615234375" xlink:href="#ArialMT-65"/>
      </g>
     </g>
    </g>
    <g id="ytick_4">
     <g id="line2d_34">
      <path clip-path="url(#p42e688bd08)" d="
M94.395 1326.1
L830.473 1326.1" style="fill:none;stroke:#cccccc;stroke-linecap:round;"/>
     </g>
     <g id="line2d_35">
      <g>
       <use style="fill:#262626;stroke:#262626;" x="94.395" xlink:href="#m219da94a98" y="1326.10335817"/>
      </g>
     </g>
     <g id="line2d_36">
      <g>
       <use style="fill:#262626;stroke:#262626;" x="830.47296875" xlink:href="#m219da94a98" y="1326.10335817"/>
      </g>
     </g>
     <g id="text_12">
      <!-- gill -->
      <defs>
       <path d="
M6.39062 0
L6.39062 71.5781
L15.1875 71.5781
L15.1875 0
z
" id="ArialMT-6c"/>
       <path d="
M4.98438 -4.29688
L13.5312 -5.5625
Q14.0625 -9.51562 16.5 -11.3281
Q19.7812 -13.7656 25.4375 -13.7656
Q31.5469 -13.7656 34.8594 -11.3281
Q38.1875 -8.89062 39.3594 -4.5
Q40.0469 -1.8125 39.9844 6.78125
Q34.2344 0 25.6406 0
Q14.9375 0 9.07812 7.71875
Q3.21875 15.4375 3.21875 26.2188
Q3.21875 33.6406 5.90625 39.9062
Q8.59375 46.1875 13.6875 49.6094
Q18.7969 53.0312 25.6875 53.0312
Q34.8594 53.0312 40.8281 45.6094
L40.8281 51.8594
L48.9219 51.8594
L48.9219 7.03125
Q48.9219 -5.07812 46.4531 -10.125
Q44 -15.1875 38.6406 -18.1094
Q33.2969 -21.0469 25.4844 -21.0469
Q16.2188 -21.0469 10.5 -16.875
Q4.78125 -12.7031 4.98438 -4.29688
M12.25 26.8594
Q12.25 16.6562 16.2969 11.9688
Q20.3594 7.28125 26.4688 7.28125
Q32.5156 7.28125 36.6094 11.9375
Q40.7188 16.6094 40.7188 26.5625
Q40.7188 36.0781 36.5 40.9062
Q32.2812 45.75 26.3125 45.75
Q20.4531 45.75 16.3438 40.9844
Q12.25 36.2344 12.25 26.8594" id="ArialMT-67"/>
      </defs>
      <g style="fill:#262626;" transform="translate(69.4725 1330.14585817)scale(0.16 -0.16)">
       <use xlink:href="#ArialMT-67"/>
       <use x="55.615234375" xlink:href="#ArialMT-69"/>
       <use x="77.83203125" xlink:href="#ArialMT-6c"/>
       <use x="100.048828125" xlink:href="#ArialMT-6c"/>
      </g>
     </g>
    </g>
    <g id="ytick_5">
     <g id="line2d_37">
      <path clip-path="url(#p42e688bd08)" d="
M94.395 1223.68
L830.473 1223.68" style="fill:none;stroke:#cccccc;stroke-linecap:round;"/>
     </g>
     <g id="line2d_38">
      <g>
       <use style="fill:#262626;stroke:#262626;" x="94.395" xlink:href="#m219da94a98" y="1223.67764663"/>
      </g>
     </g>
     <g id="line2d_39">
      <g>
       <use style="fill:#262626;stroke:#262626;" x="830.47296875" xlink:href="#m219da94a98" y="1223.67764663"/>
      </g>
     </g>
     <g id="text_13">
      <!-- headskin -->
      <defs>
       <path d="
M6.64062 0
L6.64062 71.5781
L15.4375 71.5781
L15.4375 30.7656
L36.2344 51.8594
L47.6094 51.8594
L27.7812 32.625
L49.6094 0
L38.7656 0
L21.625 26.5156
L15.4375 20.5625
L15.4375 0
z
" id="ArialMT-6b"/>
       <path d="
M6.59375 0
L6.59375 71.5781
L15.375 71.5781
L15.375 45.9062
Q21.5312 53.0312 30.9062 53.0312
Q36.6719 53.0312 40.9219 50.75
Q45.1719 48.4844 47 44.4844
Q48.8281 40.4844 48.8281 32.8594
L48.8281 0
L40.0469 0
L40.0469 32.8594
Q40.0469 39.4531 37.1875 42.4531
Q34.3281 45.4531 29.1094 45.4531
Q25.2031 45.4531 21.75 43.4219
Q18.3125 41.4062 16.8438 37.9375
Q15.375 34.4688 15.375 28.375
L15.375 0
z
" id="ArialMT-68"/>
       <path d="
M3.07812 15.4844
L11.7656 16.8438
Q12.5 11.625 15.8438 8.84375
Q19.1875 6.0625 25.2031 6.0625
Q31.25 6.0625 34.1719 8.51562
Q37.1094 10.9844 37.1094 14.3125
Q37.1094 17.2812 34.5156 19
Q32.7188 20.1719 25.5312 21.9688
Q15.875 24.4219 12.1406 26.2031
Q8.40625 27.9844 6.46875 31.125
Q4.54688 34.2812 4.54688 38.0938
Q4.54688 41.5469 6.125 44.5
Q7.71875 47.4688 10.4531 49.4219
Q12.5 50.9219 16.0312 51.9688
Q19.5781 53.0312 23.6406 53.0312
Q29.7344 53.0312 34.3438 51.2656
Q38.9688 49.5156 41.1562 46.5
Q43.3594 43.5 44.1875 38.4844
L35.5938 37.3125
Q35.0156 41.3125 32.2031 43.5469
Q29.3906 45.7969 24.2656 45.7969
Q18.2188 45.7969 15.625 43.7969
Q13.0312 41.7969 13.0312 39.1094
Q13.0312 37.4062 14.1094 36.0312
Q15.1875 34.625 17.4844 33.6875
Q18.7969 33.2031 25.25 31.4531
Q34.5781 28.9531 38.25 27.3594
Q41.9375 25.7812 44.0312 22.75
Q46.1406 19.7344 46.1406 15.2344
Q46.1406 10.8438 43.5781 6.95312
Q41.0156 3.07812 36.1719 0.953125
Q31.3438 -1.17188 25.25 -1.17188
Q15.1406 -1.17188 9.84375 3.03125
Q4.54688 7.23438 3.07812 15.4844" id="ArialMT-73"/>
       <path d="
M40.2344 0
L40.2344 6.54688
Q35.2969 -1.17188 25.7344 -1.17188
Q19.5312 -1.17188 14.3281 2.25
Q9.125 5.67188 6.26562 11.7969
Q3.42188 17.9219 3.42188 25.875
Q3.42188 33.6406 6 39.9688
Q8.59375 46.2969 13.7656 49.6562
Q18.9531 53.0312 25.3438 53.0312
Q30.0312 53.0312 33.6875 51.0469
Q37.3594 49.0781 39.6562 45.9062
L39.6562 71.5781
L48.3906 71.5781
L48.3906 0
z

M12.4531 25.875
Q12.4531 15.9219 16.6406 10.9844
Q20.8438 6.0625 26.5625 6.0625
Q32.3281 6.0625 36.3438 10.7656
Q40.375 15.4844 40.375 25.1406
Q40.375 35.7969 36.2656 40.7656
Q32.1719 45.75 26.1719 45.75
Q20.3125 45.75 16.375 40.9688
Q12.4531 36.1875 12.4531 25.875" id="ArialMT-64"/>
      </defs>
      <g style="fill:#262626;" transform="translate(25.5075 1227.81389663)scale(0.16 -0.16)">
       <use xlink:href="#ArialMT-68"/>
       <use x="55.615234375" xlink:href="#ArialMT-65"/>
       <use x="111.23046875" xlink:href="#ArialMT-61"/>
       <use x="166.845703125" xlink:href="#ArialMT-64"/>
       <use x="222.4609375" xlink:href="#ArialMT-73"/>
       <use x="272.4609375" xlink:href="#ArialMT-6b"/>
       <use x="322.4609375" xlink:href="#ArialMT-69"/>
       <use x="344.677734375" xlink:href="#ArialMT-6e"/>
      </g>
     </g>
    </g>
    <g id="ytick_6">
     <g id="line2d_40">
      <path clip-path="url(#p42e688bd08)" d="
M94.395 1121.25
L830.473 1121.25" style="fill:none;stroke:#cccccc;stroke-linecap:round;"/>
     </g>
     <g id="line2d_41">
      <g>
       <use style="fill:#262626;stroke:#262626;" x="94.395" xlink:href="#m219da94a98" y="1121.2519351"/>
      </g>
     </g>
     <g id="line2d_42">
      <g>
       <use style="fill:#262626;stroke:#262626;" x="830.47296875" xlink:href="#m219da94a98" y="1121.2519351"/>
      </g>
     </g>
     <g id="text_14">
      <!-- intest -->
      <defs>
       <path d="
M25.7812 7.85938
L27.0469 0.09375
Q23.3438 -0.6875 20.4062 -0.6875
Q15.625 -0.6875 12.9844 0.828125
Q10.3594 2.34375 9.28125 4.8125
Q8.20312 7.28125 8.20312 15.1875
L8.20312 45.0156
L1.76562 45.0156
L1.76562 51.8594
L8.20312 51.8594
L8.20312 64.7031
L16.9375 69.9688
L16.9375 51.8594
L25.7812 51.8594
L25.7812 45.0156
L16.9375 45.0156
L16.9375 14.7031
Q16.9375 10.9375 17.4062 9.85938
Q17.875 8.79688 18.9219 8.15625
Q19.9688 7.51562 21.9219 7.51562
Q23.3906 7.51562 25.7812 7.85938" id="ArialMT-74"/>
      </defs>
      <g style="fill:#262626;" transform="translate(50.335 1125.3881851)scale(0.16 -0.16)">
       <use xlink:href="#ArialMT-69"/>
       <use x="22.216796875" xlink:href="#ArialMT-6e"/>
       <use x="77.83203125" xlink:href="#ArialMT-74"/>
       <use x="105.615234375" xlink:href="#ArialMT-65"/>
       <use x="161.23046875" xlink:href="#ArialMT-73"/>
       <use x="211.23046875" xlink:href="#ArialMT-74"/>
      </g>
     </g>
    </g>
    <g id="ytick_7">
     <g id="line2d_43">
      <path clip-path="url(#p42e688bd08)" d="
M94.395 1018.83
L830.473 1018.83" style="fill:none;stroke:#cccccc;stroke-linecap:round;"/>
     </g>
     <g id="line2d_44">
      <g>
       <use style="fill:#262626;stroke:#262626;" x="94.395" xlink:href="#m219da94a98" y="1018.82622356"/>
      </g>
     </g>
     <g id="line2d_45">
      <g>
       <use style="fill:#262626;stroke:#262626;" x="830.47296875" xlink:href="#m219da94a98" y="1018.82622356"/>
      </g>
     </g>
     <g id="text_15">
      <!-- kidney -->
      <g style="fill:#262626;" transform="translate(42.35 1022.86872356)scale(0.16 -0.16)">
       <use xlink:href="#ArialMT-6b"/>
       <use x="50.0" xlink:href="#ArialMT-69"/>
       <use x="72.216796875" xlink:href="#ArialMT-64"/>
       <use x="127.83203125" xlink:href="#ArialMT-6e"/>
       <use x="183.447265625" xlink:href="#ArialMT-65"/>
       <use x="239.0625" xlink:href="#ArialMT-79"/>
      </g>
     </g>
    </g>
    <g id="ytick_8">
     <g id="line2d_46">
      <path clip-path="url(#p42e688bd08)" d="
M94.395 916.401
L830.473 916.401" style="fill:none;stroke:#cccccc;stroke-linecap:round;"/>
     </g>
     <g id="line2d_47">
      <g>
       <use style="fill:#262626;stroke:#262626;" x="94.395" xlink:href="#m219da94a98" y="916.400512019"/>
      </g>
     </g>
     <g id="line2d_48">
      <g>
       <use style="fill:#262626;stroke:#262626;" x="830.47296875" xlink:href="#m219da94a98" y="916.400512019"/>
      </g>
     </g>
     <g id="text_16">
      <!-- lips -->
      <defs>
       <path d="
M6.59375 -19.875
L6.59375 51.8594
L14.5938 51.8594
L14.5938 45.125
Q17.4375 49.0781 21 51.0469
Q24.5625 53.0312 29.6406 53.0312
Q36.2812 53.0312 41.3594 49.6094
Q46.4375 46.1875 49.0156 39.9531
Q51.6094 33.7344 51.6094 26.3125
Q51.6094 18.3594 48.75 11.9844
Q45.9062 5.60938 40.4531 2.21875
Q35.0156 -1.17188 29 -1.17188
Q24.6094 -1.17188 21.1094 0.6875
Q17.625 2.54688 15.375 5.375
L15.375 -19.875
z

M14.5469 25.6406
Q14.5469 15.625 18.5938 10.8438
Q22.6562 6.0625 28.4219 6.0625
Q34.2812 6.0625 38.4531 11.0156
Q42.625 15.9688 42.625 26.375
Q42.625 36.2812 38.5469 41.2031
Q34.4688 46.1406 28.8125 46.1406
Q23.1875 46.1406 18.8594 40.8906
Q14.5469 35.6406 14.5469 25.6406" id="ArialMT-70"/>
      </defs>
      <g style="fill:#262626;" transform="translate(65.0275 920.536762019)scale(0.16 -0.16)">
       <use xlink:href="#ArialMT-6c"/>
       <use x="22.216796875" xlink:href="#ArialMT-69"/>
       <use x="44.43359375" xlink:href="#ArialMT-70"/>
       <use x="100.048828125" xlink:href="#ArialMT-73"/>
      </g>
     </g>
    </g>
    <g id="ytick_9">
     <g id="line2d_49">
      <path clip-path="url(#p42e688bd08)" d="
M94.395 813.975
L830.473 813.975" style="fill:none;stroke:#cccccc;stroke-linecap:round;"/>
     </g>
     <g id="line2d_50">
      <g>
       <use style="fill:#262626;stroke:#262626;" x="94.395" xlink:href="#m219da94a98" y="813.974800481"/>
      </g>
     </g>
     <g id="line2d_51">
      <g>
       <use style="fill:#262626;stroke:#262626;" x="830.47296875" xlink:href="#m219da94a98" y="813.974800481"/>
      </g>
     </g>
     <g id="text_17">
      <!-- liver -->
      <defs>
       <path d="
M21 0
L1.26562 51.8594
L10.5469 51.8594
L21.6875 20.7969
Q23.4844 15.7656 25 10.3594
Q26.1719 14.4531 28.2656 20.2188
L39.7969 51.8594
L48.8281 51.8594
L29.2031 0
z
" id="ArialMT-76"/>
      </defs>
      <g style="fill:#262626;" transform="translate(58.8625 818.111050481)scale(0.16 -0.16)">
       <use xlink:href="#ArialMT-6c"/>
       <use x="22.216796875" xlink:href="#ArialMT-69"/>
       <use x="44.43359375" xlink:href="#ArialMT-76"/>
       <use x="94.43359375" xlink:href="#ArialMT-65"/>
       <use x="150.048828125" xlink:href="#ArialMT-72"/>
      </g>
     </g>
    </g>
    <g id="ytick_10">
     <g id="line2d_52">
      <path clip-path="url(#p42e688bd08)" d="
M94.395 711.549
L830.473 711.549" style="fill:none;stroke:#cccccc;stroke-linecap:round;"/>
     </g>
     <g id="line2d_53">
      <g>
       <use style="fill:#262626;stroke:#262626;" x="94.395" xlink:href="#m219da94a98" y="711.549088942"/>
      </g>
     </g>
     <g id="line2d_54">
      <g>
       <use style="fill:#262626;stroke:#262626;" x="830.47296875" xlink:href="#m219da94a98" y="711.549088942"/>
      </g>
     </g>
     <g id="text_18">
      <!-- monocytes -->
      <defs>
       <path d="
M40.4375 19
L49.0781 17.875
Q47.6562 8.9375 41.8125 3.875
Q35.9844 -1.17188 27.4844 -1.17188
Q16.8438 -1.17188 10.375 5.78125
Q3.90625 12.75 3.90625 25.7344
Q3.90625 34.125 6.6875 40.4219
Q9.46875 46.7344 15.1562 49.875
Q20.8438 53.0312 27.5469 53.0312
Q35.9844 53.0312 41.3594 48.75
Q46.7344 44.4844 48.25 36.625
L39.7031 35.2969
Q38.4844 40.5312 35.375 43.1562
Q32.2812 45.7969 27.875 45.7969
Q21.2344 45.7969 17.0781 41.0312
Q12.9375 36.2812 12.9375 25.9844
Q12.9375 15.5312 16.9375 10.7969
Q20.9531 6.0625 27.3906 6.0625
Q32.5625 6.0625 36.0312 9.23438
Q39.5 12.4062 40.4375 19" id="ArialMT-63"/>
      </defs>
      <g style="fill:#262626;" transform="translate(11.705 715.497838942)scale(0.16 -0.16)">
       <use xlink:href="#ArialMT-6d"/>
       <use x="83.30078125" xlink:href="#ArialMT-6f"/>
       <use x="138.916015625" xlink:href="#ArialMT-6e"/>
       <use x="194.53125" xlink:href="#ArialMT-6f"/>
       <use x="250.146484375" xlink:href="#ArialMT-63"/>
       <use x="300.146484375" xlink:href="#ArialMT-79"/>
       <use x="350.146484375" xlink:href="#ArialMT-74"/>
       <use x="377.9296875" xlink:href="#ArialMT-65"/>
       <use x="433.544921875" xlink:href="#ArialMT-73"/>
      </g>
     </g>
    </g>
    <g id="ytick_11">
     <g id="line2d_55">
      <path clip-path="url(#p42e688bd08)" d="
M94.395 609.123
L830.473 609.123" style="fill:none;stroke:#cccccc;stroke-linecap:round;"/>
     </g>
     <g id="line2d_56">
      <g>
       <use style="fill:#262626;stroke:#262626;" x="94.395" xlink:href="#m219da94a98" y="609.123377404"/>
      </g>
     </g>
     <g id="line2d_57">
      <g>
       <use style="fill:#262626;stroke:#262626;" x="830.47296875" xlink:href="#m219da94a98" y="609.123377404"/>
      </g>
     </g>
     <g id="text_19">
      <!-- muscle -->
      <defs>
       <path d="
M40.5781 0
L40.5781 7.625
Q34.5156 -1.17188 24.125 -1.17188
Q19.5312 -1.17188 15.5469 0.578125
Q11.5781 2.34375 9.64062 5
Q7.71875 7.67188 6.9375 11.5312
Q6.39062 14.1094 6.39062 19.7344
L6.39062 51.8594
L15.1875 51.8594
L15.1875 23.0938
Q15.1875 16.2188 15.7188 13.8125
Q16.5469 10.3594 19.2344 8.375
Q21.9219 6.39062 25.875 6.39062
Q29.8281 6.39062 33.2969 8.42188
Q36.7656 10.4531 38.2031 13.9375
Q39.6562 17.4375 39.6562 24.0781
L39.6562 51.8594
L48.4375 51.8594
L48.4375 0
z
" id="ArialMT-75"/>
      </defs>
      <g style="fill:#262626;" transform="translate(38.435 613.259627404)scale(0.16 -0.16)">
       <use xlink:href="#ArialMT-6d"/>
       <use x="83.30078125" xlink:href="#ArialMT-75"/>
       <use x="138.916015625" xlink:href="#ArialMT-73"/>
       <use x="188.916015625" xlink:href="#ArialMT-63"/>
       <use x="238.916015625" xlink:href="#ArialMT-6c"/>
       <use x="261.1328125" xlink:href="#ArialMT-65"/>
      </g>
     </g>
    </g>
    <g id="ytick_12">
     <g id="line2d_58">
      <path clip-path="url(#p42e688bd08)" d="
M94.395 506.698
L830.473 506.698" style="fill:none;stroke:#cccccc;stroke-linecap:round;"/>
     </g>
     <g id="line2d_59">
      <g>
       <use style="fill:#262626;stroke:#262626;" x="94.395" xlink:href="#m219da94a98" y="506.697665865"/>
      </g>
     </g>
     <g id="line2d_60">
      <g>
       <use style="fill:#262626;stroke:#262626;" x="830.47296875" xlink:href="#m219da94a98" y="506.697665865"/>
      </g>
     </g>
     <g id="text_20">
      <!-- neutrophils -->
      <g style="fill:#262626;" transform="translate(10.8 510.833915865)scale(0.16 -0.16)">
       <use xlink:href="#ArialMT-6e"/>
       <use x="55.615234375" xlink:href="#ArialMT-65"/>
       <use x="111.23046875" xlink:href="#ArialMT-75"/>
       <use x="166.845703125" xlink:href="#ArialMT-74"/>
       <use x="194.62890625" xlink:href="#ArialMT-72"/>
       <use x="227.9296875" xlink:href="#ArialMT-6f"/>
       <use x="283.544921875" xlink:href="#ArialMT-70"/>
       <use x="339.16015625" xlink:href="#ArialMT-68"/>
       <use x="394.775390625" xlink:href="#ArialMT-69"/>
       <use x="416.9921875" xlink:href="#ArialMT-6c"/>
       <use x="439.208984375" xlink:href="#ArialMT-73"/>
      </g>
     </g>
    </g>
    <g id="ytick_13">
     <g id="line2d_61">
      <path clip-path="url(#p42e688bd08)" d="
M94.395 404.272
L830.473 404.272" style="fill:none;stroke:#cccccc;stroke-linecap:round;"/>
     </g>
     <g id="line2d_62">
      <g>
       <use style="fill:#262626;stroke:#262626;" x="94.395" xlink:href="#m219da94a98" y="404.271954327"/>
      </g>
     </g>
     <g id="line2d_63">
      <g>
       <use style="fill:#262626;stroke:#262626;" x="830.47296875" xlink:href="#m219da94a98" y="404.271954327"/>
      </g>
     </g>
     <g id="text_21">
      <!-- rope -->
      <g style="fill:#262626;" transform="translate(57.0775 408.408204327)scale(0.16 -0.16)">
       <use xlink:href="#ArialMT-72"/>
       <use x="33.30078125" xlink:href="#ArialMT-6f"/>
       <use x="88.916015625" xlink:href="#ArialMT-70"/>
       <use x="144.53125" xlink:href="#ArialMT-65"/>
      </g>
     </g>
    </g>
    <g id="ytick_14">
     <g id="line2d_64">
      <path clip-path="url(#p42e688bd08)" d="
M94.395 301.846
L830.473 301.846" style="fill:none;stroke:#cccccc;stroke-linecap:round;"/>
     </g>
     <g id="line2d_65">
      <g>
       <use style="fill:#262626;stroke:#262626;" x="94.395" xlink:href="#m219da94a98" y="301.846242788"/>
      </g>
     </g>
     <g id="line2d_66">
      <g>
       <use style="fill:#262626;stroke:#262626;" x="830.47296875" xlink:href="#m219da94a98" y="301.846242788"/>
      </g>
     </g>
     <g id="text_22">
      <!-- spinal -->
      <g style="fill:#262626;" transform="translate(47.21 305.982492788)scale(0.16 -0.16)">
       <use xlink:href="#ArialMT-73"/>
       <use x="50.0" xlink:href="#ArialMT-70"/>
       <use x="105.615234375" xlink:href="#ArialMT-69"/>
       <use x="127.83203125" xlink:href="#ArialMT-6e"/>
       <use x="183.447265625" xlink:href="#ArialMT-61"/>
       <use x="239.0625" xlink:href="#ArialMT-6c"/>
      </g>
     </g>
    </g>
    <g id="ytick_15">
     <g id="line2d_67">
      <path clip-path="url(#p42e688bd08)" d="
M94.395 199.421
L830.473 199.421" style="fill:none;stroke:#cccccc;stroke-linecap:round;"/>
     </g>
     <g id="line2d_68">
      <g>
       <use style="fill:#262626;stroke:#262626;" x="94.395" xlink:href="#m219da94a98" y="199.42053125"/>
      </g>
     </g>
     <g id="line2d_69">
      <g>
       <use style="fill:#262626;stroke:#262626;" x="830.47296875" xlink:href="#m219da94a98" y="199.42053125"/>
      </g>
     </g>
     <g id="text_23">
      <!-- tailskin -->
      <g style="fill:#262626;" transform="translate(39.8725 203.55678125)scale(0.16 -0.16)">
       <use xlink:href="#ArialMT-74"/>
       <use x="27.783203125" xlink:href="#ArialMT-61"/>
       <use x="83.3984375" xlink:href="#ArialMT-69"/>
       <use x="105.615234375" xlink:href="#ArialMT-6c"/>
       <use x="127.83203125" xlink:href="#ArialMT-73"/>
       <use x="177.83203125" xlink:href="#ArialMT-6b"/>
       <use x="227.83203125" xlink:href="#ArialMT-69"/>
       <use x="250.048828125" xlink:href="#ArialMT-6e"/>
      </g>
     </g>
    </g>
    <g id="ytick_16">
     <g id="line2d_70">
      <path clip-path="url(#p42e688bd08)" d="
M94.395 96.9948
L830.473 96.9948" style="fill:none;stroke:#cccccc;stroke-linecap:round;"/>
     </g>
     <g id="line2d_71">
      <g>
       <use style="fill:#262626;stroke:#262626;" x="94.395" xlink:href="#m219da94a98" y="96.9948197115"/>
      </g>
     </g>
     <g id="line2d_72">
      <g>
       <use style="fill:#262626;stroke:#262626;" x="830.47296875" xlink:href="#m219da94a98" y="96.9948197115"/>
      </g>
     </g>
     <g id="text_24">
      <!-- unknown -->
      <defs>
       <path d="
M16.1562 0
L0.296875 51.8594
L9.375 51.8594
L17.625 21.9219
L20.7031 10.7969
Q20.9062 11.625 23.3906 21.4844
L31.6406 51.8594
L40.6719 51.8594
L48.4375 21.7812
L51.0312 11.8594
L54 21.875
L62.8906 51.8594
L71.4375 51.8594
L55.2188 0
L46.0938 0
L37.8438 31.0625
L35.8438 39.8906
L25.3438 0
z
" id="ArialMT-77"/>
      </defs>
      <g style="fill:#262626;" transform="translate(25.475 101.131069712)scale(0.16 -0.16)">
       <use xlink:href="#ArialMT-75"/>
       <use x="55.615234375" xlink:href="#ArialMT-6e"/>
       <use x="111.23046875" xlink:href="#ArialMT-6b"/>
       <use x="161.23046875" xlink:href="#ArialMT-6e"/>
       <use x="216.845703125" xlink:href="#ArialMT-6f"/>
       <use x="272.4609375" xlink:href="#ArialMT-77"/>
       <use x="344.677734375" xlink:href="#ArialMT-6e"/>
      </g>
     </g>
    </g>
   </g>
   <g id="patch_3">
    <path clip-path="url(#p42e688bd08)" d="
M94.395 1671.79
L109.186 1671.79
L109.186 1664.11
L94.395 1664.11
z
" style="fill:#66c2a5;stroke:#000000;stroke-width:0.3;"/>
   </g>
   <g id="patch_4">
    <path clip-path="url(#p42e688bd08)" d="
M94.395 1569.36
L109.194 1569.36
L109.194 1561.68
L94.395 1561.68
z
" style="fill:#66c2a5;stroke:#000000;stroke-width:0.3;"/>
   </g>
   <g id="patch_5">
    <path clip-path="url(#p42e688bd08)" d="
M94.395 1466.94
L104.269 1466.94
L104.269 1459.26
L94.395 1459.26
z
" style="fill:#66c2a5;stroke:#000000;stroke-width:0.3;"/>
   </g>
   <g id="patch_6">
    <path clip-path="url(#p42e688bd08)" d="
M94.395 1364.51
L108.959 1364.51
L108.959 1356.83
L94.395 1356.83
z
" style="fill:#66c2a5;stroke:#000000;stroke-width:0.3;"/>
   </g>
   <g id="patch_7">
    <path clip-path="url(#p42e688bd08)" d="
M94.395 1262.09
L103.642 1262.09
L103.642 1254.41
L94.395 1254.41
z
" style="fill:#66c2a5;stroke:#000000;stroke-width:0.3;"/>
   </g>
   <g id="patch_8">
    <path clip-path="url(#p42e688bd08)" d="
M94.395 1159.66
L108.721 1159.66
L108.721 1151.98
L94.395 1151.98
z
" style="fill:#66c2a5;stroke:#000000;stroke-width:0.3;"/>
   </g>
   <g id="patch_9">
    <path clip-path="url(#p42e688bd08)" d="
M94.395 1057.24
L110.057 1057.24
L110.057 1049.55
L94.395 1049.55
z
" style="fill:#66c2a5;stroke:#000000;stroke-width:0.3;"/>
   </g>
   <g id="patch_10">
    <path clip-path="url(#p42e688bd08)" d="
M94.395 954.81
L100.814 954.81
L100.814 947.128
L94.395 947.128
z
" style="fill:#66c2a5;stroke:#000000;stroke-width:0.3;"/>
   </g>
   <g id="patch_11">
    <path clip-path="url(#p42e688bd08)" d="
M94.395 852.384
L109.794 852.384
L109.794 844.703
L94.395 844.703
z
" style="fill:#66c2a5;stroke:#000000;stroke-width:0.3;"/>
   </g>
   <g id="patch_12">
    <path clip-path="url(#p42e688bd08)" d="
M94.395 749.959
L100.866 749.959
L100.866 742.277
L94.395 742.277
z
" style="fill:#66c2a5;stroke:#000000;stroke-width:0.3;"/>
   </g>
   <g id="patch_13">
    <path clip-path="url(#p42e688bd08)" d="
M94.395 647.533
L101.564 647.533
L101.564 639.851
L94.395 639.851
z
" style="fill:#66c2a5;stroke:#000000;stroke-width:0.3;"/>
   </g>
   <g id="patch_14">
    <path clip-path="url(#p42e688bd08)" d="
M94.395 545.107
L100.837 545.107
L100.837 537.425
L94.395 537.425
z
" style="fill:#66c2a5;stroke:#000000;stroke-width:0.3;"/>
   </g>
   <g id="patch_15">
    <path clip-path="url(#p42e688bd08)" d="
M94.395 442.682
L103.039 442.682
L103.039 435
L94.395 435
z
" style="fill:#66c2a5;stroke:#000000;stroke-width:0.3;"/>
   </g>
   <g id="patch_16">
    <path clip-path="url(#p42e688bd08)" d="
M94.395 340.256
L107.443 340.256
L107.443 332.574
L94.395 332.574
z
" style="fill:#66c2a5;stroke:#000000;stroke-width:0.3;"/>
   </g>
   <g id="patch_17">
    <path clip-path="url(#p42e688bd08)" d="
M94.395 237.83
L102.685 237.83
L102.685 230.148
L94.395 230.148
z
" style="fill:#66c2a5;stroke:#000000;stroke-width:0.3;"/>
   </g>
   <g id="patch_18">
    <path clip-path="url(#p42e688bd08)" d="
M94.395 135.404
L98.8136 135.404
L98.8136 127.723
L94.395 127.723
z
" style="fill:#66c2a5;stroke:#000000;stroke-width:0.3;"/>
   </g>
   <g id="patch_19">
    <path clip-path="url(#p42e688bd08)" d="
M94.395 1664.11
L239.083 1664.11
L239.083 1656.43
L94.395 1656.43
z
" style="fill:#fa8e63;stroke:#000000;stroke-width:0.3;"/>
   </g>
   <g id="patch_20">
    <path clip-path="url(#p42e688bd08)" d="
M94.395 1561.68
L230.405 1561.68
L230.405 1554
L94.395 1554
z
" style="fill:#fa8e63;stroke:#000000;stroke-width:0.3;"/>
   </g>
   <g id="patch_21">
    <path clip-path="url(#p42e688bd08)" d="
M94.395 1459.26
L186.438 1459.26
L186.438 1451.57
L94.395 1451.57
z
" style="fill:#fa8e63;stroke:#000000;stroke-width:0.3;"/>
   </g>
   <g id="patch_22">
    <path clip-path="url(#p42e688bd08)" d="
M94.395 1356.83
L237.465 1356.83
L237.465 1349.15
L94.395 1349.15
z
" style="fill:#fa8e63;stroke:#000000;stroke-width:0.3;"/>
   </g>
   <g id="patch_23">
    <path clip-path="url(#p42e688bd08)" d="
M94.395 1254.41
L183.799 1254.41
L183.799 1246.72
L94.395 1246.72
z
" style="fill:#fa8e63;stroke:#000000;stroke-width:0.3;"/>
   </g>
   <g id="patch_24">
    <path clip-path="url(#p42e688bd08)" d="
M94.395 1151.98
L236.336 1151.98
L236.336 1144.3
L94.395 1144.3
z
" style="fill:#fa8e63;stroke:#000000;stroke-width:0.3;"/>
   </g>
   <g id="patch_25">
    <path clip-path="url(#p42e688bd08)" d="
M94.395 1049.55
L246.826 1049.55
L246.826 1041.87
L94.395 1041.87
z
" style="fill:#fa8e63;stroke:#000000;stroke-width:0.3;"/>
   </g>
   <g id="patch_26">
    <path clip-path="url(#p42e688bd08)" d="
M94.395 947.128
L158.627 947.128
L158.627 939.446
L94.395 939.446
z
" style="fill:#fa8e63;stroke:#000000;stroke-width:0.3;"/>
   </g>
   <g id="patch_27">
    <path clip-path="url(#p42e688bd08)" d="
M94.395 844.703
L246.854 844.703
L246.854 837.021
L94.395 837.021
z
" style="fill:#fa8e63;stroke:#000000;stroke-width:0.3;"/>
   </g>
   <g id="patch_28">
    <path clip-path="url(#p42e688bd08)" d="
M94.395 742.277
L156.667 742.277
L156.667 734.595
L94.395 734.595
z
" style="fill:#fa8e63;stroke:#000000;stroke-width:0.3;"/>
   </g>
   <g id="patch_29">
    <path clip-path="url(#p42e688bd08)" d="
M94.395 639.851
L164.19 639.851
L164.19 632.169
L94.395 632.169
z
" style="fill:#fa8e63;stroke:#000000;stroke-width:0.3;"/>
   </g>
   <g id="patch_30">
    <path clip-path="url(#p42e688bd08)" d="
M94.395 537.425
L157.487 537.425
L157.487 529.743
L94.395 529.743
z
" style="fill:#fa8e63;stroke:#000000;stroke-width:0.3;"/>
   </g>
   <g id="patch_31">
    <path clip-path="url(#p42e688bd08)" d="
M94.395 435
L177.824 435
L177.824 427.318
L94.395 427.318
z
" style="fill:#fa8e63;stroke:#000000;stroke-width:0.3;"/>
   </g>
   <g id="patch_32">
    <path clip-path="url(#p42e688bd08)" d="
M94.395 332.574
L218.367 332.574
L218.367 324.892
L94.395 324.892
z
" style="fill:#fa8e63;stroke:#000000;stroke-width:0.3;"/>
   </g>
   <g id="patch_33">
    <path clip-path="url(#p42e688bd08)" d="
M94.395 230.148
L174.398 230.148
L174.398 222.466
L94.395 222.466
z
" style="fill:#fa8e63;stroke:#000000;stroke-width:0.3;"/>
   </g>
   <g id="patch_34">
    <path clip-path="url(#p42e688bd08)" d="
M94.395 127.723
L138.272 127.723
L138.272 120.041
L94.395 120.041
z
" style="fill:#fa8e63;stroke:#000000;stroke-width:0.3;"/>
   </g>
   <g id="patch_35">
    <path clip-path="url(#p42e688bd08)" d="
M94.395 1656.43
L266.151 1656.43
L266.151 1648.74
L94.395 1648.74
z
" style="fill:#8da0cb;stroke:#000000;stroke-width:0.3;"/>
   </g>
   <g id="patch_36">
    <path clip-path="url(#p42e688bd08)" d="
M94.395 1554
L253.291 1554
L253.291 1546.32
L94.395 1546.32
z
" style="fill:#8da0cb;stroke:#000000;stroke-width:0.3;"/>
   </g>
   <g id="patch_37">
    <path clip-path="url(#p42e688bd08)" d="
M94.395 1451.57
L201.867 1451.57
L201.867 1443.89
L94.395 1443.89
z
" style="fill:#8da0cb;stroke:#000000;stroke-width:0.3;"/>
   </g>
   <g id="patch_38">
    <path clip-path="url(#p42e688bd08)" d="
M94.395 1349.15
L262.505 1349.15
L262.505 1341.47
L94.395 1341.47
z
" style="fill:#8da0cb;stroke:#000000;stroke-width:0.3;"/>
   </g>
   <g id="patch_39">
    <path clip-path="url(#p42e688bd08)" d="
M94.395 1246.72
L198.59 1246.72
L198.59 1239.04
L94.395 1239.04
z
" style="fill:#8da0cb;stroke:#000000;stroke-width:0.3;"/>
   </g>
   <g id="patch_40">
    <path clip-path="url(#p42e688bd08)" d="
M94.395 1144.3
L260.53 1144.3
L260.53 1136.62
L94.395 1136.62
z
" style="fill:#8da0cb;stroke:#000000;stroke-width:0.3;"/>
   </g>
   <g id="patch_41">
    <path clip-path="url(#p42e688bd08)" d="
M94.395 1041.87
L272.82 1041.87
L272.82 1034.19
L94.395 1034.19
z
" style="fill:#8da0cb;stroke:#000000;stroke-width:0.3;"/>
   </g>
   <g id="patch_42">
    <path clip-path="url(#p42e688bd08)" d="
M94.395 939.446
L169.437 939.446
L169.437 931.764
L94.395 931.764
z
" style="fill:#8da0cb;stroke:#000000;stroke-width:0.3;"/>
   </g>
   <g id="patch_43">
    <path clip-path="url(#p42e688bd08)" d="
M94.395 837.021
L272.955 837.021
L272.955 829.339
L94.395 829.339
z
" style="fill:#8da0cb;stroke:#000000;stroke-width:0.3;"/>
   </g>
   <g id="patch_44">
    <path clip-path="url(#p42e688bd08)" d="
M94.395 734.595
L165.935 734.595
L165.935 726.913
L94.395 726.913
z
" style="fill:#8da0cb;stroke:#000000;stroke-width:0.3;"/>
   </g>
   <g id="patch_45">
    <path clip-path="url(#p42e688bd08)" d="
M94.395 632.169
L176.741 632.169
L176.741 624.487
L94.395 624.487
z
" style="fill:#8da0cb;stroke:#000000;stroke-width:0.3;"/>
   </g>
   <g id="patch_46">
    <path clip-path="url(#p42e688bd08)" d="
M94.395 529.743
L166.991 529.743
L166.991 522.062
L94.395 522.062
z
" style="fill:#8da0cb;stroke:#000000;stroke-width:0.3;"/>
   </g>
   <g id="patch_47">
    <path clip-path="url(#p42e688bd08)" d="
M94.395 427.318
L192.792 427.318
L192.792 419.636
L94.395 419.636
z
" style="fill:#8da0cb;stroke:#000000;stroke-width:0.3;"/>
   </g>
   <g id="patch_48">
    <path clip-path="url(#p42e688bd08)" d="
M94.395 324.892
L240.502 324.892
L240.502 317.21
L94.395 317.21
z
" style="fill:#8da0cb;stroke:#000000;stroke-width:0.3;"/>
   </g>
   <g id="patch_49">
    <path clip-path="url(#p42e688bd08)" d="
M94.395 222.466
L187.768 222.466
L187.768 214.784
L94.395 214.784
z
" style="fill:#8da0cb;stroke:#000000;stroke-width:0.3;"/>
   </g>
   <g id="patch_50">
    <path clip-path="url(#p42e688bd08)" d="
M94.395 120.041
L145.033 120.041
L145.033 112.359
L94.395 112.359
z
" style="fill:#8da0cb;stroke:#000000;stroke-width:0.3;"/>
   </g>
   <g id="patch_51">
    <path clip-path="url(#p42e688bd08)" d="
M94.395 1648.74
L264.715 1648.74
L264.715 1641.06
L94.395 1641.06
z
" style="fill:#e68ac3;stroke:#000000;stroke-width:0.3;"/>
   </g>
   <g id="patch_52">
    <path clip-path="url(#p42e688bd08)" d="
M94.395 1546.32
L252.332 1546.32
L252.332 1538.64
L94.395 1538.64
z
" style="fill:#e68ac3;stroke:#000000;stroke-width:0.3;"/>
   </g>
   <g id="patch_53">
    <path clip-path="url(#p42e688bd08)" d="
M94.395 1443.89
L201.316 1443.89
L201.316 1436.21
L94.395 1436.21
z
" style="fill:#e68ac3;stroke:#000000;stroke-width:0.3;"/>
   </g>
   <g id="patch_54">
    <path clip-path="url(#p42e688bd08)" d="
M94.395 1341.47
L261.018 1341.47
L261.018 1333.79
L94.395 1333.79
z
" style="fill:#e68ac3;stroke:#000000;stroke-width:0.3;"/>
   </g>
   <g id="patch_55">
    <path clip-path="url(#p42e688bd08)" d="
M94.395 1239.04
L197.888 1239.04
L197.888 1231.36
L94.395 1231.36
z
" style="fill:#e68ac3;stroke:#000000;stroke-width:0.3;"/>
   </g>
   <g id="patch_56">
    <path clip-path="url(#p42e688bd08)" d="
M94.395 1136.62
L259.478 1136.62
L259.478 1128.93
L94.395 1128.93
z
" style="fill:#e68ac3;stroke:#000000;stroke-width:0.3;"/>
   </g>
   <g id="patch_57">
    <path clip-path="url(#p42e688bd08)" d="
M94.395 1034.19
L271.605 1034.19
L271.605 1026.51
L94.395 1026.51
z
" style="fill:#e68ac3;stroke:#000000;stroke-width:0.3;"/>
   </g>
   <g id="patch_58">
    <path clip-path="url(#p42e688bd08)" d="
M94.395 931.764
L169.105 931.764
L169.105 924.082
L94.395 924.082
z
" style="fill:#e68ac3;stroke:#000000;stroke-width:0.3;"/>
   </g>
   <g id="patch_59">
    <path clip-path="url(#p42e688bd08)" d="
M94.395 829.339
L271.371 829.339
L271.371 821.657
L94.395 821.657
z
" style="fill:#e68ac3;stroke:#000000;stroke-width:0.3;"/>
   </g>
   <g id="patch_60">
    <path clip-path="url(#p42e688bd08)" d="
M94.395 726.913
L165.912 726.913
L165.912 719.231
L94.395 719.231
z
" style="fill:#e68ac3;stroke:#000000;stroke-width:0.3;"/>
   </g>
   <g id="patch_61">
    <path clip-path="url(#p42e688bd08)" d="
M94.395 624.487
L176.339 624.487
L176.339 616.805
L94.395 616.805
z
" style="fill:#e68ac3;stroke:#000000;stroke-width:0.3;"/>
   </g>
   <g id="patch_62">
    <path clip-path="url(#p42e688bd08)" d="
M94.395 522.062
L166.842 522.062
L166.842 514.38
L94.395 514.38
z
" style="fill:#e68ac3;stroke:#000000;stroke-width:0.3;"/>
   </g>
   <g id="patch_63">
    <path clip-path="url(#p42e688bd08)" d="
M94.395 419.636
L192.129 419.636
L192.129 411.954
L94.395 411.954
z
" style="fill:#e68ac3;stroke:#000000;stroke-width:0.3;"/>
   </g>
   <g id="patch_64">
    <path clip-path="url(#p42e688bd08)" d="
M94.395 317.21
L240.225 317.21
L240.225 309.528
L94.395 309.528
z
" style="fill:#e68ac3;stroke:#000000;stroke-width:0.3;"/>
   </g>
   <g id="patch_65">
    <path clip-path="url(#p42e688bd08)" d="
M94.395 214.784
L187.317 214.784
L187.317 207.102
L94.395 207.102
z
" style="fill:#e68ac3;stroke:#000000;stroke-width:0.3;"/>
   </g>
   <g id="patch_66">
    <path clip-path="url(#p42e688bd08)" d="
M94.395 112.359
L144.638 112.359
L144.638 104.677
L94.395 104.677
z
" style="fill:#e68ac3;stroke:#000000;stroke-width:0.3;"/>
   </g>
   <g id="patch_67">
    <path clip-path="url(#p42e688bd08)" d="
M94.395 1641.06
L264.059 1641.06
L264.059 1633.38
L94.395 1633.38
z
" style="fill:#a7d854;stroke:#000000;stroke-width:0.3;"/>
   </g>
   <g id="patch_68">
    <path clip-path="url(#p42e688bd08)" d="
M94.395 1538.64
L251.825 1538.64
L251.825 1530.95
L94.395 1530.95
z
" style="fill:#a7d854;stroke:#000000;stroke-width:0.3;"/>
   </g>
   <g id="patch_69">
    <path clip-path="url(#p42e688bd08)" d="
M94.395 1436.21
L201.017 1436.21
L201.017 1428.53
L94.395 1428.53
z
" style="fill:#a7d854;stroke:#000000;stroke-width:0.3;"/>
   </g>
   <g id="patch_70">
    <path clip-path="url(#p42e688bd08)" d="
M94.395 1333.79
L260.625 1333.79
L260.625 1326.1
L94.395 1326.1
z
" style="fill:#a7d854;stroke:#000000;stroke-width:0.3;"/>
   </g>
   <g id="patch_71">
    <path clip-path="url(#p42e688bd08)" d="
M94.395 1231.36
L197.742 1231.36
L197.742 1223.68
L94.395 1223.68
z
" style="fill:#a7d854;stroke:#000000;stroke-width:0.3;"/>
   </g>
   <g id="patch_72">
    <path clip-path="url(#p42e688bd08)" d="
M94.395 1128.93
L258.894 1128.93
L258.894 1121.25
L94.395 1121.25
z
" style="fill:#a7d854;stroke:#000000;stroke-width:0.3;"/>
   </g>
   <g id="patch_73">
    <path clip-path="url(#p42e688bd08)" d="
M94.395 1026.51
L271.058 1026.51
L271.058 1018.83
L94.395 1018.83
z
" style="fill:#a7d854;stroke:#000000;stroke-width:0.3;"/>
   </g>
   <g id="patch_74">
    <path clip-path="url(#p42e688bd08)" d="
M94.395 924.082
L169 924.082
L169 916.401
L94.395 916.401
z
" style="fill:#a7d854;stroke:#000000;stroke-width:0.3;"/>
   </g>
   <g id="patch_75">
    <path clip-path="url(#p42e688bd08)" d="
M94.395 821.657
L270.879 821.657
L270.879 813.975
L94.395 813.975
z
" style="fill:#a7d854;stroke:#000000;stroke-width:0.3;"/>
   </g>
   <g id="patch_76">
    <path clip-path="url(#p42e688bd08)" d="
M94.395 719.231
L165.832 719.231
L165.832 711.549
L94.395 711.549
z
" style="fill:#a7d854;stroke:#000000;stroke-width:0.3;"/>
   </g>
   <g id="patch_77">
    <path clip-path="url(#p42e688bd08)" d="
M94.395 616.805
L176.121 616.805
L176.121 609.123
L94.395 609.123
z
" style="fill:#a7d854;stroke:#000000;stroke-width:0.3;"/>
   </g>
   <g id="patch_78">
    <path clip-path="url(#p42e688bd08)" d="
M94.395 514.38
L166.739 514.38
L166.739 506.698
L94.395 506.698
z
" style="fill:#a7d854;stroke:#000000;stroke-width:0.3;"/>
   </g>
   <g id="patch_79">
    <path clip-path="url(#p42e688bd08)" d="
M94.395 411.954
L191.9 411.954
L191.9 404.272
L94.395 404.272
z
" style="fill:#a7d854;stroke:#000000;stroke-width:0.3;"/>
   </g>
   <g id="patch_80">
    <path clip-path="url(#p42e688bd08)" d="
M94.395 309.528
L239.581 309.528
L239.581 301.846
L94.395 301.846
z
" style="fill:#a7d854;stroke:#000000;stroke-width:0.3;"/>
   </g>
   <g id="patch_81">
    <path clip-path="url(#p42e688bd08)" d="
M94.395 207.102
L187.212 207.102
L187.212 199.421
L94.395 199.421
z
" style="fill:#a7d854;stroke:#000000;stroke-width:0.3;"/>
   </g>
   <g id="patch_82">
    <path clip-path="url(#p42e688bd08)" d="
M94.395 104.677
L144.572 104.677
L144.572 96.9948
L94.395 96.9948
z
" style="fill:#a7d854;stroke:#000000;stroke-width:0.3;"/>
   </g>
   <g id="patch_83">
    <path clip-path="url(#p42e688bd08)" d="
M94.395 1633.38
L781.128 1633.38
L781.128 1625.7
L94.395 1625.7
z
" style="fill:#ffd92f;stroke:#000000;stroke-width:0.3;"/>
   </g>
   <g id="patch_84">
    <path clip-path="url(#p42e688bd08)" d="
M94.395 1530.95
L654.841 1530.95
L654.841 1523.27
L94.395 1523.27
z
" style="fill:#ffd92f;stroke:#000000;stroke-width:0.3;"/>
   </g>
   <g id="patch_85">
    <path clip-path="url(#p42e688bd08)" d="
M94.395 1428.53
L433.296 1428.53
L433.296 1420.85
L94.395 1420.85
z
" style="fill:#ffd92f;stroke:#000000;stroke-width:0.3;"/>
   </g>
   <g id="patch_86">
    <path clip-path="url(#p42e688bd08)" d="
M94.395 1326.1
L738.335 1326.1
L738.335 1318.42
L94.395 1318.42
z
" style="fill:#ffd92f;stroke:#000000;stroke-width:0.3;"/>
   </g>
   <g id="patch_87">
    <path clip-path="url(#p42e688bd08)" d="
M94.395 1223.68
L440.394 1223.68
L440.394 1216
L94.395 1216
z
" style="fill:#ffd92f;stroke:#000000;stroke-width:0.3;"/>
   </g>
   <g id="patch_88">
    <path clip-path="url(#p42e688bd08)" d="
M94.395 1121.25
L680.061 1121.25
L680.061 1113.57
L94.395 1113.57
z
" style="fill:#ffd92f;stroke:#000000;stroke-width:0.3;"/>
   </g>
   <g id="patch_89">
    <path clip-path="url(#p42e688bd08)" d="
M94.395 1018.83
L731.5 1018.83
L731.5 1011.14
L94.395 1011.14
z
" style="fill:#ffd92f;stroke:#000000;stroke-width:0.3;"/>
   </g>
   <g id="patch_90">
    <path clip-path="url(#p42e688bd08)" d="
M94.395 916.401
L308.888 916.401
L308.888 908.719
L94.395 908.719
z
" style="fill:#ffd92f;stroke:#000000;stroke-width:0.3;"/>
   </g>
   <g id="patch_91">
    <path clip-path="url(#p42e688bd08)" d="
M94.395 813.975
L739.393 813.975
L739.393 806.293
L94.395 806.293
z
" style="fill:#ffd92f;stroke:#000000;stroke-width:0.3;"/>
   </g>
   <g id="patch_92">
    <path clip-path="url(#p42e688bd08)" d="
M94.395 711.549
L279.005 711.549
L279.005 703.867
L94.395 703.867
z
" style="fill:#ffd92f;stroke:#000000;stroke-width:0.3;"/>
   </g>
   <g id="patch_93">
    <path clip-path="url(#p42e688bd08)" d="
M94.395 609.123
L354.386 609.123
L354.386 601.441
L94.395 601.441
z
" style="fill:#ffd92f;stroke:#000000;stroke-width:0.3;"/>
   </g>
   <g id="patch_94">
    <path clip-path="url(#p42e688bd08)" d="
M94.395 506.698
L300.097 506.698
L300.097 499.016
L94.395 499.016
z
" style="fill:#ffd92f;stroke:#000000;stroke-width:0.3;"/>
   </g>
   <g id="patch_95">
    <path clip-path="url(#p42e688bd08)" d="
M94.395 404.272
L430.638 404.272
L430.638 396.59
L94.395 396.59
z
" style="fill:#ffd92f;stroke:#000000;stroke-width:0.3;"/>
   </g>
   <g id="patch_96">
    <path clip-path="url(#p42e688bd08)" d="
M94.395 301.846
L592.76 301.846
L592.76 294.164
L94.395 294.164
z
" style="fill:#ffd92f;stroke:#000000;stroke-width:0.3;"/>
   </g>
   <g id="patch_97">
    <path clip-path="url(#p42e688bd08)" d="
M94.395 199.421
L393.585 199.421
L393.585 191.739
L94.395 191.739
z
" style="fill:#ffd92f;stroke:#000000;stroke-width:0.3;"/>
   </g>
   <g id="patch_98">
    <path clip-path="url(#p42e688bd08)" d="
M94.395 96.9948
L251.604 96.9948
L251.604 89.3129
L94.395 89.3129
z
" style="fill:#ffd92f;stroke:#000000;stroke-width:0.3;"/>
   </g>
   <g id="patch_99">
    <path clip-path="url(#p42e688bd08)" d="
M94.395 1625.7
L226.71 1625.7
L226.71 1618.02
L94.395 1618.02
z
" style="fill:#66c2a5;stroke:#000000;stroke-width:0.3;"/>
   </g>
   <g id="patch_100">
    <path clip-path="url(#p42e688bd08)" d="
M94.395 1523.27
L207.974 1523.27
L207.974 1515.59
L94.395 1515.59
z
" style="fill:#66c2a5;stroke:#000000;stroke-width:0.3;"/>
   </g>
   <g id="patch_101">
    <path clip-path="url(#p42e688bd08)" d="
M94.395 1420.85
L164.55 1420.85
L164.55 1413.17
L94.395 1413.17
z
" style="fill:#66c2a5;stroke:#000000;stroke-width:0.3;"/>
   </g>
   <g id="patch_102">
    <path clip-path="url(#p42e688bd08)" d="
M94.395 1318.42
L219.797 1318.42
L219.797 1310.74
L94.395 1310.74
z
" style="fill:#66c2a5;stroke:#000000;stroke-width:0.3;"/>
   </g>
   <g id="patch_103">
    <path clip-path="url(#p42e688bd08)" d="
M94.395 1216
L164.072 1216
L164.072 1208.31
L94.395 1208.31
z
" style="fill:#66c2a5;stroke:#000000;stroke-width:0.3;"/>
   </g>
   <g id="patch_104">
    <path clip-path="url(#p42e688bd08)" d="
M94.395 1113.57
L216.55 1113.57
L216.55 1105.89
L94.395 1105.89
z
" style="fill:#66c2a5;stroke:#000000;stroke-width:0.3;"/>
   </g>
   <g id="patch_105">
    <path clip-path="url(#p42e688bd08)" d="
M94.395 1011.14
L223.785 1011.14
L223.785 1003.46
L94.395 1003.46
z
" style="fill:#66c2a5;stroke:#000000;stroke-width:0.3;"/>
   </g>
   <g id="patch_106">
    <path clip-path="url(#p42e688bd08)" d="
M94.395 908.719
L151.178 908.719
L151.178 901.037
L94.395 901.037
z
" style="fill:#66c2a5;stroke:#000000;stroke-width:0.3;"/>
   </g>
   <g id="patch_107">
    <path clip-path="url(#p42e688bd08)" d="
M94.395 806.293
L226.279 806.293
L226.279 798.611
L94.395 798.611
z
" style="fill:#66c2a5;stroke:#000000;stroke-width:0.3;"/>
   </g>
   <g id="patch_108">
    <path clip-path="url(#p42e688bd08)" d="
M94.395 703.867
L139.99 703.867
L139.99 696.185
L94.395 696.185
z
" style="fill:#66c2a5;stroke:#000000;stroke-width:0.3;"/>
   </g>
   <g id="patch_109">
    <path clip-path="url(#p42e688bd08)" d="
M94.395 601.441
L154.705 601.441
L154.705 593.76
L94.395 593.76
z
" style="fill:#66c2a5;stroke:#000000;stroke-width:0.3;"/>
   </g>
   <g id="patch_110">
    <path clip-path="url(#p42e688bd08)" d="
M94.395 499.016
L140.131 499.016
L140.131 491.334
L94.395 491.334
z
" style="fill:#66c2a5;stroke:#000000;stroke-width:0.3;"/>
   </g>
   <g id="patch_111">
    <path clip-path="url(#p42e688bd08)" d="
M94.395 396.59
L167.593 396.59
L167.593 388.908
L94.395 388.908
z
" style="fill:#66c2a5;stroke:#000000;stroke-width:0.3;"/>
   </g>
   <g id="patch_112">
    <path clip-path="url(#p42e688bd08)" d="
M94.395 294.164
L200.266 294.164
L200.266 286.482
L94.395 286.482
z
" style="fill:#66c2a5;stroke:#000000;stroke-width:0.3;"/>
   </g>
   <g id="patch_113">
    <path clip-path="url(#p42e688bd08)" d="
M94.395 191.739
L157.45 191.739
L157.45 184.057
L94.395 184.057
z
" style="fill:#66c2a5;stroke:#000000;stroke-width:0.3;"/>
   </g>
   <g id="patch_114">
    <path clip-path="url(#p42e688bd08)" d="
M94.395 89.3129
L137.134 89.3129
L137.134 81.631
L94.395 81.631
z
" style="fill:#66c2a5;stroke:#000000;stroke-width:0.3;"/>
   </g>
   <g id="patch_115">
    <path clip-path="url(#p42e688bd08)" d="
M94.395 1618.02
L224.546 1618.02
L224.546 1610.33
L94.395 1610.33
z
" style="fill:#fa8e63;stroke:#000000;stroke-width:0.3;"/>
   </g>
   <g id="patch_116">
    <path clip-path="url(#p42e688bd08)" d="
M94.395 1515.59
L205.799 1515.59
L205.799 1507.91
L94.395 1507.91
z
" style="fill:#fa8e63;stroke:#000000;stroke-width:0.3;"/>
   </g>
   <g id="patch_117">
    <path clip-path="url(#p42e688bd08)" d="
M94.395 1413.17
L163.084 1413.17
L163.084 1405.48
L94.395 1405.48
z
" style="fill:#fa8e63;stroke:#000000;stroke-width:0.3;"/>
   </g>
   <g id="patch_118">
    <path clip-path="url(#p42e688bd08)" d="
M94.395 1310.74
L217.492 1310.74
L217.492 1303.06
L94.395 1303.06
z
" style="fill:#fa8e63;stroke:#000000;stroke-width:0.3;"/>
   </g>
   <g id="patch_119">
    <path clip-path="url(#p42e688bd08)" d="
M94.395 1208.31
L162.47 1208.31
L162.47 1200.63
L94.395 1200.63
z
" style="fill:#fa8e63;stroke:#000000;stroke-width:0.3;"/>
   </g>
   <g id="patch_120">
    <path clip-path="url(#p42e688bd08)" d="
M94.395 1105.89
L214.327 1105.89
L214.327 1098.21
L94.395 1098.21
z
" style="fill:#fa8e63;stroke:#000000;stroke-width:0.3;"/>
   </g>
   <g id="patch_121">
    <path clip-path="url(#p42e688bd08)" d="
M94.395 1003.46
L221.476 1003.46
L221.476 995.78
L94.395 995.78
z
" style="fill:#fa8e63;stroke:#000000;stroke-width:0.3;"/>
   </g>
   <g id="patch_122">
    <path clip-path="url(#p42e688bd08)" d="
M94.395 901.037
L149.817 901.037
L149.817 893.355
L94.395 893.355
z
" style="fill:#fa8e63;stroke:#000000;stroke-width:0.3;"/>
   </g>
   <g id="patch_123">
    <path clip-path="url(#p42e688bd08)" d="
M94.395 798.611
L223.949 798.611
L223.949 790.929
L94.395 790.929
z
" style="fill:#fa8e63;stroke:#000000;stroke-width:0.3;"/>
   </g>
   <g id="patch_124">
    <path clip-path="url(#p42e688bd08)" d="
M94.395 696.185
L138.776 696.185
L138.776 688.503
L94.395 688.503
z
" style="fill:#fa8e63;stroke:#000000;stroke-width:0.3;"/>
   </g>
   <g id="patch_125">
    <path clip-path="url(#p42e688bd08)" d="
M94.395 593.76
L153.294 593.76
L153.294 586.078
L94.395 586.078
z
" style="fill:#fa8e63;stroke:#000000;stroke-width:0.3;"/>
   </g>
   <g id="patch_126">
    <path clip-path="url(#p42e688bd08)" d="
M94.395 491.334
L138.837 491.334
L138.837 483.652
L94.395 483.652
z
" style="fill:#fa8e63;stroke:#000000;stroke-width:0.3;"/>
   </g>
   <g id="patch_127">
    <path clip-path="url(#p42e688bd08)" d="
M94.395 388.908
L166.034 388.908
L166.034 381.226
L94.395 381.226
z
" style="fill:#fa8e63;stroke:#000000;stroke-width:0.3;"/>
   </g>
   <g id="patch_128">
    <path clip-path="url(#p42e688bd08)" d="
M94.395 286.482
L198.31 286.482
L198.31 278.8
L94.395 278.8
z
" style="fill:#fa8e63;stroke:#000000;stroke-width:0.3;"/>
   </g>
   <g id="patch_129">
    <path clip-path="url(#p42e688bd08)" d="
M94.395 184.057
L155.982 184.057
L155.982 176.375
L94.395 176.375
z
" style="fill:#fa8e63;stroke:#000000;stroke-width:0.3;"/>
   </g>
   <g id="patch_130">
    <path clip-path="url(#p42e688bd08)" d="
M94.395 81.631
L136.08 81.631
L136.08 73.949
L94.395 73.949
z
" style="fill:#fa8e63;stroke:#000000;stroke-width:0.3;"/>
   </g>
   <g id="patch_131">
    <path clip-path="url(#p42e688bd08)" d="
M94.395 1610.33
L96.1952 1610.33
L96.1952 1602.65
L94.395 1602.65
z
" style="fill:#8da0cb;stroke:#000000;stroke-width:0.3;"/>
   </g>
   <g id="patch_132">
    <path clip-path="url(#p42e688bd08)" d="
M94.395 1507.91
L95.8693 1507.91
L95.8693 1500.23
L94.395 1500.23
z
" style="fill:#8da0cb;stroke:#000000;stroke-width:0.3;"/>
   </g>
   <g id="patch_133">
    <path clip-path="url(#p42e688bd08)" d="
M94.395 1405.48
L95.3372 1405.48
L95.3372 1397.8
L94.395 1397.8
z
" style="fill:#8da0cb;stroke:#000000;stroke-width:0.3;"/>
   </g>
   <g id="patch_134">
    <path clip-path="url(#p42e688bd08)" d="
M94.395 1303.06
L96.1006 1303.06
L96.1006 1295.38
L94.395 1295.38
z
" style="fill:#8da0cb;stroke:#000000;stroke-width:0.3;"/>
   </g>
   <g id="patch_135">
    <path clip-path="url(#p42e688bd08)" d="
M94.395 1200.63
L95.3456 1200.63
L95.3456 1192.95
L94.395 1192.95
z
" style="fill:#8da0cb;stroke:#000000;stroke-width:0.3;"/>
   </g>
   <g id="patch_136">
    <path clip-path="url(#p42e688bd08)" d="
M94.395 1098.21
L95.884 1098.21
L95.884 1090.52
L94.395 1090.52
z
" style="fill:#8da0cb;stroke:#000000;stroke-width:0.3;"/>
   </g>
   <g id="patch_137">
    <path clip-path="url(#p42e688bd08)" d="
M94.395 995.78
L96.0564 995.78
L96.0564 988.099
L94.395 988.099
z
" style="fill:#8da0cb;stroke:#000000;stroke-width:0.3;"/>
   </g>
   <g id="patch_138">
    <path clip-path="url(#p42e688bd08)" d="
M94.395 893.355
L95.0974 893.355
L95.0974 885.673
L94.395 885.673
z
" style="fill:#8da0cb;stroke:#000000;stroke-width:0.3;"/>
   </g>
   <g id="patch_139">
    <path clip-path="url(#p42e688bd08)" d="
M94.395 790.929
L96.109 790.929
L96.109 783.247
L94.395 783.247
z
" style="fill:#8da0cb;stroke:#000000;stroke-width:0.3;"/>
   </g>
   <g id="patch_140">
    <path clip-path="url(#p42e688bd08)" d="
M94.395 688.503
L94.9355 688.503
L94.9355 680.821
L94.395 680.821
z
" style="fill:#8da0cb;stroke:#000000;stroke-width:0.3;"/>
   </g>
   <g id="patch_141">
    <path clip-path="url(#p42e688bd08)" d="
M94.395 586.078
L95.1963 586.078
L95.1963 578.396
L94.395 578.396
z
" style="fill:#8da0cb;stroke:#000000;stroke-width:0.3;"/>
   </g>
   <g id="patch_142">
    <path clip-path="url(#p42e688bd08)" d="
M94.395 483.652
L94.9628 483.652
L94.9628 475.97
L94.395 475.97
z
" style="fill:#8da0cb;stroke:#000000;stroke-width:0.3;"/>
   </g>
   <g id="patch_143">
    <path clip-path="url(#p42e688bd08)" d="
M94.395 381.226
L95.4255 381.226
L95.4255 373.544
L94.395 373.544
z
" style="fill:#8da0cb;stroke:#000000;stroke-width:0.3;"/>
   </g>
   <g id="patch_144">
    <path clip-path="url(#p42e688bd08)" d="
M94.395 278.8
L95.7683 278.8
L95.7683 271.119
L94.395 271.119
z
" style="fill:#8da0cb;stroke:#000000;stroke-width:0.3;"/>
   </g>
   <g id="patch_145">
    <path clip-path="url(#p42e688bd08)" d="
M94.395 176.375
L95.2215 176.375
L95.2215 168.693
L94.395 168.693
z
" style="fill:#8da0cb;stroke:#000000;stroke-width:0.3;"/>
   </g>
   <g id="patch_146">
    <path clip-path="url(#p42e688bd08)" d="
M94.395 73.949
L94.9103 73.949
L94.9103 66.2671
L94.395 66.2671
z
" style="fill:#8da0cb;stroke:#000000;stroke-width:0.3;"/>
   </g>
   <g id="patch_147">
    <path clip-path="url(#p42e688bd08)" d="
M94.395 1602.65
L251.066 1602.65
L251.066 1594.97
L94.395 1594.97
z
" style="fill:#e68ac3;stroke:#000000;stroke-width:0.3;"/>
   </g>
   <g id="patch_148">
    <path clip-path="url(#p42e688bd08)" d="
M94.395 1500.23
L237.089 1500.23
L237.089 1492.55
L94.395 1492.55
z
" style="fill:#e68ac3;stroke:#000000;stroke-width:0.3;"/>
   </g>
   <g id="patch_149">
    <path clip-path="url(#p42e688bd08)" d="
M94.395 1397.8
L188.419 1397.8
L188.419 1390.12
L94.395 1390.12
z
" style="fill:#e68ac3;stroke:#000000;stroke-width:0.3;"/>
   </g>
   <g id="patch_150">
    <path clip-path="url(#p42e688bd08)" d="
M94.395 1295.38
L246.132 1295.38
L246.132 1287.69
L94.395 1287.69
z
" style="fill:#e68ac3;stroke:#000000;stroke-width:0.3;"/>
   </g>
   <g id="patch_151">
    <path clip-path="url(#p42e688bd08)" d="
M94.395 1192.95
L185.269 1192.95
L185.269 1185.27
L94.395 1185.27
z
" style="fill:#e68ac3;stroke:#000000;stroke-width:0.3;"/>
   </g>
   <g id="patch_152">
    <path clip-path="url(#p42e688bd08)" d="
M94.395 1090.52
L244.042 1090.52
L244.042 1082.84
L94.395 1082.84
z
" style="fill:#e68ac3;stroke:#000000;stroke-width:0.3;"/>
   </g>
   <g id="patch_153">
    <path clip-path="url(#p42e688bd08)" d="
M94.395 988.099
L255.432 988.099
L255.432 980.417
L94.395 980.417
z
" style="fill:#e68ac3;stroke:#000000;stroke-width:0.3;"/>
   </g>
   <g id="patch_154">
    <path clip-path="url(#p42e688bd08)" d="
M94.395 885.673
L161.504 885.673
L161.504 877.991
L94.395 877.991
z
" style="fill:#e68ac3;stroke:#000000;stroke-width:0.3;"/>
   </g>
   <g id="patch_155">
    <path clip-path="url(#p42e688bd08)" d="
M94.395 783.247
L255.827 783.247
L255.827 775.565
L94.395 775.565
z
" style="fill:#e68ac3;stroke:#000000;stroke-width:0.3;"/>
   </g>
   <g id="patch_156">
    <path clip-path="url(#p42e688bd08)" d="
M94.395 680.821
L155.773 680.821
L155.773 673.139
L94.395 673.139
z
" style="fill:#e68ac3;stroke:#000000;stroke-width:0.3;"/>
   </g>
   <g id="patch_157">
    <path clip-path="url(#p42e688bd08)" d="
M94.395 578.396
L167.033 578.396
L167.033 570.714
L94.395 570.714
z
" style="fill:#e68ac3;stroke:#000000;stroke-width:0.3;"/>
   </g>
   <g id="patch_158">
    <path clip-path="url(#p42e688bd08)" d="
M94.395 475.97
L157.016 475.97
L157.016 468.288
L94.395 468.288
z
" style="fill:#e68ac3;stroke:#000000;stroke-width:0.3;"/>
   </g>
   <g id="patch_159">
    <path clip-path="url(#p42e688bd08)" d="
M94.395 373.544
L182.133 373.544
L182.133 365.862
L94.395 365.862
z
" style="fill:#e68ac3;stroke:#000000;stroke-width:0.3;"/>
   </g>
   <g id="patch_160">
    <path clip-path="url(#p42e688bd08)" d="
M94.395 271.119
L225.282 271.119
L225.282 263.437
L94.395 263.437
z
" style="fill:#e68ac3;stroke:#000000;stroke-width:0.3;"/>
   </g>
   <g id="patch_161">
    <path clip-path="url(#p42e688bd08)" d="
M94.395 168.693
L176.028 168.693
L176.028 161.011
L94.395 161.011
z
" style="fill:#e68ac3;stroke:#000000;stroke-width:0.3;"/>
   </g>
   <g id="patch_162">
    <path clip-path="url(#p42e688bd08)" d="
M94.395 66.2671
L142.225 66.2671
L142.225 58.5852
L94.395 58.5852
z
" style="fill:#e68ac3;stroke:#000000;stroke-width:0.3;"/>
   </g>
   <g id="line2d_73">
    <path clip-path="url(#p42e688bd08)" d="
M94.395 1697.4
L94.395 32.9787" style="fill:none;stroke:#000000;stroke-dasharray:6.000000,6.000000;stroke-dashoffset:0.0;stroke-width:1.75;"/>
   </g>
   <g id="patch_163">
    <path d="
M94.395 32.9787
L830.473 32.9787" style="fill:none;stroke:#cccccc;"/>
   </g>
   <g id="patch_164">
    <path d="
M830.473 1697.4
L830.473 32.9787" style="fill:none;stroke:#cccccc;"/>
   </g>
   <g id="patch_165">
    <path d="
M94.395 1697.4
L830.473 1697.4" style="fill:none;stroke:#cccccc;"/>
   </g>
   <g id="patch_166">
    <path d="
M94.395 1697.4
L94.395 32.9787" style="fill:none;stroke:#cccccc;"/>
   </g>
   <g id="text_25">
    <!-- Homologies per Tissue per Database -->
    <defs>
     <path d="
M8.01562 0
L8.01562 71.5781
L17.4844 71.5781
L17.4844 42.1875
L54.6875 42.1875
L54.6875 71.5781
L64.1562 71.5781
L64.1562 0
L54.6875 0
L54.6875 33.7344
L17.4844 33.7344
L17.4844 0
z
" id="ArialMT-48"/>
     <path d="
M7.71875 0
L7.71875 71.5781
L32.375 71.5781
Q40.7188 71.5781 45.125 70.5625
Q51.2656 69.1406 55.6094 65.4375
Q61.2812 60.6406 64.0781 53.1875
Q66.8906 45.75 66.8906 36.1875
Q66.8906 28.0312 64.9844 21.7344
Q63.0938 15.4375 60.1094 11.2969
Q57.125 7.17188 53.5781 4.79688
Q50.0469 2.4375 45.0469 1.21875
Q40.0469 0 33.5469 0
z

M17.1875 8.45312
L32.4688 8.45312
Q39.5469 8.45312 43.5781 9.76562
Q47.6094 11.0781 50 13.4844
Q53.375 16.8438 55.25 22.5312
Q57.125 28.2188 57.125 36.3281
Q57.125 47.5625 53.4375 53.5938
Q49.75 59.625 44.4844 61.6719
Q40.6719 63.1406 32.2344 63.1406
L17.1875 63.1406
z
" id="ArialMT-44"/>
     <path d="
M25.9219 0
L25.9219 63.1406
L2.34375 63.1406
L2.34375 71.5781
L59.0781 71.5781
L59.0781 63.1406
L35.4062 63.1406
L35.4062 0
z
" id="ArialMT-54"/>
     <path id="ArialMT-20"/>
    </defs>
    <g style="fill:#262626;" transform="translate(265.504609375 27.97875)scale(0.24 -0.24)">
     <use xlink:href="#ArialMT-48"/>
     <use x="72.216796875" xlink:href="#ArialMT-6f"/>
     <use x="127.83203125" xlink:href="#ArialMT-6d"/>
     <use x="211.1328125" xlink:href="#ArialMT-6f"/>
     <use x="266.748046875" xlink:href="#ArialMT-6c"/>
     <use x="288.96484375" xlink:href="#ArialMT-6f"/>
     <use x="344.580078125" xlink:href="#ArialMT-67"/>
     <use x="400.1953125" xlink:href="#ArialMT-69"/>
     <use x="422.412109375" xlink:href="#ArialMT-65"/>
     <use x="478.02734375" xlink:href="#ArialMT-73"/>
     <use x="528.02734375" xlink:href="#ArialMT-20"/>
     <use x="555.810546875" xlink:href="#ArialMT-70"/>
     <use x="611.42578125" xlink:href="#ArialMT-65"/>
     <use x="667.041015625" xlink:href="#ArialMT-72"/>
     <use x="700.341796875" xlink:href="#ArialMT-20"/>
     <use x="726.375" xlink:href="#ArialMT-54"/>
     <use x="783.708984375" xlink:href="#ArialMT-69"/>
     <use x="805.92578125" xlink:href="#ArialMT-73"/>
     <use x="855.92578125" xlink:href="#ArialMT-73"/>
     <use x="905.92578125" xlink:href="#ArialMT-75"/>
     <use x="961.541015625" xlink:href="#ArialMT-65"/>
     <use x="1017.15625" xlink:href="#ArialMT-20"/>
     <use x="1044.93945312" xlink:href="#ArialMT-70"/>
     <use x="1100.5546875" xlink:href="#ArialMT-65"/>
     <use x="1156.16992188" xlink:href="#ArialMT-72"/>
     <use x="1189.47070312" xlink:href="#ArialMT-20"/>
     <use x="1217.25390625" xlink:href="#ArialMT-44"/>
     <use x="1289.47070312" xlink:href="#ArialMT-61"/>
     <use x="1345.0859375" xlink:href="#ArialMT-74"/>
     <use x="1372.86914062" xlink:href="#ArialMT-61"/>
     <use x="1428.484375" xlink:href="#ArialMT-62"/>
     <use x="1484.09960938" xlink:href="#ArialMT-61"/>
     <use x="1539.71484375" xlink:href="#ArialMT-73"/>
     <use x="1589.71484375" xlink:href="#ArialMT-65"/>
    </g>
   </g>
   <g id="legend_1">
    <g id="patch_167">
     <path d="
M727.301 49.1366
L747.301 49.1366
L747.301 42.1366
L727.301 42.1366
z
" style="fill:#66c2a5;stroke:#000000;stroke-width:0.3;"/>
    </g>
    <g id="text_26">
     <!-- Myxinidae_pep -->
     <defs>
      <path d="
M-1.51562 -19.875
L-1.51562 -13.5312
L56.7344 -13.5312
L56.7344 -19.875
z
" id="ArialMT-5f"/>
      <path d="
M0.734375 0
L19.6719 26.9531
L2.15625 51.8594
L13.1406 51.8594
L21.0938 39.7031
Q23.3438 36.2344 24.7031 33.8906
Q26.8594 37.1094 28.6562 39.5938
L37.4062 51.8594
L47.9062 51.8594
L29.9844 27.4375
L49.2656 0
L38.4844 0
L27.8281 16.1094
L25 20.4531
L11.375 0
z
" id="ArialMT-78"/>
      <path d="
M7.42188 0
L7.42188 71.5781
L21.6875 71.5781
L38.625 20.9062
Q40.9688 13.8125 42.0469 10.2969
Q43.2656 14.2031 45.8438 21.7812
L62.9844 71.5781
L75.7344 71.5781
L75.7344 0
L66.6094 0
L66.6094 59.9062
L45.7969 0
L37.25 0
L16.5469 60.9375
L16.5469 0
z
" id="ArialMT-4d"/>
     </defs>
     <g style="fill:#262626;" transform="translate(755.30109375 49.1365625)scale(0.1 -0.1)">
      <use xlink:href="#ArialMT-4d"/>
      <use x="83.30078125" xlink:href="#ArialMT-79"/>
      <use x="133.30078125" xlink:href="#ArialMT-78"/>
      <use x="183.30078125" xlink:href="#ArialMT-69"/>
      <use x="205.517578125" xlink:href="#ArialMT-6e"/>
      <use x="261.1328125" xlink:href="#ArialMT-69"/>
      <use x="283.349609375" xlink:href="#ArialMT-64"/>
      <use x="338.96484375" xlink:href="#ArialMT-61"/>
      <use x="394.580078125" xlink:href="#ArialMT-65"/>
      <use x="450.1953125" xlink:href="#ArialMT-5f"/>
      <use x="505.810546875" xlink:href="#ArialMT-70"/>
      <use x="561.42578125" xlink:href="#ArialMT-65"/>
      <use x="617.041015625" xlink:href="#ArialMT-70"/>
     </g>
    </g>
    <g id="patch_168">
     <path d="
M727.301 63.3991
L747.301 63.3991
L747.301 56.3991
L727.301 56.3991
z
" style="fill:#fa8e63;stroke:#000000;stroke-width:0.3;"/>
    </g>
    <g id="text_27">
     <!-- braFlo_pep -->
     <defs>
      <path d="
M8.20312 0
L8.20312 71.5781
L56.5 71.5781
L56.5 63.1406
L17.6719 63.1406
L17.6719 40.9688
L51.2656 40.9688
L51.2656 32.5156
L17.6719 32.5156
L17.6719 0
z
" id="ArialMT-46"/>
     </defs>
     <g style="fill:#262626;" transform="translate(755.30109375 63.3990625)scale(0.1 -0.1)">
      <use xlink:href="#ArialMT-62"/>
      <use x="55.615234375" xlink:href="#ArialMT-72"/>
      <use x="88.916015625" xlink:href="#ArialMT-61"/>
      <use x="144.53125" xlink:href="#ArialMT-46"/>
      <use x="205.615234375" xlink:href="#ArialMT-6c"/>
      <use x="227.83203125" xlink:href="#ArialMT-6f"/>
      <use x="283.447265625" xlink:href="#ArialMT-5f"/>
      <use x="339.0625" xlink:href="#ArialMT-70"/>
      <use x="394.677734375" xlink:href="#ArialMT-65"/>
      <use x="450.29296875" xlink:href="#ArialMT-70"/>
     </g>
    </g>
    <g id="patch_169">
     <path d="
M727.301 77.5444
L747.301 77.5444
L747.301 70.5444
L727.301 70.5444
z
" style="fill:#8da0cb;stroke:#000000;stroke-width:0.3;"/>
    </g>
    <g id="text_28">
     <!-- danRer_pep -->
     <defs>
      <path d="
M7.85938 0
L7.85938 71.5781
L39.5938 71.5781
Q49.1719 71.5781 54.1406 69.6406
Q59.125 67.7188 62.1094 62.8281
Q65.0938 57.9531 65.0938 52.0469
Q65.0938 44.4375 60.1562 39.2031
Q55.2188 33.9844 44.9219 32.5625
Q48.6875 30.7656 50.6406 29
Q54.7812 25.2031 58.5 19.4844
L70.9531 0
L59.0312 0
L49.5625 14.8906
Q45.4062 21.3438 42.7188 24.75
Q40.0469 28.1719 37.9219 29.5312
Q35.7969 30.9062 33.5938 31.4531
Q31.9844 31.7812 28.3281 31.7812
L17.3281 31.7812
L17.3281 0
z

M17.3281 39.9844
L37.7031 39.9844
Q44.1875 39.9844 47.8438 41.3281
Q51.5156 42.6719 53.4219 45.625
Q55.3281 48.5781 55.3281 52.0469
Q55.3281 57.125 51.6406 60.3906
Q47.9531 63.6719 39.9844 63.6719
L17.3281 63.6719
z
" id="ArialMT-52"/>
     </defs>
     <g style="fill:#262626;" transform="translate(755.30109375 77.544375)scale(0.1 -0.1)">
      <use xlink:href="#ArialMT-64"/>
      <use x="55.615234375" xlink:href="#ArialMT-61"/>
      <use x="111.23046875" xlink:href="#ArialMT-6e"/>
      <use x="166.845703125" xlink:href="#ArialMT-52"/>
      <use x="239.0625" xlink:href="#ArialMT-65"/>
      <use x="294.677734375" xlink:href="#ArialMT-72"/>
      <use x="327.978515625" xlink:href="#ArialMT-5f"/>
      <use x="383.59375" xlink:href="#ArialMT-70"/>
      <use x="439.208984375" xlink:href="#ArialMT-65"/>
      <use x="494.82421875" xlink:href="#ArialMT-70"/>
     </g>
    </g>
    <g id="patch_170">
     <path d="
M727.301 91.8116
L747.301 91.8116
L747.301 84.8116
L727.301 84.8116
z
" style="fill:#e68ac3;stroke:#000000;stroke-width:0.3;"/>
    </g>
    <g id="text_29">
     <!-- homSap_pep -->
     <defs>
      <path d="
M4.5 23
L13.4219 23.7812
Q14.0625 18.4062 16.375 14.9688
Q18.7031 11.5312 23.5781 9.40625
Q28.4688 7.28125 34.5781 7.28125
Q39.9844 7.28125 44.1406 8.89062
Q48.2969 10.5 50.3125 13.2969
Q52.3438 16.1094 52.3438 19.4375
Q52.3438 22.7969 50.3906 25.3125
Q48.4375 27.8281 43.9531 29.5469
Q41.0625 30.6719 31.2031 33.0312
Q21.3438 35.4062 17.3906 37.5
Q12.25 40.1875 9.73438 44.1562
Q7.23438 48.1406 7.23438 53.0781
Q7.23438 58.5 10.2969 63.2031
Q13.375 67.9219 19.2812 70.3594
Q25.2031 72.7969 32.4219 72.7969
Q40.375 72.7969 46.4531 70.2344
Q52.5469 67.6719 55.8125 62.6875
Q59.0781 57.7188 59.3281 51.4219
L50.25 50.7344
Q49.5156 57.5156 45.2812 60.9844
Q41.0625 64.4531 32.8125 64.4531
Q24.2188 64.4531 20.2812 61.2969
Q16.3594 58.1562 16.3594 53.7188
Q16.3594 49.8594 19.1406 47.3594
Q21.875 44.875 33.4219 42.2656
Q44.9688 39.6562 49.2656 37.7031
Q55.5156 34.8125 58.4844 30.3906
Q61.4688 25.9844 61.4688 20.2188
Q61.4688 14.5 58.2031 9.4375
Q54.9375 4.39062 48.7969 1.57812
Q42.6719 -1.21875 35.0156 -1.21875
Q25.2969 -1.21875 18.7188 1.60938
Q12.1562 4.4375 8.42188 10.125
Q4.6875 15.8281 4.5 23" id="ArialMT-53"/>
     </defs>
     <g style="fill:#262626;" transform="translate(755.30109375 91.8115625)scale(0.1 -0.1)">
      <use xlink:href="#ArialMT-68"/>
      <use x="55.615234375" xlink:href="#ArialMT-6f"/>
      <use x="111.23046875" xlink:href="#ArialMT-6d"/>
      <use x="194.53125" xlink:href="#ArialMT-53"/>
      <use x="261.23046875" xlink:href="#ArialMT-61"/>
      <use x="316.845703125" xlink:href="#ArialMT-70"/>
      <use x="372.4609375" xlink:href="#ArialMT-5f"/>
      <use x="428.076171875" xlink:href="#ArialMT-70"/>
      <use x="483.69140625" xlink:href="#ArialMT-65"/>
      <use x="539.306640625" xlink:href="#ArialMT-70"/>
     </g>
    </g>
    <g id="patch_171">
     <path d="
M727.301 105.957
L747.301 105.957
L747.301 98.9569
L727.301 98.9569
z
" style="fill:#a7d854;stroke:#000000;stroke-width:0.3;"/>
    </g>
    <g id="text_30">
     <!-- musMus_pep -->
     <g style="fill:#262626;" transform="translate(755.30109375 105.956875)scale(0.1 -0.1)">
      <use xlink:href="#ArialMT-6d"/>
      <use x="83.30078125" xlink:href="#ArialMT-75"/>
      <use x="138.916015625" xlink:href="#ArialMT-73"/>
      <use x="188.916015625" xlink:href="#ArialMT-4d"/>
      <use x="272.216796875" xlink:href="#ArialMT-75"/>
      <use x="327.83203125" xlink:href="#ArialMT-73"/>
      <use x="377.83203125" xlink:href="#ArialMT-5f"/>
      <use x="433.447265625" xlink:href="#ArialMT-70"/>
      <use x="489.0625" xlink:href="#ArialMT-65"/>
      <use x="544.677734375" xlink:href="#ArialMT-70"/>
     </g>
    </g>
    <g id="patch_172">
     <path d="
M727.301 120.132
L747.301 120.132
L747.301 113.132
L727.301 113.132
z
" style="fill:#ffd92f;stroke:#000000;stroke-width:0.3;"/>
    </g>
    <g id="text_31">
     <!-- petMar2 -->
     <g style="fill:#262626;" transform="translate(755.30109375 120.131875)scale(0.1 -0.1)">
      <use xlink:href="#ArialMT-70"/>
      <use x="55.615234375" xlink:href="#ArialMT-65"/>
      <use x="111.23046875" xlink:href="#ArialMT-74"/>
      <use x="139.013671875" xlink:href="#ArialMT-4d"/>
      <use x="222.314453125" xlink:href="#ArialMT-61"/>
      <use x="277.9296875" xlink:href="#ArialMT-72"/>
      <use x="311.23046875" xlink:href="#ArialMT-32"/>
     </g>
    </g>
    <g id="patch_173">
     <path d="
M727.301 134.307
L747.301 134.307
L747.301 127.307
L727.301 127.307
z
" style="fill:#66c2a5;stroke:#000000;stroke-width:0.3;"/>
    </g>
    <g id="text_32">
     <!-- petMar2_cdna -->
     <g style="fill:#262626;" transform="translate(755.30109375 134.306875)scale(0.1 -0.1)">
      <use xlink:href="#ArialMT-70"/>
      <use x="55.615234375" xlink:href="#ArialMT-65"/>
      <use x="111.23046875" xlink:href="#ArialMT-74"/>
      <use x="139.013671875" xlink:href="#ArialMT-4d"/>
      <use x="222.314453125" xlink:href="#ArialMT-61"/>
      <use x="277.9296875" xlink:href="#ArialMT-72"/>
      <use x="311.23046875" xlink:href="#ArialMT-32"/>
      <use x="366.845703125" xlink:href="#ArialMT-5f"/>
      <use x="422.4609375" xlink:href="#ArialMT-63"/>
      <use x="472.4609375" xlink:href="#ArialMT-64"/>
      <use x="528.076171875" xlink:href="#ArialMT-6e"/>
      <use x="583.69140625" xlink:href="#ArialMT-61"/>
     </g>
    </g>
    <g id="patch_174">
     <path d="
M727.301 148.482
L747.301 148.482
L747.301 141.482
L727.301 141.482
z
" style="fill:#fa8e63;stroke:#000000;stroke-width:0.3;"/>
    </g>
    <g id="text_33">
     <!-- petMar2_cds -->
     <g style="fill:#262626;" transform="translate(755.30109375 148.481875)scale(0.1 -0.1)">
      <use xlink:href="#ArialMT-70"/>
      <use x="55.615234375" xlink:href="#ArialMT-65"/>
      <use x="111.23046875" xlink:href="#ArialMT-74"/>
      <use x="139.013671875" xlink:href="#ArialMT-4d"/>
      <use x="222.314453125" xlink:href="#ArialMT-61"/>
      <use x="277.9296875" xlink:href="#ArialMT-72"/>
      <use x="311.23046875" xlink:href="#ArialMT-32"/>
      <use x="366.845703125" xlink:href="#ArialMT-5f"/>
      <use x="422.4609375" xlink:href="#ArialMT-63"/>
      <use x="472.4609375" xlink:href="#ArialMT-64"/>
      <use x="528.076171875" xlink:href="#ArialMT-73"/>
     </g>
    </g>
    <g id="patch_175">
     <path d="
M727.301 162.657
L747.301 162.657
L747.301 155.657
L727.301 155.657
z
" style="fill:#8da0cb;stroke:#000000;stroke-width:0.3;"/>
    </g>
    <g id="text_34">
     <!-- petMar2_ncrna -->
     <g style="fill:#262626;" transform="translate(755.30109375 162.656875)scale(0.1 -0.1)">
      <use xlink:href="#ArialMT-70"/>
      <use x="55.615234375" xlink:href="#ArialMT-65"/>
      <use x="111.23046875" xlink:href="#ArialMT-74"/>
      <use x="139.013671875" xlink:href="#ArialMT-4d"/>
      <use x="222.314453125" xlink:href="#ArialMT-61"/>
      <use x="277.9296875" xlink:href="#ArialMT-72"/>
      <use x="311.23046875" xlink:href="#ArialMT-32"/>
      <use x="366.845703125" xlink:href="#ArialMT-5f"/>
      <use x="422.4609375" xlink:href="#ArialMT-6e"/>
      <use x="478.076171875" xlink:href="#ArialMT-63"/>
      <use x="528.076171875" xlink:href="#ArialMT-72"/>
      <use x="561.376953125" xlink:href="#ArialMT-6e"/>
      <use x="616.9921875" xlink:href="#ArialMT-61"/>
     </g>
    </g>
    <g id="patch_176">
     <path d="
M727.301 176.832
L747.301 176.832
L747.301 169.832
L727.301 169.832
z
" style="fill:#e68ac3;stroke:#000000;stroke-width:0.3;"/>
    </g>
    <g id="text_35">
     <!-- petMar2_pep -->
     <g style="fill:#262626;" transform="translate(755.30109375 176.831875)scale(0.1 -0.1)">
      <use xlink:href="#ArialMT-70"/>
      <use x="55.615234375" xlink:href="#ArialMT-65"/>
      <use x="111.23046875" xlink:href="#ArialMT-74"/>
      <use x="139.013671875" xlink:href="#ArialMT-4d"/>
      <use x="222.314453125" xlink:href="#ArialMT-61"/>
      <use x="277.9296875" xlink:href="#ArialMT-72"/>
      <use x="311.23046875" xlink:href="#ArialMT-32"/>
      <use x="366.845703125" xlink:href="#ArialMT-5f"/>
      <use x="422.4609375" xlink:href="#ArialMT-70"/>
      <use x="478.076171875" xlink:href="#ArialMT-65"/>
      <use x="533.69140625" xlink:href="#ArialMT-70"/>
     </g>
    </g>
   </g>
  </g>
 </g>
 <defs>
  <clipPath id="p42e688bd08">
   <rect height="1664.4178125" width="736.07796875" x="94.395" y="32.97875"/>
  </clipPath>
 </defs>
</svg>
