<?xml version="1.0" encoding="utf-8" standalone="no"?>
<!DOCTYPE svg PUBLIC "-//W3C//DTD SVG 1.1//EN"
  "http://www.w3.org/Graphics/SVG/1.1/DTD/svg11.dtd">
<!-- Created with matplotlib (http://matplotlib.org/) -->
<svg height="864pt" version="1.1" viewBox="0 0 1296 864" width="1296pt" xmlns="http://www.w3.org/2000/svg" xmlns:xlink="http://www.w3.org/1999/xlink">
 <defs>
  <style type="text/css">
*{stroke-linecap:butt;stroke-linejoin:round;}
  </style>
 </defs>
 <g id="figure_1">
  <g id="patch_1">
   <path d="
M0 864
L1296 864
L1296 0
L0 0
z
" style="fill:#ffffff;"/>
  </g>
  <g id="axes_1">
   <g id="patch_2">
    <path d="
M69.6306 758.505
L1285.2 758.505
L1285.2 34.0362
L69.6306 34.0362
z
" style="fill:#ffffff;"/>
   </g>
   <g id="matplotlib.axis_1">
    <g id="xtick_1">
     <g id="line2d_1">
      <path clip-path="url(#p30e29e467c)" d="
M107.617 758.505
L107.617 34.0362" style="fill:none;stroke:#cccccc;stroke-linecap:round;"/>
     </g>
     <g id="line2d_2">
      <defs>
       <path d="
M0 0
L0 0" id="m219da94a98" style="stroke:#262626;"/>
      </defs>
      <g>
       <use style="fill:#262626;stroke:#262626;" x="107.617167969" xlink:href="#m219da94a98" y="758.505"/>
      </g>
     </g>
     <g id="line2d_3">
      <g>
       <use style="fill:#262626;stroke:#262626;" x="107.617167969" xlink:href="#m219da94a98" y="34.03625"/>
      </g>
     </g>
     <g id="text_1">
      <!-- unknown -->
      <defs>
       <path d="
M54.8906 33.0156
L54.8906 0
L45.9062 0
L45.9062 32.7188
Q45.9062 40.4844 42.875 44.3281
Q39.8438 48.1875 33.7969 48.1875
Q26.5156 48.1875 22.3125 43.5469
Q18.1094 38.9219 18.1094 30.9062
L18.1094 0
L9.07812 0
L9.07812 54.6875
L18.1094 54.6875
L18.1094 46.1875
Q21.3438 51.125 25.7031 53.5625
Q30.0781 56 35.7969 56
Q45.2188 56 50.0469 50.1719
Q54.8906 44.3438 54.8906 33.0156" id="BitstreamVeraSans-Roman-6e"/>
       <path d="
M4.20312 54.6875
L13.1875 54.6875
L24.4219 12.0156
L35.5938 54.6875
L46.1875 54.6875
L57.4219 12.0156
L68.6094 54.6875
L77.5938 54.6875
L63.2812 0
L52.6875 0
L40.9219 44.8281
L29.1094 0
L18.5 0
z
" id="BitstreamVeraSans-Roman-77"/>
       <path d="
M8.5 21.5781
L8.5 54.6875
L17.4844 54.6875
L17.4844 21.9219
Q17.4844 14.1562 20.5 10.2656
Q23.5312 6.39062 29.5938 6.39062
Q36.8594 6.39062 41.0781 11.0312
Q45.3125 15.6719 45.3125 23.6875
L45.3125 54.6875
L54.2969 54.6875
L54.2969 0
L45.3125 0
L45.3125 8.40625
Q42.0469 3.42188 37.7188 1
Q33.4062 -1.42188 27.6875 -1.42188
Q18.2656 -1.42188 13.375 4.4375
Q8.5 10.2969 8.5 21.5781" id="BitstreamVeraSans-Roman-75"/>
       <path d="
M30.6094 48.3906
Q23.3906 48.3906 19.1875 42.75
Q14.9844 37.1094 14.9844 27.2969
Q14.9844 17.4844 19.1562 11.8438
Q23.3438 6.20312 30.6094 6.20312
Q37.7969 6.20312 41.9844 11.8594
Q46.1875 17.5312 46.1875 27.2969
Q46.1875 37.0156 41.9844 42.7031
Q37.7969 48.3906 30.6094 48.3906
M30.6094 56
Q42.3281 56 49.0156 48.375
Q55.7188 40.7656 55.7188 27.2969
Q55.7188 13.875 49.0156 6.21875
Q42.3281 -1.42188 30.6094 -1.42188
Q18.8438 -1.42188 12.1719 6.21875
Q5.51562 13.875 5.51562 27.2969
Q5.51562 40.7656 12.1719 48.375
Q18.8438 56 30.6094 56" id="BitstreamVeraSans-Roman-6f"/>
       <path d="
M9.07812 75.9844
L18.1094 75.9844
L18.1094 31.1094
L44.9219 54.6875
L56.3906 54.6875
L27.3906 29.1094
L57.625 0
L45.9062 0
L18.1094 26.7031
L18.1094 0
L9.07812 0
z
" id="BitstreamVeraSans-Roman-6b"/>
      </defs>
      <g style="fill:#262626;" transform="translate(112.032167969 835.4875)rotate(-90.0)scale(0.16 -0.16)">
       <use xlink:href="#BitstreamVeraSans-Roman-75"/>
       <use x="63.37890625" xlink:href="#BitstreamVeraSans-Roman-6e"/>
       <use x="126.7578125" xlink:href="#BitstreamVeraSans-Roman-6b"/>
       <use x="184.66796875" xlink:href="#BitstreamVeraSans-Roman-6e"/>
       <use x="248.046875" xlink:href="#BitstreamVeraSans-Roman-6f"/>
       <use x="309.228515625" xlink:href="#BitstreamVeraSans-Roman-77"/>
       <use x="391.015625" xlink:href="#BitstreamVeraSans-Roman-6e"/>
      </g>
     </g>
    </g>
    <g id="xtick_2">
     <g id="line2d_4">
      <path clip-path="url(#p30e29e467c)" d="
M183.59 758.505
L183.59 34.0362" style="fill:none;stroke:#cccccc;stroke-linecap:round;"/>
     </g>
     <g id="line2d_5">
      <g>
       <use style="fill:#262626;stroke:#262626;" x="183.590253906" xlink:href="#m219da94a98" y="758.505"/>
      </g>
     </g>
     <g id="line2d_6">
      <g>
       <use style="fill:#262626;stroke:#262626;" x="183.590253906" xlink:href="#m219da94a98" y="34.03625"/>
      </g>
     </g>
     <g id="text_2">
      <!-- tailskin -->
      <defs>
       <path d="
M9.42188 54.6875
L18.4062 54.6875
L18.4062 0
L9.42188 0
z

M9.42188 75.9844
L18.4062 75.9844
L18.4062 64.5938
L9.42188 64.5938
z
" id="BitstreamVeraSans-Roman-69"/>
       <path d="
M18.3125 70.2188
L18.3125 54.6875
L36.8125 54.6875
L36.8125 47.7031
L18.3125 47.7031
L18.3125 18.0156
Q18.3125 11.3281 20.1406 9.42188
Q21.9688 7.51562 27.5938 7.51562
L36.8125 7.51562
L36.8125 0
L27.5938 0
Q17.1875 0 13.2344 3.875
Q9.28125 7.76562 9.28125 18.0156
L9.28125 47.7031
L2.6875 47.7031
L2.6875 54.6875
L9.28125 54.6875
L9.28125 70.2188
z
" id="BitstreamVeraSans-Roman-74"/>
       <path d="
M34.2812 27.4844
Q23.3906 27.4844 19.1875 25
Q14.9844 22.5156 14.9844 16.5
Q14.9844 11.7188 18.1406 8.90625
Q21.2969 6.10938 26.7031 6.10938
Q34.1875 6.10938 38.7031 11.4062
Q43.2188 16.7031 43.2188 25.4844
L43.2188 27.4844
z

M52.2031 31.2031
L52.2031 0
L43.2188 0
L43.2188 8.29688
Q40.1406 3.32812 35.5469 0.953125
Q30.9531 -1.42188 24.3125 -1.42188
Q15.9219 -1.42188 10.9531 3.29688
Q6 8.01562 6 15.9219
Q6 25.1406 12.1719 29.8281
Q18.3594 34.5156 30.6094 34.5156
L43.2188 34.5156
L43.2188 35.4062
Q43.2188 41.6094 39.1406 45
Q35.0625 48.3906 27.6875 48.3906
Q23 48.3906 18.5469 47.2656
Q14.1094 46.1406 10.0156 43.8906
L10.0156 52.2031
Q14.9375 54.1094 19.5781 55.0469
Q24.2188 56 28.6094 56
Q40.4844 56 46.3438 49.8438
Q52.2031 43.7031 52.2031 31.2031" id="BitstreamVeraSans-Roman-61"/>
       <path d="
M44.2812 53.0781
L44.2812 44.5781
Q40.4844 46.5312 36.375 47.5
Q32.2812 48.4844 27.875 48.4844
Q21.1875 48.4844 17.8438 46.4375
Q14.5 44.3906 14.5 40.2812
Q14.5 37.1562 16.8906 35.375
Q19.2812 33.5938 26.5156 31.9844
L29.5938 31.2969
Q39.1562 29.25 43.1875 25.5156
Q47.2188 21.7812 47.2188 15.0938
Q47.2188 7.46875 41.1875 3.01562
Q35.1562 -1.42188 24.6094 -1.42188
Q20.2188 -1.42188 15.4531 -0.5625
Q10.6875 0.296875 5.42188 2
L5.42188 11.2812
Q10.4062 8.6875 15.2344 7.39062
Q20.0625 6.10938 24.8125 6.10938
Q31.1562 6.10938 34.5625 8.28125
Q37.9844 10.4531 37.9844 14.4062
Q37.9844 18.0625 35.5156 20.0156
Q33.0625 21.9688 24.7031 23.7812
L21.5781 24.5156
Q13.2344 26.2656 9.51562 29.9062
Q5.8125 33.5469 5.8125 39.8906
Q5.8125 47.6094 11.2812 51.7969
Q16.75 56 26.8125 56
Q31.7812 56 36.1719 55.2656
Q40.5781 54.5469 44.2812 53.0781" id="BitstreamVeraSans-Roman-73"/>
       <path d="
M9.42188 75.9844
L18.4062 75.9844
L18.4062 0
L9.42188 0
z
" id="BitstreamVeraSans-Roman-6c"/>
      </defs>
      <g style="fill:#262626;" transform="translate(188.005253906 820.87)rotate(-90.0)scale(0.16 -0.16)">
       <use xlink:href="#BitstreamVeraSans-Roman-74"/>
       <use x="39.208984375" xlink:href="#BitstreamVeraSans-Roman-61"/>
       <use x="100.48828125" xlink:href="#BitstreamVeraSans-Roman-69"/>
       <use x="128.271484375" xlink:href="#BitstreamVeraSans-Roman-6c"/>
       <use x="156.0546875" xlink:href="#BitstreamVeraSans-Roman-73"/>
       <use x="208.154296875" xlink:href="#BitstreamVeraSans-Roman-6b"/>
       <use x="266.064453125" xlink:href="#BitstreamVeraSans-Roman-69"/>
       <use x="293.84765625" xlink:href="#BitstreamVeraSans-Roman-6e"/>
      </g>
     </g>
    </g>
    <g id="xtick_3">
     <g id="line2d_7">
      <path clip-path="url(#p30e29e467c)" d="
M259.563 758.505
L259.563 34.0362" style="fill:none;stroke:#cccccc;stroke-linecap:round;"/>
     </g>
     <g id="line2d_8">
      <g>
       <use style="fill:#262626;stroke:#262626;" x="259.563339844" xlink:href="#m219da94a98" y="758.505"/>
      </g>
     </g>
     <g id="line2d_9">
      <g>
       <use style="fill:#262626;stroke:#262626;" x="259.563339844" xlink:href="#m219da94a98" y="34.03625"/>
      </g>
     </g>
     <g id="text_3">
      <!-- spinal -->
      <defs>
       <path d="
M18.1094 8.20312
L18.1094 -20.7969
L9.07812 -20.7969
L9.07812 54.6875
L18.1094 54.6875
L18.1094 46.3906
Q20.9531 51.2656 25.2656 53.625
Q29.5938 56 35.5938 56
Q45.5625 56 51.7812 48.0938
Q58.0156 40.1875 58.0156 27.2969
Q58.0156 14.4062 51.7812 6.48438
Q45.5625 -1.42188 35.5938 -1.42188
Q29.5938 -1.42188 25.2656 0.953125
Q20.9531 3.32812 18.1094 8.20312
M48.6875 27.2969
Q48.6875 37.2031 44.6094 42.8438
Q40.5312 48.4844 33.4062 48.4844
Q26.2656 48.4844 22.1875 42.8438
Q18.1094 37.2031 18.1094 27.2969
Q18.1094 17.3906 22.1875 11.75
Q26.2656 6.10938 33.4062 6.10938
Q40.5312 6.10938 44.6094 11.75
Q48.6875 17.3906 48.6875 27.2969" id="BitstreamVeraSans-Roman-70"/>
      </defs>
      <g style="fill:#262626;" transform="translate(263.978339844 810.465)rotate(-90.0)scale(0.16 -0.16)">
       <use xlink:href="#BitstreamVeraSans-Roman-73"/>
       <use x="52.099609375" xlink:href="#BitstreamVeraSans-Roman-70"/>
       <use x="115.576171875" xlink:href="#BitstreamVeraSans-Roman-69"/>
       <use x="143.359375" xlink:href="#BitstreamVeraSans-Roman-6e"/>
       <use x="206.73828125" xlink:href="#BitstreamVeraSans-Roman-61"/>
       <use x="268.017578125" xlink:href="#BitstreamVeraSans-Roman-6c"/>
      </g>
     </g>
    </g>
    <g id="xtick_4">
     <g id="line2d_10">
      <path clip-path="url(#p30e29e467c)" d="
M335.536 758.505
L335.536 34.0362" style="fill:none;stroke:#cccccc;stroke-linecap:round;"/>
     </g>
     <g id="line2d_11">
      <g>
       <use style="fill:#262626;stroke:#262626;" x="335.536425781" xlink:href="#m219da94a98" y="758.505"/>
      </g>
     </g>
     <g id="line2d_12">
      <g>
       <use style="fill:#262626;stroke:#262626;" x="335.536425781" xlink:href="#m219da94a98" y="34.03625"/>
      </g>
     </g>
     <g id="text_4">
      <!-- rope -->
      <defs>
       <path d="
M56.2031 29.5938
L56.2031 25.2031
L14.8906 25.2031
Q15.4844 15.9219 20.4844 11.0625
Q25.4844 6.20312 34.4219 6.20312
Q39.5938 6.20312 44.4531 7.46875
Q49.3125 8.73438 54.1094 11.2812
L54.1094 2.78125
Q49.2656 0.734375 44.1875 -0.34375
Q39.1094 -1.42188 33.8906 -1.42188
Q20.7969 -1.42188 13.1562 6.1875
Q5.51562 13.8125 5.51562 26.8125
Q5.51562 40.2344 12.7656 48.1094
Q20.0156 56 32.3281 56
Q43.3594 56 49.7812 48.8906
Q56.2031 41.7969 56.2031 29.5938
M47.2188 32.2344
Q47.125 39.5938 43.0938 43.9844
Q39.0625 48.3906 32.4219 48.3906
Q24.9062 48.3906 20.3906 44.1406
Q15.875 39.8906 15.1875 32.1719
z
" id="BitstreamVeraSans-Roman-65"/>
       <path d="
M41.1094 46.2969
Q39.5938 47.1719 37.8125 47.5781
Q36.0312 48 33.8906 48
Q26.2656 48 22.1875 43.0469
Q18.1094 38.0938 18.1094 28.8125
L18.1094 0
L9.07812 0
L9.07812 54.6875
L18.1094 54.6875
L18.1094 46.1875
Q20.9531 51.1719 25.4844 53.5781
Q30.0312 56 36.5312 56
Q37.4531 56 38.5781 55.875
Q39.7031 55.7656 41.0625 55.5156
z
" id="BitstreamVeraSans-Roman-72"/>
      </defs>
      <g style="fill:#262626;" transform="translate(339.951425781 799.21)rotate(-90.0)scale(0.16 -0.16)">
       <use xlink:href="#BitstreamVeraSans-Roman-72"/>
       <use x="38.86328125" xlink:href="#BitstreamVeraSans-Roman-6f"/>
       <use x="100.044921875" xlink:href="#BitstreamVeraSans-Roman-70"/>
       <use x="163.521484375" xlink:href="#BitstreamVeraSans-Roman-65"/>
      </g>
     </g>
    </g>
    <g id="xtick_5">
     <g id="line2d_13">
      <path clip-path="url(#p30e29e467c)" d="
M411.51 758.505
L411.51 34.0362" style="fill:none;stroke:#cccccc;stroke-linecap:round;"/>
     </g>
     <g id="line2d_14">
      <g>
       <use style="fill:#262626;stroke:#262626;" x="411.509511719" xlink:href="#m219da94a98" y="758.505"/>
      </g>
     </g>
     <g id="line2d_15">
      <g>
       <use style="fill:#262626;stroke:#262626;" x="411.509511719" xlink:href="#m219da94a98" y="34.03625"/>
      </g>
     </g>
     <g id="text_5">
      <!-- neutrophils -->
      <defs>
       <path d="
M54.8906 33.0156
L54.8906 0
L45.9062 0
L45.9062 32.7188
Q45.9062 40.4844 42.875 44.3281
Q39.8438 48.1875 33.7969 48.1875
Q26.5156 48.1875 22.3125 43.5469
Q18.1094 38.9219 18.1094 30.9062
L18.1094 0
L9.07812 0
L9.07812 75.9844
L18.1094 75.9844
L18.1094 46.1875
Q21.3438 51.125 25.7031 53.5625
Q30.0781 56 35.7969 56
Q45.2188 56 50.0469 50.1719
Q54.8906 44.3438 54.8906 33.0156" id="BitstreamVeraSans-Roman-68"/>
      </defs>
      <g style="fill:#262626;" transform="translate(415.924511719 853.2)rotate(-90.0)scale(0.16 -0.16)">
       <use xlink:href="#BitstreamVeraSans-Roman-6e"/>
       <use x="63.37890625" xlink:href="#BitstreamVeraSans-Roman-65"/>
       <use x="124.90234375" xlink:href="#BitstreamVeraSans-Roman-75"/>
       <use x="188.28125" xlink:href="#BitstreamVeraSans-Roman-74"/>
       <use x="227.490234375" xlink:href="#BitstreamVeraSans-Roman-72"/>
       <use x="266.353515625" xlink:href="#BitstreamVeraSans-Roman-6f"/>
       <use x="327.53515625" xlink:href="#BitstreamVeraSans-Roman-70"/>
       <use x="391.01171875" xlink:href="#BitstreamVeraSans-Roman-68"/>
       <use x="454.390625" xlink:href="#BitstreamVeraSans-Roman-69"/>
       <use x="482.173828125" xlink:href="#BitstreamVeraSans-Roman-6c"/>
       <use x="509.95703125" xlink:href="#BitstreamVeraSans-Roman-73"/>
      </g>
     </g>
    </g>
    <g id="xtick_6">
     <g id="line2d_16">
      <path clip-path="url(#p30e29e467c)" d="
M487.483 758.505
L487.483 34.0362" style="fill:none;stroke:#cccccc;stroke-linecap:round;"/>
     </g>
     <g id="line2d_17">
      <g>
       <use style="fill:#262626;stroke:#262626;" x="487.482597656" xlink:href="#m219da94a98" y="758.505"/>
      </g>
     </g>
     <g id="line2d_18">
      <g>
       <use style="fill:#262626;stroke:#262626;" x="487.482597656" xlink:href="#m219da94a98" y="34.03625"/>
      </g>
     </g>
     <g id="text_6">
      <!-- muscle -->
      <defs>
       <path d="
M52 44.1875
Q55.375 50.25 60.0625 53.125
Q64.75 56 71.0938 56
Q79.6406 56 84.2812 50.0156
Q88.9219 44.0469 88.9219 33.0156
L88.9219 0
L79.8906 0
L79.8906 32.7188
Q79.8906 40.5781 77.0938 44.375
Q74.3125 48.1875 68.6094 48.1875
Q61.625 48.1875 57.5625 43.5469
Q53.5156 38.9219 53.5156 30.9062
L53.5156 0
L44.4844 0
L44.4844 32.7188
Q44.4844 40.625 41.7031 44.4062
Q38.9219 48.1875 33.1094 48.1875
Q26.2188 48.1875 22.1562 43.5312
Q18.1094 38.875 18.1094 30.9062
L18.1094 0
L9.07812 0
L9.07812 54.6875
L18.1094 54.6875
L18.1094 46.1875
Q21.1875 51.2188 25.4844 53.6094
Q29.7812 56 35.6875 56
Q41.6562 56 45.8281 52.9688
Q50 49.9531 52 44.1875" id="BitstreamVeraSans-Roman-6d"/>
       <path d="
M48.7812 52.5938
L48.7812 44.1875
Q44.9688 46.2969 41.1406 47.3438
Q37.3125 48.3906 33.4062 48.3906
Q24.6562 48.3906 19.8125 42.8438
Q14.9844 37.3125 14.9844 27.2969
Q14.9844 17.2812 19.8125 11.7344
Q24.6562 6.20312 33.4062 6.20312
Q37.3125 6.20312 41.1406 7.25
Q44.9688 8.29688 48.7812 10.4062
L48.7812 2.09375
Q45.0156 0.34375 40.9844 -0.53125
Q36.9688 -1.42188 32.4219 -1.42188
Q20.0625 -1.42188 12.7812 6.34375
Q5.51562 14.1094 5.51562 27.2969
Q5.51562 40.6719 12.8594 48.3281
Q20.2188 56 33.0156 56
Q37.1562 56 41.1094 55.1406
Q45.0625 54.2969 48.7812 52.5938" id="BitstreamVeraSans-Roman-63"/>
      </defs>
      <g style="fill:#262626;" transform="translate(491.897597656 820.3475)rotate(-90.0)scale(0.16 -0.16)">
       <use xlink:href="#BitstreamVeraSans-Roman-6d"/>
       <use x="97.412109375" xlink:href="#BitstreamVeraSans-Roman-75"/>
       <use x="160.791015625" xlink:href="#BitstreamVeraSans-Roman-73"/>
       <use x="212.890625" xlink:href="#BitstreamVeraSans-Roman-63"/>
       <use x="267.87109375" xlink:href="#BitstreamVeraSans-Roman-6c"/>
       <use x="295.654296875" xlink:href="#BitstreamVeraSans-Roman-65"/>
      </g>
     </g>
    </g>
    <g id="xtick_7">
     <g id="line2d_19">
      <path clip-path="url(#p30e29e467c)" d="
M563.456 758.505
L563.456 34.0362" style="fill:none;stroke:#cccccc;stroke-linecap:round;"/>
     </g>
     <g id="line2d_20">
      <g>
       <use style="fill:#262626;stroke:#262626;" x="563.455683594" xlink:href="#m219da94a98" y="758.505"/>
      </g>
     </g>
     <g id="line2d_21">
      <g>
       <use style="fill:#262626;stroke:#262626;" x="563.455683594" xlink:href="#m219da94a98" y="34.03625"/>
      </g>
     </g>
     <g id="text_7">
      <!-- monocytes -->
      <defs>
       <path d="
M32.1719 -5.07812
Q28.375 -14.8438 24.75 -17.8125
Q21.1406 -20.7969 15.0938 -20.7969
L7.90625 -20.7969
L7.90625 -13.2812
L13.1875 -13.2812
Q16.8906 -13.2812 18.9375 -11.5156
Q21 -9.76562 23.4844 -3.21875
L25.0938 0.875
L2.98438 54.6875
L12.5 54.6875
L29.5938 11.9219
L46.6875 54.6875
L56.2031 54.6875
z
" id="BitstreamVeraSans-Roman-79"/>
      </defs>
      <g style="fill:#262626;" transform="translate(567.870683594 851.2975)rotate(-90.0)scale(0.16 -0.16)">
       <use xlink:href="#BitstreamVeraSans-Roman-6d"/>
       <use x="97.412109375" xlink:href="#BitstreamVeraSans-Roman-6f"/>
       <use x="158.59375" xlink:href="#BitstreamVeraSans-Roman-6e"/>
       <use x="221.97265625" xlink:href="#BitstreamVeraSans-Roman-6f"/>
       <use x="283.154296875" xlink:href="#BitstreamVeraSans-Roman-63"/>
       <use x="338.134765625" xlink:href="#BitstreamVeraSans-Roman-79"/>
       <use x="397.314453125" xlink:href="#BitstreamVeraSans-Roman-74"/>
       <use x="436.5234375" xlink:href="#BitstreamVeraSans-Roman-65"/>
       <use x="498.046875" xlink:href="#BitstreamVeraSans-Roman-73"/>
      </g>
     </g>
    </g>
    <g id="xtick_8">
     <g id="line2d_22">
      <path clip-path="url(#p30e29e467c)" d="
M639.429 758.505
L639.429 34.0362" style="fill:none;stroke:#cccccc;stroke-linecap:round;"/>
     </g>
     <g id="line2d_23">
      <g>
       <use style="fill:#262626;stroke:#262626;" x="639.428769531" xlink:href="#m219da94a98" y="758.505"/>
      </g>
     </g>
     <g id="line2d_24">
      <g>
       <use style="fill:#262626;stroke:#262626;" x="639.428769531" xlink:href="#m219da94a98" y="34.03625"/>
      </g>
     </g>
     <g id="text_8">
      <!-- liver -->
      <defs>
       <path d="
M2.98438 54.6875
L12.5 54.6875
L29.5938 8.79688
L46.6875 54.6875
L56.2031 54.6875
L35.6875 0
L23.4844 0
z
" id="BitstreamVeraSans-Roman-76"/>
      </defs>
      <g style="fill:#262626;" transform="translate(643.843769531 798.78)rotate(-90.0)scale(0.16 -0.16)">
       <use xlink:href="#BitstreamVeraSans-Roman-6c"/>
       <use x="27.783203125" xlink:href="#BitstreamVeraSans-Roman-69"/>
       <use x="55.56640625" xlink:href="#BitstreamVeraSans-Roman-76"/>
       <use x="114.74609375" xlink:href="#BitstreamVeraSans-Roman-65"/>
       <use x="176.26953125" xlink:href="#BitstreamVeraSans-Roman-72"/>
      </g>
     </g>
    </g>
    <g id="xtick_9">
     <g id="line2d_25">
      <path clip-path="url(#p30e29e467c)" d="
M715.402 758.505
L715.402 34.0362" style="fill:none;stroke:#cccccc;stroke-linecap:round;"/>
     </g>
     <g id="line2d_26">
      <g>
       <use style="fill:#262626;stroke:#262626;" x="715.401855469" xlink:href="#m219da94a98" y="758.505"/>
      </g>
     </g>
     <g id="line2d_27">
      <g>
       <use style="fill:#262626;stroke:#262626;" x="715.401855469" xlink:href="#m219da94a98" y="34.03625"/>
      </g>
     </g>
     <g id="text_9">
      <!-- lips -->
      <g style="fill:#262626;" transform="translate(719.816855469 790.6)rotate(-90.0)scale(0.16 -0.16)">
       <use xlink:href="#BitstreamVeraSans-Roman-6c"/>
       <use x="27.783203125" xlink:href="#BitstreamVeraSans-Roman-69"/>
       <use x="55.56640625" xlink:href="#BitstreamVeraSans-Roman-70"/>
       <use x="119.04296875" xlink:href="#BitstreamVeraSans-Roman-73"/>
      </g>
     </g>
    </g>
    <g id="xtick_10">
     <g id="line2d_28">
      <path clip-path="url(#p30e29e467c)" d="
M791.375 758.505
L791.375 34.0362" style="fill:none;stroke:#cccccc;stroke-linecap:round;"/>
     </g>
     <g id="line2d_29">
      <g>
       <use style="fill:#262626;stroke:#262626;" x="791.374941406" xlink:href="#m219da94a98" y="758.505"/>
      </g>
     </g>
     <g id="line2d_30">
      <g>
       <use style="fill:#262626;stroke:#262626;" x="791.374941406" xlink:href="#m219da94a98" y="34.03625"/>
      </g>
     </g>
     <g id="text_10">
      <!-- kidney -->
      <defs>
       <path d="
M45.4062 46.3906
L45.4062 75.9844
L54.3906 75.9844
L54.3906 0
L45.4062 0
L45.4062 8.20312
Q42.5781 3.32812 38.25 0.953125
Q33.9375 -1.42188 27.875 -1.42188
Q17.9688 -1.42188 11.7344 6.48438
Q5.51562 14.4062 5.51562 27.2969
Q5.51562 40.1875 11.7344 48.0938
Q17.9688 56 27.875 56
Q33.9375 56 38.25 53.625
Q42.5781 51.2656 45.4062 46.3906
M14.7969 27.2969
Q14.7969 17.3906 18.875 11.75
Q22.9531 6.10938 30.0781 6.10938
Q37.2031 6.10938 41.2969 11.75
Q45.4062 17.3906 45.4062 27.2969
Q45.4062 37.2031 41.2969 42.8438
Q37.2031 48.4844 30.0781 48.4844
Q22.9531 48.4844 18.875 42.8438
Q14.7969 37.2031 14.7969 27.2969" id="BitstreamVeraSans-Roman-64"/>
      </defs>
      <g style="fill:#262626;" transform="translate(795.789941406 816.8975)rotate(-90.0)scale(0.16 -0.16)">
       <use xlink:href="#BitstreamVeraSans-Roman-6b"/>
       <use x="57.91015625" xlink:href="#BitstreamVeraSans-Roman-69"/>
       <use x="85.693359375" xlink:href="#BitstreamVeraSans-Roman-64"/>
       <use x="149.169921875" xlink:href="#BitstreamVeraSans-Roman-6e"/>
       <use x="212.548828125" xlink:href="#BitstreamVeraSans-Roman-65"/>
       <use x="274.072265625" xlink:href="#BitstreamVeraSans-Roman-79"/>
      </g>
     </g>
    </g>
    <g id="xtick_11">
     <g id="line2d_31">
      <path clip-path="url(#p30e29e467c)" d="
M867.348 758.505
L867.348 34.0362" style="fill:none;stroke:#cccccc;stroke-linecap:round;"/>
     </g>
     <g id="line2d_32">
      <g>
       <use style="fill:#262626;stroke:#262626;" x="867.348027344" xlink:href="#m219da94a98" y="758.505"/>
      </g>
     </g>
     <g id="line2d_33">
      <g>
       <use style="fill:#262626;stroke:#262626;" x="867.348027344" xlink:href="#m219da94a98" y="34.03625"/>
      </g>
     </g>
     <g id="text_11">
      <!-- intest -->
      <g style="fill:#262626;" transform="translate(871.763027344 808.925)rotate(-90.0)scale(0.16 -0.16)">
       <use xlink:href="#BitstreamVeraSans-Roman-69"/>
       <use x="27.783203125" xlink:href="#BitstreamVeraSans-Roman-6e"/>
       <use x="91.162109375" xlink:href="#BitstreamVeraSans-Roman-74"/>
       <use x="130.37109375" xlink:href="#BitstreamVeraSans-Roman-65"/>
       <use x="191.89453125" xlink:href="#BitstreamVeraSans-Roman-73"/>
       <use x="243.994140625" xlink:href="#BitstreamVeraSans-Roman-74"/>
      </g>
     </g>
    </g>
    <g id="xtick_12">
     <g id="line2d_34">
      <path clip-path="url(#p30e29e467c)" d="
M943.321 758.505
L943.321 34.0362" style="fill:none;stroke:#cccccc;stroke-linecap:round;"/>
     </g>
     <g id="line2d_35">
      <g>
       <use style="fill:#262626;stroke:#262626;" x="943.321113281" xlink:href="#m219da94a98" y="758.505"/>
      </g>
     </g>
     <g id="line2d_36">
      <g>
       <use style="fill:#262626;stroke:#262626;" x="943.321113281" xlink:href="#m219da94a98" y="34.03625"/>
      </g>
     </g>
     <g id="text_12">
      <!-- headskin -->
      <g style="fill:#262626;" transform="translate(947.736113281 834.8275)rotate(-90.0)scale(0.16 -0.16)">
       <use xlink:href="#BitstreamVeraSans-Roman-68"/>
       <use x="63.37890625" xlink:href="#BitstreamVeraSans-Roman-65"/>
       <use x="124.90234375" xlink:href="#BitstreamVeraSans-Roman-61"/>
       <use x="186.181640625" xlink:href="#BitstreamVeraSans-Roman-64"/>
       <use x="249.658203125" xlink:href="#BitstreamVeraSans-Roman-73"/>
       <use x="301.7578125" xlink:href="#BitstreamVeraSans-Roman-6b"/>
       <use x="359.66796875" xlink:href="#BitstreamVeraSans-Roman-69"/>
       <use x="387.451171875" xlink:href="#BitstreamVeraSans-Roman-6e"/>
      </g>
     </g>
    </g>
    <g id="xtick_13">
     <g id="line2d_37">
      <path clip-path="url(#p30e29e467c)" d="
M1019.29 758.505
L1019.29 34.0362" style="fill:none;stroke:#cccccc;stroke-linecap:round;"/>
     </g>
     <g id="line2d_38">
      <g>
       <use style="fill:#262626;stroke:#262626;" x="1019.29419922" xlink:href="#m219da94a98" y="758.505"/>
      </g>
     </g>
     <g id="line2d_39">
      <g>
       <use style="fill:#262626;stroke:#262626;" x="1019.29419922" xlink:href="#m219da94a98" y="34.03625"/>
      </g>
     </g>
     <g id="text_13">
      <!-- gill -->
      <defs>
       <path d="
M45.4062 27.9844
Q45.4062 37.75 41.375 43.1094
Q37.3594 48.4844 30.0781 48.4844
Q22.8594 48.4844 18.8281 43.1094
Q14.7969 37.75 14.7969 27.9844
Q14.7969 18.2656 18.8281 12.8906
Q22.8594 7.51562 30.0781 7.51562
Q37.3594 7.51562 41.375 12.8906
Q45.4062 18.2656 45.4062 27.9844
M54.3906 6.78125
Q54.3906 -7.17188 48.1875 -13.9844
Q42 -20.7969 29.2031 -20.7969
Q24.4688 -20.7969 20.2656 -20.0938
Q16.0625 -19.3906 12.1094 -17.9219
L12.1094 -9.1875
Q16.0625 -11.3281 19.9219 -12.3438
Q23.7812 -13.375 27.7812 -13.375
Q36.625 -13.375 41.0156 -8.76562
Q45.4062 -4.15625 45.4062 5.17188
L45.4062 9.625
Q42.625 4.78125 38.2812 2.39062
Q33.9375 0 27.875 0
Q17.8281 0 11.6719 7.65625
Q5.51562 15.3281 5.51562 27.9844
Q5.51562 40.6719 11.6719 48.3281
Q17.8281 56 27.875 56
Q33.9375 56 38.2812 53.6094
Q42.625 51.2188 45.4062 46.3906
L45.4062 54.6875
L54.3906 54.6875
z
" id="BitstreamVeraSans-Roman-67"/>
      </defs>
      <g style="fill:#262626;" transform="translate(1023.70919922 786.615)rotate(-90.0)scale(0.16 -0.16)">
       <use xlink:href="#BitstreamVeraSans-Roman-67"/>
       <use x="63.4765625" xlink:href="#BitstreamVeraSans-Roman-69"/>
       <use x="91.259765625" xlink:href="#BitstreamVeraSans-Roman-6c"/>
       <use x="119.04296875" xlink:href="#BitstreamVeraSans-Roman-6c"/>
      </g>
     </g>
    </g>
    <g id="xtick_14">
     <g id="line2d_40">
      <path clip-path="url(#p30e29e467c)" d="
M1095.27 758.505
L1095.27 34.0362" style="fill:none;stroke:#cccccc;stroke-linecap:round;"/>
     </g>
     <g id="line2d_41">
      <g>
       <use style="fill:#262626;stroke:#262626;" x="1095.26728516" xlink:href="#m219da94a98" y="758.505"/>
      </g>
     </g>
     <g id="line2d_42">
      <g>
       <use style="fill:#262626;stroke:#262626;" x="1095.26728516" xlink:href="#m219da94a98" y="34.03625"/>
      </g>
     </g>
     <g id="text_14">
      <!-- eye -->
      <g style="fill:#262626;" transform="translate(1099.68228516 792.93)rotate(-90.0)scale(0.16 -0.16)">
       <use xlink:href="#BitstreamVeraSans-Roman-65"/>
       <use x="61.5234375" xlink:href="#BitstreamVeraSans-Roman-79"/>
       <use x="120.703125" xlink:href="#BitstreamVeraSans-Roman-65"/>
      </g>
     </g>
    </g>
    <g id="xtick_15">
     <g id="line2d_43">
      <path clip-path="url(#p30e29e467c)" d="
M1171.24 758.505
L1171.24 34.0362" style="fill:none;stroke:#cccccc;stroke-linecap:round;"/>
     </g>
     <g id="line2d_44">
      <g>
       <use style="fill:#262626;stroke:#262626;" x="1171.24037109" xlink:href="#m219da94a98" y="758.505"/>
      </g>
     </g>
     <g id="line2d_45">
      <g>
       <use style="fill:#262626;stroke:#262626;" x="1171.24037109" xlink:href="#m219da94a98" y="34.03625"/>
      </g>
     </g>
     <g id="text_15">
      <!-- embryo -->
      <defs>
       <path d="
M48.6875 27.2969
Q48.6875 37.2031 44.6094 42.8438
Q40.5312 48.4844 33.4062 48.4844
Q26.2656 48.4844 22.1875 42.8438
Q18.1094 37.2031 18.1094 27.2969
Q18.1094 17.3906 22.1875 11.75
Q26.2656 6.10938 33.4062 6.10938
Q40.5312 6.10938 44.6094 11.75
Q48.6875 17.3906 48.6875 27.2969
M18.1094 46.3906
Q20.9531 51.2656 25.2656 53.625
Q29.5938 56 35.5938 56
Q45.5625 56 51.7812 48.0938
Q58.0156 40.1875 58.0156 27.2969
Q58.0156 14.4062 51.7812 6.48438
Q45.5625 -1.42188 35.5938 -1.42188
Q29.5938 -1.42188 25.2656 0.953125
Q20.9531 3.32812 18.1094 8.20312
L18.1094 0
L9.07812 0
L9.07812 75.9844
L18.1094 75.9844
z
" id="BitstreamVeraSans-Roman-62"/>
      </defs>
      <g style="fill:#262626;" transform="translate(1175.65537109 825.1725)rotate(-90.0)scale(0.16 -0.16)">
       <use xlink:href="#BitstreamVeraSans-Roman-65"/>
       <use x="61.5234375" xlink:href="#BitstreamVeraSans-Roman-6d"/>
       <use x="158.935546875" xlink:href="#BitstreamVeraSans-Roman-62"/>
       <use x="222.412109375" xlink:href="#BitstreamVeraSans-Roman-72"/>
       <use x="263.525390625" xlink:href="#BitstreamVeraSans-Roman-79"/>
       <use x="322.705078125" xlink:href="#BitstreamVeraSans-Roman-6f"/>
      </g>
     </g>
    </g>
    <g id="xtick_16">
     <g id="line2d_46">
      <path clip-path="url(#p30e29e467c)" d="
M1247.21 758.505
L1247.21 34.0362" style="fill:none;stroke:#cccccc;stroke-linecap:round;"/>
     </g>
     <g id="line2d_47">
      <g>
       <use style="fill:#262626;stroke:#262626;" x="1247.21345703" xlink:href="#m219da94a98" y="758.505"/>
      </g>
     </g>
     <g id="line2d_48">
      <g>
       <use style="fill:#262626;stroke:#262626;" x="1247.21345703" xlink:href="#m219da94a98" y="34.03625"/>
      </g>
     </g>
     <g id="text_16">
      <!-- brain -->
      <g style="fill:#262626;" transform="translate(1251.62845703 803.82)rotate(-90.0)scale(0.16 -0.16)">
       <use xlink:href="#BitstreamVeraSans-Roman-62"/>
       <use x="63.4765625" xlink:href="#BitstreamVeraSans-Roman-72"/>
       <use x="104.58984375" xlink:href="#BitstreamVeraSans-Roman-61"/>
       <use x="165.869140625" xlink:href="#BitstreamVeraSans-Roman-69"/>
       <use x="193.65234375" xlink:href="#BitstreamVeraSans-Roman-6e"/>
      </g>
     </g>
    </g>
   </g>
   <g id="matplotlib.axis_2">
    <g id="ytick_1">
     <g id="line2d_49">
      <path clip-path="url(#p30e29e467c)" d="
M69.6306 758.505
L1285.2 758.505" style="fill:none;stroke:#cccccc;stroke-linecap:round;"/>
     </g>
     <g id="line2d_50">
      <g>
       <use style="fill:#262626;stroke:#262626;" x="69.630625" xlink:href="#m219da94a98" y="758.505"/>
      </g>
     </g>
     <g id="line2d_51">
      <g>
       <use style="fill:#262626;stroke:#262626;" x="1285.2" xlink:href="#m219da94a98" y="758.505"/>
      </g>
     </g>
     <g id="text_17">
      <!-- 0 -->
      <defs>
       <path d="
M31.7812 66.4062
Q24.1719 66.4062 20.3281 58.9062
Q16.5 51.4219 16.5 36.375
Q16.5 21.3906 20.3281 13.8906
Q24.1719 6.39062 31.7812 6.39062
Q39.4531 6.39062 43.2812 13.8906
Q47.125 21.3906 47.125 36.375
Q47.125 51.4219 43.2812 58.9062
Q39.4531 66.4062 31.7812 66.4062
M31.7812 74.2188
Q44.0469 74.2188 50.5156 64.5156
Q56.9844 54.8281 56.9844 36.375
Q56.9844 17.9688 50.5156 8.26562
Q44.0469 -1.42188 31.7812 -1.42188
Q19.5312 -1.42188 13.0625 8.26562
Q6.59375 17.9688 6.59375 36.375
Q6.59375 54.8281 13.0625 64.5156
Q19.5312 74.2188 31.7812 74.2188" id="BitstreamVeraSans-Roman-30"/>
      </defs>
      <g style="fill:#262626;" transform="translate(55.5759375 762.368125)scale(0.14 -0.14)">
       <use xlink:href="#BitstreamVeraSans-Roman-30"/>
      </g>
     </g>
    </g>
    <g id="ytick_2">
     <g id="line2d_52">
      <path clip-path="url(#p30e29e467c)" d="
M69.6306 678.008
L1285.2 678.008" style="fill:none;stroke:#cccccc;stroke-linecap:round;"/>
     </g>
     <g id="line2d_53">
      <g>
       <use style="fill:#262626;stroke:#262626;" x="69.630625" xlink:href="#m219da94a98" y="678.008472222"/>
      </g>
     </g>
     <g id="line2d_54">
      <g>
       <use style="fill:#262626;stroke:#262626;" x="1285.2" xlink:href="#m219da94a98" y="678.008472222"/>
      </g>
     </g>
     <g id="text_18">
      <!-- 50000 -->
      <defs>
       <path d="
M10.7969 72.9062
L49.5156 72.9062
L49.5156 64.5938
L19.8281 64.5938
L19.8281 46.7344
Q21.9688 47.4688 24.1094 47.8281
Q26.2656 48.1875 28.4219 48.1875
Q40.625 48.1875 47.75 41.5
Q54.8906 34.8125 54.8906 23.3906
Q54.8906 11.625 47.5625 5.09375
Q40.2344 -1.42188 26.9062 -1.42188
Q22.3125 -1.42188 17.5469 -0.640625
Q12.7969 0.140625 7.71875 1.70312
L7.71875 11.625
Q12.1094 9.23438 16.7969 8.0625
Q21.4844 6.89062 26.7031 6.89062
Q35.1562 6.89062 40.0781 11.3281
Q45.0156 15.7656 45.0156 23.3906
Q45.0156 31 40.0781 35.4375
Q35.1562 39.8906 26.7031 39.8906
Q22.75 39.8906 18.8125 39.0156
Q14.8906 38.1406 10.7969 36.2812
z
" id="BitstreamVeraSans-Roman-35"/>
      </defs>
      <g style="fill:#262626;" transform="translate(20.1034375 681.871597222)scale(0.14 -0.14)">
       <use xlink:href="#BitstreamVeraSans-Roman-35"/>
       <use x="63.623046875" xlink:href="#BitstreamVeraSans-Roman-30"/>
       <use x="127.24609375" xlink:href="#BitstreamVeraSans-Roman-30"/>
       <use x="190.869140625" xlink:href="#BitstreamVeraSans-Roman-30"/>
       <use x="254.4921875" xlink:href="#BitstreamVeraSans-Roman-30"/>
      </g>
     </g>
    </g>
    <g id="ytick_3">
     <g id="line2d_55">
      <path clip-path="url(#p30e29e467c)" d="
M69.6306 597.512
L1285.2 597.512" style="fill:none;stroke:#cccccc;stroke-linecap:round;"/>
     </g>
     <g id="line2d_56">
      <g>
       <use style="fill:#262626;stroke:#262626;" x="69.630625" xlink:href="#m219da94a98" y="597.511944444"/>
      </g>
     </g>
     <g id="line2d_57">
      <g>
       <use style="fill:#262626;stroke:#262626;" x="1285.2" xlink:href="#m219da94a98" y="597.511944444"/>
      </g>
     </g>
     <g id="text_19">
      <!-- 100000 -->
      <defs>
       <path d="
M12.4062 8.29688
L28.5156 8.29688
L28.5156 63.9219
L10.9844 60.4062
L10.9844 69.3906
L28.4219 72.9062
L38.2812 72.9062
L38.2812 8.29688
L54.3906 8.29688
L54.3906 0
L12.4062 0
z
" id="BitstreamVeraSans-Roman-31"/>
      </defs>
      <g style="fill:#262626;" transform="translate(11.653125 601.375069444)scale(0.14 -0.14)">
       <use xlink:href="#BitstreamVeraSans-Roman-31"/>
       <use x="63.623046875" xlink:href="#BitstreamVeraSans-Roman-30"/>
       <use x="127.24609375" xlink:href="#BitstreamVeraSans-Roman-30"/>
       <use x="190.869140625" xlink:href="#BitstreamVeraSans-Roman-30"/>
       <use x="254.4921875" xlink:href="#BitstreamVeraSans-Roman-30"/>
       <use x="318.115234375" xlink:href="#BitstreamVeraSans-Roman-30"/>
      </g>
     </g>
    </g>
    <g id="ytick_4">
     <g id="line2d_58">
      <path clip-path="url(#p30e29e467c)" d="
M69.6306 517.015
L1285.2 517.015" style="fill:none;stroke:#cccccc;stroke-linecap:round;"/>
     </g>
     <g id="line2d_59">
      <g>
       <use style="fill:#262626;stroke:#262626;" x="69.630625" xlink:href="#m219da94a98" y="517.015416667"/>
      </g>
     </g>
     <g id="line2d_60">
      <g>
       <use style="fill:#262626;stroke:#262626;" x="1285.2" xlink:href="#m219da94a98" y="517.015416667"/>
      </g>
     </g>
     <g id="text_20">
      <!-- 150000 -->
      <g style="fill:#262626;" transform="translate(11.653125 520.878541667)scale(0.14 -0.14)">
       <use xlink:href="#BitstreamVeraSans-Roman-31"/>
       <use x="63.623046875" xlink:href="#BitstreamVeraSans-Roman-35"/>
       <use x="127.24609375" xlink:href="#BitstreamVeraSans-Roman-30"/>
       <use x="190.869140625" xlink:href="#BitstreamVeraSans-Roman-30"/>
       <use x="254.4921875" xlink:href="#BitstreamVeraSans-Roman-30"/>
       <use x="318.115234375" xlink:href="#BitstreamVeraSans-Roman-30"/>
      </g>
     </g>
    </g>
    <g id="ytick_5">
     <g id="line2d_61">
      <path clip-path="url(#p30e29e467c)" d="
M69.6306 436.519
L1285.2 436.519" style="fill:none;stroke:#cccccc;stroke-linecap:round;"/>
     </g>
     <g id="line2d_62">
      <g>
       <use style="fill:#262626;stroke:#262626;" x="69.630625" xlink:href="#m219da94a98" y="436.518888889"/>
      </g>
     </g>
     <g id="line2d_63">
      <g>
       <use style="fill:#262626;stroke:#262626;" x="1285.2" xlink:href="#m219da94a98" y="436.518888889"/>
      </g>
     </g>
     <g id="text_21">
      <!-- 200000 -->
      <defs>
       <path d="
M19.1875 8.29688
L53.6094 8.29688
L53.6094 0
L7.32812 0
L7.32812 8.29688
Q12.9375 14.1094 22.625 23.8906
Q32.3281 33.6875 34.8125 36.5312
Q39.5469 41.8438 41.4219 45.5312
Q43.3125 49.2188 43.3125 52.7812
Q43.3125 58.5938 39.2344 62.25
Q35.1562 65.9219 28.6094 65.9219
Q23.9688 65.9219 18.8125 64.3125
Q13.6719 62.7031 7.8125 59.4219
L7.8125 69.3906
Q13.7656 71.7812 18.9375 73
Q24.125 74.2188 28.4219 74.2188
Q39.75 74.2188 46.4844 68.5469
Q53.2188 62.8906 53.2188 53.4219
Q53.2188 48.9219 51.5312 44.8906
Q49.8594 40.875 45.4062 35.4062
Q44.1875 33.9844 37.6406 27.2188
Q31.1094 20.4531 19.1875 8.29688" id="BitstreamVeraSans-Roman-32"/>
      </defs>
      <g style="fill:#262626;" transform="translate(11.14125 440.382013889)scale(0.14 -0.14)">
       <use xlink:href="#BitstreamVeraSans-Roman-32"/>
       <use x="63.623046875" xlink:href="#BitstreamVeraSans-Roman-30"/>
       <use x="127.24609375" xlink:href="#BitstreamVeraSans-Roman-30"/>
       <use x="190.869140625" xlink:href="#BitstreamVeraSans-Roman-30"/>
       <use x="254.4921875" xlink:href="#BitstreamVeraSans-Roman-30"/>
       <use x="318.115234375" xlink:href="#BitstreamVeraSans-Roman-30"/>
      </g>
     </g>
    </g>
    <g id="ytick_6">
     <g id="line2d_64">
      <path clip-path="url(#p30e29e467c)" d="
M69.6306 356.022
L1285.2 356.022" style="fill:none;stroke:#cccccc;stroke-linecap:round;"/>
     </g>
     <g id="line2d_65">
      <g>
       <use style="fill:#262626;stroke:#262626;" x="69.630625" xlink:href="#m219da94a98" y="356.022361111"/>
      </g>
     </g>
     <g id="line2d_66">
      <g>
       <use style="fill:#262626;stroke:#262626;" x="1285.2" xlink:href="#m219da94a98" y="356.022361111"/>
      </g>
     </g>
     <g id="text_22">
      <!-- 250000 -->
      <g style="fill:#262626;" transform="translate(11.14125 359.885486111)scale(0.14 -0.14)">
       <use xlink:href="#BitstreamVeraSans-Roman-32"/>
       <use x="63.623046875" xlink:href="#BitstreamVeraSans-Roman-35"/>
       <use x="127.24609375" xlink:href="#BitstreamVeraSans-Roman-30"/>
       <use x="190.869140625" xlink:href="#BitstreamVeraSans-Roman-30"/>
       <use x="254.4921875" xlink:href="#BitstreamVeraSans-Roman-30"/>
       <use x="318.115234375" xlink:href="#BitstreamVeraSans-Roman-30"/>
      </g>
     </g>
    </g>
    <g id="ytick_7">
     <g id="line2d_67">
      <path clip-path="url(#p30e29e467c)" d="
M69.6306 275.526
L1285.2 275.526" style="fill:none;stroke:#cccccc;stroke-linecap:round;"/>
     </g>
     <g id="line2d_68">
      <g>
       <use style="fill:#262626;stroke:#262626;" x="69.630625" xlink:href="#m219da94a98" y="275.525833333"/>
      </g>
     </g>
     <g id="line2d_69">
      <g>
       <use style="fill:#262626;stroke:#262626;" x="1285.2" xlink:href="#m219da94a98" y="275.525833333"/>
      </g>
     </g>
     <g id="text_23">
      <!-- 300000 -->
      <defs>
       <path d="
M40.5781 39.3125
Q47.6562 37.7969 51.625 33
Q55.6094 28.2188 55.6094 21.1875
Q55.6094 10.4062 48.1875 4.48438
Q40.7656 -1.42188 27.0938 -1.42188
Q22.5156 -1.42188 17.6562 -0.515625
Q12.7969 0.390625 7.625 2.20312
L7.625 11.7188
Q11.7188 9.32812 16.5938 8.10938
Q21.4844 6.89062 26.8125 6.89062
Q36.0781 6.89062 40.9375 10.5469
Q45.7969 14.2031 45.7969 21.1875
Q45.7969 27.6406 41.2812 31.2656
Q36.7656 34.9062 28.7188 34.9062
L20.2188 34.9062
L20.2188 43.0156
L29.1094 43.0156
Q36.375 43.0156 40.2344 45.9219
Q44.0938 48.8281 44.0938 54.2969
Q44.0938 59.9062 40.1094 62.9062
Q36.1406 65.9219 28.7188 65.9219
Q24.6562 65.9219 20.0156 65.0312
Q15.375 64.1562 9.8125 62.3125
L9.8125 71.0938
Q15.4375 72.6562 20.3438 73.4375
Q25.25 74.2188 29.5938 74.2188
Q40.8281 74.2188 47.3594 69.1094
Q53.9062 64.0156 53.9062 55.3281
Q53.9062 49.2656 50.4375 45.0938
Q46.9688 40.9219 40.5781 39.3125" id="BitstreamVeraSans-Roman-33"/>
      </defs>
      <g style="fill:#262626;" transform="translate(11.1828125 279.388958333)scale(0.14 -0.14)">
       <use xlink:href="#BitstreamVeraSans-Roman-33"/>
       <use x="63.623046875" xlink:href="#BitstreamVeraSans-Roman-30"/>
       <use x="127.24609375" xlink:href="#BitstreamVeraSans-Roman-30"/>
       <use x="190.869140625" xlink:href="#BitstreamVeraSans-Roman-30"/>
       <use x="254.4921875" xlink:href="#BitstreamVeraSans-Roman-30"/>
       <use x="318.115234375" xlink:href="#BitstreamVeraSans-Roman-30"/>
      </g>
     </g>
    </g>
    <g id="ytick_8">
     <g id="line2d_70">
      <path clip-path="url(#p30e29e467c)" d="
M69.6306 195.029
L1285.2 195.029" style="fill:none;stroke:#cccccc;stroke-linecap:round;"/>
     </g>
     <g id="line2d_71">
      <g>
       <use style="fill:#262626;stroke:#262626;" x="69.630625" xlink:href="#m219da94a98" y="195.029305556"/>
      </g>
     </g>
     <g id="line2d_72">
      <g>
       <use style="fill:#262626;stroke:#262626;" x="1285.2" xlink:href="#m219da94a98" y="195.029305556"/>
      </g>
     </g>
     <g id="text_24">
      <!-- 350000 -->
      <g style="fill:#262626;" transform="translate(11.1828125 198.892430556)scale(0.14 -0.14)">
       <use xlink:href="#BitstreamVeraSans-Roman-33"/>
       <use x="63.623046875" xlink:href="#BitstreamVeraSans-Roman-35"/>
       <use x="127.24609375" xlink:href="#BitstreamVeraSans-Roman-30"/>
       <use x="190.869140625" xlink:href="#BitstreamVeraSans-Roman-30"/>
       <use x="254.4921875" xlink:href="#BitstreamVeraSans-Roman-30"/>
       <use x="318.115234375" xlink:href="#BitstreamVeraSans-Roman-30"/>
      </g>
     </g>
    </g>
    <g id="ytick_9">
     <g id="line2d_73">
      <path clip-path="url(#p30e29e467c)" d="
M69.6306 114.533
L1285.2 114.533" style="fill:none;stroke:#cccccc;stroke-linecap:round;"/>
     </g>
     <g id="line2d_74">
      <g>
       <use style="fill:#262626;stroke:#262626;" x="69.630625" xlink:href="#m219da94a98" y="114.532777778"/>
      </g>
     </g>
     <g id="line2d_75">
      <g>
       <use style="fill:#262626;stroke:#262626;" x="1285.2" xlink:href="#m219da94a98" y="114.532777778"/>
      </g>
     </g>
     <g id="text_25">
      <!-- 400000 -->
      <defs>
       <path d="
M37.7969 64.3125
L12.8906 25.3906
L37.7969 25.3906
z

M35.2031 72.9062
L47.6094 72.9062
L47.6094 25.3906
L58.0156 25.3906
L58.0156 17.1875
L47.6094 17.1875
L47.6094 0
L37.7969 0
L37.7969 17.1875
L4.89062 17.1875
L4.89062 26.7031
z
" id="BitstreamVeraSans-Roman-34"/>
      </defs>
      <g style="fill:#262626;" transform="translate(10.8 118.395902778)scale(0.14 -0.14)">
       <use xlink:href="#BitstreamVeraSans-Roman-34"/>
       <use x="63.623046875" xlink:href="#BitstreamVeraSans-Roman-30"/>
       <use x="127.24609375" xlink:href="#BitstreamVeraSans-Roman-30"/>
       <use x="190.869140625" xlink:href="#BitstreamVeraSans-Roman-30"/>
       <use x="254.4921875" xlink:href="#BitstreamVeraSans-Roman-30"/>
       <use x="318.115234375" xlink:href="#BitstreamVeraSans-Roman-30"/>
      </g>
     </g>
    </g>
    <g id="ytick_10">
     <g id="line2d_76">
      <path clip-path="url(#p30e29e467c)" d="
M69.6306 34.0362
L1285.2 34.0362" style="fill:none;stroke:#cccccc;stroke-linecap:round;"/>
     </g>
     <g id="line2d_77">
      <g>
       <use style="fill:#262626;stroke:#262626;" x="69.630625" xlink:href="#m219da94a98" y="34.03625"/>
      </g>
     </g>
     <g id="line2d_78">
      <g>
       <use style="fill:#262626;stroke:#262626;" x="1285.2" xlink:href="#m219da94a98" y="34.03625"/>
      </g>
     </g>
     <g id="text_26">
      <!-- 450000 -->
      <g style="fill:#262626;" transform="translate(10.8 37.899375)scale(0.14 -0.14)">
       <use xlink:href="#BitstreamVeraSans-Roman-34"/>
       <use x="63.623046875" xlink:href="#BitstreamVeraSans-Roman-35"/>
       <use x="127.24609375" xlink:href="#BitstreamVeraSans-Roman-30"/>
       <use x="190.869140625" xlink:href="#BitstreamVeraSans-Roman-30"/>
       <use x="254.4921875" xlink:href="#BitstreamVeraSans-Roman-30"/>
       <use x="318.115234375" xlink:href="#BitstreamVeraSans-Roman-30"/>
      </g>
     </g>
    </g>
   </g>
   <g id="patch_3">
    <path clip-path="url(#p30e29e467c)" d="
M88.6239 758.505
L107.617 758.505
L107.617 752.638
L88.6239 752.638
z
" style="fill:#b2cad7;stroke:#000000;stroke-width:0.3;"/>
   </g>
   <g id="patch_4">
    <path clip-path="url(#p30e29e467c)" d="
M164.597 758.505
L183.59 758.505
L183.59 751.009
L164.597 751.009
z
" style="fill:#b2cad7;stroke:#000000;stroke-width:0.3;"/>
   </g>
   <g id="patch_5">
    <path clip-path="url(#p30e29e467c)" d="
M240.57 758.505
L259.563 758.505
L259.563 748.082
L240.57 748.082
z
" style="fill:#b2cad7;stroke:#000000;stroke-width:0.3;"/>
   </g>
   <g id="patch_6">
    <path clip-path="url(#p30e29e467c)" d="
M316.543 758.505
L335.536 758.505
L335.536 750.333
L316.543 750.333
z
" style="fill:#b2cad7;stroke:#000000;stroke-width:0.3;"/>
   </g>
   <g id="patch_7">
    <path clip-path="url(#p30e29e467c)" d="
M392.516 758.505
L411.51 758.505
L411.51 753.361
L392.516 753.361
z
" style="fill:#b2cad7;stroke:#000000;stroke-width:0.3;"/>
   </g>
   <g id="patch_8">
    <path clip-path="url(#p30e29e467c)" d="
M468.489 758.505
L487.483 758.505
L487.483 751.558
L468.489 751.558
z
" style="fill:#b2cad7;stroke:#000000;stroke-width:0.3;"/>
   </g>
   <g id="patch_9">
    <path clip-path="url(#p30e29e467c)" d="
M544.462 758.505
L563.456 758.505
L563.456 753.686
L544.462 753.686
z
" style="fill:#b2cad7;stroke:#000000;stroke-width:0.3;"/>
   </g>
   <g id="patch_10">
    <path clip-path="url(#p30e29e467c)" d="
M620.435 758.505
L639.429 758.505
L639.429 746.41
L620.435 746.41
z
" style="fill:#b2cad7;stroke:#000000;stroke-width:0.3;"/>
   </g>
   <g id="patch_11">
    <path clip-path="url(#p30e29e467c)" d="
M696.409 758.505
L715.402 758.505
L715.402 752.753
L696.409 752.753
z
" style="fill:#b2cad7;stroke:#000000;stroke-width:0.3;"/>
   </g>
   <g id="patch_12">
    <path clip-path="url(#p30e29e467c)" d="
M772.382 758.505
L791.375 758.505
L791.375 746.356
L772.382 746.356
z
" style="fill:#b2cad7;stroke:#000000;stroke-width:0.3;"/>
   </g>
   <g id="patch_13">
    <path clip-path="url(#p30e29e467c)" d="
M848.355 758.505
L867.348 758.505
L867.348 747.165
L848.355 747.165
z
" style="fill:#b2cad7;stroke:#000000;stroke-width:0.3;"/>
   </g>
   <g id="patch_14">
    <path clip-path="url(#p30e29e467c)" d="
M924.328 758.505
L943.321 758.505
L943.321 750.457
L924.328 750.457
z
" style="fill:#b2cad7;stroke:#000000;stroke-width:0.3;"/>
   </g>
   <g id="patch_15">
    <path clip-path="url(#p30e29e467c)" d="
M1000.3 758.505
L1019.29 758.505
L1019.29 746.413
L1000.3 746.413
z
" style="fill:#b2cad7;stroke:#000000;stroke-width:0.3;"/>
   </g>
   <g id="patch_16">
    <path clip-path="url(#p30e29e467c)" d="
M1076.27 758.505
L1095.27 758.505
L1095.27 750.059
L1076.27 750.059
z
" style="fill:#b2cad7;stroke:#000000;stroke-width:0.3;"/>
   </g>
   <g id="patch_17">
    <path clip-path="url(#p30e29e467c)" d="
M1152.25 758.505
L1171.24 758.505
L1171.24 747.165
L1152.25 747.165
z
" style="fill:#b2cad7;stroke:#000000;stroke-width:0.3;"/>
   </g>
   <g id="patch_18">
    <path clip-path="url(#p30e29e467c)" d="
M1228.22 758.505
L1247.21 758.505
L1247.21 744.515
L1228.22 744.515
z
" style="fill:#b2cad7;stroke:#000000;stroke-width:0.3;"/>
   </g>
   <g id="patch_19">
    <path clip-path="url(#p30e29e467c)" d="
M107.617 758.505
L126.61 758.505
L126.61 614.49
L107.617 614.49
z
" style="fill:#3e7397;stroke:#000000;stroke-width:0.3;"/>
   </g>
   <g id="patch_20">
    <path clip-path="url(#p30e29e467c)" d="
M183.59 758.505
L202.584 758.505
L202.584 422.921
L183.59 422.921
z
" style="fill:#3e7397;stroke:#000000;stroke-width:0.3;"/>
   </g>
   <g id="patch_21">
    <path clip-path="url(#p30e29e467c)" d="
M259.563 758.505
L278.557 758.505
L278.557 241.804
L259.563 241.804
z
" style="fill:#3e7397;stroke:#000000;stroke-width:0.3;"/>
   </g>
   <g id="patch_22">
    <path clip-path="url(#p30e29e467c)" d="
M335.536 758.505
L354.53 758.505
L354.53 410.641
L335.536 410.641
z
" style="fill:#3e7397;stroke:#000000;stroke-width:0.3;"/>
   </g>
   <g id="patch_23">
    <path clip-path="url(#p30e29e467c)" d="
M411.51 758.505
L430.503 758.505
L430.503 515.85
L411.51 515.85
z
" style="fill:#3e7397;stroke:#000000;stroke-width:0.3;"/>
   </g>
   <g id="patch_24">
    <path clip-path="url(#p30e29e467c)" d="
M487.483 758.505
L506.476 758.505
L506.476 486.232
L487.483 486.232
z
" style="fill:#3e7397;stroke:#000000;stroke-width:0.3;"/>
   </g>
   <g id="patch_25">
    <path clip-path="url(#p30e29e467c)" d="
M563.456 758.505
L582.449 758.505
L582.449 539.344
L563.456 539.344
z
" style="fill:#3e7397;stroke:#000000;stroke-width:0.3;"/>
   </g>
   <g id="patch_26">
    <path clip-path="url(#p30e29e467c)" d="
M639.429 758.505
L658.422 758.505
L658.422 93.3896
L639.429 93.3896
z
" style="fill:#3e7397;stroke:#000000;stroke-width:0.3;"/>
   </g>
   <g id="patch_27">
    <path clip-path="url(#p30e29e467c)" d="
M715.402 758.505
L734.395 758.505
L734.395 540.062
L715.402 540.062
z
" style="fill:#3e7397;stroke:#000000;stroke-width:0.3;"/>
   </g>
   <g id="patch_28">
    <path clip-path="url(#p30e29e467c)" d="
M791.375 758.505
L810.368 758.505
L810.368 91.5639
L791.375 91.5639
z
" style="fill:#3e7397;stroke:#000000;stroke-width:0.3;"/>
   </g>
   <g id="patch_29">
    <path clip-path="url(#p30e29e467c)" d="
M867.348 758.505
L886.341 758.505
L886.341 146.318
L867.348 146.318
z
" style="fill:#3e7397;stroke:#000000;stroke-width:0.3;"/>
   </g>
   <g id="patch_30">
    <path clip-path="url(#p30e29e467c)" d="
M943.321 758.505
L962.314 758.505
L962.314 372.698
L943.321 372.698
z
" style="fill:#3e7397;stroke:#000000;stroke-width:0.3;"/>
   </g>
   <g id="patch_31">
    <path clip-path="url(#p30e29e467c)" d="
M1019.29 758.505
L1038.29 758.505
L1038.29 95.4857
L1019.29 95.4857
z
" style="fill:#3e7397;stroke:#000000;stroke-width:0.3;"/>
   </g>
   <g id="patch_32">
    <path clip-path="url(#p30e29e467c)" d="
M1095.27 758.505
L1114.26 758.505
L1114.26 379.284
L1095.27 379.284
z
" style="fill:#3e7397;stroke:#000000;stroke-width:0.3;"/>
   </g>
   <g id="patch_33">
    <path clip-path="url(#p30e29e467c)" d="
M1171.24 758.505
L1190.23 758.505
L1190.23 172.54
L1171.24 172.54
z
" style="fill:#3e7397;stroke:#000000;stroke-width:0.3;"/>
   </g>
   <g id="patch_34">
    <path clip-path="url(#p30e29e467c)" d="
M1247.21 758.505
L1266.21 758.505
L1266.21 75.7463
L1247.21 75.7463
z
" style="fill:#3e7397;stroke:#000000;stroke-width:0.3;"/>
   </g>
   <g id="line2d_79">
    <path clip-path="url(#p30e29e467c)" d="
M69.6306 758.505
L1285.2 758.505" style="fill:none;stroke:#000000;stroke-dasharray:6.000000,6.000000;stroke-dashoffset:0.0;stroke-width:1.75;"/>
   </g>
   <g id="patch_35">
    <path d="
M69.6306 34.0362
L1285.2 34.0362" style="fill:none;stroke:#cccccc;"/>
   </g>
   <g id="patch_36">
    <path d="
M1285.2 758.505
L1285.2 34.0362" style="fill:none;stroke:#cccccc;"/>
   </g>
   <g id="patch_37">
    <path d="
M69.6306 758.505
L1285.2 758.505" style="fill:none;stroke:#cccccc;"/>
   </g>
   <g id="patch_38">
    <path d="
M69.6306 758.505
L69.6306 34.0362" style="fill:none;stroke:#cccccc;"/>
   </g>
   <g id="text_27">
    <!-- petMar2 Orthologies per Sample [Count] -->
    <defs>
     <path id="BitstreamVeraSans-Roman-20"/>
     <path d="
M8.59375 75.9844
L29.2969 75.9844
L29.2969 69
L17.5781 69
L17.5781 -6.20312
L29.2969 -6.20312
L29.2969 -13.1875
L8.59375 -13.1875
z
" id="BitstreamVeraSans-Roman-5b"/>
     <path d="
M9.8125 72.9062
L24.5156 72.9062
L43.1094 23.2969
L61.8125 72.9062
L76.5156 72.9062
L76.5156 0
L66.8906 0
L66.8906 64.0156
L48.0938 14.0156
L38.1875 14.0156
L19.3906 64.0156
L19.3906 0
L9.8125 0
z
" id="BitstreamVeraSans-Roman-4d"/>
     <path d="
M30.4219 75.9844
L30.4219 -13.1875
L9.71875 -13.1875
L9.71875 -6.20312
L21.3906 -6.20312
L21.3906 69
L9.71875 69
L9.71875 75.9844
z
" id="BitstreamVeraSans-Roman-5d"/>
     <path d="
M39.4062 66.2188
Q28.6562 66.2188 22.3281 58.2031
Q16.0156 50.2031 16.0156 36.375
Q16.0156 22.6094 22.3281 14.5938
Q28.6562 6.59375 39.4062 6.59375
Q50.1406 6.59375 56.4219 14.5938
Q62.7031 22.6094 62.7031 36.375
Q62.7031 50.2031 56.4219 58.2031
Q50.1406 66.2188 39.4062 66.2188
M39.4062 74.2188
Q54.7344 74.2188 63.9062 63.9375
Q73.0938 53.6562 73.0938 36.375
Q73.0938 19.1406 63.9062 8.85938
Q54.7344 -1.42188 39.4062 -1.42188
Q24.0312 -1.42188 14.8125 8.82812
Q5.60938 19.0938 5.60938 36.375
Q5.60938 53.6562 14.8125 63.9375
Q24.0312 74.2188 39.4062 74.2188" id="BitstreamVeraSans-Roman-4f"/>
     <path d="
M53.5156 70.5156
L53.5156 60.8906
Q47.9062 63.5781 42.9219 64.8906
Q37.9375 66.2188 33.2969 66.2188
Q25.25 66.2188 20.875 63.0938
Q16.5 59.9688 16.5 54.2031
Q16.5 49.3594 19.4062 46.8906
Q22.3125 44.4375 30.4219 42.9219
L36.375 41.7031
Q47.4062 39.5938 52.6562 34.2969
Q57.9062 29 57.9062 20.125
Q57.9062 9.51562 50.7969 4.04688
Q43.7031 -1.42188 29.9844 -1.42188
Q24.8125 -1.42188 18.9688 -0.25
Q13.1406 0.921875 6.89062 3.21875
L6.89062 13.375
Q12.8906 10.0156 18.6562 8.29688
Q24.4219 6.59375 29.9844 6.59375
Q38.4219 6.59375 43.0156 9.90625
Q47.6094 13.2344 47.6094 19.3906
Q47.6094 24.75 44.3125 27.7812
Q41.0156 30.8125 33.5 32.3281
L27.4844 33.5
Q16.4531 35.6875 11.5156 40.375
Q6.59375 45.0625 6.59375 53.4219
Q6.59375 63.0938 13.4062 68.6562
Q20.2188 74.2188 32.1719 74.2188
Q37.3125 74.2188 42.625 73.2812
Q47.9531 72.3594 53.5156 70.5156" id="BitstreamVeraSans-Roman-53"/>
     <path d="
M64.4062 67.2812
L64.4062 56.8906
Q59.4219 61.5312 53.7812 63.8125
Q48.1406 66.1094 41.7969 66.1094
Q29.2969 66.1094 22.6562 58.4688
Q16.0156 50.8281 16.0156 36.375
Q16.0156 21.9688 22.6562 14.3281
Q29.2969 6.6875 41.7969 6.6875
Q48.1406 6.6875 53.7812 8.98438
Q59.4219 11.2812 64.4062 15.9219
L64.4062 5.60938
Q59.2344 2.09375 53.4375 0.328125
Q47.6562 -1.42188 41.2188 -1.42188
Q24.6562 -1.42188 15.125 8.70312
Q5.60938 18.8438 5.60938 36.375
Q5.60938 53.9531 15.125 64.0781
Q24.6562 74.2188 41.2188 74.2188
Q47.75 74.2188 53.5312 72.4844
Q59.3281 70.75 64.4062 67.2812" id="BitstreamVeraSans-Roman-43"/>
    </defs>
    <g style="fill:#262626;" transform="translate(433.9840625 29.03625)scale(0.24 -0.24)">
     <use xlink:href="#BitstreamVeraSans-Roman-70"/>
     <use x="63.4765625" xlink:href="#BitstreamVeraSans-Roman-65"/>
     <use x="125.0" xlink:href="#BitstreamVeraSans-Roman-74"/>
     <use x="164.208984375" xlink:href="#BitstreamVeraSans-Roman-4d"/>
     <use x="250.48828125" xlink:href="#BitstreamVeraSans-Roman-61"/>
     <use x="311.767578125" xlink:href="#BitstreamVeraSans-Roman-72"/>
     <use x="352.880859375" xlink:href="#BitstreamVeraSans-Roman-32"/>
     <use x="416.50390625" xlink:href="#BitstreamVeraSans-Roman-20"/>
     <use x="448.291015625" xlink:href="#BitstreamVeraSans-Roman-4f"/>
     <use x="527.001953125" xlink:href="#BitstreamVeraSans-Roman-72"/>
     <use x="568.115234375" xlink:href="#BitstreamVeraSans-Roman-74"/>
     <use x="607.32421875" xlink:href="#BitstreamVeraSans-Roman-68"/>
     <use x="670.703125" xlink:href="#BitstreamVeraSans-Roman-6f"/>
     <use x="731.884765625" xlink:href="#BitstreamVeraSans-Roman-6c"/>
     <use x="759.66796875" xlink:href="#BitstreamVeraSans-Roman-6f"/>
     <use x="820.849609375" xlink:href="#BitstreamVeraSans-Roman-67"/>
     <use x="884.326171875" xlink:href="#BitstreamVeraSans-Roman-69"/>
     <use x="912.109375" xlink:href="#BitstreamVeraSans-Roman-65"/>
     <use x="973.6328125" xlink:href="#BitstreamVeraSans-Roman-73"/>
     <use x="1025.73242188" xlink:href="#BitstreamVeraSans-Roman-20"/>
     <use x="1057.51953125" xlink:href="#BitstreamVeraSans-Roman-70"/>
     <use x="1120.99609375" xlink:href="#BitstreamVeraSans-Roman-65"/>
     <use x="1182.51953125" xlink:href="#BitstreamVeraSans-Roman-72"/>
     <use x="1223.6328125" xlink:href="#BitstreamVeraSans-Roman-20"/>
     <use x="1255.41992188" xlink:href="#BitstreamVeraSans-Roman-53"/>
     <use x="1318.89648438" xlink:href="#BitstreamVeraSans-Roman-61"/>
     <use x="1380.17578125" xlink:href="#BitstreamVeraSans-Roman-6d"/>
     <use x="1477.58789062" xlink:href="#BitstreamVeraSans-Roman-70"/>
     <use x="1541.06445312" xlink:href="#BitstreamVeraSans-Roman-6c"/>
     <use x="1568.84765625" xlink:href="#BitstreamVeraSans-Roman-65"/>
     <use x="1630.37109375" xlink:href="#BitstreamVeraSans-Roman-20"/>
     <use x="1662.15820312" xlink:href="#BitstreamVeraSans-Roman-5b"/>
     <use x="1701.171875" xlink:href="#BitstreamVeraSans-Roman-43"/>
     <use x="1770.99609375" xlink:href="#BitstreamVeraSans-Roman-6f"/>
     <use x="1832.17773438" xlink:href="#BitstreamVeraSans-Roman-75"/>
     <use x="1895.55664062" xlink:href="#BitstreamVeraSans-Roman-6e"/>
     <use x="1958.93554688" xlink:href="#BitstreamVeraSans-Roman-74"/>
     <use x="1998.14453125" xlink:href="#BitstreamVeraSans-Roman-5d"/>
    </g>
   </g>
   <g id="legend_1">
    <g id="patch_39">
     <path d="
M1195.38 50.6347
L1215.38 50.6347
L1215.38 43.6347
L1195.38 43.6347
z
" style="fill:#b2cad7;stroke:#000000;stroke-width:0.3;"/>
    </g>
    <g id="text_28">
     <!-- hits -->
     <g style="fill:#262626;" transform="translate(1223.384375 50.6346875)scale(0.1 -0.1)">
      <use xlink:href="#BitstreamVeraSans-Roman-68"/>
      <use x="63.37890625" xlink:href="#BitstreamVeraSans-Roman-69"/>
      <use x="91.162109375" xlink:href="#BitstreamVeraSans-Roman-74"/>
      <use x="130.37109375" xlink:href="#BitstreamVeraSans-Roman-73"/>
     </g>
    </g>
    <g id="patch_40">
     <path d="
M1195.38 65.3128
L1215.38 65.3128
L1215.38 58.3128
L1195.38 58.3128
z
" style="fill:#3e7397;stroke:#000000;stroke-width:0.3;"/>
    </g>
    <g id="text_29">
     <!-- transcripts -->
     <g style="fill:#262626;" transform="translate(1223.384375 65.3128125)scale(0.1 -0.1)">
      <use xlink:href="#BitstreamVeraSans-Roman-74"/>
      <use x="39.208984375" xlink:href="#BitstreamVeraSans-Roman-72"/>
      <use x="80.322265625" xlink:href="#BitstreamVeraSans-Roman-61"/>
      <use x="141.6015625" xlink:href="#BitstreamVeraSans-Roman-6e"/>
      <use x="204.98046875" xlink:href="#BitstreamVeraSans-Roman-73"/>
      <use x="257.080078125" xlink:href="#BitstreamVeraSans-Roman-63"/>
      <use x="312.060546875" xlink:href="#BitstreamVeraSans-Roman-72"/>
      <use x="353.173828125" xlink:href="#BitstreamVeraSans-Roman-69"/>
      <use x="380.95703125" xlink:href="#BitstreamVeraSans-Roman-70"/>
      <use x="444.43359375" xlink:href="#BitstreamVeraSans-Roman-74"/>
      <use x="483.642578125" xlink:href="#BitstreamVeraSans-Roman-73"/>
     </g>
    </g>
   </g>
  </g>
 </g>
 <defs>
  <clipPath id="p30e29e467c">
   <rect height="724.46875" width="1215.569375" x="69.630625" y="34.03625"/>
  </clipPath>
 </defs>
</svg>
