<?xml version="1.0" encoding="utf-8" standalone="no"?>
<!DOCTYPE svg PUBLIC "-//W3C//DTD SVG 1.1//EN"
  "http://www.w3.org/Graphics/SVG/1.1/DTD/svg11.dtd">
<!-- Created with matplotlib (http://matplotlib.org/) -->
<svg height="2592pt" version="1.1" viewBox="0 0 648 2592" width="648pt" xmlns="http://www.w3.org/2000/svg" xmlns:xlink="http://www.w3.org/1999/xlink">
 <defs>
  <style type="text/css">
*{stroke-linecap:butt;stroke-linejoin:round;}
  </style>
 </defs>
 <g id="figure_1">
  <g id="patch_1">
   <path d="
M0 2592
L648 2592
L648 0
L0 0
z
" style="fill:#ffffff;"/>
  </g>
  <g id="axes_1">
   <g id="patch_2">
    <path clip-path="url(#p665c797aac)" d="
M304.091 62.9839
C267.605 66.8864 232.365 78.5099 200.717 97.0798
C169.07 115.65 141.734 140.744 120.531 170.692
C99.3276 200.639 84.7391 234.759 77.737 270.778
C70.735 306.797 71.4785 343.898 79.9179 379.608
C81.7135 397.472 85.5176 415.077 91.258 432.089
C96.9985 449.101 104.639 465.412 114.034 480.712
C84.3894 443.58 65.5979 398.955 59.7506 351.802
C53.9032 304.65 61.2254 256.786 80.9023 213.538
C100.579 170.29 131.853 133.324 171.242 106.753
C210.632 80.1822 256.621 65.0304 304.091 62.9839" style="fill:#ff0000;opacity:0.4;"/>
   </g>
   <g id="patch_3">
    <path clip-path="url(#p665c797aac)" d="
M475.185 535.212
C488.2 523.785 499.933 510.976 510.178 497.012
C520.422 483.047 529.118 468.01 536.111 452.165
C559.938 412.296 572.534 366.712 572.559 320.266
C572.584 273.82 560.037 228.222 536.253 188.327
C512.469 148.433 478.324 115.711 437.454 93.6456
C396.584 71.58 350.494 60.9833 304.091 62.9839
C361.6 56.8325 419.543 70.148 468.597 100.788
C517.652 131.428 555.037 177.656 574.739 232.034
C594.441 286.412 595.342 345.858 577.298 400.809
C559.255 455.759 523.288 503.099 475.185 535.212" style="fill:#008000;opacity:0.4;"/>
   </g>
   <g id="patch_4">
    <path clip-path="url(#p665c797aac)" d="
M304.091 62.9839
C267.605 66.8864 232.365 78.5099 200.717 97.0798
C169.07 115.65 141.734 140.744 120.531 170.692
C99.3276 200.639 84.7391 234.759 77.737 270.778
C70.735 306.797 71.4785 343.898 79.9179 379.608
C76.2618 343.232 81.0049 306.499 93.7808 272.245
C106.557 237.991 127.028 207.124 153.612 182.028
C180.195 156.931 212.19 138.27 247.121 127.485
C282.053 116.701 318.999 114.078 355.103 119.821
C391.208 125.563 425.517 139.519 455.379 160.609
C485.242 181.699 509.867 209.365 527.353 241.471
C544.839 273.576 554.723 309.272 556.241 345.799
C557.76 382.326 550.872 418.719 536.111 452.165
C559.938 412.296 572.534 366.712 572.559 320.266
C572.584 273.82 560.037 228.222 536.253 188.327
C512.469 148.433 478.324 115.711 437.454 93.6456
C396.584 71.58 350.494 60.9833 304.091 62.9839" style="fill:#b25900;opacity:0.4;"/>
   </g>
   <g id="patch_5">
    <path clip-path="url(#p665c797aac)" d="
M114.034 480.712
C136.976 509.449 165.812 532.938 198.595 549.594
C231.379 566.249 267.353 575.688 304.091 577.271
C333.96 580.466 364.159 578.433 393.33 571.262
C422.501 564.091 450.201 551.891 475.185 535.212
C449.047 558.163 418.208 575.129 384.83 584.922
C351.453 594.714 316.336 597.099 281.941 591.909
C247.547 586.718 214.697 574.077 185.696 554.871
C156.695 535.665 132.236 510.354 114.034 480.712" style="fill:#0000ff;opacity:0.4;"/>
   </g>
   <g id="patch_6">
    <path clip-path="url(#p665c797aac)" d="
M114.034 480.712
C136.976 509.449 165.812 532.938 198.595 549.594
C231.379 566.249 267.353 575.688 304.091 577.271
C250.87 571.579 200.706 549.501 160.559 514.102
C120.412 478.702 92.2285 431.697 79.9179 379.608
C81.7135 397.472 85.5176 415.077 91.258 432.089
C96.9985 449.101 104.639 465.412 114.034 480.712" style="fill:#b200b2;opacity:0.4;"/>
   </g>
   <g id="patch_7">
    <path clip-path="url(#p665c797aac)" d="
M475.185 535.212
C488.2 523.785 499.933 510.976 510.178 497.012
C520.422 483.047 529.118 468.01 536.111 452.165
C512.308 491.993 478.173 524.654 437.332 546.675
C396.492 568.697 350.447 579.27 304.091 577.271
C333.96 580.466 364.159 578.433 393.33 571.262
C422.501 564.091 450.201 551.891 475.185 535.212" style="fill:#0059b2;opacity:0.4;"/>
   </g>
   <g id="patch_8">
    <path clip-path="url(#p665c797aac)" d="
M304.091 577.271
C350.447 579.27 396.492 568.697 437.332 546.675
C478.173 524.654 512.308 491.993 536.111 452.165
C550.872 418.719 557.76 382.326 556.241 345.799
C554.723 309.272 544.839 273.576 527.353 241.471
C509.867 209.365 485.242 181.699 455.379 160.609
C425.517 139.519 391.208 125.563 355.103 119.821
C318.999 114.078 282.053 116.701 247.121 127.485
C212.19 138.27 180.195 156.931 153.612 182.028
C127.028 207.124 106.557 237.991 93.7808 272.245
C81.0049 306.499 76.2618 343.232 79.9179 379.608
C92.2285 431.697 120.412 478.702 160.559 514.102
C200.706 549.501 250.87 571.579 304.091 577.271" style="fill:#663366;opacity:0.4;"/>
   </g>
   <g id="patch_9">
    <path clip-path="url(#p665c797aac)" d="
M315.177 577.51
C383.435 577.51 448.908 550.391 497.174 502.125
C545.44 453.858 572.559 388.386 572.559 320.128
C572.559 251.869 545.44 186.397 497.174 138.131
C448.908 89.8645 383.435 62.745 315.177 62.745
C246.918 62.745 181.446 89.8645 133.18 138.131
C84.9135 186.397 57.7941 251.869 57.7941 320.128
C57.7941 388.386 84.9135 453.858 133.18 502.125
C181.446 550.391 246.918 577.51 315.177 577.51
z
" style="fill:none;stroke:#000000;stroke-dasharray:6.000000,6.000000;stroke-dashoffset:0.0;stroke-width:0.5;"/>
   </g>
   <g id="patch_10">
    <path clip-path="url(#p665c797aac)" d="
M331.595 578.738
C400.18 578.738 465.964 551.489 514.461 502.993
C562.957 454.496 590.206 388.712 590.206 320.128
C590.206 251.543 562.957 185.759 514.461 137.262
C465.964 88.7659 400.18 61.5171 331.595 61.5171
C263.011 61.5171 197.227 88.7659 148.73 137.262
C100.234 185.759 72.9848 251.543 72.9848 320.128
C72.9848 388.712 100.234 454.496 148.73 502.993
C197.227 551.489 263.011 578.738 331.595 578.738
z
" style="fill:none;stroke:#000000;stroke-dasharray:6.000000,6.000000;stroke-dashoffset:0.0;stroke-width:0.5;"/>
   </g>
   <g id="patch_11">
    <path clip-path="url(#p665c797aac)" d="
M317.584 594.583
C380.931 594.583 441.693 569.415 486.486 524.621
C531.279 479.828 556.448 419.067 556.448 355.719
C556.448 292.372 531.279 231.611 486.486 186.817
C441.693 142.024 380.931 116.856 317.584 116.856
C254.237 116.856 193.475 142.024 148.682 186.817
C103.889 231.611 78.7204 292.372 78.7204 355.719
C78.7204 419.067 103.889 479.828 148.682 524.621
C193.475 569.415 254.237 594.583 317.584 594.583
z
" style="fill:none;stroke:#000000;stroke-dasharray:6.000000,6.000000;stroke-dashoffset:0.0;stroke-width:0.5;"/>
   </g>
   <g id="text_1">
    <!-- 2713 -->
    <defs>
     <path d="
M19.1875 8.29688
L53.6094 8.29688
L53.6094 0
L7.32812 0
L7.32812 8.29688
Q12.9375 14.1094 22.625 23.8906
Q32.3281 33.6875 34.8125 36.5312
Q39.5469 41.8438 41.4219 45.5312
Q43.3125 49.2188 43.3125 52.7812
Q43.3125 58.5938 39.2344 62.25
Q35.1562 65.9219 28.6094 65.9219
Q23.9688 65.9219 18.8125 64.3125
Q13.6719 62.7031 7.8125 59.4219
L7.8125 69.3906
Q13.7656 71.7812 18.9375 73
Q24.125 74.2188 28.4219 74.2188
Q39.75 74.2188 46.4844 68.5469
Q53.2188 62.8906 53.2188 53.4219
Q53.2188 48.9219 51.5312 44.8906
Q49.8594 40.875 45.4062 35.4062
Q44.1875 33.9844 37.6406 27.2188
Q31.1094 20.4531 19.1875 8.29688" id="BitstreamVeraSans-Roman-32"/>
     <path d="
M40.5781 39.3125
Q47.6562 37.7969 51.625 33
Q55.6094 28.2188 55.6094 21.1875
Q55.6094 10.4062 48.1875 4.48438
Q40.7656 -1.42188 27.0938 -1.42188
Q22.5156 -1.42188 17.6562 -0.515625
Q12.7969 0.390625 7.625 2.20312
L7.625 11.7188
Q11.7188 9.32812 16.5938 8.10938
Q21.4844 6.89062 26.8125 6.89062
Q36.0781 6.89062 40.9375 10.5469
Q45.7969 14.2031 45.7969 21.1875
Q45.7969 27.6406 41.2812 31.2656
Q36.7656 34.9062 28.7188 34.9062
L20.2188 34.9062
L20.2188 43.0156
L29.1094 43.0156
Q36.375 43.0156 40.2344 45.9219
Q44.0938 48.8281 44.0938 54.2969
Q44.0938 59.9062 40.1094 62.9062
Q36.1406 65.9219 28.7188 65.9219
Q24.6562 65.9219 20.0156 65.0312
Q15.375 64.1562 9.8125 62.3125
L9.8125 71.0938
Q15.4375 72.6562 20.3438 73.4375
Q25.25 74.2188 29.5938 74.2188
Q40.8281 74.2188 47.3594 69.1094
Q53.9062 64.0156 53.9062 55.3281
Q53.9062 49.2656 50.4375 45.0938
Q46.9688 40.9219 40.5781 39.3125" id="BitstreamVeraSans-Roman-33"/>
     <path d="
M12.4062 8.29688
L28.5156 8.29688
L28.5156 63.9219
L10.9844 60.4062
L10.9844 69.3906
L28.4219 72.9062
L38.2812 72.9062
L38.2812 8.29688
L54.3906 8.29688
L54.3906 0
L12.4062 0
z
" id="BitstreamVeraSans-Roman-31"/>
     <path d="
M8.20312 72.9062
L55.0781 72.9062
L55.0781 68.7031
L28.6094 0
L18.3125 0
L43.2188 64.5938
L8.20312 64.5938
z
" id="BitstreamVeraSans-Roman-37"/>
    </defs>
    <g style="fill:#262626;" transform="translate(59.6495063143 379.095342329)scale(0.1 -0.1)">
     <use xlink:href="#BitstreamVeraSans-Roman-32"/>
     <use x="63.623046875" xlink:href="#BitstreamVeraSans-Roman-37"/>
     <use x="127.24609375" xlink:href="#BitstreamVeraSans-Roman-31"/>
     <use x="190.869140625" xlink:href="#BitstreamVeraSans-Roman-33"/>
    </g>
   </g>
   <g id="text_2">
    <!-- 4186 -->
    <defs>
     <path d="
M31.7812 34.625
Q24.75 34.625 20.7188 30.8594
Q16.7031 27.0938 16.7031 20.5156
Q16.7031 13.9219 20.7188 10.1562
Q24.75 6.39062 31.7812 6.39062
Q38.8125 6.39062 42.8594 10.1719
Q46.9219 13.9688 46.9219 20.5156
Q46.9219 27.0938 42.8906 30.8594
Q38.875 34.625 31.7812 34.625
M21.9219 38.8125
Q15.5781 40.375 12.0312 44.7188
Q8.5 49.0781 8.5 55.3281
Q8.5 64.0625 14.7188 69.1406
Q20.9531 74.2188 31.7812 74.2188
Q42.6719 74.2188 48.875 69.1406
Q55.0781 64.0625 55.0781 55.3281
Q55.0781 49.0781 51.5312 44.7188
Q48 40.375 41.7031 38.8125
Q48.8281 37.1562 52.7969 32.3125
Q56.7812 27.4844 56.7812 20.5156
Q56.7812 9.90625 50.3125 4.23438
Q43.8438 -1.42188 31.7812 -1.42188
Q19.7344 -1.42188 13.25 4.23438
Q6.78125 9.90625 6.78125 20.5156
Q6.78125 27.4844 10.7812 32.3125
Q14.7969 37.1562 21.9219 38.8125
M18.3125 54.3906
Q18.3125 48.7344 21.8438 45.5625
Q25.3906 42.3906 31.7812 42.3906
Q38.1406 42.3906 41.7188 45.5625
Q45.3125 48.7344 45.3125 54.3906
Q45.3125 60.0625 41.7188 63.2344
Q38.1406 66.4062 31.7812 66.4062
Q25.3906 66.4062 21.8438 63.2344
Q18.3125 60.0625 18.3125 54.3906" id="BitstreamVeraSans-Roman-38"/>
     <path d="
M33.0156 40.375
Q26.375 40.375 22.4844 35.8281
Q18.6094 31.2969 18.6094 23.3906
Q18.6094 15.5312 22.4844 10.9531
Q26.375 6.39062 33.0156 6.39062
Q39.6562 6.39062 43.5312 10.9531
Q47.4062 15.5312 47.4062 23.3906
Q47.4062 31.2969 43.5312 35.8281
Q39.6562 40.375 33.0156 40.375
M52.5938 71.2969
L52.5938 62.3125
Q48.875 64.0625 45.0938 64.9844
Q41.3125 65.9219 37.5938 65.9219
Q27.8281 65.9219 22.6719 59.3281
Q17.5312 52.7344 16.7969 39.4062
Q19.6719 43.6562 24.0156 45.9219
Q28.375 48.1875 33.5938 48.1875
Q44.5781 48.1875 50.9531 41.5156
Q57.3281 34.8594 57.3281 23.3906
Q57.3281 12.1562 50.6875 5.35938
Q44.0469 -1.42188 33.0156 -1.42188
Q20.3594 -1.42188 13.6719 8.26562
Q6.98438 17.9688 6.98438 36.375
Q6.98438 53.6562 15.1875 63.9375
Q23.3906 74.2188 37.2031 74.2188
Q40.9219 74.2188 44.7031 73.4844
Q48.4844 72.75 52.5938 71.2969" id="BitstreamVeraSans-Roman-36"/>
     <path d="
M37.7969 64.3125
L12.8906 25.3906
L37.7969 25.3906
z

M35.2031 72.9062
L47.6094 72.9062
L47.6094 25.3906
L58.0156 25.3906
L58.0156 17.1875
L47.6094 17.1875
L47.6094 0
L37.7969 0
L37.7969 17.1875
L4.89062 17.1875
L4.89062 26.7031
z
" id="BitstreamVeraSans-Roman-34"/>
    </defs>
    <g style="fill:#262626;" transform="translate(533.240282602 454.295554503)scale(0.1 -0.1)">
     <use xlink:href="#BitstreamVeraSans-Roman-34"/>
     <use x="63.623046875" xlink:href="#BitstreamVeraSans-Roman-31"/>
     <use x="127.24609375" xlink:href="#BitstreamVeraSans-Roman-38"/>
     <use x="190.869140625" xlink:href="#BitstreamVeraSans-Roman-36"/>
    </g>
   </g>
   <g id="text_3">
    <!-- 17886 -->
    <g style="fill:#262626;" transform="translate(290.295880752 92.805879627)scale(0.1 -0.1)">
     <use xlink:href="#BitstreamVeraSans-Roman-31"/>
     <use x="63.623046875" xlink:href="#BitstreamVeraSans-Roman-37"/>
     <use x="127.24609375" xlink:href="#BitstreamVeraSans-Roman-38"/>
     <use x="190.869140625" xlink:href="#BitstreamVeraSans-Roman-38"/>
     <use x="254.4921875" xlink:href="#BitstreamVeraSans-Roman-36"/>
    </g>
   </g>
   <g id="text_4">
    <!-- 1929 -->
    <defs>
     <path d="
M10.9844 1.51562
L10.9844 10.5
Q14.7031 8.73438 18.5 7.8125
Q22.3125 6.89062 25.9844 6.89062
Q35.75 6.89062 40.8906 13.4531
Q46.0469 20.0156 46.7812 33.4062
Q43.9531 29.2031 39.5938 26.9531
Q35.25 24.7031 29.9844 24.7031
Q19.0469 24.7031 12.6719 31.3125
Q6.29688 37.9375 6.29688 49.4219
Q6.29688 60.6406 12.9375 67.4219
Q19.5781 74.2188 30.6094 74.2188
Q43.2656 74.2188 49.9219 64.5156
Q56.5938 54.8281 56.5938 36.375
Q56.5938 19.1406 48.4062 8.85938
Q40.2344 -1.42188 26.4219 -1.42188
Q22.7031 -1.42188 18.8906 -0.6875
Q15.0938 0.046875 10.9844 1.51562
M30.6094 32.4219
Q37.25 32.4219 41.125 36.9531
Q45.0156 41.5 45.0156 49.4219
Q45.0156 57.2812 41.125 61.8438
Q37.25 66.4062 30.6094 66.4062
Q23.9688 66.4062 20.0938 61.8438
Q16.2188 57.2812 16.2188 49.4219
Q16.2188 41.5 20.0938 36.9531
Q23.9688 32.4219 30.6094 32.4219" id="BitstreamVeraSans-Roman-39"/>
    </defs>
    <g style="fill:#262626;" transform="translate(292.266427376 588.495814797)scale(0.1 -0.1)">
     <use xlink:href="#BitstreamVeraSans-Roman-31"/>
     <use x="63.623046875" xlink:href="#BitstreamVeraSans-Roman-39"/>
     <use x="127.24609375" xlink:href="#BitstreamVeraSans-Roman-32"/>
     <use x="190.869140625" xlink:href="#BitstreamVeraSans-Roman-39"/>
    </g>
   </g>
   <g id="text_5">
    <!-- 1755 -->
    <defs>
     <path d="
M10.7969 72.9062
L49.5156 72.9062
L49.5156 64.5938
L19.8281 64.5938
L19.8281 46.7344
Q21.9688 47.4688 24.1094 47.8281
Q26.2656 48.1875 28.4219 48.1875
Q40.625 48.1875 47.75 41.5
Q54.8906 34.8125 54.8906 23.3906
Q54.8906 11.625 47.5625 5.09375
Q40.2344 -1.42188 26.9062 -1.42188
Q22.3125 -1.42188 17.5469 -0.640625
Q12.7969 0.140625 7.71875 1.70312
L7.71875 11.625
Q12.1094 9.23438 16.7969 8.0625
Q21.4844 6.89062 26.7031 6.89062
Q35.1562 6.89062 40.0781 11.3281
Q45.0156 15.7656 45.0156 23.3906
Q45.0156 31 40.0781 35.4375
Q35.1562 39.8906 26.7031 39.8906
Q22.75 39.8906 18.8125 39.0156
Q14.8906 38.1406 10.7969 36.2812
z
" id="BitstreamVeraSans-Roman-35"/>
    </defs>
    <g style="fill:#262626;" transform="translate(107.0407552 479.968630784)scale(0.1 -0.1)">
     <use xlink:href="#BitstreamVeraSans-Roman-31"/>
     <use x="63.623046875" xlink:href="#BitstreamVeraSans-Roman-37"/>
     <use x="127.24609375" xlink:href="#BitstreamVeraSans-Roman-35"/>
     <use x="190.869140625" xlink:href="#BitstreamVeraSans-Roman-35"/>
    </g>
   </g>
   <g id="text_6">
    <!-- 1468 -->
    <g style="fill:#262626;" transform="translate(460.160421856 533.682373372)scale(0.1 -0.1)">
     <use xlink:href="#BitstreamVeraSans-Roman-31"/>
     <use x="63.623046875" xlink:href="#BitstreamVeraSans-Roman-34"/>
     <use x="127.24609375" xlink:href="#BitstreamVeraSans-Roman-36"/>
     <use x="190.869140625" xlink:href="#BitstreamVeraSans-Roman-38"/>
    </g>
   </g>
   <g id="text_7">
    <!-- 101646 -->
    <defs>
     <path d="
M31.7812 66.4062
Q24.1719 66.4062 20.3281 58.9062
Q16.5 51.4219 16.5 36.375
Q16.5 21.3906 20.3281 13.8906
Q24.1719 6.39062 31.7812 6.39062
Q39.4531 6.39062 43.2812 13.8906
Q47.125 21.3906 47.125 36.375
Q47.125 51.4219 43.2812 58.9062
Q39.4531 66.4062 31.7812 66.4062
M31.7812 74.2188
Q44.0469 74.2188 50.5156 64.5156
Q56.9844 54.8281 56.9844 36.375
Q56.9844 17.9688 50.5156 8.26562
Q44.0469 -1.42188 31.7812 -1.42188
Q19.5312 -1.42188 13.0625 8.26562
Q6.59375 17.9688 6.59375 36.375
Q6.59375 54.8281 13.0625 64.5156
Q19.5312 74.2188 31.7812 74.2188" id="BitstreamVeraSans-Roman-30"/>
    </defs>
    <g style="fill:#262626;" transform="translate(288.483083024 472.440638596)scale(0.1 -0.1)">
     <use xlink:href="#BitstreamVeraSans-Roman-31"/>
     <use x="63.623046875" xlink:href="#BitstreamVeraSans-Roman-30"/>
     <use x="127.24609375" xlink:href="#BitstreamVeraSans-Roman-31"/>
     <use x="190.869140625" xlink:href="#BitstreamVeraSans-Roman-36"/>
     <use x="254.4921875" xlink:href="#BitstreamVeraSans-Roman-34"/>
     <use x="318.115234375" xlink:href="#BitstreamVeraSans-Roman-36"/>
    </g>
   </g>
   <g id="text_8">
    <!-- musMus_pep -->
    <defs>
     <path d="
M9.8125 72.9062
L24.5156 72.9062
L43.1094 23.2969
L61.8125 72.9062
L76.5156 72.9062
L76.5156 0
L66.8906 0
L66.8906 64.0156
L48.0938 14.0156
L38.1875 14.0156
L19.3906 64.0156
L19.3906 0
L9.8125 0
z
" id="BitstreamVeraSans-Roman-4d"/>
     <path d="
M50.9844 -16.6094
L50.9844 -23.5781
L-0.984375 -23.5781
L-0.984375 -16.6094
z
" id="BitstreamVeraSans-Roman-5f"/>
     <path d="
M52 44.1875
Q55.375 50.25 60.0625 53.125
Q64.75 56 71.0938 56
Q79.6406 56 84.2812 50.0156
Q88.9219 44.0469 88.9219 33.0156
L88.9219 0
L79.8906 0
L79.8906 32.7188
Q79.8906 40.5781 77.0938 44.375
Q74.3125 48.1875 68.6094 48.1875
Q61.625 48.1875 57.5625 43.5469
Q53.5156 38.9219 53.5156 30.9062
L53.5156 0
L44.4844 0
L44.4844 32.7188
Q44.4844 40.625 41.7031 44.4062
Q38.9219 48.1875 33.1094 48.1875
Q26.2188 48.1875 22.1562 43.5312
Q18.1094 38.875 18.1094 30.9062
L18.1094 0
L9.07812 0
L9.07812 54.6875
L18.1094 54.6875
L18.1094 46.1875
Q21.1875 51.2188 25.4844 53.6094
Q29.7812 56 35.6875 56
Q41.6562 56 45.8281 52.9688
Q50 49.9531 52 44.1875" id="BitstreamVeraSans-Roman-6d"/>
     <path d="
M56.2031 29.5938
L56.2031 25.2031
L14.8906 25.2031
Q15.4844 15.9219 20.4844 11.0625
Q25.4844 6.20312 34.4219 6.20312
Q39.5938 6.20312 44.4531 7.46875
Q49.3125 8.73438 54.1094 11.2812
L54.1094 2.78125
Q49.2656 0.734375 44.1875 -0.34375
Q39.1094 -1.42188 33.8906 -1.42188
Q20.7969 -1.42188 13.1562 6.1875
Q5.51562 13.8125 5.51562 26.8125
Q5.51562 40.2344 12.7656 48.1094
Q20.0156 56 32.3281 56
Q43.3594 56 49.7812 48.8906
Q56.2031 41.7969 56.2031 29.5938
M47.2188 32.2344
Q47.125 39.5938 43.0938 43.9844
Q39.0625 48.3906 32.4219 48.3906
Q24.9062 48.3906 20.3906 44.1406
Q15.875 39.8906 15.1875 32.1719
z
" id="BitstreamVeraSans-Roman-65"/>
     <path d="
M8.5 21.5781
L8.5 54.6875
L17.4844 54.6875
L17.4844 21.9219
Q17.4844 14.1562 20.5 10.2656
Q23.5312 6.39062 29.5938 6.39062
Q36.8594 6.39062 41.0781 11.0312
Q45.3125 15.6719 45.3125 23.6875
L45.3125 54.6875
L54.2969 54.6875
L54.2969 0
L45.3125 0
L45.3125 8.40625
Q42.0469 3.42188 37.7188 1
Q33.4062 -1.42188 27.6875 -1.42188
Q18.2656 -1.42188 13.375 4.4375
Q8.5 10.2969 8.5 21.5781" id="BitstreamVeraSans-Roman-75"/>
     <path d="
M44.2812 53.0781
L44.2812 44.5781
Q40.4844 46.5312 36.375 47.5
Q32.2812 48.4844 27.875 48.4844
Q21.1875 48.4844 17.8438 46.4375
Q14.5 44.3906 14.5 40.2812
Q14.5 37.1562 16.8906 35.375
Q19.2812 33.5938 26.5156 31.9844
L29.5938 31.2969
Q39.1562 29.25 43.1875 25.5156
Q47.2188 21.7812 47.2188 15.0938
Q47.2188 7.46875 41.1875 3.01562
Q35.1562 -1.42188 24.6094 -1.42188
Q20.2188 -1.42188 15.4531 -0.5625
Q10.6875 0.296875 5.42188 2
L5.42188 11.2812
Q10.4062 8.6875 15.2344 7.39062
Q20.0625 6.10938 24.8125 6.10938
Q31.1562 6.10938 34.5625 8.28125
Q37.9844 10.4531 37.9844 14.4062
Q37.9844 18.0625 35.5156 20.0156
Q33.0625 21.9688 24.7031 23.7812
L21.5781 24.5156
Q13.2344 26.2656 9.51562 29.9062
Q5.8125 33.5469 5.8125 39.8906
Q5.8125 47.6094 11.2812 51.7969
Q16.75 56 26.8125 56
Q31.7812 56 36.1719 55.2656
Q40.5781 54.5469 44.2812 53.0781" id="BitstreamVeraSans-Roman-73"/>
     <path d="
M18.1094 8.20312
L18.1094 -20.7969
L9.07812 -20.7969
L9.07812 54.6875
L18.1094 54.6875
L18.1094 46.3906
Q20.9531 51.2656 25.2656 53.625
Q29.5938 56 35.5938 56
Q45.5625 56 51.7812 48.0938
Q58.0156 40.1875 58.0156 27.2969
Q58.0156 14.4062 51.7812 6.48438
Q45.5625 -1.42188 35.5938 -1.42188
Q29.5938 -1.42188 25.2656 0.953125
Q20.9531 3.32812 18.1094 8.20312
M48.6875 27.2969
Q48.6875 37.2031 44.6094 42.8438
Q40.5312 48.4844 33.4062 48.4844
Q26.2656 48.4844 22.1875 42.8438
Q18.1094 37.2031 18.1094 27.2969
Q18.1094 17.3906 22.1875 11.75
Q26.2656 6.10938 33.4062 6.10938
Q40.5312 6.10938 44.6094 11.75
Q48.6875 17.3906 48.6875 27.2969" id="BitstreamVeraSans-Roman-70"/>
    </defs>
    <g style="fill:#262626;" transform="translate(109.856013947 62.7449972715)scale(0.12 -0.12)">
     <use xlink:href="#BitstreamVeraSans-Roman-6d"/>
     <use x="97.412109375" xlink:href="#BitstreamVeraSans-Roman-75"/>
     <use x="160.791015625" xlink:href="#BitstreamVeraSans-Roman-73"/>
     <use x="212.890625" xlink:href="#BitstreamVeraSans-Roman-4d"/>
     <use x="299.169921875" xlink:href="#BitstreamVeraSans-Roman-75"/>
     <use x="362.548828125" xlink:href="#BitstreamVeraSans-Roman-73"/>
     <use x="414.6484375" xlink:href="#BitstreamVeraSans-Roman-5f"/>
     <use x="464.6484375" xlink:href="#BitstreamVeraSans-Roman-70"/>
     <use x="528.125" xlink:href="#BitstreamVeraSans-Roman-65"/>
     <use x="589.6484375" xlink:href="#BitstreamVeraSans-Roman-70"/>
    </g>
   </g>
   <g id="text_9">
    <!-- danRer -->
    <defs>
     <path d="
M54.8906 33.0156
L54.8906 0
L45.9062 0
L45.9062 32.7188
Q45.9062 40.4844 42.875 44.3281
Q39.8438 48.1875 33.7969 48.1875
Q26.5156 48.1875 22.3125 43.5469
Q18.1094 38.9219 18.1094 30.9062
L18.1094 0
L9.07812 0
L9.07812 54.6875
L18.1094 54.6875
L18.1094 46.1875
Q21.3438 51.125 25.7031 53.5625
Q30.0781 56 35.7969 56
Q45.2188 56 50.0469 50.1719
Q54.8906 44.3438 54.8906 33.0156" id="BitstreamVeraSans-Roman-6e"/>
     <path d="
M45.4062 46.3906
L45.4062 75.9844
L54.3906 75.9844
L54.3906 0
L45.4062 0
L45.4062 8.20312
Q42.5781 3.32812 38.25 0.953125
Q33.9375 -1.42188 27.875 -1.42188
Q17.9688 -1.42188 11.7344 6.48438
Q5.51562 14.4062 5.51562 27.2969
Q5.51562 40.1875 11.7344 48.0938
Q17.9688 56 27.875 56
Q33.9375 56 38.25 53.625
Q42.5781 51.2656 45.4062 46.3906
M14.7969 27.2969
Q14.7969 17.3906 18.875 11.75
Q22.9531 6.10938 30.0781 6.10938
Q37.2031 6.10938 41.2969 11.75
Q45.4062 17.3906 45.4062 27.2969
Q45.4062 37.2031 41.2969 42.8438
Q37.2031 48.4844 30.0781 48.4844
Q22.9531 48.4844 18.875 42.8438
Q14.7969 37.2031 14.7969 27.2969" id="BitstreamVeraSans-Roman-64"/>
     <path d="
M44.3906 34.1875
Q47.5625 33.1094 50.5625 29.5938
Q53.5625 26.0781 56.5938 19.9219
L66.6094 0
L56 0
L46.6875 18.7031
Q43.0625 26.0312 39.6719 28.4219
Q36.2812 30.8125 30.4219 30.8125
L19.6719 30.8125
L19.6719 0
L9.8125 0
L9.8125 72.9062
L32.0781 72.9062
Q44.5781 72.9062 50.7344 67.6719
Q56.8906 62.4531 56.8906 51.9062
Q56.8906 45.0156 53.6875 40.4688
Q50.4844 35.9375 44.3906 34.1875
M19.6719 64.7969
L19.6719 38.9219
L32.0781 38.9219
Q39.2031 38.9219 42.8438 42.2188
Q46.4844 45.5156 46.4844 51.9062
Q46.4844 58.2969 42.8438 61.5469
Q39.2031 64.7969 32.0781 64.7969
z
" id="BitstreamVeraSans-Roman-52"/>
     <path d="
M34.2812 27.4844
Q23.3906 27.4844 19.1875 25
Q14.9844 22.5156 14.9844 16.5
Q14.9844 11.7188 18.1406 8.90625
Q21.2969 6.10938 26.7031 6.10938
Q34.1875 6.10938 38.7031 11.4062
Q43.2188 16.7031 43.2188 25.4844
L43.2188 27.4844
z

M52.2031 31.2031
L52.2031 0
L43.2188 0
L43.2188 8.29688
Q40.1406 3.32812 35.5469 0.953125
Q30.9531 -1.42188 24.3125 -1.42188
Q15.9219 -1.42188 10.9531 3.29688
Q6 8.01562 6 15.9219
Q6 25.1406 12.1719 29.8281
Q18.3594 34.5156 30.6094 34.5156
L43.2188 34.5156
L43.2188 35.4062
Q43.2188 41.6094 39.1406 45
Q35.0625 48.3906 27.6875 48.3906
Q23 48.3906 18.5469 47.2656
Q14.1094 46.1406 10.0156 43.8906
L10.0156 52.2031
Q14.9375 54.1094 19.5781 55.0469
Q24.2188 56 28.6094 56
Q40.4844 56 46.3438 49.8438
Q52.2031 43.7031 52.2031 31.2031" id="BitstreamVeraSans-Roman-61"/>
     <path d="
M41.1094 46.2969
Q39.5938 47.1719 37.8125 47.5781
Q36.0312 48 33.8906 48
Q26.2656 48 22.1875 43.0469
Q18.1094 38.0938 18.1094 28.8125
L18.1094 0
L9.07812 0
L9.07812 54.6875
L18.1094 54.6875
L18.1094 46.1875
Q20.9531 51.1719 25.4844 53.5781
Q30.0312 56 36.5312 56
Q37.4531 56 38.5781 55.875
Q39.7031 55.7656 41.0625 55.5156
z
" id="BitstreamVeraSans-Roman-72"/>
    </defs>
    <g style="fill:#262626;" transform="translate(460.90064061 61.5170563853)scale(0.12 -0.12)">
     <use xlink:href="#BitstreamVeraSans-Roman-64"/>
     <use x="63.4765625" xlink:href="#BitstreamVeraSans-Roman-61"/>
     <use x="124.755859375" xlink:href="#BitstreamVeraSans-Roman-6e"/>
     <use x="188.134765625" xlink:href="#BitstreamVeraSans-Roman-52"/>
     <use x="253.1171875" xlink:href="#BitstreamVeraSans-Roman-65"/>
     <use x="314.640625" xlink:href="#BitstreamVeraSans-Roman-72"/>
    </g>
   </g>
   <g id="text_10">
    <!-- braFlo -->
    <defs>
     <path d="
M9.8125 72.9062
L51.7031 72.9062
L51.7031 64.5938
L19.6719 64.5938
L19.6719 43.1094
L48.5781 43.1094
L48.5781 34.8125
L19.6719 34.8125
L19.6719 0
L9.8125 0
z
" id="BitstreamVeraSans-Roman-46"/>
     <path d="
M30.6094 48.3906
Q23.3906 48.3906 19.1875 42.75
Q14.9844 37.1094 14.9844 27.2969
Q14.9844 17.4844 19.1562 11.8438
Q23.3438 6.20312 30.6094 6.20312
Q37.7969 6.20312 41.9844 11.8594
Q46.1875 17.5312 46.1875 27.2969
Q46.1875 37.0156 41.9844 42.7031
Q37.7969 48.3906 30.6094 48.3906
M30.6094 56
Q42.3281 56 49.0156 48.375
Q55.7188 40.7656 55.7188 27.2969
Q55.7188 13.875 49.0156 6.21875
Q42.3281 -1.42188 30.6094 -1.42188
Q18.8438 -1.42188 12.1719 6.21875
Q5.51562 13.875 5.51562 27.2969
Q5.51562 40.7656 12.1719 48.375
Q18.8438 56 30.6094 56" id="BitstreamVeraSans-Roman-6f"/>
     <path d="
M9.42188 75.9844
L18.4062 75.9844
L18.4062 0
L9.42188 0
z
" id="BitstreamVeraSans-Roman-6c"/>
     <path d="
M48.6875 27.2969
Q48.6875 37.2031 44.6094 42.8438
Q40.5312 48.4844 33.4062 48.4844
Q26.2656 48.4844 22.1875 42.8438
Q18.1094 37.2031 18.1094 27.2969
Q18.1094 17.3906 22.1875 11.75
Q26.2656 6.10938 33.4062 6.10938
Q40.5312 6.10938 44.6094 11.75
Q48.6875 17.3906 48.6875 27.2969
M18.1094 46.3906
Q20.9531 51.2656 25.2656 53.625
Q29.5938 56 35.5938 56
Q45.5625 56 51.7812 48.0938
Q58.0156 40.1875 58.0156 27.2969
Q58.0156 14.4062 51.7812 6.48438
Q45.5625 -1.42188 35.5938 -1.42188
Q29.5938 -1.42188 25.2656 0.953125
Q20.9531 3.32812 18.1094 8.20312
L18.1094 0
L9.07812 0
L9.07812 75.9844
L18.1094 75.9844
z
" id="BitstreamVeraSans-Roman-62"/>
    </defs>
    <g style="fill:#262626;" transform="translate(299.715209332 627.587425589)scale(0.12 -0.12)">
     <use xlink:href="#BitstreamVeraSans-Roman-62"/>
     <use x="63.4765625" xlink:href="#BitstreamVeraSans-Roman-72"/>
     <use x="104.58984375" xlink:href="#BitstreamVeraSans-Roman-61"/>
     <use x="165.869140625" xlink:href="#BitstreamVeraSans-Roman-46"/>
     <use x="223.388671875" xlink:href="#BitstreamVeraSans-Roman-6c"/>
     <use x="251.171875" xlink:href="#BitstreamVeraSans-Roman-6f"/>
    </g>
   </g>
  </g>
  <g id="axes_2">
   <g id="patch_12">
    <path clip-path="url(#p866a9e6674)" d="
M511.758 862.624
C485.671 854.49 457.53 855.832 432.334 866.41
C407.139 876.989 386.475 896.138 374.014 920.457
C361.552 944.776 358.077 972.734 364.206 999.364
C370.335 1025.99 385.682 1049.62 407.521 1066.04
C420.315 1078.62 436.064 1087.78 453.319 1092.68
C470.574 1097.59 488.788 1098.08 506.283 1094.12
C492.956 1117.25 475.891 1138.01 455.782 1155.57
C435.673 1173.13 412.796 1187.24 388.08 1197.32
C363.364 1207.41 337.148 1213.33 310.496 1214.86
C283.845 1216.38 257.124 1213.48 231.419 1206.28
C205.714 1199.08 181.378 1187.67 159.399 1172.52
C137.419 1157.37 118.099 1138.69 102.221 1117.23
C86.3439 1095.77 74.1277 1071.83 66.069 1046.38
C58.0102 1020.93 54.2194 994.318 54.8506 967.631
C55.4817 940.943 60.5261 914.544 69.7789 889.504
C79.0317 864.464 92.3659 841.127 109.24 820.442
C126.114 799.756 146.296 782.006 168.967 767.912
C191.638 753.818 216.487 743.573 242.503 737.594
C268.52 731.615 295.348 729.983 321.897 732.766
C348.447 735.548 374.354 742.706 398.566 753.949
C422.777 765.192 444.962 780.365 464.218 798.853
C483.475 817.341 499.539 838.89 511.758 862.624" style="fill:#ff0000;opacity:0.4;"/>
   </g>
   <g id="patch_13">
    <path clip-path="url(#p866a9e6674)" d="
M588.432 1006.32
C592.162 982.66 587.85 958.416 576.188 937.491
C564.527 916.566 546.177 900.145 524.091 890.87
C522.338 886.037 520.432 881.261 518.375 876.55
C516.318 871.839 514.111 867.195 511.758 862.624
C540.845 871.694 565.219 891.869 579.562 918.75
C593.905 945.632 597.093 977.111 588.432 1006.32" style="fill:#008000;opacity:0.4;"/>
   </g>
   <g id="patch_14">
    <path clip-path="url(#p866a9e6674)" d="
M511.758 862.624
C485.671 854.49 457.53 855.832 432.334 866.41
C407.139 876.989 386.475 896.138 374.014 920.457
C361.552 944.776 358.077 972.734 364.206 999.364
C370.335 1025.99 385.682 1049.62 407.521 1066.04
C389.759 1048.59 378.629 1025.47 376.057 1000.7
C373.486 975.933 379.63 951.024 393.427 930.292
C407.223 909.559 427.826 894.273 451.668 887.079
C475.51 879.886 501.13 881.227 524.091 890.87
C522.338 886.037 520.432 881.261 518.375 876.55
C516.318 871.839 514.111 867.195 511.758 862.624" style="fill:#b25900;opacity:0.4;"/>
   </g>
   <g id="patch_15">
    <path clip-path="url(#p866a9e6674)" d="
M506.283 1094.12
C507.235 1092.47 508.167 1090.8 509.08 1089.13
C509.992 1087.46 510.885 1085.77 511.758 1084.08
C529.938 1078.41 546.446 1068.35 559.818 1054.79
C573.189 1041.23 583.018 1024.58 588.432 1006.32
C585.094 1027.49 575.479 1047.18 560.836 1062.83
C546.193 1078.48 527.185 1089.38 506.283 1094.12" style="fill:#0000ff;opacity:0.4;"/>
   </g>
   <g id="patch_16">
    <path clip-path="url(#p866a9e6674)" d="
M506.283 1094.12
C507.235 1092.47 508.167 1090.8 509.08 1089.13
C509.992 1087.46 510.885 1085.77 511.758 1084.08
C494.199 1089.55 475.587 1090.77 457.464 1087.64
C439.34 1084.5 422.22 1077.1 407.521 1066.04
C420.315 1078.62 436.064 1087.78 453.319 1092.68
C470.574 1097.59 488.788 1098.08 506.283 1094.12" style="fill:#b200b2;opacity:0.4;"/>
   </g>
   <g id="patch_17">
    <path clip-path="url(#p866a9e6674)" d="
M588.432 1006.32
C592.162 982.66 587.85 958.416 576.188 937.491
C564.527 916.566 546.177 900.145 524.091 890.87
C535.45 922.186 540.218 955.515 538.095 988.76
C535.973 1022.01 527.006 1054.46 511.758 1084.08
C529.938 1078.41 546.446 1068.35 559.818 1054.79
C573.189 1041.23 583.018 1024.58 588.432 1006.32" style="fill:#0059b2;opacity:0.4;"/>
   </g>
   <g id="patch_18">
    <path clip-path="url(#p866a9e6674)" d="
M511.758 1084.08
C527.006 1054.46 535.973 1022.01 538.095 988.76
C540.218 955.515 535.45 922.186 524.091 890.87
C501.13 881.227 475.51 879.886 451.668 887.079
C427.826 894.273 407.223 909.559 393.427 930.292
C379.63 951.024 373.486 975.933 376.057 1000.7
C378.629 1025.47 389.759 1048.59 407.521 1066.04
C422.22 1077.1 439.34 1084.5 457.464 1087.64
C475.587 1090.77 494.199 1089.55 511.758 1084.08" style="fill:#663366;opacity:0.4;"/>
   </g>
   <g id="patch_19">
    <path clip-path="url(#p866a9e6674)" d="
M296.685 1215.25
C360.838 1215.25 422.372 1189.76 467.735 1144.4
C513.099 1099.04 538.587 1037.5 538.587 973.35
C538.587 909.197 513.099 847.663 467.735 802.299
C422.372 756.936 360.838 731.448 296.685 731.448
C232.532 731.448 170.998 756.936 125.634 802.299
C80.2713 847.663 54.7829 909.197 54.7829 973.35
C54.7829 1037.5 80.2713 1099.04 125.634 1144.4
C170.998 1189.76 232.532 1215.25 296.685 1215.25
z
" style="fill:none;stroke:#000000;stroke-dasharray:6.000000,6.000000;stroke-dashoffset:0.0;stroke-width:0.5;"/>
   </g>
   <g id="patch_20">
    <path clip-path="url(#p866a9e6674)" d="
M477.234 1089.33
C507.993 1089.33 537.496 1077.11 559.246 1055.36
C580.996 1033.61 593.217 1004.11 593.217 973.35
C593.217 942.591 580.996 913.088 559.246 891.338
C537.496 869.588 507.993 857.367 477.234 857.367
C446.475 857.367 416.971 869.588 395.221 891.338
C373.472 913.088 361.251 942.591 361.251 973.35
C361.251 1004.11 373.472 1033.61 395.221 1055.36
C416.971 1077.11 446.475 1089.33 477.234 1089.33
z
" style="fill:none;stroke:#000000;stroke-dasharray:6.000000,6.000000;stroke-dashoffset:0.0;stroke-width:0.5;"/>
   </g>
   <g id="patch_21">
    <path clip-path="url(#p866a9e6674)" d="
M482.612 1096.77
C511.022 1096.77 538.273 1085.48 558.362 1065.39
C578.451 1045.3 589.738 1018.05 589.738 989.64
C589.738 961.23 578.451 933.979 558.362 913.89
C538.273 893.801 511.022 882.513 482.612 882.513
C454.201 882.513 426.951 893.801 406.861 913.89
C386.772 933.979 375.485 961.23 375.485 989.64
C375.485 1018.05 386.772 1045.3 406.861 1065.39
C426.951 1085.48 454.201 1096.77 482.612 1096.77
z
" style="fill:none;stroke:#000000;stroke-dasharray:6.000000,6.000000;stroke-dashoffset:0.0;stroke-width:0.5;"/>
   </g>
   <g id="text_11">
    <!-- 444170 -->
    <g style="fill:#262626;" transform="translate(253.869665934 1113.41512612)scale(0.1 -0.1)">
     <use xlink:href="#BitstreamVeraSans-Roman-34"/>
     <use x="63.623046875" xlink:href="#BitstreamVeraSans-Roman-34"/>
     <use x="127.24609375" xlink:href="#BitstreamVeraSans-Roman-34"/>
     <use x="190.869140625" xlink:href="#BitstreamVeraSans-Roman-31"/>
     <use x="254.4921875" xlink:href="#BitstreamVeraSans-Roman-37"/>
     <use x="318.115234375" xlink:href="#BitstreamVeraSans-Roman-30"/>
    </g>
   </g>
   <g id="text_12">
    <!-- 4688 -->
    <g style="fill:#262626;" transform="translate(512.947752487 882.271512751)scale(0.1 -0.1)">
     <use xlink:href="#BitstreamVeraSans-Roman-34"/>
     <use x="63.623046875" xlink:href="#BitstreamVeraSans-Roman-36"/>
     <use x="127.24609375" xlink:href="#BitstreamVeraSans-Roman-38"/>
     <use x="190.869140625" xlink:href="#BitstreamVeraSans-Roman-38"/>
    </g>
   </g>
   <g id="text_13">
    <!-- 17384 -->
    <g style="fill:#262626;" transform="translate(494.087941466 876.684988534)scale(0.1 -0.1)">
     <use xlink:href="#BitstreamVeraSans-Roman-31"/>
     <use x="63.623046875" xlink:href="#BitstreamVeraSans-Roman-37"/>
     <use x="127.24609375" xlink:href="#BitstreamVeraSans-Roman-33"/>
     <use x="190.869140625" xlink:href="#BitstreamVeraSans-Roman-38"/>
     <use x="254.4921875" xlink:href="#BitstreamVeraSans-Roman-34"/>
    </g>
   </g>
   <g id="text_14">
    <!-- 1125 -->
    <g style="fill:#262626;" transform="translate(500.01875337 1091.16013257)scale(0.1 -0.1)">
     <use xlink:href="#BitstreamVeraSans-Roman-31"/>
     <use x="63.623046875" xlink:href="#BitstreamVeraSans-Roman-31"/>
     <use x="127.24609375" xlink:href="#BitstreamVeraSans-Roman-32"/>
     <use x="190.869140625" xlink:href="#BitstreamVeraSans-Roman-35"/>
    </g>
   </g>
   <g id="text_15">
    <!-- 2559 -->
    <g style="fill:#262626;" transform="translate(493.313694764 1092.87722899)scale(0.1 -0.1)">
     <use xlink:href="#BitstreamVeraSans-Roman-32"/>
     <use x="63.623046875" xlink:href="#BitstreamVeraSans-Roman-35"/>
     <use x="127.24609375" xlink:href="#BitstreamVeraSans-Roman-35"/>
     <use x="190.869140625" xlink:href="#BitstreamVeraSans-Roman-39"/>
    </g>
   </g>
   <g id="text_16">
    <!-- 22668 -->
    <g style="fill:#262626;" transform="translate(547.546406676 1006.17860867)scale(0.1 -0.1)">
     <use xlink:href="#BitstreamVeraSans-Roman-32"/>
     <use x="63.623046875" xlink:href="#BitstreamVeraSans-Roman-32"/>
     <use x="127.24609375" xlink:href="#BitstreamVeraSans-Roman-36"/>
     <use x="190.869140625" xlink:href="#BitstreamVeraSans-Roman-36"/>
     <use x="254.4921875" xlink:href="#BitstreamVeraSans-Roman-38"/>
    </g>
   </g>
   <g id="text_17">
    <!-- 80446 -->
    <g style="fill:#262626;" transform="translate(465.870824841 1016.4224046)scale(0.1 -0.1)">
     <use xlink:href="#BitstreamVeraSans-Roman-38"/>
     <use x="63.623046875" xlink:href="#BitstreamVeraSans-Roman-30"/>
     <use x="127.24609375" xlink:href="#BitstreamVeraSans-Roman-34"/>
     <use x="190.869140625" xlink:href="#BitstreamVeraSans-Roman-34"/>
     <use x="254.4921875" xlink:href="#BitstreamVeraSans-Roman-36"/>
    </g>
   </g>
   <g id="text_18">
    <!-- petMar2 -->
    <defs>
     <path d="
M18.3125 70.2188
L18.3125 54.6875
L36.8125 54.6875
L36.8125 47.7031
L18.3125 47.7031
L18.3125 18.0156
Q18.3125 11.3281 20.1406 9.42188
Q21.9688 7.51562 27.5938 7.51562
L36.8125 7.51562
L36.8125 0
L27.5938 0
Q17.1875 0 13.2344 3.875
Q9.28125 7.76562 9.28125 18.0156
L9.28125 47.7031
L2.6875 47.7031
L2.6875 54.6875
L9.28125 54.6875
L9.28125 70.2188
z
" id="BitstreamVeraSans-Roman-74"/>
    </defs>
    <g style="fill:#262626;" transform="translate(128.04329007 731.448057121)scale(0.12 -0.12)">
     <use xlink:href="#BitstreamVeraSans-Roman-70"/>
     <use x="63.4765625" xlink:href="#BitstreamVeraSans-Roman-65"/>
     <use x="125.0" xlink:href="#BitstreamVeraSans-Roman-74"/>
     <use x="164.208984375" xlink:href="#BitstreamVeraSans-Roman-4d"/>
     <use x="250.48828125" xlink:href="#BitstreamVeraSans-Roman-61"/>
     <use x="311.767578125" xlink:href="#BitstreamVeraSans-Roman-72"/>
     <use x="352.880859375" xlink:href="#BitstreamVeraSans-Roman-32"/>
    </g>
   </g>
   <g id="text_19">
    <!-- danRer_pep -->
    <g style="fill:#262626;" transform="translate(535.22549896 857.366885182)scale(0.12 -0.12)">
     <use xlink:href="#BitstreamVeraSans-Roman-64"/>
     <use x="63.4765625" xlink:href="#BitstreamVeraSans-Roman-61"/>
     <use x="124.755859375" xlink:href="#BitstreamVeraSans-Roman-6e"/>
     <use x="188.134765625" xlink:href="#BitstreamVeraSans-Roman-52"/>
     <use x="253.1171875" xlink:href="#BitstreamVeraSans-Roman-65"/>
     <use x="314.640625" xlink:href="#BitstreamVeraSans-Roman-72"/>
     <use x="355.75390625" xlink:href="#BitstreamVeraSans-Roman-5f"/>
     <use x="405.75390625" xlink:href="#BitstreamVeraSans-Roman-70"/>
     <use x="469.23046875" xlink:href="#BitstreamVeraSans-Roman-65"/>
     <use x="530.75390625" xlink:href="#BitstreamVeraSans-Roman-70"/>
    </g>
   </g>
   <g id="text_20">
    <!-- braFlo_pep -->
    <g style="fill:#262626;" transform="translate(450.432805648 1116.5977766)scale(0.12 -0.12)">
     <use xlink:href="#BitstreamVeraSans-Roman-62"/>
     <use x="63.4765625" xlink:href="#BitstreamVeraSans-Roman-72"/>
     <use x="104.58984375" xlink:href="#BitstreamVeraSans-Roman-61"/>
     <use x="165.869140625" xlink:href="#BitstreamVeraSans-Roman-46"/>
     <use x="223.388671875" xlink:href="#BitstreamVeraSans-Roman-6c"/>
     <use x="251.171875" xlink:href="#BitstreamVeraSans-Roman-6f"/>
     <use x="312.353515625" xlink:href="#BitstreamVeraSans-Roman-5f"/>
     <use x="362.353515625" xlink:href="#BitstreamVeraSans-Roman-70"/>
     <use x="425.830078125" xlink:href="#BitstreamVeraSans-Roman-65"/>
     <use x="487.353515625" xlink:href="#BitstreamVeraSans-Roman-70"/>
    </g>
   </g>
  </g>
  <g id="axes_3">
   <g id="patch_22">
    <path clip-path="url(#p245617fa69)" d="
M511.236 1508.27
C485.879 1500.63 458.649 1501.95 434.154 1512.02
C409.66 1522.08 389.366 1540.29 376.709 1563.55
C364.053 1586.81 359.79 1613.74 364.642 1639.78
C369.495 1665.81 383.173 1689.39 403.361 1706.53
C416.163 1720.45 432.428 1730.72 450.492 1736.31
C468.555 1741.89 487.781 1742.59 506.202 1738.33
C492.981 1761.51 476.01 1782.35 455.979 1799.98
C435.948 1817.62 413.132 1831.81 388.46 1841.99
C363.788 1852.17 337.6 1858.19 310.961 1859.8
C284.321 1861.42 257.597 1858.61 231.876 1851.49
C206.155 1844.37 181.791 1833.03 159.775 1817.95
C137.759 1802.86 118.394 1784.23 102.468 1762.82
C86.5419 1741.4 74.2742 1717.49 66.1638 1692.07
C58.0534 1666.64 54.212 1640.05 54.7958 1613.37
C55.3796 1586.68 60.3807 1560.28 69.5954 1535.23
C78.8102 1510.19 92.1119 1486.84 108.959 1466.14
C125.807 1445.44 145.968 1427.68 168.623 1413.57
C191.278 1399.46 216.114 1389.2 242.122 1383.22
C268.13 1377.23 294.951 1375.59 321.495 1378.37
C348.038 1381.15 373.938 1388.31 398.141 1399.55
C422.344 1410.8 444.517 1425.98 463.758 1444.48
C482.998 1462.97 499.042 1484.53 511.236 1508.27" style="fill:#ff0000;opacity:0.4;"/>
   </g>
   <g id="patch_23">
    <path clip-path="url(#p245617fa69)" d="
M586.447 1657.7
C592.013 1633.1 588.705 1607.31 577.113 1584.91
C565.522 1562.51 546.375 1544.92 523.079 1535.26
C521.382 1530.65 519.545 1526.08 517.57 1521.58
C515.594 1517.08 513.482 1512.64 511.236 1508.27
C526.223 1512.78 540.134 1520.3 552.12 1530.37
C564.106 1540.44 573.917 1552.84 580.954 1566.82
C587.991 1580.8 592.108 1596.07 593.052 1611.69
C593.996 1627.32 591.749 1642.97 586.447 1657.7" style="fill:#008000;opacity:0.4;"/>
   </g>
   <g id="patch_24">
    <path clip-path="url(#p245617fa69)" d="
M511.236 1508.27
C485.879 1500.63 458.649 1501.95 434.154 1512.02
C409.66 1522.08 389.366 1540.29 376.709 1563.55
C364.053 1586.81 359.79 1613.74 364.642 1639.78
C369.495 1665.81 383.173 1689.39 403.361 1706.53
C386.86 1688.6 376.971 1665.56 375.343 1641.24
C373.714 1616.92 380.441 1592.77 394.402 1572.79
C408.364 1552.82 428.74 1538.2 452.135 1531.38
C475.53 1524.55 500.568 1525.92 523.079 1535.26
C521.382 1530.65 519.545 1526.08 517.57 1521.58
C515.594 1517.08 513.482 1512.64 511.236 1508.27" style="fill:#b25900;opacity:0.4;"/>
   </g>
   <g id="patch_25">
    <path clip-path="url(#p245617fa69)" d="
M506.202 1738.33
C507.075 1736.8 507.931 1735.26 508.77 1733.71
C509.609 1732.16 510.431 1730.6 511.236 1729.03
C528.47 1723.84 544.251 1714.68 557.311 1702.3
C570.371 1689.91 580.35 1674.63 586.447 1657.7
C582.007 1677.32 572.121 1695.3 557.928 1709.56
C543.736 1723.82 525.804 1733.79 506.202 1738.33" style="fill:#0000ff;opacity:0.4;"/>
   </g>
   <g id="patch_26">
    <path clip-path="url(#p245617fa69)" d="
M506.202 1738.33
C507.075 1736.8 507.931 1735.26 508.77 1733.71
C509.609 1732.16 510.431 1730.6 511.236 1729.03
C492.807 1734.59 473.278 1735.44 454.436 1731.51
C435.594 1727.58 418.033 1718.99 403.361 1706.53
C416.163 1720.45 432.428 1730.72 450.492 1736.31
C468.555 1741.89 487.781 1742.59 506.202 1738.33" style="fill:#b200b2;opacity:0.4;"/>
   </g>
   <g id="patch_27">
    <path clip-path="url(#p245617fa69)" d="
M586.447 1657.7
C592.013 1633.1 588.705 1607.31 577.113 1584.91
C565.522 1562.51 546.375 1544.92 523.079 1535.26
C534.613 1566.62 539.516 1600.04 537.477 1633.39
C535.439 1666.74 526.503 1699.31 511.236 1729.03
C528.47 1723.84 544.251 1714.68 557.311 1702.3
C570.371 1689.91 580.35 1674.63 586.447 1657.7" style="fill:#0059b2;opacity:0.4;"/>
   </g>
   <g id="patch_28">
    <path clip-path="url(#p245617fa69)" d="
M511.236 1729.03
C526.503 1699.31 535.439 1666.74 537.477 1633.39
C539.516 1600.04 534.613 1566.62 523.079 1535.26
C500.568 1525.92 475.53 1524.55 452.135 1531.38
C428.74 1538.2 408.364 1552.82 394.402 1572.79
C380.441 1592.77 373.714 1616.92 375.343 1641.24
C376.971 1665.56 386.86 1688.6 403.361 1706.53
C418.033 1718.99 435.594 1727.58 454.436 1731.51
C473.278 1735.44 492.807 1734.59 511.236 1729.03" style="fill:#663366;opacity:0.4;"/>
   </g>
   <g id="patch_29">
    <path clip-path="url(#p245617fa69)" d="
M296.333 1860.24
C360.404 1860.24 421.86 1834.79 467.166 1789.48
C512.471 1744.18 537.927 1682.72 537.927 1618.65
C537.927 1554.58 512.471 1493.12 467.166 1447.82
C421.86 1402.51 360.404 1377.06 296.333 1377.06
C232.261 1377.06 170.805 1402.51 125.499 1447.82
C80.1939 1493.12 54.738 1554.58 54.738 1618.65
C54.738 1682.72 80.1939 1744.18 125.499 1789.48
C170.805 1834.79 232.261 1860.24 296.333 1860.24
z
" style="fill:none;stroke:#000000;stroke-dasharray:6.000000,6.000000;stroke-dashoffset:0.0;stroke-width:0.5;"/>
   </g>
   <g id="patch_30">
    <path clip-path="url(#p245617fa69)" d="
M477.976 1733.94
C508.55 1733.94 537.876 1721.79 559.496 1700.17
C581.115 1678.55 593.262 1649.22 593.262 1618.65
C593.262 1588.08 581.115 1558.75 559.496 1537.13
C537.876 1515.51 508.55 1503.36 477.976 1503.36
C447.402 1503.36 418.076 1515.51 396.457 1537.13
C374.838 1558.75 362.69 1588.08 362.69 1618.65
C362.69 1649.22 374.838 1678.55 396.457 1700.17
C418.076 1721.79 447.402 1733.94 477.976 1733.94
z
" style="fill:none;stroke:#000000;stroke-dasharray:6.000000,6.000000;stroke-dashoffset:0.0;stroke-width:0.5;"/>
   </g>
   <g id="patch_31">
    <path clip-path="url(#p245617fa69)" d="
M482.094 1741.08
C510.468 1741.08 537.684 1729.81 557.748 1709.74
C577.812 1689.68 589.085 1662.46 589.085 1634.09
C589.085 1605.71 577.812 1578.5 557.748 1558.43
C537.684 1538.37 510.468 1527.1 482.094 1527.1
C453.72 1527.1 426.504 1538.37 406.44 1558.43
C386.377 1578.5 375.103 1605.71 375.103 1634.09
C375.103 1662.46 386.377 1689.68 406.44 1709.74
C426.504 1729.81 453.72 1741.08 482.094 1741.08
z
" style="fill:none;stroke:#000000;stroke-dasharray:6.000000,6.000000;stroke-dashoffset:0.0;stroke-width:0.5;"/>
   </g>
   <g id="text_21">
    <!-- 445928 -->
    <g style="fill:#262626;" transform="translate(242.550773736 1747.24945679)scale(0.1 -0.1)">
     <use xlink:href="#BitstreamVeraSans-Roman-34"/>
     <use x="63.623046875" xlink:href="#BitstreamVeraSans-Roman-34"/>
     <use x="127.24609375" xlink:href="#BitstreamVeraSans-Roman-35"/>
     <use x="190.869140625" xlink:href="#BitstreamVeraSans-Roman-39"/>
     <use x="254.4921875" xlink:href="#BitstreamVeraSans-Roman-32"/>
     <use x="318.115234375" xlink:href="#BitstreamVeraSans-Roman-38"/>
    </g>
   </g>
   <g id="text_22">
    <!-- 4973 -->
    <g style="fill:#262626;" transform="translate(511.910191718 1527.06209522)scale(0.1 -0.1)">
     <use xlink:href="#BitstreamVeraSans-Roman-34"/>
     <use x="63.623046875" xlink:href="#BitstreamVeraSans-Roman-39"/>
     <use x="127.24609375" xlink:href="#BitstreamVeraSans-Roman-37"/>
     <use x="190.869140625" xlink:href="#BitstreamVeraSans-Roman-33"/>
    </g>
   </g>
   <g id="text_23">
    <!-- 15626 -->
    <g style="fill:#262626;" transform="translate(493.69337253 1521.82099347)scale(0.1 -0.1)">
     <use xlink:href="#BitstreamVeraSans-Roman-31"/>
     <use x="63.623046875" xlink:href="#BitstreamVeraSans-Roman-35"/>
     <use x="127.24609375" xlink:href="#BitstreamVeraSans-Roman-36"/>
     <use x="190.869140625" xlink:href="#BitstreamVeraSans-Roman-32"/>
     <use x="254.4921875" xlink:href="#BitstreamVeraSans-Roman-36"/>
    </g>
   </g>
   <g id="text_24">
    <!-- 1022 -->
    <g style="fill:#262626;" transform="translate(499.560909582 1735.79351031)scale(0.1 -0.1)">
     <use xlink:href="#BitstreamVeraSans-Roman-31"/>
     <use x="63.623046875" xlink:href="#BitstreamVeraSans-Roman-30"/>
     <use x="127.24609375" xlink:href="#BitstreamVeraSans-Roman-32"/>
     <use x="190.869140625" xlink:href="#BitstreamVeraSans-Roman-32"/>
    </g>
   </g>
   <g id="text_25">
    <!-- 2375 -->
    <g style="fill:#262626;" transform="translate(493.399156532 1737.35210447)scale(0.1 -0.1)">
     <use xlink:href="#BitstreamVeraSans-Roman-32"/>
     <use x="63.623046875" xlink:href="#BitstreamVeraSans-Roman-33"/>
     <use x="127.24609375" xlink:href="#BitstreamVeraSans-Roman-37"/>
     <use x="190.869140625" xlink:href="#BitstreamVeraSans-Roman-35"/>
    </g>
   </g>
   <g id="text_26">
    <!-- 22771 -->
    <g style="fill:#262626;" transform="translate(546.029616401 1657.04789613)scale(0.1 -0.1)">
     <use xlink:href="#BitstreamVeraSans-Roman-32"/>
     <use x="63.623046875" xlink:href="#BitstreamVeraSans-Roman-32"/>
     <use x="127.24609375" xlink:href="#BitstreamVeraSans-Roman-37"/>
     <use x="190.869140625" xlink:href="#BitstreamVeraSans-Roman-37"/>
     <use x="254.4921875" xlink:href="#BitstreamVeraSans-Roman-31"/>
    </g>
   </g>
   <g id="text_27">
    <!-- 80630 -->
    <g style="fill:#262626;" transform="translate(463.990217677 1659.70138668)scale(0.1 -0.1)">
     <use xlink:href="#BitstreamVeraSans-Roman-38"/>
     <use x="63.623046875" xlink:href="#BitstreamVeraSans-Roman-30"/>
     <use x="127.24609375" xlink:href="#BitstreamVeraSans-Roman-36"/>
     <use x="190.869140625" xlink:href="#BitstreamVeraSans-Roman-33"/>
     <use x="254.4921875" xlink:href="#BitstreamVeraSans-Roman-30"/>
    </g>
   </g>
   <g id="text_28">
    <!-- petMar2 -->
    <g style="fill:#262626;" transform="translate(127.844723594 1377.05530567)scale(0.12 -0.12)">
     <use xlink:href="#BitstreamVeraSans-Roman-70"/>
     <use x="63.4765625" xlink:href="#BitstreamVeraSans-Roman-65"/>
     <use x="125.0" xlink:href="#BitstreamVeraSans-Roman-74"/>
     <use x="164.208984375" xlink:href="#BitstreamVeraSans-Roman-4d"/>
     <use x="250.48828125" xlink:href="#BitstreamVeraSans-Roman-61"/>
     <use x="311.767578125" xlink:href="#BitstreamVeraSans-Roman-72"/>
     <use x="352.880859375" xlink:href="#BitstreamVeraSans-Roman-32"/>
    </g>
   </g>
   <g id="text_29">
    <!-- musMus_pep -->
    <g style="fill:#262626;" transform="translate(535.619105547 1503.36421395)scale(0.12 -0.12)">
     <use xlink:href="#BitstreamVeraSans-Roman-6d"/>
     <use x="97.412109375" xlink:href="#BitstreamVeraSans-Roman-75"/>
     <use x="160.791015625" xlink:href="#BitstreamVeraSans-Roman-73"/>
     <use x="212.890625" xlink:href="#BitstreamVeraSans-Roman-4d"/>
     <use x="299.169921875" xlink:href="#BitstreamVeraSans-Roman-75"/>
     <use x="362.548828125" xlink:href="#BitstreamVeraSans-Roman-73"/>
     <use x="414.6484375" xlink:href="#BitstreamVeraSans-Roman-5f"/>
     <use x="464.6484375" xlink:href="#BitstreamVeraSans-Roman-70"/>
     <use x="528.125" xlink:href="#BitstreamVeraSans-Roman-65"/>
     <use x="589.6484375" xlink:href="#BitstreamVeraSans-Roman-70"/>
    </g>
   </g>
   <g id="text_30">
    <!-- braFlo_pep -->
    <g style="fill:#262626;" transform="translate(449.915364091 1760.8968242)scale(0.12 -0.12)">
     <use xlink:href="#BitstreamVeraSans-Roman-62"/>
     <use x="63.4765625" xlink:href="#BitstreamVeraSans-Roman-72"/>
     <use x="104.58984375" xlink:href="#BitstreamVeraSans-Roman-61"/>
     <use x="165.869140625" xlink:href="#BitstreamVeraSans-Roman-46"/>
     <use x="223.388671875" xlink:href="#BitstreamVeraSans-Roman-6c"/>
     <use x="251.171875" xlink:href="#BitstreamVeraSans-Roman-6f"/>
     <use x="312.353515625" xlink:href="#BitstreamVeraSans-Roman-5f"/>
     <use x="362.353515625" xlink:href="#BitstreamVeraSans-Roman-70"/>
     <use x="425.830078125" xlink:href="#BitstreamVeraSans-Roman-65"/>
     <use x="487.353515625" xlink:href="#BitstreamVeraSans-Roman-70"/>
    </g>
   </g>
  </g>
  <g id="axes_4">
   <g id="patch_32">
    <path clip-path="url(#p83f5e5c92c)" d="
M586.2 2248.31
C583.311 2228.56 575.007 2210 562.213 2194.68
C549.419 2179.37 532.628 2167.89 513.712 2161.53
C494.795 2155.18 474.481 2154.18 455.034 2158.66
C435.587 2163.14 417.756 2172.93 403.529 2186.92
C388.127 2196.6 375.094 2209.62 365.397 2225.01
C355.699 2240.4 349.582 2257.77 347.498 2275.84
C345.414 2293.91 347.416 2312.22 353.356 2329.42
C359.295 2346.61 369.023 2362.25 381.817 2375.18
C394.611 2388.11 410.148 2398.01 427.278 2404.13
C444.407 2410.25 462.695 2412.45 480.787 2410.56
C498.879 2408.66 516.317 2402.73 531.81 2393.2
C547.302 2383.67 560.457 2370.77 570.3 2355.47
C559.075 2385.86 542.357 2413.92 520.98 2438.26
C499.603 2462.6 473.93 2482.8 445.246 2497.85
C416.561 2512.9 385.352 2522.54 353.178 2526.3
C321.004 2530.06 288.411 2527.87 257.03 2519.84
C225.649 2511.81 196.011 2498.07 169.599 2479.32
C143.187 2460.56 120.449 2437.11 102.523 2410.13
C84.5958 2383.15 71.7841 2353.1 64.7282 2321.49
C57.6723 2289.87 56.4919 2257.23 61.2461 2225.18
C66.0003 2193.14 76.6084 2162.25 92.5399 2134.04
C108.471 2105.84 129.456 2080.8 154.444 2060.19
C179.433 2039.58 208.001 2023.74 238.72 2013.46
C269.439 2003.18 301.789 1998.64 334.15 2000.07
C366.512 2001.49 398.336 2008.86 428.033 2021.8
C457.729 2034.74 484.794 2053.03 507.872 2075.76
C530.951 2098.49 549.653 2125.27 563.042 2154.77
C576.432 2184.27 584.282 2215.97 586.2 2248.31" style="fill:#ff0000;opacity:0.4;"/>
   </g>
   <g id="patch_33">
    <path clip-path="url(#p83f5e5c92c)" d="
M587.314 2266.23
C587.212 2265.71 587.106 2265.2 586.998 2264.68
C586.889 2264.17 586.777 2263.65 586.662 2263.14
C586.654 2260.67 586.612 2258.19 586.535 2255.72
C586.458 2253.25 586.346 2250.78 586.2 2248.31
C586.633 2251.28 586.944 2254.26 587.129 2257.25
C587.315 2260.24 587.377 2263.23 587.314 2266.23" style="fill:#008000;opacity:0.4;"/>
   </g>
   <g id="patch_34">
    <path clip-path="url(#p83f5e5c92c)" d="
M586.2 2248.31
C583.311 2228.56 575.007 2210 562.213 2194.68
C549.419 2179.37 532.628 2167.89 513.712 2161.53
C494.795 2155.18 474.481 2154.18 455.034 2158.66
C435.587 2163.14 417.756 2172.93 403.529 2186.92
C419.982 2176.58 438.68 2170.34 458.045 2168.72
C477.411 2167.1 496.885 2170.16 514.826 2177.62
C532.767 2185.09 548.657 2196.76 561.156 2211.64
C573.656 2226.52 582.403 2244.18 586.662 2263.14
C586.654 2260.67 586.612 2258.19 586.535 2255.72
C586.458 2253.25 586.346 2250.78 586.2 2248.31" style="fill:#b25900;opacity:0.4;"/>
   </g>
   <g id="patch_35">
    <path clip-path="url(#p83f5e5c92c)" d="
M570.3 2355.47
C574.795 2343.3 578.388 2330.82 581.049 2318.12
C583.71 2305.42 585.432 2292.54 586.2 2279.59
C586.523 2277.38 586.778 2275.15 586.964 2272.93
C587.15 2270.7 587.266 2268.46 587.314 2266.23
C590.329 2281.5 590.381 2297.21 587.465 2312.5
C584.55 2327.79 578.722 2342.38 570.3 2355.47" style="fill:#0000ff;opacity:0.4;"/>
   </g>
   <g id="patch_36">
    <path clip-path="url(#p83f5e5c92c)" d="
M570.3 2355.47
C574.795 2343.3 578.388 2330.82 581.049 2318.12
C583.71 2305.42 585.432 2292.54 586.2 2279.59
C583.719 2296.55 577.236 2312.68 567.29 2326.64
C557.344 2340.6 544.217 2352 528.997 2359.88
C513.777 2367.77 496.897 2371.92 479.755 2371.99
C462.614 2372.07 445.699 2368.06 430.412 2360.31
C415.125 2352.55 401.901 2341.27 391.835 2327.39
C381.77 2313.52 375.15 2297.44 372.523 2280.5
C369.897 2263.57 371.339 2246.24 376.73 2229.97
C382.121 2213.7 391.308 2198.94 403.529 2186.92
C388.127 2196.6 375.094 2209.62 365.397 2225.01
C355.699 2240.4 349.582 2257.77 347.498 2275.84
C345.414 2293.91 347.416 2312.22 353.356 2329.42
C359.295 2346.61 369.023 2362.25 381.817 2375.18
C394.611 2388.11 410.148 2398.01 427.278 2404.13
C444.407 2410.25 462.695 2412.45 480.787 2410.56
C498.879 2408.66 516.317 2402.73 531.81 2393.2
C547.302 2383.67 560.457 2370.77 570.3 2355.47" style="fill:#b200b2;opacity:0.4;"/>
   </g>
   <g id="patch_37">
    <path clip-path="url(#p83f5e5c92c)" d="
M587.314 2266.23
C587.212 2265.71 587.106 2265.2 586.998 2264.68
C586.889 2264.17 586.777 2263.65 586.662 2263.14
C586.67 2265.88 586.636 2268.63 586.559 2271.37
C586.482 2274.11 586.362 2276.85 586.2 2279.59
C586.523 2277.38 586.778 2275.15 586.964 2272.93
C587.15 2270.7 587.266 2268.46 587.314 2266.23" style="fill:#0059b2;opacity:0.4;"/>
   </g>
   <g id="patch_38">
    <path clip-path="url(#p83f5e5c92c)" d="
M586.2 2279.59
C586.362 2276.85 586.482 2274.11 586.559 2271.37
C586.636 2268.63 586.67 2265.88 586.662 2263.14
C582.403 2244.18 573.656 2226.52 561.156 2211.64
C548.657 2196.76 532.767 2185.09 514.826 2177.62
C496.885 2170.16 477.411 2167.1 458.045 2168.72
C438.68 2170.34 419.982 2176.58 403.529 2186.92
C391.308 2198.94 382.121 2213.7 376.73 2229.97
C371.339 2246.24 369.897 2263.57 372.523 2280.5
C375.15 2297.44 381.77 2313.52 391.835 2327.39
C401.901 2341.27 415.125 2352.55 430.412 2360.31
C445.699 2368.06 462.614 2372.07 479.755 2371.99
C496.897 2371.92 513.777 2367.77 528.997 2359.88
C544.217 2352 557.344 2340.6 567.29 2326.64
C577.236 2312.68 583.719 2296.55 586.2 2279.59" style="fill:#663366;opacity:0.4;"/>
   </g>
   <g id="patch_39">
    <path clip-path="url(#p83f5e5c92c)" d="
M322.524 2528.09
C392.575 2528.09 459.766 2500.26 509.299 2450.72
C558.832 2401.19 586.663 2334 586.663 2263.95
C586.663 2193.9 558.832 2126.71 509.299 2077.18
C459.766 2027.64 392.575 1999.81 322.524 1999.81
C252.474 1999.81 185.283 2027.64 135.75 2077.18
C86.2171 2126.71 58.3858 2193.9 58.3858 2263.95
C58.3858 2334 86.2171 2401.19 135.75 2450.72
C185.283 2500.26 252.474 2528.09 322.524 2528.09
z
" style="fill:none;stroke:#000000;stroke-dasharray:6.000000,6.000000;stroke-dashoffset:0.0;stroke-width:0.5;"/>
   </g>
   <g id="patch_40">
    <path clip-path="url(#p83f5e5c92c)" d="
M479.293 2371.99
C507.947 2371.99 535.431 2360.61 555.692 2340.35
C575.953 2320.09 587.338 2292.6 587.338 2263.95
C587.338 2235.3 575.953 2207.81 555.692 2187.55
C535.431 2167.29 507.947 2155.91 479.293 2155.91
C450.639 2155.91 423.155 2167.29 402.893 2187.55
C382.632 2207.81 371.248 2235.3 371.248 2263.95
C371.248 2292.6 382.632 2320.09 402.893 2340.35
C423.155 2360.61 450.639 2371.99 479.293 2371.99
z
" style="fill:none;stroke:#000000;stroke-dasharray:6.000000,6.000000;stroke-dashoffset:0.0;stroke-width:0.5;"/>
   </g>
   <g id="patch_41">
    <path clip-path="url(#p83f5e5c92c)" d="
M468.156 2411.22
C500.367 2411.22 531.263 2398.42 554.04 2375.64
C576.817 2352.86 589.614 2321.97 589.614 2289.76
C589.614 2257.55 576.817 2226.65 554.04 2203.87
C531.263 2181.1 500.367 2168.3 468.156 2168.3
C435.945 2168.3 405.049 2181.1 382.272 2203.87
C359.496 2226.65 346.698 2257.55 346.698 2289.76
C346.698 2321.97 359.496 2352.86 382.272 2375.64
C405.049 2398.42 435.945 2411.22 468.156 2411.22
z
" style="fill:none;stroke:#000000;stroke-dasharray:6.000000,6.000000;stroke-dashoffset:0.0;stroke-width:0.5;"/>
   </g>
   <g id="text_31">
    <!-- 441592 -->
    <g style="fill:#262626;" transform="translate(253.357291309 2132.79199864)scale(0.1 -0.1)">
     <use xlink:href="#BitstreamVeraSans-Roman-34"/>
     <use x="63.623046875" xlink:href="#BitstreamVeraSans-Roman-34"/>
     <use x="127.24609375" xlink:href="#BitstreamVeraSans-Roman-31"/>
     <use x="190.869140625" xlink:href="#BitstreamVeraSans-Roman-35"/>
     <use x="254.4921875" xlink:href="#BitstreamVeraSans-Roman-39"/>
     <use x="318.115234375" xlink:href="#BitstreamVeraSans-Roman-32"/>
    </g>
   </g>
   <g id="text_32">
    <!-- 11 -->
    <g style="fill:#262626;" transform="translate(581.60798419 2264.22044724)scale(0.1 -0.1)">
     <use xlink:href="#BitstreamVeraSans-Roman-31"/>
     <use x="63.623046875" xlink:href="#BitstreamVeraSans-Roman-31"/>
    </g>
   </g>
   <g id="text_33">
    <!-- 5837 -->
    <g style="fill:#262626;" transform="translate(572.565954776 2251.67479204)scale(0.1 -0.1)">
     <use xlink:href="#BitstreamVeraSans-Roman-35"/>
     <use x="63.623046875" xlink:href="#BitstreamVeraSans-Roman-38"/>
     <use x="127.24609375" xlink:href="#BitstreamVeraSans-Roman-33"/>
     <use x="190.869140625" xlink:href="#BitstreamVeraSans-Roman-37"/>
    </g>
   </g>
   <g id="text_34">
    <!-- 17988 -->
    <g style="fill:#262626;" transform="translate(571.184917229 2301.73087449)scale(0.1 -0.1)">
     <use xlink:href="#BitstreamVeraSans-Roman-31"/>
     <use x="63.623046875" xlink:href="#BitstreamVeraSans-Roman-37"/>
     <use x="127.24609375" xlink:href="#BitstreamVeraSans-Roman-39"/>
     <use x="190.869140625" xlink:href="#BitstreamVeraSans-Roman-38"/>
     <use x="254.4921875" xlink:href="#BitstreamVeraSans-Roman-38"/>
    </g>
   </g>
   <g id="text_35">
    <!-- 11887 -->
    <g style="fill:#262626;" transform="translate(547.957519277 2350.77963237)scale(0.1 -0.1)">
     <use xlink:href="#BitstreamVeraSans-Roman-31"/>
     <use x="63.623046875" xlink:href="#BitstreamVeraSans-Roman-31"/>
     <use x="127.24609375" xlink:href="#BitstreamVeraSans-Roman-38"/>
     <use x="190.869140625" xlink:href="#BitstreamVeraSans-Roman-38"/>
     <use x="254.4921875" xlink:href="#BitstreamVeraSans-Roman-37"/>
    </g>
   </g>
   <g id="text_36">
    <!-- 24 -->
    <g style="fill:#262626;" transform="translate(581.267848781 2268.9857682)scale(0.1 -0.1)">
     <use xlink:href="#BitstreamVeraSans-Roman-32"/>
     <use x="63.623046875" xlink:href="#BitstreamVeraSans-Roman-34"/>
    </g>
   </g>
   <g id="text_37">
    <!-- 85243 -->
    <g style="fill:#262626;" transform="translate(510.297013551 2245.97622595)scale(0.1 -0.1)">
     <use xlink:href="#BitstreamVeraSans-Roman-38"/>
     <use x="63.623046875" xlink:href="#BitstreamVeraSans-Roman-35"/>
     <use x="127.24609375" xlink:href="#BitstreamVeraSans-Roman-32"/>
     <use x="190.869140625" xlink:href="#BitstreamVeraSans-Roman-34"/>
     <use x="254.4921875" xlink:href="#BitstreamVeraSans-Roman-33"/>
    </g>
   </g>
   <g id="text_38">
    <!-- petMar2 -->
    <g style="fill:#262626;" transform="translate(142.764514013 1999.8113232)scale(0.12 -0.12)">
     <use xlink:href="#BitstreamVeraSans-Roman-70"/>
     <use x="63.4765625" xlink:href="#BitstreamVeraSans-Roman-65"/>
     <use x="125.0" xlink:href="#BitstreamVeraSans-Roman-74"/>
     <use x="164.208984375" xlink:href="#BitstreamVeraSans-Roman-4d"/>
     <use x="250.48828125" xlink:href="#BitstreamVeraSans-Roman-61"/>
     <use x="311.767578125" xlink:href="#BitstreamVeraSans-Roman-72"/>
     <use x="352.880859375" xlink:href="#BitstreamVeraSans-Roman-32"/>
    </g>
   </g>
   <g id="text_39">
    <!-- petMar2_cds -->
    <defs>
     <path d="
M48.7812 52.5938
L48.7812 44.1875
Q44.9688 46.2969 41.1406 47.3438
Q37.3125 48.3906 33.4062 48.3906
Q24.6562 48.3906 19.8125 42.8438
Q14.9844 37.3125 14.9844 27.2969
Q14.9844 17.2812 19.8125 11.7344
Q24.6562 6.20312 33.4062 6.20312
Q37.3125 6.20312 41.1406 7.25
Q44.9688 8.29688 48.7812 10.4062
L48.7812 2.09375
Q45.0156 0.34375 40.9844 -0.53125
Q36.9688 -1.42188 32.4219 -1.42188
Q20.0625 -1.42188 12.7812 6.34375
Q5.51562 14.1094 5.51562 27.2969
Q5.51562 40.6719 12.8594 48.3281
Q20.2188 56 33.0156 56
Q37.1562 56 41.1094 55.1406
Q45.0625 54.2969 48.7812 52.5938" id="BitstreamVeraSans-Roman-63"/>
    </defs>
    <g style="fill:#262626;" transform="translate(533.315147064 2155.9050513)scale(0.12 -0.12)">
     <use xlink:href="#BitstreamVeraSans-Roman-70"/>
     <use x="63.4765625" xlink:href="#BitstreamVeraSans-Roman-65"/>
     <use x="125.0" xlink:href="#BitstreamVeraSans-Roman-74"/>
     <use x="164.208984375" xlink:href="#BitstreamVeraSans-Roman-4d"/>
     <use x="250.48828125" xlink:href="#BitstreamVeraSans-Roman-61"/>
     <use x="311.767578125" xlink:href="#BitstreamVeraSans-Roman-72"/>
     <use x="352.880859375" xlink:href="#BitstreamVeraSans-Roman-32"/>
     <use x="416.50390625" xlink:href="#BitstreamVeraSans-Roman-5f"/>
     <use x="466.50390625" xlink:href="#BitstreamVeraSans-Roman-63"/>
     <use x="521.484375" xlink:href="#BitstreamVeraSans-Roman-64"/>
     <use x="584.9609375" xlink:href="#BitstreamVeraSans-Roman-73"/>
    </g>
   </g>
   <g id="text_40">
    <!-- petMar2_pep -->
    <g style="fill:#262626;" transform="translate(429.72799418 2432.26733921)scale(0.12 -0.12)">
     <use xlink:href="#BitstreamVeraSans-Roman-70"/>
     <use x="63.4765625" xlink:href="#BitstreamVeraSans-Roman-65"/>
     <use x="125.0" xlink:href="#BitstreamVeraSans-Roman-74"/>
     <use x="164.208984375" xlink:href="#BitstreamVeraSans-Roman-4d"/>
     <use x="250.48828125" xlink:href="#BitstreamVeraSans-Roman-61"/>
     <use x="311.767578125" xlink:href="#BitstreamVeraSans-Roman-72"/>
     <use x="352.880859375" xlink:href="#BitstreamVeraSans-Roman-32"/>
     <use x="416.50390625" xlink:href="#BitstreamVeraSans-Roman-5f"/>
     <use x="466.50390625" xlink:href="#BitstreamVeraSans-Roman-70"/>
     <use x="529.98046875" xlink:href="#BitstreamVeraSans-Roman-65"/>
     <use x="591.50390625" xlink:href="#BitstreamVeraSans-Roman-70"/>
    </g>
   </g>
  </g>
 </g>
 <defs>
  <clipPath id="p245617fa69">
   <rect height="571.065391517" width="626.4" x="10.8" y="1333.11730424"/>
  </clipPath>
  <clipPath id="p83f5e5c92c">
   <rect height="623.448954827" width="626.4" x="10.8" y="1952.22552259"/>
  </clipPath>
  <clipPath id="p665c797aac">
   <rect height="627.054054785" width="626.4" x="10.8" y="14.5229726076"/>
  </clipPath>
  <clipPath id="p866a9e6674">
   <rect height="571.769773019" width="626.4" x="10.8" y="687.46511349"/>
  </clipPath>
 </defs>
</svg>
