<?xml version="1.0" encoding="utf-8" standalone="no"?>
<!DOCTYPE svg PUBLIC "-//W3C//DTD SVG 1.1//EN"
  "http://www.w3.org/Graphics/SVG/1.1/DTD/svg11.dtd">
<!-- Created with matplotlib (http://matplotlib.org/) -->
<svg height="2592pt" version="1.1" viewBox="0 0 648 2592" width="648pt" xmlns="http://www.w3.org/2000/svg" xmlns:xlink="http://www.w3.org/1999/xlink">
 <defs>
  <style type="text/css">
*{stroke-linecap:butt;stroke-linejoin:round;}
  </style>
 </defs>
 <g id="figure_1">
  <g id="patch_1">
   <path d="
M0 2592
L648 2592
L648 0
L0 0
z
" style="fill:#ffffff;"/>
  </g>
  <g id="axes_1">
   <g id="patch_2">
    <path clip-path="url(#p665c797aac)" d="
M304.091 62.9839
C267.605 66.8864 232.365 78.5099 200.717 97.0798
C169.07 115.65 141.734 140.744 120.531 170.692
C99.3276 200.639 84.7391 234.759 77.737 270.778
C70.735 306.797 71.4785 343.898 79.9179 379.608
C81.7135 397.472 85.5176 415.077 91.258 432.089
C96.9985 449.101 104.639 465.412 114.034 480.712
C84.3894 443.58 65.5979 398.955 59.7506 351.802
C53.9032 304.65 61.2254 256.786 80.9023 213.538
C100.579 170.29 131.853 133.324 171.242 106.753
C210.632 80.1822 256.621 65.0304 304.091 62.9839" style="fill:#ff0000;opacity:0.4;"/>
   </g>
   <g id="patch_3">
    <path clip-path="url(#p665c797aac)" d="
M475.185 535.212
C488.2 523.785 499.933 510.976 510.178 497.012
C520.422 483.047 529.118 468.01 536.111 452.165
C559.938 412.296 572.534 366.712 572.559 320.266
C572.584 273.82 560.037 228.222 536.253 188.327
C512.469 148.433 478.324 115.711 437.454 93.6456
C396.584 71.58 350.494 60.9833 304.091 62.9839
C361.6 56.8325 419.543 70.148 468.597 100.788
C517.652 131.428 555.037 177.656 574.739 232.034
C594.441 286.412 595.342 345.858 577.298 400.809
C559.255 455.759 523.288 503.099 475.185 535.212" style="fill:#008000;opacity:0.4;"/>
   </g>
   <g id="patch_4">
    <path clip-path="url(#p665c797aac)" d="
M304.091 62.9839
C267.605 66.8864 232.365 78.5099 200.717 97.0798
C169.07 115.65 141.734 140.744 120.531 170.692
C99.3276 200.639 84.7391 234.759 77.737 270.778
C70.735 306.797 71.4785 343.898 79.9179 379.608
C76.2618 343.232 81.0049 306.499 93.7808 272.245
C106.557 237.991 127.028 207.124 153.612 182.028
C180.195 156.931 212.19 138.27 247.121 127.485
C282.053 116.701 318.999 114.078 355.103 119.821
C391.208 125.563 425.517 139.519 455.379 160.609
C485.242 181.699 509.867 209.365 527.353 241.471
C544.839 273.576 554.723 309.272 556.241 345.799
C557.76 382.326 550.872 418.719 536.111 452.165
C559.938 412.296 572.534 366.712 572.559 320.266
C572.584 273.82 560.037 228.222 536.253 188.327
C512.469 148.433 478.324 115.711 437.454 93.6456
C396.584 71.58 350.494 60.9833 304.091 62.9839" style="fill:#b25900;opacity:0.4;"/>
   </g>
   <g id="patch_5">
    <path clip-path="url(#p665c797aac)" d="
M114.034 480.712
C136.976 509.449 165.812 532.938 198.595 549.594
C231.379 566.249 267.353 575.688 304.091 577.271
C333.96 580.466 364.159 578.433 393.33 571.262
C422.501 564.091 450.201 551.891 475.185 535.212
C449.047 558.163 418.208 575.129 384.83 584.922
C351.453 594.714 316.336 597.099 281.941 591.909
C247.547 586.718 214.697 574.077 185.696 554.871
C156.695 535.665 132.236 510.354 114.034 480.712" style="fill:#0000ff;opacity:0.4;"/>
   </g>
   <g id="patch_6">
    <path clip-path="url(#p665c797aac)" d="
M114.034 480.712
C136.976 509.449 165.812 532.938 198.595 549.594
C231.379 566.249 267.353 575.688 304.091 577.271
C250.87 571.579 200.706 549.501 160.559 514.102
C120.412 478.702 92.2285 431.697 79.9179 379.608
C81.7135 397.472 85.5176 415.077 91.258 432.089
C96.9985 449.101 104.639 465.412 114.034 480.712" style="fill:#b200b2;opacity:0.4;"/>
   </g>
   <g id="patch_7">
    <path clip-path="url(#p665c797aac)" d="
M475.185 535.212
C488.2 523.785 499.933 510.976 510.178 497.012
C520.422 483.047 529.118 468.01 536.111 452.165
C512.308 491.993 478.173 524.654 437.332 546.675
C396.492 568.697 350.447 579.27 304.091 577.271
C333.96 580.466 364.159 578.433 393.33 571.262
C422.501 564.091 450.201 551.891 475.185 535.212" style="fill:#0059b2;opacity:0.4;"/>
   </g>
   <g id="patch_8">
    <path clip-path="url(#p665c797aac)" d="
M304.091 577.271
C350.447 579.27 396.492 568.697 437.332 546.675
C478.173 524.654 512.308 491.993 536.111 452.165
C550.872 418.719 557.76 382.326 556.241 345.799
C554.723 309.272 544.839 273.576 527.353 241.471
C509.867 209.365 485.242 181.699 455.379 160.609
C425.517 139.519 391.208 125.563 355.103 119.821
C318.999 114.078 282.053 116.701 247.121 127.485
C212.19 138.27 180.195 156.931 153.612 182.028
C127.028 207.124 106.557 237.991 93.7808 272.245
C81.0049 306.499 76.2618 343.232 79.9179 379.608
C92.2285 431.697 120.412 478.702 160.559 514.102
C200.706 549.501 250.87 571.579 304.091 577.271" style="fill:#663366;opacity:0.4;"/>
   </g>
   <g id="patch_9">
    <path clip-path="url(#p665c797aac)" d="
M315.177 577.51
C383.435 577.51 448.908 550.391 497.174 502.125
C545.44 453.858 572.559 388.386 572.559 320.128
C572.559 251.869 545.44 186.397 497.174 138.131
C448.908 89.8645 383.435 62.745 315.177 62.745
C246.918 62.745 181.446 89.8645 133.18 138.131
C84.9135 186.397 57.7941 251.869 57.7941 320.128
C57.7941 388.386 84.9135 453.858 133.18 502.125
C181.446 550.391 246.918 577.51 315.177 577.51
z
" style="fill:none;stroke:#000000;stroke-dasharray:6.000000,6.000000;stroke-dashoffset:0.0;stroke-width:0.5;"/>
   </g>
   <g id="patch_10">
    <path clip-path="url(#p665c797aac)" d="
M331.595 578.738
C400.18 578.738 465.964 551.489 514.461 502.993
C562.957 454.496 590.206 388.712 590.206 320.128
C590.206 251.543 562.957 185.759 514.461 137.262
C465.964 88.7659 400.18 61.5171 331.595 61.5171
C263.011 61.5171 197.227 88.7659 148.73 137.262
C100.234 185.759 72.9848 251.543 72.9848 320.128
C72.9848 388.712 100.234 454.496 148.73 502.993
C197.227 551.489 263.011 578.738 331.595 578.738
z
" style="fill:none;stroke:#000000;stroke-dasharray:6.000000,6.000000;stroke-dashoffset:0.0;stroke-width:0.5;"/>
   </g>
   <g id="patch_11">
    <path clip-path="url(#p665c797aac)" d="
M317.584 594.583
C380.931 594.583 441.693 569.415 486.486 524.621
C531.279 479.828 556.448 419.067 556.448 355.719
C556.448 292.372 531.279 231.611 486.486 186.817
C441.693 142.024 380.931 116.856 317.584 116.856
C254.237 116.856 193.475 142.024 148.682 186.817
C103.889 231.611 78.7204 292.372 78.7204 355.719
C78.7204 419.067 103.889 479.828 148.682 524.621
C193.475 569.415 254.237 594.583 317.584 594.583
z
" style="fill:none;stroke:#000000;stroke-dasharray:6.000000,6.000000;stroke-dashoffset:0.0;stroke-width:0.5;"/>
   </g>
   <g id="text_1">
    <!-- 2713 -->
    <defs>
     <path d="
M37.25 0
L28.4688 0
L28.4688 56
Q25.2969 52.9844 20.1406 49.9531
Q14.9844 46.9219 10.8906 45.4062
L10.8906 53.9062
Q18.2656 57.375 23.7812 62.2969
Q29.2969 67.2344 31.5938 71.875
L37.25 71.875
z
" id="ArialMT-31"/>
     <path d="
M50.3438 8.45312
L50.3438 0
L3.03125 0
Q2.9375 3.17188 4.04688 6.10938
Q5.85938 10.9375 9.82812 15.625
Q13.8125 20.3125 21.3438 26.4688
Q33.0156 36.0312 37.1094 41.625
Q41.2188 47.2188 41.2188 52.2031
Q41.2188 57.4219 37.4688 61
Q33.7344 64.5938 27.7344 64.5938
Q21.3906 64.5938 17.5781 60.7812
Q13.7656 56.9844 13.7188 50.25
L4.6875 51.1719
Q5.60938 61.2812 11.6562 66.5781
Q17.7188 71.875 27.9375 71.875
Q38.2344 71.875 44.2344 66.1562
Q50.25 60.4531 50.25 52
Q50.25 47.7031 48.4844 43.5469
Q46.7344 39.4062 42.6562 34.8125
Q38.5781 30.2188 29.1094 22.2188
Q21.1875 15.5781 18.9375 13.2031
Q16.7031 10.8438 15.2344 8.45312
z
" id="ArialMT-32"/>
     <path d="
M4.20312 18.8906
L12.9844 20.0625
Q14.5 12.5938 18.1406 9.29688
Q21.7812 6 27 6
Q33.2031 6 37.4688 10.2969
Q41.75 14.5938 41.75 20.9531
Q41.75 27 37.7969 30.9219
Q33.8438 34.8594 27.7344 34.8594
Q25.25 34.8594 21.5312 33.8906
L22.5156 41.6094
Q23.3906 41.5 23.9219 41.5
Q29.5469 41.5 34.0312 44.4219
Q38.5312 47.3594 38.5312 53.4688
Q38.5312 58.2969 35.25 61.4688
Q31.9844 64.6562 26.8125 64.6562
Q21.6875 64.6562 18.2656 61.4219
Q14.8438 58.2031 13.875 51.7656
L5.07812 53.3281
Q6.6875 62.1562 12.3906 67.0156
Q18.1094 71.875 26.6094 71.875
Q32.4688 71.875 37.3906 69.3594
Q42.3281 66.8438 44.9375 62.5
Q47.5625 58.1562 47.5625 53.2656
Q47.5625 48.6406 45.0625 44.8281
Q42.5781 41.0156 37.7031 38.7656
Q44.0469 37.3125 47.5625 32.6875
Q51.0781 28.0781 51.0781 21.1406
Q51.0781 11.7656 44.2344 5.25
Q37.4062 -1.26562 26.9531 -1.26562
Q17.5312 -1.26562 11.2969 4.34375
Q5.07812 9.96875 4.20312 18.8906" id="ArialMT-33"/>
     <path d="
M4.73438 62.2031
L4.73438 70.6562
L51.0781 70.6562
L51.0781 63.8125
Q44.2344 56.5469 37.5156 44.4844
Q30.8125 32.4219 27.1562 19.6719
Q24.5156 10.6875 23.7812 0
L14.75 0
Q14.8906 8.45312 18.0625 20.4062
Q21.2344 32.375 27.1719 43.4844
Q33.1094 54.5938 39.7969 62.2031
z
" id="ArialMT-37"/>
    </defs>
    <g style="fill:#262626;" transform="translate(60.8588813143 378.921123579)scale(0.1 -0.1)">
     <use xlink:href="#ArialMT-32"/>
     <use x="55.615234375" xlink:href="#ArialMT-37"/>
     <use x="111.23046875" xlink:href="#ArialMT-31"/>
     <use x="166.845703125" xlink:href="#ArialMT-33"/>
    </g>
   </g>
   <g id="text_2">
    <!-- 4186 -->
    <defs>
     <path d="
M17.6719 38.8125
Q12.2031 40.8281 9.5625 44.5312
Q6.9375 48.25 6.9375 53.4219
Q6.9375 61.2344 12.5469 66.5469
Q18.1719 71.875 27.4844 71.875
Q36.8594 71.875 42.5781 66.4219
Q48.2969 60.9844 48.2969 53.1719
Q48.2969 48.1875 45.6719 44.5
Q43.0625 40.8281 37.75 38.8125
Q44.3438 36.6719 47.7812 31.875
Q51.2188 27.0938 51.2188 20.4531
Q51.2188 11.2812 44.7188 5.03125
Q38.2344 -1.21875 27.6406 -1.21875
Q17.0469 -1.21875 10.5469 5.04688
Q4.04688 11.3281 4.04688 20.7031
Q4.04688 27.6875 7.59375 32.3906
Q11.1406 37.1094 17.6719 38.8125
M15.9219 53.7188
Q15.9219 48.6406 19.1875 45.4062
Q22.4688 42.1875 27.6875 42.1875
Q32.7656 42.1875 36.0156 45.375
Q39.2656 48.5781 39.2656 53.2188
Q39.2656 58.0625 35.9062 61.3594
Q32.5625 64.6562 27.5938 64.6562
Q22.5625 64.6562 19.2344 61.4219
Q15.9219 58.2031 15.9219 53.7188
M13.0938 20.6562
Q13.0938 16.8906 14.875 13.375
Q16.6562 9.85938 20.1719 7.92188
Q23.6875 6 27.7344 6
Q34.0312 6 38.125 10.0469
Q42.2344 14.1094 42.2344 20.3594
Q42.2344 26.7031 38.0156 30.8594
Q33.7969 35.0156 27.4375 35.0156
Q21.2344 35.0156 17.1562 30.9062
Q13.0938 26.8125 13.0938 20.6562" id="ArialMT-38"/>
     <path d="
M32.3281 0
L32.3281 17.1406
L1.26562 17.1406
L1.26562 25.2031
L33.9375 71.5781
L41.1094 71.5781
L41.1094 25.2031
L50.7812 25.2031
L50.7812 17.1406
L41.1094 17.1406
L41.1094 0
z

M32.3281 25.2031
L32.3281 57.4688
L9.90625 25.2031
z
" id="ArialMT-34"/>
     <path d="
M49.75 54.0469
L41.0156 53.375
Q39.8438 58.5469 37.7031 60.8906
Q34.125 64.6562 28.9062 64.6562
Q24.7031 64.6562 21.5312 62.3125
Q17.3906 59.2812 14.9844 53.4688
Q12.5938 47.6562 12.5 36.9219
Q15.6719 41.75 20.2656 44.0938
Q24.8594 46.4375 29.8906 46.4375
Q38.6719 46.4375 44.8438 39.9688
Q51.0312 33.5 51.0312 23.25
Q51.0312 16.5 48.125 10.7188
Q45.2188 4.9375 40.1406 1.85938
Q35.0625 -1.21875 28.6094 -1.21875
Q17.625 -1.21875 10.6875 6.85938
Q3.76562 14.9375 3.76562 33.5
Q3.76562 54.25 11.4219 63.6719
Q18.1094 71.875 29.4375 71.875
Q37.8906 71.875 43.2812 67.1406
Q48.6875 62.4062 49.75 54.0469
M13.875 23.1875
Q13.875 18.6562 15.7969 14.5
Q17.7188 10.3594 21.1875 8.17188
Q24.6562 6 28.4688 6
Q34.0312 6 38.0312 10.4844
Q42.0469 14.9844 42.0469 22.7031
Q42.0469 30.125 38.0781 34.3906
Q34.125 38.6719 28.125 38.6719
Q22.1719 38.6719 18.0156 34.3906
Q13.875 30.125 13.875 23.1875" id="ArialMT-36"/>
    </defs>
    <g style="fill:#262626;" transform="translate(534.576220102 454.121335753)scale(0.1 -0.1)">
     <use xlink:href="#ArialMT-34"/>
     <use x="55.615234375" xlink:href="#ArialMT-31"/>
     <use x="111.23046875" xlink:href="#ArialMT-38"/>
     <use x="166.845703125" xlink:href="#ArialMT-36"/>
    </g>
   </g>
   <g id="text_3">
    <!-- 17886 -->
    <g style="fill:#262626;" transform="translate(292.209162002 92.631660877)scale(0.1 -0.1)">
     <use xlink:href="#ArialMT-31"/>
     <use x="55.615234375" xlink:href="#ArialMT-37"/>
     <use x="111.23046875" xlink:href="#ArialMT-38"/>
     <use x="166.845703125" xlink:href="#ArialMT-38"/>
     <use x="222.4609375" xlink:href="#ArialMT-36"/>
    </g>
   </g>
   <g id="text_4">
    <!-- 1929 -->
    <defs>
     <path d="
M5.46875 16.5469
L13.9219 17.3281
Q14.9844 11.375 18.0156 8.6875
Q21.0469 6 25.7812 6
Q29.8281 6 32.875 7.85938
Q35.9375 9.71875 37.8906 12.8125
Q39.8438 15.9219 41.1562 21.1875
Q42.4844 26.4688 42.4844 31.9375
Q42.4844 32.5156 42.4375 33.6875
Q39.7969 29.5 35.2344 26.875
Q30.6719 24.2656 25.3438 24.2656
Q16.4531 24.2656 10.2969 30.7031
Q4.15625 37.1562 4.15625 47.7031
Q4.15625 58.5938 10.5781 65.2344
Q17 71.875 26.6562 71.875
Q33.6406 71.875 39.4219 68.1094
Q45.2188 64.3594 48.2188 57.3906
Q51.2188 50.4375 51.2188 37.25
Q51.2188 23.5312 48.2344 15.4062
Q45.2656 7.28125 39.375 3.03125
Q33.5 -1.21875 25.5938 -1.21875
Q17.1875 -1.21875 11.8594 3.4375
Q6.54688 8.10938 5.46875 16.5469
M41.4531 48.1406
Q41.4531 55.7188 37.4219 60.1562
Q33.4062 64.5938 27.7344 64.5938
Q21.875 64.5938 17.5312 59.8125
Q13.1875 55.0312 13.1875 47.4062
Q13.1875 40.5781 17.3125 36.2969
Q21.4375 32.0312 27.4844 32.0312
Q33.5938 32.0312 37.5156 36.2969
Q41.4531 40.5781 41.4531 48.1406" id="ArialMT-39"/>
    </defs>
    <g style="fill:#262626;" transform="translate(293.732833626 588.321596047)scale(0.1 -0.1)">
     <use xlink:href="#ArialMT-31"/>
     <use x="55.615234375" xlink:href="#ArialMT-39"/>
     <use x="111.23046875" xlink:href="#ArialMT-32"/>
     <use x="166.845703125" xlink:href="#ArialMT-39"/>
    </g>
   </g>
   <g id="text_5">
    <!-- 1755 -->
    <defs>
     <path d="
M4.15625 18.75
L13.375 19.5312
Q14.4062 12.7969 18.1406 9.39062
Q21.875 6 27.1562 6
Q33.5 6 37.8906 10.7812
Q42.2812 15.5781 42.2812 23.4844
Q42.2812 31 38.0625 35.3438
Q33.8438 39.7031 27 39.7031
Q22.75 39.7031 19.3281 37.7656
Q15.9219 35.8438 13.9688 32.7656
L5.71875 33.8438
L12.6406 70.6094
L48.25 70.6094
L48.25 62.2031
L19.6719 62.2031
L15.8281 42.9688
Q22.2656 47.4688 29.3438 47.4688
Q38.7188 47.4688 45.1562 40.9688
Q51.6094 34.4688 51.6094 24.2656
Q51.6094 14.5469 45.9531 7.46875
Q39.0625 -1.21875 27.1562 -1.21875
Q17.3906 -1.21875 11.2031 4.25
Q5.03125 9.71875 4.15625 18.75" id="ArialMT-35"/>
    </defs>
    <g style="fill:#262626;" transform="translate(108.40247395 479.794412034)scale(0.1 -0.1)">
     <use xlink:href="#ArialMT-31"/>
     <use x="55.615234375" xlink:href="#ArialMT-37"/>
     <use x="111.23046875" xlink:href="#ArialMT-35"/>
     <use x="166.845703125" xlink:href="#ArialMT-35"/>
    </g>
   </g>
   <g id="text_6">
    <!-- 1468 -->
    <g style="fill:#262626;" transform="translate(461.636203106 533.508154622)scale(0.1 -0.1)">
     <use xlink:href="#ArialMT-31"/>
     <use x="55.615234375" xlink:href="#ArialMT-34"/>
     <use x="111.23046875" xlink:href="#ArialMT-36"/>
     <use x="166.845703125" xlink:href="#ArialMT-38"/>
    </g>
   </g>
   <g id="text_7">
    <!-- 101646 -->
    <defs>
     <path d="
M4.15625 35.2969
Q4.15625 48 6.76562 55.7344
Q9.375 63.4844 14.5156 67.6719
Q19.6719 71.875 27.4844 71.875
Q33.25 71.875 37.5938 69.5469
Q41.9375 67.2344 44.7656 62.8594
Q47.6094 58.5 49.2188 52.2188
Q50.8281 45.9531 50.8281 35.2969
Q50.8281 22.7031 48.2344 14.9688
Q45.6562 7.23438 40.5 3
Q35.3594 -1.21875 27.4844 -1.21875
Q17.1406 -1.21875 11.2344 6.20312
Q4.15625 15.1406 4.15625 35.2969
M13.1875 35.2969
Q13.1875 17.6719 17.3125 11.8281
Q21.4375 6 27.4844 6
Q33.5469 6 37.6719 11.8594
Q41.7969 17.7188 41.7969 35.2969
Q41.7969 52.9844 37.6719 58.7812
Q33.5469 64.5938 27.3906 64.5938
Q21.3438 64.5938 17.7188 59.4688
Q13.1875 52.9375 13.1875 35.2969" id="ArialMT-30"/>
    </defs>
    <g style="fill:#262626;" transform="translate(290.797145524 472.266419846)scale(0.1 -0.1)">
     <use xlink:href="#ArialMT-31"/>
     <use x="55.615234375" xlink:href="#ArialMT-30"/>
     <use x="111.23046875" xlink:href="#ArialMT-31"/>
     <use x="166.845703125" xlink:href="#ArialMT-36"/>
     <use x="222.4609375" xlink:href="#ArialMT-34"/>
     <use x="278.076171875" xlink:href="#ArialMT-36"/>
    </g>
   </g>
   <g id="text_8">
    <!-- musMus_pep -->
    <defs>
     <path d="
M42.0938 16.7031
L51.1719 15.5781
Q49.0312 7.625 43.2188 3.21875
Q37.4062 -1.17188 28.375 -1.17188
Q17 -1.17188 10.3281 5.82812
Q3.65625 12.8438 3.65625 25.4844
Q3.65625 38.5781 10.3906 45.7969
Q17.1406 53.0312 27.875 53.0312
Q38.2812 53.0312 44.875 45.9531
Q51.4688 38.875 51.4688 26.0312
Q51.4688 25.25 51.4219 23.6875
L12.75 23.6875
Q13.2344 15.1406 17.5781 10.5938
Q21.9219 6.0625 28.4219 6.0625
Q33.25 6.0625 36.6719 8.59375
Q40.0938 11.1406 42.0938 16.7031
M13.2344 30.9062
L42.1875 30.9062
Q41.6094 37.4531 38.875 40.7188
Q34.6719 45.7969 27.9844 45.7969
Q21.9219 45.7969 17.7969 41.75
Q13.6719 37.7031 13.2344 30.9062" id="ArialMT-65"/>
     <path d="
M40.5781 0
L40.5781 7.625
Q34.5156 -1.17188 24.125 -1.17188
Q19.5312 -1.17188 15.5469 0.578125
Q11.5781 2.34375 9.64062 5
Q7.71875 7.67188 6.9375 11.5312
Q6.39062 14.1094 6.39062 19.7344
L6.39062 51.8594
L15.1875 51.8594
L15.1875 23.0938
Q15.1875 16.2188 15.7188 13.8125
Q16.5469 10.3594 19.2344 8.375
Q21.9219 6.39062 25.875 6.39062
Q29.8281 6.39062 33.2969 8.42188
Q36.7656 10.4531 38.2031 13.9375
Q39.6562 17.4375 39.6562 24.0781
L39.6562 51.8594
L48.4375 51.8594
L48.4375 0
z
" id="ArialMT-75"/>
     <path d="
M6.59375 -19.875
L6.59375 51.8594
L14.5938 51.8594
L14.5938 45.125
Q17.4375 49.0781 21 51.0469
Q24.5625 53.0312 29.6406 53.0312
Q36.2812 53.0312 41.3594 49.6094
Q46.4375 46.1875 49.0156 39.9531
Q51.6094 33.7344 51.6094 26.3125
Q51.6094 18.3594 48.75 11.9844
Q45.9062 5.60938 40.4531 2.21875
Q35.0156 -1.17188 29 -1.17188
Q24.6094 -1.17188 21.1094 0.6875
Q17.625 2.54688 15.375 5.375
L15.375 -19.875
z

M14.5469 25.6406
Q14.5469 15.625 18.5938 10.8438
Q22.6562 6.0625 28.4219 6.0625
Q34.2812 6.0625 38.4531 11.0156
Q42.625 15.9688 42.625 26.375
Q42.625 36.2812 38.5469 41.2031
Q34.4688 46.1406 28.8125 46.1406
Q23.1875 46.1406 18.8594 40.8906
Q14.5469 35.6406 14.5469 25.6406" id="ArialMT-70"/>
     <path d="
M3.07812 15.4844
L11.7656 16.8438
Q12.5 11.625 15.8438 8.84375
Q19.1875 6.0625 25.2031 6.0625
Q31.25 6.0625 34.1719 8.51562
Q37.1094 10.9844 37.1094 14.3125
Q37.1094 17.2812 34.5156 19
Q32.7188 20.1719 25.5312 21.9688
Q15.875 24.4219 12.1406 26.2031
Q8.40625 27.9844 6.46875 31.125
Q4.54688 34.2812 4.54688 38.0938
Q4.54688 41.5469 6.125 44.5
Q7.71875 47.4688 10.4531 49.4219
Q12.5 50.9219 16.0312 51.9688
Q19.5781 53.0312 23.6406 53.0312
Q29.7344 53.0312 34.3438 51.2656
Q38.9688 49.5156 41.1562 46.5
Q43.3594 43.5 44.1875 38.4844
L35.5938 37.3125
Q35.0156 41.3125 32.2031 43.5469
Q29.3906 45.7969 24.2656 45.7969
Q18.2188 45.7969 15.625 43.7969
Q13.0312 41.7969 13.0312 39.1094
Q13.0312 37.4062 14.1094 36.0312
Q15.1875 34.625 17.4844 33.6875
Q18.7969 33.2031 25.25 31.4531
Q34.5781 28.9531 38.25 27.3594
Q41.9375 25.7812 44.0312 22.75
Q46.1406 19.7344 46.1406 15.2344
Q46.1406 10.8438 43.5781 6.95312
Q41.0156 3.07812 36.1719 0.953125
Q31.3438 -1.17188 25.25 -1.17188
Q15.1406 -1.17188 9.84375 3.03125
Q4.54688 7.23438 3.07812 15.4844" id="ArialMT-73"/>
     <path d="
M6.59375 0
L6.59375 51.8594
L14.4531 51.8594
L14.4531 44.5781
Q16.8906 48.3906 20.9375 50.7031
Q25 53.0312 30.1719 53.0312
Q35.9375 53.0312 39.625 50.6406
Q43.3125 48.25 44.8281 43.9531
Q50.9844 53.0312 60.8438 53.0312
Q68.5625 53.0312 72.7031 48.75
Q76.8594 44.4844 76.8594 35.5938
L76.8594 0
L68.1094 0
L68.1094 32.6719
Q68.1094 37.9375 67.25 40.25
Q66.4062 42.5781 64.1562 43.9844
Q61.9219 45.4062 58.8906 45.4062
Q53.4219 45.4062 49.7969 41.7656
Q46.1875 38.1406 46.1875 30.125
L46.1875 0
L37.4062 0
L37.4062 33.6875
Q37.4062 39.5469 35.25 42.4688
Q33.1094 45.4062 28.2188 45.4062
Q24.5156 45.4062 21.3594 43.4531
Q18.2188 41.5 16.7969 37.7344
Q15.375 33.9844 15.375 26.9062
L15.375 0
z
" id="ArialMT-6d"/>
     <path d="
M-1.51562 -19.875
L-1.51562 -13.5312
L56.7344 -13.5312
L56.7344 -19.875
z
" id="ArialMT-5f"/>
     <path d="
M7.42188 0
L7.42188 71.5781
L21.6875 71.5781
L38.625 20.9062
Q40.9688 13.8125 42.0469 10.2969
Q43.2656 14.2031 45.8438 21.7812
L62.9844 71.5781
L75.7344 71.5781
L75.7344 0
L66.6094 0
L66.6094 59.9062
L45.7969 0
L37.25 0
L16.5469 60.9375
L16.5469 0
z
" id="ArialMT-4d"/>
    </defs>
    <g style="fill:#262626;" transform="translate(115.726638947 62.7449972715)scale(0.12 -0.12)">
     <use xlink:href="#ArialMT-6d"/>
     <use x="83.30078125" xlink:href="#ArialMT-75"/>
     <use x="138.916015625" xlink:href="#ArialMT-73"/>
     <use x="188.916015625" xlink:href="#ArialMT-4d"/>
     <use x="272.216796875" xlink:href="#ArialMT-75"/>
     <use x="327.83203125" xlink:href="#ArialMT-73"/>
     <use x="377.83203125" xlink:href="#ArialMT-5f"/>
     <use x="433.447265625" xlink:href="#ArialMT-70"/>
     <use x="489.0625" xlink:href="#ArialMT-65"/>
     <use x="544.677734375" xlink:href="#ArialMT-70"/>
    </g>
   </g>
   <g id="text_9">
    <!-- danRer -->
    <defs>
     <path d="
M7.85938 0
L7.85938 71.5781
L39.5938 71.5781
Q49.1719 71.5781 54.1406 69.6406
Q59.125 67.7188 62.1094 62.8281
Q65.0938 57.9531 65.0938 52.0469
Q65.0938 44.4375 60.1562 39.2031
Q55.2188 33.9844 44.9219 32.5625
Q48.6875 30.7656 50.6406 29
Q54.7812 25.2031 58.5 19.4844
L70.9531 0
L59.0312 0
L49.5625 14.8906
Q45.4062 21.3438 42.7188 24.75
Q40.0469 28.1719 37.9219 29.5312
Q35.7969 30.9062 33.5938 31.4531
Q31.9844 31.7812 28.3281 31.7812
L17.3281 31.7812
L17.3281 0
z

M17.3281 39.9844
L37.7031 39.9844
Q44.1875 39.9844 47.8438 41.3281
Q51.5156 42.6719 53.4219 45.625
Q55.3281 48.5781 55.3281 52.0469
Q55.3281 57.125 51.6406 60.3906
Q47.9531 63.6719 39.9844 63.6719
L17.3281 63.6719
z
" id="ArialMT-52"/>
     <path d="
M40.4375 6.39062
Q35.5469 2.25 31.0312 0.53125
Q26.5156 -1.17188 21.3438 -1.17188
Q12.7969 -1.17188 8.20312 3
Q3.60938 7.17188 3.60938 13.6719
Q3.60938 17.4844 5.34375 20.625
Q7.07812 23.7812 9.89062 25.6875
Q12.7031 27.5938 16.2188 28.5625
Q18.7969 29.25 24.0312 29.8906
Q34.6719 31.1562 39.7031 32.9062
Q39.75 34.7188 39.75 35.2031
Q39.75 40.5781 37.25 42.7812
Q33.8906 45.75 27.25 45.75
Q21.0469 45.75 18.0938 43.5781
Q15.1406 41.4062 13.7188 35.8906
L5.125 37.0625
Q6.29688 42.5781 8.98438 45.9688
Q11.6719 49.3594 16.75 51.1875
Q21.8281 53.0312 28.5156 53.0312
Q35.1562 53.0312 39.2969 51.4688
Q43.4531 49.9062 45.4062 47.5312
Q47.3594 45.1719 48.1406 41.5469
Q48.5781 39.3125 48.5781 33.4531
L48.5781 21.7344
Q48.5781 9.46875 49.1406 6.21875
Q49.7031 2.98438 51.375 0
L42.1875 0
Q40.8281 2.73438 40.4375 6.39062
M39.7031 26.0312
Q34.9062 24.0781 25.3438 22.7031
Q19.9219 21.9219 17.6719 20.9375
Q15.4375 19.9688 14.2031 18.0938
Q12.9844 16.2188 12.9844 13.9219
Q12.9844 10.4062 15.6406 8.0625
Q18.3125 5.71875 23.4375 5.71875
Q28.5156 5.71875 32.4688 7.9375
Q36.4219 10.1562 38.2812 14.0156
Q39.7031 17 39.7031 22.7969
z
" id="ArialMT-61"/>
     <path d="
M6.5 0
L6.5 51.8594
L14.4062 51.8594
L14.4062 44
Q17.4375 49.5156 20 51.2656
Q22.5625 53.0312 25.6406 53.0312
Q30.0781 53.0312 34.6719 50.2031
L31.6406 42.0469
Q28.4219 43.9531 25.2031 43.9531
Q22.3125 43.9531 20.0156 42.2188
Q17.7188 40.4844 16.75 37.4062
Q15.2812 32.7188 15.2812 27.1562
L15.2812 0
z
" id="ArialMT-72"/>
     <path d="
M6.59375 0
L6.59375 51.8594
L14.5 51.8594
L14.5 44.4844
Q20.2188 53.0312 31 53.0312
Q35.6875 53.0312 39.625 51.3438
Q43.5625 49.6562 45.5156 46.9219
Q47.4688 44.1875 48.25 40.4375
Q48.7344 37.9844 48.7344 31.8906
L48.7344 0
L39.9375 0
L39.9375 31.5469
Q39.9375 36.9219 38.9062 39.5781
Q37.8906 42.2344 35.2812 43.8125
Q32.6719 45.4062 29.1562 45.4062
Q23.5312 45.4062 19.4531 41.8438
Q15.375 38.2812 15.375 28.3281
L15.375 0
z
" id="ArialMT-6e"/>
     <path d="
M40.2344 0
L40.2344 6.54688
Q35.2969 -1.17188 25.7344 -1.17188
Q19.5312 -1.17188 14.3281 2.25
Q9.125 5.67188 6.26562 11.7969
Q3.42188 17.9219 3.42188 25.875
Q3.42188 33.6406 6 39.9688
Q8.59375 46.2969 13.7656 49.6562
Q18.9531 53.0312 25.3438 53.0312
Q30.0312 53.0312 33.6875 51.0469
Q37.3594 49.0781 39.6562 45.9062
L39.6562 71.5781
L48.3906 71.5781
L48.3906 0
z

M12.4531 25.875
Q12.4531 15.9219 16.6406 10.9844
Q20.8438 6.0625 26.5625 6.0625
Q32.3281 6.0625 36.3438 10.7656
Q40.375 15.4844 40.375 25.1406
Q40.375 35.7969 36.2656 40.7656
Q32.1719 45.75 26.1719 45.75
Q20.3125 45.75 16.375 40.9688
Q12.4531 36.1875 12.4531 25.875" id="ArialMT-64"/>
    </defs>
    <g style="fill:#262626;" transform="translate(460.90064061 61.5170563853)scale(0.12 -0.12)">
     <use xlink:href="#ArialMT-64"/>
     <use x="55.615234375" xlink:href="#ArialMT-61"/>
     <use x="111.23046875" xlink:href="#ArialMT-6e"/>
     <use x="166.845703125" xlink:href="#ArialMT-52"/>
     <use x="239.0625" xlink:href="#ArialMT-65"/>
     <use x="294.677734375" xlink:href="#ArialMT-72"/>
    </g>
   </g>
   <g id="text_10">
    <!-- braFlo -->
    <defs>
     <path d="
M6.39062 0
L6.39062 71.5781
L15.1875 71.5781
L15.1875 0
z
" id="ArialMT-6c"/>
     <path d="
M14.7031 0
L6.54688 0
L6.54688 71.5781
L15.3281 71.5781
L15.3281 46.0469
Q20.9062 53.0312 29.5469 53.0312
Q34.3281 53.0312 38.5938 51.0938
Q42.875 49.1719 45.625 45.6719
Q48.3906 42.1875 49.9531 37.25
Q51.5156 32.3281 51.5156 26.7031
Q51.5156 13.375 44.9219 6.09375
Q38.3281 -1.17188 29.1094 -1.17188
Q19.9219 -1.17188 14.7031 6.5
z

M14.5938 26.3125
Q14.5938 17 17.1406 12.8438
Q21.2969 6.0625 28.375 6.0625
Q34.125 6.0625 38.3281 11.0625
Q42.5312 16.0625 42.5312 25.9844
Q42.5312 36.1406 38.5 40.9688
Q34.4688 45.7969 28.7656 45.7969
Q23 45.7969 18.7969 40.7969
Q14.5938 35.7969 14.5938 26.3125" id="ArialMT-62"/>
     <path d="
M3.32812 25.9219
Q3.32812 40.3281 11.3281 47.2656
Q18.0156 53.0312 27.6406 53.0312
Q38.3281 53.0312 45.1094 46.0156
Q51.9062 39.0156 51.9062 26.6562
Q51.9062 16.6562 48.9062 10.9062
Q45.9062 5.17188 40.1562 2
Q34.4219 -1.17188 27.6406 -1.17188
Q16.75 -1.17188 10.0312 5.8125
Q3.32812 12.7969 3.32812 25.9219
M12.3594 25.9219
Q12.3594 15.9688 16.7031 11.0156
Q21.0469 6.0625 27.6406 6.0625
Q34.1875 6.0625 38.5312 11.0312
Q42.875 16.0156 42.875 26.2188
Q42.875 35.8438 38.5 40.7969
Q34.125 45.75 27.6406 45.75
Q21.0469 45.75 16.7031 40.8125
Q12.3594 35.8906 12.3594 25.9219" id="ArialMT-6f"/>
     <path d="
M8.20312 0
L8.20312 71.5781
L56.5 71.5781
L56.5 63.1406
L17.6719 63.1406
L17.6719 40.9688
L51.2656 40.9688
L51.2656 32.5156
L17.6719 32.5156
L17.6719 0
z
" id="ArialMT-46"/>
    </defs>
    <g style="fill:#262626;" transform="translate(301.193646832 627.058675589)scale(0.12 -0.12)">
     <use xlink:href="#ArialMT-62"/>
     <use x="55.615234375" xlink:href="#ArialMT-72"/>
     <use x="88.916015625" xlink:href="#ArialMT-61"/>
     <use x="144.53125" xlink:href="#ArialMT-46"/>
     <use x="205.615234375" xlink:href="#ArialMT-6c"/>
     <use x="227.83203125" xlink:href="#ArialMT-6f"/>
    </g>
   </g>
  </g>
  <g id="axes_2">
   <g id="patch_12">
    <path clip-path="url(#p866a9e6674)" d="
M511.758 862.624
C485.671 854.49 457.53 855.832 432.334 866.41
C407.139 876.989 386.475 896.138 374.014 920.457
C361.552 944.776 358.077 972.734 364.206 999.364
C370.335 1025.99 385.682 1049.62 407.521 1066.04
C420.315 1078.62 436.064 1087.78 453.319 1092.68
C470.574 1097.59 488.788 1098.08 506.283 1094.12
C492.956 1117.25 475.891 1138.01 455.782 1155.57
C435.673 1173.13 412.796 1187.24 388.08 1197.32
C363.364 1207.41 337.148 1213.33 310.496 1214.86
C283.845 1216.38 257.124 1213.48 231.419 1206.28
C205.714 1199.08 181.378 1187.67 159.399 1172.52
C137.419 1157.37 118.099 1138.69 102.221 1117.23
C86.3439 1095.77 74.1277 1071.83 66.069 1046.38
C58.0102 1020.93 54.2194 994.318 54.8506 967.631
C55.4817 940.943 60.5261 914.544 69.7789 889.504
C79.0317 864.464 92.3659 841.127 109.24 820.442
C126.114 799.756 146.296 782.006 168.967 767.912
C191.638 753.818 216.487 743.573 242.503 737.594
C268.52 731.615 295.348 729.983 321.897 732.766
C348.447 735.548 374.354 742.706 398.566 753.949
C422.777 765.192 444.962 780.365 464.218 798.853
C483.475 817.341 499.539 838.89 511.758 862.624" style="fill:#ff0000;opacity:0.4;"/>
   </g>
   <g id="patch_13">
    <path clip-path="url(#p866a9e6674)" d="
M588.432 1006.32
C592.162 982.66 587.85 958.416 576.188 937.491
C564.527 916.566 546.177 900.145 524.091 890.87
C522.338 886.037 520.432 881.261 518.375 876.55
C516.318 871.839 514.111 867.195 511.758 862.624
C540.845 871.694 565.219 891.869 579.562 918.75
C593.905 945.632 597.093 977.111 588.432 1006.32" style="fill:#008000;opacity:0.4;"/>
   </g>
   <g id="patch_14">
    <path clip-path="url(#p866a9e6674)" d="
M511.758 862.624
C485.671 854.49 457.53 855.832 432.334 866.41
C407.139 876.989 386.475 896.138 374.014 920.457
C361.552 944.776 358.077 972.734 364.206 999.364
C370.335 1025.99 385.682 1049.62 407.521 1066.04
C389.759 1048.59 378.629 1025.47 376.057 1000.7
C373.486 975.933 379.63 951.024 393.427 930.292
C407.223 909.559 427.826 894.273 451.668 887.079
C475.51 879.886 501.13 881.227 524.091 890.87
C522.338 886.037 520.432 881.261 518.375 876.55
C516.318 871.839 514.111 867.195 511.758 862.624" style="fill:#b25900;opacity:0.4;"/>
   </g>
   <g id="patch_15">
    <path clip-path="url(#p866a9e6674)" d="
M506.283 1094.12
C507.235 1092.47 508.167 1090.8 509.08 1089.13
C509.992 1087.46 510.885 1085.77 511.758 1084.08
C529.938 1078.41 546.446 1068.35 559.818 1054.79
C573.189 1041.23 583.018 1024.58 588.432 1006.32
C585.094 1027.49 575.479 1047.18 560.836 1062.83
C546.193 1078.48 527.185 1089.38 506.283 1094.12" style="fill:#0000ff;opacity:0.4;"/>
   </g>
   <g id="patch_16">
    <path clip-path="url(#p866a9e6674)" d="
M506.283 1094.12
C507.235 1092.47 508.167 1090.8 509.08 1089.13
C509.992 1087.46 510.885 1085.77 511.758 1084.08
C494.199 1089.55 475.587 1090.77 457.464 1087.64
C439.34 1084.5 422.22 1077.1 407.521 1066.04
C420.315 1078.62 436.064 1087.78 453.319 1092.68
C470.574 1097.59 488.788 1098.08 506.283 1094.12" style="fill:#b200b2;opacity:0.4;"/>
   </g>
   <g id="patch_17">
    <path clip-path="url(#p866a9e6674)" d="
M588.432 1006.32
C592.162 982.66 587.85 958.416 576.188 937.491
C564.527 916.566 546.177 900.145 524.091 890.87
C535.45 922.186 540.218 955.515 538.095 988.76
C535.973 1022.01 527.006 1054.46 511.758 1084.08
C529.938 1078.41 546.446 1068.35 559.818 1054.79
C573.189 1041.23 583.018 1024.58 588.432 1006.32" style="fill:#0059b2;opacity:0.4;"/>
   </g>
   <g id="patch_18">
    <path clip-path="url(#p866a9e6674)" d="
M511.758 1084.08
C527.006 1054.46 535.973 1022.01 538.095 988.76
C540.218 955.515 535.45 922.186 524.091 890.87
C501.13 881.227 475.51 879.886 451.668 887.079
C427.826 894.273 407.223 909.559 393.427 930.292
C379.63 951.024 373.486 975.933 376.057 1000.7
C378.629 1025.47 389.759 1048.59 407.521 1066.04
C422.22 1077.1 439.34 1084.5 457.464 1087.64
C475.587 1090.77 494.199 1089.55 511.758 1084.08" style="fill:#663366;opacity:0.4;"/>
   </g>
   <g id="patch_19">
    <path clip-path="url(#p866a9e6674)" d="
M296.685 1215.25
C360.838 1215.25 422.372 1189.76 467.735 1144.4
C513.099 1099.04 538.587 1037.5 538.587 973.35
C538.587 909.197 513.099 847.663 467.735 802.299
C422.372 756.936 360.838 731.448 296.685 731.448
C232.532 731.448 170.998 756.936 125.634 802.299
C80.2713 847.663 54.7829 909.197 54.7829 973.35
C54.7829 1037.5 80.2713 1099.04 125.634 1144.4
C170.998 1189.76 232.532 1215.25 296.685 1215.25
z
" style="fill:none;stroke:#000000;stroke-dasharray:6.000000,6.000000;stroke-dashoffset:0.0;stroke-width:0.5;"/>
   </g>
   <g id="patch_20">
    <path clip-path="url(#p866a9e6674)" d="
M477.234 1089.33
C507.993 1089.33 537.496 1077.11 559.246 1055.36
C580.996 1033.61 593.217 1004.11 593.217 973.35
C593.217 942.591 580.996 913.088 559.246 891.338
C537.496 869.588 507.993 857.367 477.234 857.367
C446.475 857.367 416.971 869.588 395.221 891.338
C373.472 913.088 361.251 942.591 361.251 973.35
C361.251 1004.11 373.472 1033.61 395.221 1055.36
C416.971 1077.11 446.475 1089.33 477.234 1089.33
z
" style="fill:none;stroke:#000000;stroke-dasharray:6.000000,6.000000;stroke-dashoffset:0.0;stroke-width:0.5;"/>
   </g>
   <g id="patch_21">
    <path clip-path="url(#p866a9e6674)" d="
M482.612 1096.77
C511.022 1096.77 538.273 1085.48 558.362 1065.39
C578.451 1045.3 589.738 1018.05 589.738 989.64
C589.738 961.23 578.451 933.979 558.362 913.89
C538.273 893.801 511.022 882.513 482.612 882.513
C454.201 882.513 426.951 893.801 406.861 913.89
C386.772 933.979 375.485 961.23 375.485 989.64
C375.485 1018.05 386.772 1045.3 406.861 1065.39
C426.951 1085.48 454.201 1096.77 482.612 1096.77
z
" style="fill:none;stroke:#000000;stroke-dasharray:6.000000,6.000000;stroke-dashoffset:0.0;stroke-width:0.5;"/>
   </g>
   <g id="text_11">
    <!-- 444170 -->
    <g style="fill:#262626;" transform="translate(256.000134684 1113.24090737)scale(0.1 -0.1)">
     <use xlink:href="#ArialMT-34"/>
     <use x="55.615234375" xlink:href="#ArialMT-34"/>
     <use x="111.23046875" xlink:href="#ArialMT-34"/>
     <use x="166.845703125" xlink:href="#ArialMT-31"/>
     <use x="222.4609375" xlink:href="#ArialMT-37"/>
     <use x="278.076171875" xlink:href="#ArialMT-30"/>
    </g>
   </g>
   <g id="text_12">
    <!-- 4688 -->
    <g style="fill:#262626;" transform="translate(514.246971237 882.097294001)scale(0.1 -0.1)">
     <use xlink:href="#ArialMT-34"/>
     <use x="55.615234375" xlink:href="#ArialMT-36"/>
     <use x="111.23046875" xlink:href="#ArialMT-38"/>
     <use x="166.845703125" xlink:href="#ArialMT-38"/>
    </g>
   </g>
   <g id="text_13">
    <!-- 17384 -->
    <g style="fill:#262626;" transform="translate(496.048097716 876.510769784)scale(0.1 -0.1)">
     <use xlink:href="#ArialMT-31"/>
     <use x="55.615234375" xlink:href="#ArialMT-37"/>
     <use x="111.23046875" xlink:href="#ArialMT-33"/>
     <use x="166.845703125" xlink:href="#ArialMT-38"/>
     <use x="222.4609375" xlink:href="#ArialMT-34"/>
    </g>
   </g>
   <g id="text_14">
    <!-- 1125 -->
    <g style="fill:#262626;" transform="translate(501.74922212 1090.98591382)scale(0.1 -0.1)">
     <use xlink:href="#ArialMT-31"/>
     <use x="48.240234375" xlink:href="#ArialMT-31"/>
     <use x="103.85546875" xlink:href="#ArialMT-32"/>
     <use x="159.470703125" xlink:href="#ArialMT-35"/>
    </g>
   </g>
   <g id="text_15">
    <!-- 2559 -->
    <g style="fill:#262626;" transform="translate(494.565257264 1092.70301024)scale(0.1 -0.1)">
     <use xlink:href="#ArialMT-32"/>
     <use x="55.615234375" xlink:href="#ArialMT-35"/>
     <use x="111.23046875" xlink:href="#ArialMT-35"/>
     <use x="166.845703125" xlink:href="#ArialMT-39"/>
    </g>
   </g>
   <g id="text_16">
    <!-- 22668 -->
    <g style="fill:#262626;" transform="translate(549.208125426 1006.00438992)scale(0.1 -0.1)">
     <use xlink:href="#ArialMT-32"/>
     <use x="55.615234375" xlink:href="#ArialMT-32"/>
     <use x="111.23046875" xlink:href="#ArialMT-36"/>
     <use x="166.845703125" xlink:href="#ArialMT-36"/>
     <use x="222.4609375" xlink:href="#ArialMT-38"/>
    </g>
   </g>
   <g id="text_17">
    <!-- 80446 -->
    <g style="fill:#262626;" transform="translate(467.652074841 1016.24818585)scale(0.1 -0.1)">
     <use xlink:href="#ArialMT-38"/>
     <use x="55.615234375" xlink:href="#ArialMT-30"/>
     <use x="111.23046875" xlink:href="#ArialMT-34"/>
     <use x="166.845703125" xlink:href="#ArialMT-34"/>
     <use x="222.4609375" xlink:href="#ArialMT-36"/>
    </g>
   </g>
   <g id="text_18">
    <!-- petMar2 -->
    <defs>
     <path d="
M25.7812 7.85938
L27.0469 0.09375
Q23.3438 -0.6875 20.4062 -0.6875
Q15.625 -0.6875 12.9844 0.828125
Q10.3594 2.34375 9.28125 4.8125
Q8.20312 7.28125 8.20312 15.1875
L8.20312 45.0156
L1.76562 45.0156
L1.76562 51.8594
L8.20312 51.8594
L8.20312 64.7031
L16.9375 69.9688
L16.9375 51.8594
L25.7812 51.8594
L25.7812 45.0156
L16.9375 45.0156
L16.9375 14.7031
Q16.9375 10.9375 17.4062 9.85938
Q17.875 8.79688 18.9219 8.15625
Q19.9688 7.51562 21.9219 7.51562
Q23.3906 7.51562 25.7812 7.85938" id="ArialMT-74"/>
    </defs>
    <g style="fill:#262626;" transform="translate(133.13954007 731.448057121)scale(0.12 -0.12)">
     <use xlink:href="#ArialMT-70"/>
     <use x="55.615234375" xlink:href="#ArialMT-65"/>
     <use x="111.23046875" xlink:href="#ArialMT-74"/>
     <use x="139.013671875" xlink:href="#ArialMT-4d"/>
     <use x="222.314453125" xlink:href="#ArialMT-61"/>
     <use x="277.9296875" xlink:href="#ArialMT-72"/>
     <use x="311.23046875" xlink:href="#ArialMT-32"/>
    </g>
   </g>
   <g id="text_19">
    <!-- danRer_pep -->
    <g style="fill:#262626;" transform="translate(535.22549896 857.366885182)scale(0.12 -0.12)">
     <use xlink:href="#ArialMT-64"/>
     <use x="55.615234375" xlink:href="#ArialMT-61"/>
     <use x="111.23046875" xlink:href="#ArialMT-6e"/>
     <use x="166.845703125" xlink:href="#ArialMT-52"/>
     <use x="239.0625" xlink:href="#ArialMT-65"/>
     <use x="294.677734375" xlink:href="#ArialMT-72"/>
     <use x="327.978515625" xlink:href="#ArialMT-5f"/>
     <use x="383.59375" xlink:href="#ArialMT-70"/>
     <use x="439.208984375" xlink:href="#ArialMT-65"/>
     <use x="494.82421875" xlink:href="#ArialMT-70"/>
    </g>
   </g>
   <g id="text_20">
    <!-- braFlo_pep -->
    <g style="fill:#262626;" transform="translate(452.892805648 1116.0690266)scale(0.12 -0.12)">
     <use xlink:href="#ArialMT-62"/>
     <use x="55.615234375" xlink:href="#ArialMT-72"/>
     <use x="88.916015625" xlink:href="#ArialMT-61"/>
     <use x="144.53125" xlink:href="#ArialMT-46"/>
     <use x="205.615234375" xlink:href="#ArialMT-6c"/>
     <use x="227.83203125" xlink:href="#ArialMT-6f"/>
     <use x="283.447265625" xlink:href="#ArialMT-5f"/>
     <use x="339.0625" xlink:href="#ArialMT-70"/>
     <use x="394.677734375" xlink:href="#ArialMT-65"/>
     <use x="450.29296875" xlink:href="#ArialMT-70"/>
    </g>
   </g>
  </g>
  <g id="axes_3">
   <g id="patch_22">
    <path clip-path="url(#p245617fa69)" d="
M511.236 1508.27
C485.879 1500.63 458.649 1501.95 434.154 1512.02
C409.66 1522.08 389.366 1540.29 376.709 1563.55
C364.053 1586.81 359.79 1613.74 364.642 1639.78
C369.495 1665.81 383.173 1689.39 403.361 1706.53
C416.163 1720.45 432.428 1730.72 450.492 1736.31
C468.555 1741.89 487.781 1742.59 506.202 1738.33
C492.981 1761.51 476.01 1782.35 455.979 1799.98
C435.948 1817.62 413.132 1831.81 388.46 1841.99
C363.788 1852.17 337.6 1858.19 310.961 1859.8
C284.321 1861.42 257.597 1858.61 231.876 1851.49
C206.155 1844.37 181.791 1833.03 159.775 1817.95
C137.759 1802.86 118.394 1784.23 102.468 1762.82
C86.5419 1741.4 74.2742 1717.49 66.1638 1692.07
C58.0534 1666.64 54.212 1640.05 54.7958 1613.37
C55.3796 1586.68 60.3807 1560.28 69.5954 1535.23
C78.8102 1510.19 92.1119 1486.84 108.959 1466.14
C125.807 1445.44 145.968 1427.68 168.623 1413.57
C191.278 1399.46 216.114 1389.2 242.122 1383.22
C268.13 1377.23 294.951 1375.59 321.495 1378.37
C348.038 1381.15 373.938 1388.31 398.141 1399.55
C422.344 1410.8 444.517 1425.98 463.758 1444.48
C482.998 1462.97 499.042 1484.53 511.236 1508.27" style="fill:#ff0000;opacity:0.4;"/>
   </g>
   <g id="patch_23">
    <path clip-path="url(#p245617fa69)" d="
M586.447 1657.7
C592.013 1633.1 588.705 1607.31 577.113 1584.91
C565.522 1562.51 546.375 1544.92 523.079 1535.26
C521.382 1530.65 519.545 1526.08 517.57 1521.58
C515.594 1517.08 513.482 1512.64 511.236 1508.27
C526.223 1512.78 540.134 1520.3 552.12 1530.37
C564.106 1540.44 573.917 1552.84 580.954 1566.82
C587.991 1580.8 592.108 1596.07 593.052 1611.69
C593.996 1627.32 591.749 1642.97 586.447 1657.7" style="fill:#008000;opacity:0.4;"/>
   </g>
   <g id="patch_24">
    <path clip-path="url(#p245617fa69)" d="
M511.236 1508.27
C485.879 1500.63 458.649 1501.95 434.154 1512.02
C409.66 1522.08 389.366 1540.29 376.709 1563.55
C364.053 1586.81 359.79 1613.74 364.642 1639.78
C369.495 1665.81 383.173 1689.39 403.361 1706.53
C386.86 1688.6 376.971 1665.56 375.343 1641.24
C373.714 1616.92 380.441 1592.77 394.402 1572.79
C408.364 1552.82 428.74 1538.2 452.135 1531.38
C475.53 1524.55 500.568 1525.92 523.079 1535.26
C521.382 1530.65 519.545 1526.08 517.57 1521.58
C515.594 1517.08 513.482 1512.64 511.236 1508.27" style="fill:#b25900;opacity:0.4;"/>
   </g>
   <g id="patch_25">
    <path clip-path="url(#p245617fa69)" d="
M506.202 1738.33
C507.075 1736.8 507.931 1735.26 508.77 1733.71
C509.609 1732.16 510.431 1730.6 511.236 1729.03
C528.47 1723.84 544.251 1714.68 557.311 1702.3
C570.371 1689.91 580.35 1674.63 586.447 1657.7
C582.007 1677.32 572.121 1695.3 557.928 1709.56
C543.736 1723.82 525.804 1733.79 506.202 1738.33" style="fill:#0000ff;opacity:0.4;"/>
   </g>
   <g id="patch_26">
    <path clip-path="url(#p245617fa69)" d="
M506.202 1738.33
C507.075 1736.8 507.931 1735.26 508.77 1733.71
C509.609 1732.16 510.431 1730.6 511.236 1729.03
C492.807 1734.59 473.278 1735.44 454.436 1731.51
C435.594 1727.58 418.033 1718.99 403.361 1706.53
C416.163 1720.45 432.428 1730.72 450.492 1736.31
C468.555 1741.89 487.781 1742.59 506.202 1738.33" style="fill:#b200b2;opacity:0.4;"/>
   </g>
   <g id="patch_27">
    <path clip-path="url(#p245617fa69)" d="
M586.447 1657.7
C592.013 1633.1 588.705 1607.31 577.113 1584.91
C565.522 1562.51 546.375 1544.92 523.079 1535.26
C534.613 1566.62 539.516 1600.04 537.477 1633.39
C535.439 1666.74 526.503 1699.31 511.236 1729.03
C528.47 1723.84 544.251 1714.68 557.311 1702.3
C570.371 1689.91 580.35 1674.63 586.447 1657.7" style="fill:#0059b2;opacity:0.4;"/>
   </g>
   <g id="patch_28">
    <path clip-path="url(#p245617fa69)" d="
M511.236 1729.03
C526.503 1699.31 535.439 1666.74 537.477 1633.39
C539.516 1600.04 534.613 1566.62 523.079 1535.26
C500.568 1525.92 475.53 1524.55 452.135 1531.38
C428.74 1538.2 408.364 1552.82 394.402 1572.79
C380.441 1592.77 373.714 1616.92 375.343 1641.24
C376.971 1665.56 386.86 1688.6 403.361 1706.53
C418.033 1718.99 435.594 1727.58 454.436 1731.51
C473.278 1735.44 492.807 1734.59 511.236 1729.03" style="fill:#663366;opacity:0.4;"/>
   </g>
   <g id="patch_29">
    <path clip-path="url(#p245617fa69)" d="
M296.333 1860.24
C360.404 1860.24 421.86 1834.79 467.166 1789.48
C512.471 1744.18 537.927 1682.72 537.927 1618.65
C537.927 1554.58 512.471 1493.12 467.166 1447.82
C421.86 1402.51 360.404 1377.06 296.333 1377.06
C232.261 1377.06 170.805 1402.51 125.499 1447.82
C80.1939 1493.12 54.738 1554.58 54.738 1618.65
C54.738 1682.72 80.1939 1744.18 125.499 1789.48
C170.805 1834.79 232.261 1860.24 296.333 1860.24
z
" style="fill:none;stroke:#000000;stroke-dasharray:6.000000,6.000000;stroke-dashoffset:0.0;stroke-width:0.5;"/>
   </g>
   <g id="patch_30">
    <path clip-path="url(#p245617fa69)" d="
M477.976 1733.94
C508.55 1733.94 537.876 1721.79 559.496 1700.17
C581.115 1678.55 593.262 1649.22 593.262 1618.65
C593.262 1588.08 581.115 1558.75 559.496 1537.13
C537.876 1515.51 508.55 1503.36 477.976 1503.36
C447.402 1503.36 418.076 1515.51 396.457 1537.13
C374.838 1558.75 362.69 1588.08 362.69 1618.65
C362.69 1649.22 374.838 1678.55 396.457 1700.17
C418.076 1721.79 447.402 1733.94 477.976 1733.94
z
" style="fill:none;stroke:#000000;stroke-dasharray:6.000000,6.000000;stroke-dashoffset:0.0;stroke-width:0.5;"/>
   </g>
   <g id="patch_31">
    <path clip-path="url(#p245617fa69)" d="
M482.094 1741.08
C510.468 1741.08 537.684 1729.81 557.748 1709.74
C577.812 1689.68 589.085 1662.46 589.085 1634.09
C589.085 1605.71 577.812 1578.5 557.748 1558.43
C537.684 1538.37 510.468 1527.1 482.094 1527.1
C453.72 1527.1 426.504 1538.37 406.44 1558.43
C386.377 1578.5 375.103 1605.71 375.103 1634.09
C375.103 1662.46 386.377 1689.68 406.44 1709.74
C426.504 1729.81 453.72 1741.08 482.094 1741.08
z
" style="fill:none;stroke:#000000;stroke-dasharray:6.000000,6.000000;stroke-dashoffset:0.0;stroke-width:0.5;"/>
   </g>
   <g id="text_21">
    <!-- 445928 -->
    <g style="fill:#262626;" transform="translate(244.651554986 1747.07523804)scale(0.1 -0.1)">
     <use xlink:href="#ArialMT-34"/>
     <use x="55.615234375" xlink:href="#ArialMT-34"/>
     <use x="111.23046875" xlink:href="#ArialMT-35"/>
     <use x="166.845703125" xlink:href="#ArialMT-39"/>
     <use x="222.4609375" xlink:href="#ArialMT-32"/>
     <use x="278.076171875" xlink:href="#ArialMT-38"/>
    </g>
   </g>
   <g id="text_22">
    <!-- 4973 -->
    <g style="fill:#262626;" transform="translate(513.157847968 1526.88787647)scale(0.1 -0.1)">
     <use xlink:href="#ArialMT-34"/>
     <use x="55.615234375" xlink:href="#ArialMT-39"/>
     <use x="111.23046875" xlink:href="#ArialMT-37"/>
     <use x="166.845703125" xlink:href="#ArialMT-33"/>
    </g>
   </g>
   <g id="text_23">
    <!-- 15626 -->
    <g style="fill:#262626;" transform="translate(495.60665378 1521.64677472)scale(0.1 -0.1)">
     <use xlink:href="#ArialMT-31"/>
     <use x="55.615234375" xlink:href="#ArialMT-35"/>
     <use x="111.23046875" xlink:href="#ArialMT-36"/>
     <use x="166.845703125" xlink:href="#ArialMT-32"/>
     <use x="222.4609375" xlink:href="#ArialMT-36"/>
    </g>
   </g>
   <g id="text_24">
    <!-- 1022 -->
    <g style="fill:#262626;" transform="translate(500.921847082 1735.61929156)scale(0.1 -0.1)">
     <use xlink:href="#ArialMT-31"/>
     <use x="55.615234375" xlink:href="#ArialMT-30"/>
     <use x="111.23046875" xlink:href="#ArialMT-32"/>
     <use x="166.845703125" xlink:href="#ArialMT-32"/>
    </g>
   </g>
   <g id="text_25">
    <!-- 2375 -->
    <g style="fill:#262626;" transform="translate(494.546031532 1737.17788572)scale(0.1 -0.1)">
     <use xlink:href="#ArialMT-32"/>
     <use x="55.615234375" xlink:href="#ArialMT-33"/>
     <use x="111.23046875" xlink:href="#ArialMT-37"/>
     <use x="166.845703125" xlink:href="#ArialMT-35"/>
    </g>
   </g>
   <g id="text_26">
    <!-- 22771 -->
    <g style="fill:#262626;" transform="translate(548.270241401 1656.87367738)scale(0.1 -0.1)">
     <use xlink:href="#ArialMT-32"/>
     <use x="55.615234375" xlink:href="#ArialMT-32"/>
     <use x="111.23046875" xlink:href="#ArialMT-37"/>
     <use x="166.845703125" xlink:href="#ArialMT-37"/>
     <use x="222.4609375" xlink:href="#ArialMT-31"/>
    </g>
   </g>
   <g id="text_27">
    <!-- 80630 -->
    <g style="fill:#262626;" transform="translate(465.764436427 1659.52716793)scale(0.1 -0.1)">
     <use xlink:href="#ArialMT-38"/>
     <use x="55.615234375" xlink:href="#ArialMT-30"/>
     <use x="111.23046875" xlink:href="#ArialMT-36"/>
     <use x="166.845703125" xlink:href="#ArialMT-33"/>
     <use x="222.4609375" xlink:href="#ArialMT-30"/>
    </g>
   </g>
   <g id="text_28">
    <!-- petMar2 -->
    <g style="fill:#262626;" transform="translate(132.940973594 1377.05530567)scale(0.12 -0.12)">
     <use xlink:href="#ArialMT-70"/>
     <use x="55.615234375" xlink:href="#ArialMT-65"/>
     <use x="111.23046875" xlink:href="#ArialMT-74"/>
     <use x="139.013671875" xlink:href="#ArialMT-4d"/>
     <use x="222.314453125" xlink:href="#ArialMT-61"/>
     <use x="277.9296875" xlink:href="#ArialMT-72"/>
     <use x="311.23046875" xlink:href="#ArialMT-32"/>
    </g>
   </g>
   <g id="text_29">
    <!-- musMus_pep -->
    <g style="fill:#262626;" transform="translate(535.619105547 1503.36421395)scale(0.12 -0.12)">
     <use xlink:href="#ArialMT-6d"/>
     <use x="83.30078125" xlink:href="#ArialMT-75"/>
     <use x="138.916015625" xlink:href="#ArialMT-73"/>
     <use x="188.916015625" xlink:href="#ArialMT-4d"/>
     <use x="272.216796875" xlink:href="#ArialMT-75"/>
     <use x="327.83203125" xlink:href="#ArialMT-73"/>
     <use x="377.83203125" xlink:href="#ArialMT-5f"/>
     <use x="433.447265625" xlink:href="#ArialMT-70"/>
     <use x="489.0625" xlink:href="#ArialMT-65"/>
     <use x="544.677734375" xlink:href="#ArialMT-70"/>
    </g>
   </g>
   <g id="text_30">
    <!-- braFlo_pep -->
    <g style="fill:#262626;" transform="translate(452.375364091 1760.3680742)scale(0.12 -0.12)">
     <use xlink:href="#ArialMT-62"/>
     <use x="55.615234375" xlink:href="#ArialMT-72"/>
     <use x="88.916015625" xlink:href="#ArialMT-61"/>
     <use x="144.53125" xlink:href="#ArialMT-46"/>
     <use x="205.615234375" xlink:href="#ArialMT-6c"/>
     <use x="227.83203125" xlink:href="#ArialMT-6f"/>
     <use x="283.447265625" xlink:href="#ArialMT-5f"/>
     <use x="339.0625" xlink:href="#ArialMT-70"/>
     <use x="394.677734375" xlink:href="#ArialMT-65"/>
     <use x="450.29296875" xlink:href="#ArialMT-70"/>
    </g>
   </g>
  </g>
  <g id="axes_4">
   <g id="patch_32">
    <path clip-path="url(#p83f5e5c92c)" d="
M586.2 2248.31
C583.311 2228.56 575.007 2210 562.213 2194.68
C549.419 2179.37 532.628 2167.89 513.712 2161.53
C494.795 2155.18 474.481 2154.18 455.034 2158.66
C435.587 2163.14 417.756 2172.93 403.529 2186.92
C388.127 2196.6 375.094 2209.62 365.397 2225.01
C355.699 2240.4 349.582 2257.77 347.498 2275.84
C345.414 2293.91 347.416 2312.22 353.356 2329.42
C359.295 2346.61 369.023 2362.25 381.817 2375.18
C394.611 2388.11 410.148 2398.01 427.278 2404.13
C444.407 2410.25 462.695 2412.45 480.787 2410.56
C498.879 2408.66 516.317 2402.73 531.81 2393.2
C547.302 2383.67 560.457 2370.77 570.3 2355.47
C559.075 2385.86 542.357 2413.92 520.98 2438.26
C499.603 2462.6 473.93 2482.8 445.246 2497.85
C416.561 2512.9 385.352 2522.54 353.178 2526.3
C321.004 2530.06 288.411 2527.87 257.03 2519.84
C225.649 2511.81 196.011 2498.07 169.599 2479.32
C143.187 2460.56 120.449 2437.11 102.523 2410.13
C84.5958 2383.15 71.7841 2353.1 64.7282 2321.49
C57.6723 2289.87 56.4919 2257.23 61.2461 2225.18
C66.0003 2193.14 76.6084 2162.25 92.5399 2134.04
C108.471 2105.84 129.456 2080.8 154.444 2060.19
C179.433 2039.58 208.001 2023.74 238.72 2013.46
C269.439 2003.18 301.789 1998.64 334.15 2000.07
C366.512 2001.49 398.336 2008.86 428.033 2021.8
C457.729 2034.74 484.794 2053.03 507.872 2075.76
C530.951 2098.49 549.653 2125.27 563.042 2154.77
C576.432 2184.27 584.282 2215.97 586.2 2248.31" style="fill:#ff0000;opacity:0.4;"/>
   </g>
   <g id="patch_33">
    <path clip-path="url(#p83f5e5c92c)" d="
M587.314 2266.23
C587.212 2265.71 587.106 2265.2 586.998 2264.68
C586.889 2264.17 586.777 2263.65 586.662 2263.14
C586.654 2260.67 586.612 2258.19 586.535 2255.72
C586.458 2253.25 586.346 2250.78 586.2 2248.31
C586.633 2251.28 586.944 2254.26 587.129 2257.25
C587.315 2260.24 587.377 2263.23 587.314 2266.23" style="fill:#008000;opacity:0.4;"/>
   </g>
   <g id="patch_34">
    <path clip-path="url(#p83f5e5c92c)" d="
M586.2 2248.31
C583.311 2228.56 575.007 2210 562.213 2194.68
C549.419 2179.37 532.628 2167.89 513.712 2161.53
C494.795 2155.18 474.481 2154.18 455.034 2158.66
C435.587 2163.14 417.756 2172.93 403.529 2186.92
C419.982 2176.58 438.68 2170.34 458.045 2168.72
C477.411 2167.1 496.885 2170.16 514.826 2177.62
C532.767 2185.09 548.657 2196.76 561.156 2211.64
C573.656 2226.52 582.403 2244.18 586.662 2263.14
C586.654 2260.67 586.612 2258.19 586.535 2255.72
C586.458 2253.25 586.346 2250.78 586.2 2248.31" style="fill:#b25900;opacity:0.4;"/>
   </g>
   <g id="patch_35">
    <path clip-path="url(#p83f5e5c92c)" d="
M570.3 2355.47
C574.795 2343.3 578.388 2330.82 581.049 2318.12
C583.71 2305.42 585.432 2292.54 586.2 2279.59
C586.523 2277.38 586.778 2275.15 586.964 2272.93
C587.15 2270.7 587.266 2268.46 587.314 2266.23
C590.329 2281.5 590.381 2297.21 587.465 2312.5
C584.55 2327.79 578.722 2342.38 570.3 2355.47" style="fill:#0000ff;opacity:0.4;"/>
   </g>
   <g id="patch_36">
    <path clip-path="url(#p83f5e5c92c)" d="
M570.3 2355.47
C574.795 2343.3 578.388 2330.82 581.049 2318.12
C583.71 2305.42 585.432 2292.54 586.2 2279.59
C583.719 2296.55 577.236 2312.68 567.29 2326.64
C557.344 2340.6 544.217 2352 528.997 2359.88
C513.777 2367.77 496.897 2371.92 479.755 2371.99
C462.614 2372.07 445.699 2368.06 430.412 2360.31
C415.125 2352.55 401.901 2341.27 391.835 2327.39
C381.77 2313.52 375.15 2297.44 372.523 2280.5
C369.897 2263.57 371.339 2246.24 376.73 2229.97
C382.121 2213.7 391.308 2198.94 403.529 2186.92
C388.127 2196.6 375.094 2209.62 365.397 2225.01
C355.699 2240.4 349.582 2257.77 347.498 2275.84
C345.414 2293.91 347.416 2312.22 353.356 2329.42
C359.295 2346.61 369.023 2362.25 381.817 2375.18
C394.611 2388.11 410.148 2398.01 427.278 2404.13
C444.407 2410.25 462.695 2412.45 480.787 2410.56
C498.879 2408.66 516.317 2402.73 531.81 2393.2
C547.302 2383.67 560.457 2370.77 570.3 2355.47" style="fill:#b200b2;opacity:0.4;"/>
   </g>
   <g id="patch_37">
    <path clip-path="url(#p83f5e5c92c)" d="
M587.314 2266.23
C587.212 2265.71 587.106 2265.2 586.998 2264.68
C586.889 2264.17 586.777 2263.65 586.662 2263.14
C586.67 2265.88 586.636 2268.63 586.559 2271.37
C586.482 2274.11 586.362 2276.85 586.2 2279.59
C586.523 2277.38 586.778 2275.15 586.964 2272.93
C587.15 2270.7 587.266 2268.46 587.314 2266.23" style="fill:#0059b2;opacity:0.4;"/>
   </g>
   <g id="patch_38">
    <path clip-path="url(#p83f5e5c92c)" d="
M586.2 2279.59
C586.362 2276.85 586.482 2274.11 586.559 2271.37
C586.636 2268.63 586.67 2265.88 586.662 2263.14
C582.403 2244.18 573.656 2226.52 561.156 2211.64
C548.657 2196.76 532.767 2185.09 514.826 2177.62
C496.885 2170.16 477.411 2167.1 458.045 2168.72
C438.68 2170.34 419.982 2176.58 403.529 2186.92
C391.308 2198.94 382.121 2213.7 376.73 2229.97
C371.339 2246.24 369.897 2263.57 372.523 2280.5
C375.15 2297.44 381.77 2313.52 391.835 2327.39
C401.901 2341.27 415.125 2352.55 430.412 2360.31
C445.699 2368.06 462.614 2372.07 479.755 2371.99
C496.897 2371.92 513.777 2367.77 528.997 2359.88
C544.217 2352 557.344 2340.6 567.29 2326.64
C577.236 2312.68 583.719 2296.55 586.2 2279.59" style="fill:#663366;opacity:0.4;"/>
   </g>
   <g id="patch_39">
    <path clip-path="url(#p83f5e5c92c)" d="
M322.524 2528.09
C392.575 2528.09 459.766 2500.26 509.299 2450.72
C558.832 2401.19 586.663 2334 586.663 2263.95
C586.663 2193.9 558.832 2126.71 509.299 2077.18
C459.766 2027.64 392.575 1999.81 322.524 1999.81
C252.474 1999.81 185.283 2027.64 135.75 2077.18
C86.2171 2126.71 58.3858 2193.9 58.3858 2263.95
C58.3858 2334 86.2171 2401.19 135.75 2450.72
C185.283 2500.26 252.474 2528.09 322.524 2528.09
z
" style="fill:none;stroke:#000000;stroke-dasharray:6.000000,6.000000;stroke-dashoffset:0.0;stroke-width:0.5;"/>
   </g>
   <g id="patch_40">
    <path clip-path="url(#p83f5e5c92c)" d="
M479.293 2371.99
C507.947 2371.99 535.431 2360.61 555.692 2340.35
C575.953 2320.09 587.338 2292.6 587.338 2263.95
C587.338 2235.3 575.953 2207.81 555.692 2187.55
C535.431 2167.29 507.947 2155.91 479.293 2155.91
C450.639 2155.91 423.155 2167.29 402.893 2187.55
C382.632 2207.81 371.248 2235.3 371.248 2263.95
C371.248 2292.6 382.632 2320.09 402.893 2340.35
C423.155 2360.61 450.639 2371.99 479.293 2371.99
z
" style="fill:none;stroke:#000000;stroke-dasharray:6.000000,6.000000;stroke-dashoffset:0.0;stroke-width:0.5;"/>
   </g>
   <g id="patch_41">
    <path clip-path="url(#p83f5e5c92c)" d="
M468.156 2411.22
C500.367 2411.22 531.263 2398.42 554.04 2375.64
C576.817 2352.86 589.614 2321.97 589.614 2289.76
C589.614 2257.55 576.817 2226.65 554.04 2203.87
C531.263 2181.1 500.367 2168.3 468.156 2168.3
C435.945 2168.3 405.049 2181.1 382.272 2203.87
C359.496 2226.65 346.698 2257.55 346.698 2289.76
C346.698 2321.97 359.496 2352.86 382.272 2375.64
C405.049 2398.42 435.945 2411.22 468.156 2411.22
z
" style="fill:none;stroke:#000000;stroke-dasharray:6.000000,6.000000;stroke-dashoffset:0.0;stroke-width:0.5;"/>
   </g>
   <g id="text_31">
    <!-- 441592 -->
    <g style="fill:#262626;" transform="translate(255.343228809 2132.61777989)scale(0.1 -0.1)">
     <use xlink:href="#ArialMT-34"/>
     <use x="55.615234375" xlink:href="#ArialMT-34"/>
     <use x="111.23046875" xlink:href="#ArialMT-31"/>
     <use x="166.845703125" xlink:href="#ArialMT-35"/>
     <use x="222.4609375" xlink:href="#ArialMT-39"/>
     <use x="278.076171875" xlink:href="#ArialMT-32"/>
    </g>
   </g>
   <g id="text_32">
    <!-- 11 -->
    <g style="fill:#262626;" transform="translate(583.22985919 2264.04622849)scale(0.1 -0.1)">
     <use xlink:href="#ArialMT-31"/>
     <use x="48.240234375" xlink:href="#ArialMT-31"/>
    </g>
   </g>
   <g id="text_33">
    <!-- 5837 -->
    <g style="fill:#262626;" transform="translate(573.790173526 2251.50057329)scale(0.1 -0.1)">
     <use xlink:href="#ArialMT-35"/>
     <use x="55.615234375" xlink:href="#ArialMT-38"/>
     <use x="111.23046875" xlink:href="#ArialMT-33"/>
     <use x="166.845703125" xlink:href="#ArialMT-37"/>
    </g>
   </g>
   <g id="text_34">
    <!-- 17988 -->
    <g style="fill:#262626;" transform="translate(573.061479729 2301.55665574)scale(0.1 -0.1)">
     <use xlink:href="#ArialMT-31"/>
     <use x="55.615234375" xlink:href="#ArialMT-37"/>
     <use x="111.23046875" xlink:href="#ArialMT-39"/>
     <use x="166.845703125" xlink:href="#ArialMT-38"/>
     <use x="222.4609375" xlink:href="#ArialMT-38"/>
    </g>
   </g>
   <g id="text_35">
    <!-- 11887 -->
    <g style="fill:#262626;" transform="translate(550.124706777 2350.60541362)scale(0.1 -0.1)">
     <use xlink:href="#ArialMT-31"/>
     <use x="48.240234375" xlink:href="#ArialMT-31"/>
     <use x="103.85546875" xlink:href="#ArialMT-38"/>
     <use x="159.470703125" xlink:href="#ArialMT-38"/>
     <use x="215.0859375" xlink:href="#ArialMT-37"/>
    </g>
   </g>
   <g id="text_36">
    <!-- 24 -->
    <g style="fill:#262626;" transform="translate(581.810817531 2268.81154945)scale(0.1 -0.1)">
     <use xlink:href="#ArialMT-32"/>
     <use x="55.615234375" xlink:href="#ArialMT-34"/>
    </g>
   </g>
   <g id="text_37">
    <!-- 85243 -->
    <g style="fill:#262626;" transform="translate(511.989982301 2245.8020072)scale(0.1 -0.1)">
     <use xlink:href="#ArialMT-38"/>
     <use x="55.615234375" xlink:href="#ArialMT-35"/>
     <use x="111.23046875" xlink:href="#ArialMT-32"/>
     <use x="166.845703125" xlink:href="#ArialMT-34"/>
     <use x="222.4609375" xlink:href="#ArialMT-33"/>
    </g>
   </g>
   <g id="text_38">
    <!-- petMar2 -->
    <g style="fill:#262626;" transform="translate(147.860764013 1999.8113232)scale(0.12 -0.12)">
     <use xlink:href="#ArialMT-70"/>
     <use x="55.615234375" xlink:href="#ArialMT-65"/>
     <use x="111.23046875" xlink:href="#ArialMT-74"/>
     <use x="139.013671875" xlink:href="#ArialMT-4d"/>
     <use x="222.314453125" xlink:href="#ArialMT-61"/>
     <use x="277.9296875" xlink:href="#ArialMT-72"/>
     <use x="311.23046875" xlink:href="#ArialMT-32"/>
    </g>
   </g>
   <g id="text_39">
    <!-- petMar2_cds -->
    <defs>
     <path d="
M40.4375 19
L49.0781 17.875
Q47.6562 8.9375 41.8125 3.875
Q35.9844 -1.17188 27.4844 -1.17188
Q16.8438 -1.17188 10.375 5.78125
Q3.90625 12.75 3.90625 25.7344
Q3.90625 34.125 6.6875 40.4219
Q9.46875 46.7344 15.1562 49.875
Q20.8438 53.0312 27.5469 53.0312
Q35.9844 53.0312 41.3594 48.75
Q46.7344 44.4844 48.25 36.625
L39.7031 35.2969
Q38.4844 40.5312 35.375 43.1562
Q32.2812 45.7969 27.875 45.7969
Q21.2344 45.7969 17.0781 41.0312
Q12.9375 36.2812 12.9375 25.9844
Q12.9375 15.5312 16.9375 10.7969
Q20.9531 6.0625 27.3906 6.0625
Q32.5625 6.0625 36.0312 9.23438
Q39.5 12.4062 40.4375 19" id="ArialMT-63"/>
    </defs>
    <g style="fill:#262626;" transform="translate(533.315147064 2155.9050513)scale(0.12 -0.12)">
     <use xlink:href="#ArialMT-70"/>
     <use x="55.615234375" xlink:href="#ArialMT-65"/>
     <use x="111.23046875" xlink:href="#ArialMT-74"/>
     <use x="139.013671875" xlink:href="#ArialMT-4d"/>
     <use x="222.314453125" xlink:href="#ArialMT-61"/>
     <use x="277.9296875" xlink:href="#ArialMT-72"/>
     <use x="311.23046875" xlink:href="#ArialMT-32"/>
     <use x="366.845703125" xlink:href="#ArialMT-5f"/>
     <use x="422.4609375" xlink:href="#ArialMT-63"/>
     <use x="472.4609375" xlink:href="#ArialMT-64"/>
     <use x="528.076171875" xlink:href="#ArialMT-73"/>
    </g>
   </g>
   <g id="text_40">
    <!-- petMar2_pep -->
    <g style="fill:#262626;" transform="translate(433.43674418 2431.98608921)scale(0.12 -0.12)">
     <use xlink:href="#ArialMT-70"/>
     <use x="55.615234375" xlink:href="#ArialMT-65"/>
     <use x="111.23046875" xlink:href="#ArialMT-74"/>
     <use x="139.013671875" xlink:href="#ArialMT-4d"/>
     <use x="222.314453125" xlink:href="#ArialMT-61"/>
     <use x="277.9296875" xlink:href="#ArialMT-72"/>
     <use x="311.23046875" xlink:href="#ArialMT-32"/>
     <use x="366.845703125" xlink:href="#ArialMT-5f"/>
     <use x="422.4609375" xlink:href="#ArialMT-70"/>
     <use x="478.076171875" xlink:href="#ArialMT-65"/>
     <use x="533.69140625" xlink:href="#ArialMT-70"/>
    </g>
   </g>
  </g>
 </g>
 <defs>
  <clipPath id="p245617fa69">
   <rect height="571.065391517" width="626.4" x="10.8" y="1333.11730424"/>
  </clipPath>
  <clipPath id="p83f5e5c92c">
   <rect height="623.448954827" width="626.4" x="10.8" y="1952.22552259"/>
  </clipPath>
  <clipPath id="p665c797aac">
   <rect height="627.054054785" width="626.4" x="10.8" y="14.5229726076"/>
  </clipPath>
  <clipPath id="p866a9e6674">
   <rect height="571.769773019" width="626.4" x="10.8" y="687.46511349"/>
  </clipPath>
 </defs>
</svg>
