<?xml version="1.0" encoding="utf-8" standalone="no"?>
<!DOCTYPE svg PUBLIC "-//W3C//DTD SVG 1.1//EN"
  "http://www.w3.org/Graphics/SVG/1.1/DTD/svg11.dtd">
<!-- Created with matplotlib (http://matplotlib.org/) -->
<svg height="864pt" version="1.1" viewBox="0 0 864 864" width="864pt" xmlns="http://www.w3.org/2000/svg" xmlns:xlink="http://www.w3.org/1999/xlink">
 <defs>
  <style type="text/css">
*{stroke-linecap:butt;stroke-linejoin:round;}
  </style>
 </defs>
 <g id="figure_1">
  <g id="patch_1">
   <path d="
M0 864
L864 864
L864 0
L0 0
z
" style="fill:#ffffff;"/>
  </g>
  <g id="axes_1">
   <g id="patch_2">
    <path clip-path="url(#p43aa28dcbb)" d="
M727.291 412.534
C724.077 390.559 715.468 369.719 702.237 351.882
C689.006 334.045 671.56 319.76 651.464 310.307
C631.367 300.855 609.238 296.527 587.061 297.71
C564.884 298.893 543.342 305.552 524.365 317.089
C505.388 328.626 489.561 344.686 478.304 363.83
C467.046 382.974 460.704 404.612 459.846 426.804
C458.987 448.996 463.64 471.059 473.386 491.015
C483.132 510.971 497.671 528.205 515.7 541.173
C528.525 569.175 549.911 592.398 576.763 607.482
C603.615 622.567 634.573 628.749 665.159 625.134
C642.586 656.232 614.734 683.132 582.871 704.611
C551.008 726.09 515.625 741.818 478.331 751.078
C441.037 760.338 402.406 762.989 364.197 758.91
C325.988 754.83 288.788 744.083 254.29 727.158
C219.791 710.232 188.526 687.389 161.916 659.667
C135.307 631.944 113.762 599.77 98.2627 564.608
C82.7634 529.446 73.548 491.838 71.0359 453.493
C68.5237 415.149 72.7535 376.659 83.5327 339.776
C94.3119 302.892 111.475 268.182 134.24 237.225
C157.005 206.268 185.023 179.541 217.018 158.259
C249.013 136.977 284.493 121.468 321.843 112.439
C359.194 103.409 397.84 100.997 436.023 105.312
C474.206 109.628 511.339 120.604 545.732 137.743
C580.125 154.881 611.248 177.917 637.686 205.803
C664.124 233.689 685.47 265.996 700.752 301.253
C716.033 336.51 725.016 374.175 727.291 412.534" style="fill:#ff0000;opacity:0.4;"/>
   </g>
   <g id="patch_3">
    <path clip-path="url(#p43aa28dcbb)" d="
M694.708 342.62
C667.782 333.516 638.771 332.493 611.271 339.677
C583.771 346.861 558.968 361.943 539.935 383.053
C520.903 404.164 508.463 430.392 504.157 458.487
C499.851 486.582 503.864 515.332 515.7 541.173
C500.351 530.133 487.502 515.98 477.993 499.638
C468.483 483.297 462.526 465.132 460.511 446.333
C458.496 427.534 460.468 408.52 466.297 390.534
C472.127 372.549 481.685 355.993 494.345 341.951
C507.005 327.908 522.485 316.692 539.773 309.037
C557.06 301.381 575.769 297.456 594.676 297.52
C613.583 297.583 632.265 301.632 649.501 309.403
C666.737 317.175 682.142 328.494 694.708 342.62" style="fill:#008000;opacity:0.4;"/>
   </g>
   <g id="patch_4">
    <path clip-path="url(#p43aa28dcbb)" d="
M727.291 412.534
C724.077 390.559 715.468 369.719 702.237 351.882
C689.006 334.045 671.56 319.76 651.464 310.307
C631.367 300.855 609.238 296.527 587.061 297.71
C564.884 298.893 543.342 305.552 524.365 317.089
C505.388 328.626 489.561 344.686 478.304 363.83
C467.046 382.974 460.704 404.612 459.846 426.804
C458.987 448.996 463.64 471.059 473.386 491.015
C483.132 510.971 497.671 528.205 515.7 541.173
C502.951 513.339 499.301 482.18 505.271 452.153
C511.242 422.125 526.533 394.733 548.96 373.892
C571.386 353.051 599.825 339.806 630.209 336.049
C660.592 332.293 691.401 338.214 718.227 352.966
C708.154 312.291 690.395 273.913 665.911 239.906
C641.427 205.898 610.665 176.883 575.285 154.427
C539.906 131.97 500.557 116.483 459.362 108.802
C418.168 101.121 375.882 101.387 334.787 109.584
C293.692 117.781 254.54 133.761 219.446 156.659
C184.351 179.558 153.955 208.957 129.9 243.269
C105.844 277.581 88.5692 316.178 79.0068 356.977
C69.4445 397.776 67.77 440.03 74.0739 481.458
C80.3778 522.886 94.5445 562.729 115.809 598.837
C137.074 634.945 165.048 666.657 198.221 692.261
C231.394 717.865 269.158 736.892 309.475 748.316
C349.793 759.739 391.925 763.35 433.598 758.953
C475.272 754.556 515.723 742.231 552.768 722.645
C589.814 703.058 622.775 676.569 649.874 644.605
C676.972 612.642 697.712 575.79 710.972 536.039
C724.233 496.288 729.772 454.365 727.291 412.534" style="fill:#b25900;opacity:0.4;"/>
   </g>
   <g id="patch_5">
    <path clip-path="url(#p43aa28dcbb)" d="
M665.159 625.134
C683.495 599.876 698.14 572.134 708.654 542.747
C719.168 513.359 725.443 482.623 727.291 451.466
C730.132 432.045 728.688 412.236 723.059 393.433
C717.43 374.63 707.752 357.286 694.708 342.62
C726.007 353.204 752.791 374.133 770.628 401.945
C788.465 429.757 796.315 462.829 792.878 495.69
C789.441 528.552 774.918 559.284 751.712 582.804
C728.506 606.323 697.971 621.257 665.159 625.134" style="fill:#0000ff;opacity:0.4;"/>
   </g>
   <g id="patch_6">
    <path clip-path="url(#p43aa28dcbb)" d="
M665.159 625.134
C683.495 599.876 698.14 572.134 708.654 542.747
C719.168 513.359 725.443 482.623 727.291 451.466
C723.949 474.311 714.78 495.915 700.669 514.19
C686.558 532.465 667.976 546.801 646.719 555.813
C625.462 564.825 602.238 568.213 579.293 565.649
C556.347 563.086 534.444 554.655 515.7 541.173
C528.525 569.175 549.911 592.398 576.763 607.482
C603.615 622.567 634.573 628.749 665.159 625.134" style="fill:#b200b2;opacity:0.4;"/>
   </g>
   <g id="patch_7">
    <path clip-path="url(#p43aa28dcbb)" d="
M694.708 342.62
C677.108 336.67 658.531 334.142 639.981 335.174
C621.432 336.207 603.25 340.78 586.419 348.647
C569.589 356.514 554.418 367.531 541.729 381.1
C529.039 394.67 519.064 410.544 512.341 427.864
C505.619 445.183 502.274 463.631 502.486 482.208
C502.698 500.785 506.464 519.151 513.58 536.313
C520.696 553.474 531.032 569.116 544.028 582.393
C557.024 595.669 572.442 606.336 589.448 613.816
C606.453 621.297 624.735 625.454 643.303 626.063
C661.872 626.671 680.386 623.72 697.846 617.368
C715.305 611.017 731.388 601.382 745.225 588.985
C759.062 576.588 770.4 561.657 778.624 544.998
C786.849 528.339 791.809 510.259 793.237 491.735
C794.665 473.212 792.534 454.585 786.96 436.862
C781.386 419.14 772.471 402.647 760.697 388.276
C748.923 373.904 734.507 361.918 718.227 352.966
C722.207 369.037 724.968 385.386 726.485 401.873
C728.002 418.36 728.272 434.938 727.291 451.466
C730.132 432.045 728.688 412.236 723.059 393.433
C717.43 374.63 707.752 357.286 694.708 342.62" style="fill:#0059b2;opacity:0.4;"/>
   </g>
   <g id="patch_8">
    <path clip-path="url(#p43aa28dcbb)" d="
M727.291 451.466
C728.272 434.938 728.002 418.36 726.485 401.873
C724.968 385.386 722.207 369.037 718.227 352.966
C691.401 338.214 660.592 332.293 630.209 336.049
C599.825 339.806 571.386 353.051 548.96 373.892
C526.533 394.733 511.242 422.125 505.271 452.153
C499.301 482.18 502.951 513.339 515.7 541.173
C534.444 554.655 556.347 563.086 579.293 565.649
C602.238 568.213 625.462 564.825 646.719 555.813
C667.976 546.801 686.558 532.465 700.669 514.19
C714.78 495.915 723.949 474.311 727.291 451.466" style="fill:#663366;opacity:0.4;"/>
   </g>
   <g id="patch_9">
    <path clip-path="url(#p43aa28dcbb)" d="
M399.1 760.768
C486.291 760.768 569.921 726.127 631.574 664.474
C693.227 602.821 727.868 519.19 727.868 432
C727.868 344.81 693.227 261.179 631.574 199.526
C569.921 137.873 486.291 103.232 399.1 103.232
C311.91 103.232 228.279 137.873 166.626 199.526
C104.974 261.179 70.3326 344.81 70.3326 432
C70.3326 519.19 104.974 602.821 166.626 664.474
C228.279 726.127 311.91 760.768 399.1 760.768
z
" style="fill:none;stroke:#000000;stroke-dasharray:6.000000,6.000000;stroke-dashoffset:0.0;stroke-width:0.5;"/>
   </g>
   <g id="patch_10">
    <path clip-path="url(#p43aa28dcbb)" d="
M594.226 566.481
C629.891 566.481 664.1 552.311 689.319 527.093
C714.538 501.874 728.708 467.665 728.708 432
C728.708 396.335 714.538 362.126 689.319 336.907
C664.1 311.689 629.891 297.519 594.226 297.519
C558.561 297.519 524.353 311.689 499.134 336.907
C473.915 362.126 459.745 396.335 459.745 432
C459.745 467.665 473.915 501.874 499.134 527.093
C524.353 552.311 558.561 566.481 594.226 566.481
z
" style="fill:none;stroke:#000000;stroke-dasharray:6.000000,6.000000;stroke-dashoffset:0.0;stroke-width:0.5;"/>
   </g>
   <g id="patch_11">
    <path clip-path="url(#p43aa28dcbb)" d="
M648.072 626.141
C686.684 626.141 723.72 610.8 751.023 583.497
C778.327 556.194 793.667 519.157 793.667 480.545
C793.667 441.933 778.327 404.896 751.023 377.593
C723.72 350.29 686.684 334.949 648.072 334.949
C609.459 334.949 572.423 350.29 545.12 377.593
C517.817 404.896 502.476 441.933 502.476 480.545
C502.476 519.157 517.817 556.194 545.12 583.497
C572.423 610.8 609.459 626.141 648.072 626.141
z
" style="fill:none;stroke:#000000;stroke-dasharray:6.000000,6.000000;stroke-dashoffset:0.0;stroke-width:0.5;"/>
   </g>
   <g id="text_1">
    <!-- 436815 -->
    <defs>
     <path d="
M17.6719 38.8125
Q12.2031 40.8281 9.5625 44.5312
Q6.9375 48.25 6.9375 53.4219
Q6.9375 61.2344 12.5469 66.5469
Q18.1719 71.875 27.4844 71.875
Q36.8594 71.875 42.5781 66.4219
Q48.2969 60.9844 48.2969 53.1719
Q48.2969 48.1875 45.6719 44.5
Q43.0625 40.8281 37.75 38.8125
Q44.3438 36.6719 47.7812 31.875
Q51.2188 27.0938 51.2188 20.4531
Q51.2188 11.2812 44.7188 5.03125
Q38.2344 -1.21875 27.6406 -1.21875
Q17.0469 -1.21875 10.5469 5.04688
Q4.04688 11.3281 4.04688 20.7031
Q4.04688 27.6875 7.59375 32.3906
Q11.1406 37.1094 17.6719 38.8125
M15.9219 53.7188
Q15.9219 48.6406 19.1875 45.4062
Q22.4688 42.1875 27.6875 42.1875
Q32.7656 42.1875 36.0156 45.375
Q39.2656 48.5781 39.2656 53.2188
Q39.2656 58.0625 35.9062 61.3594
Q32.5625 64.6562 27.5938 64.6562
Q22.5625 64.6562 19.2344 61.4219
Q15.9219 58.2031 15.9219 53.7188
M13.0938 20.6562
Q13.0938 16.8906 14.875 13.375
Q16.6562 9.85938 20.1719 7.92188
Q23.6875 6 27.7344 6
Q34.0312 6 38.125 10.0469
Q42.2344 14.1094 42.2344 20.3594
Q42.2344 26.7031 38.0156 30.8594
Q33.7969 35.0156 27.4375 35.0156
Q21.2344 35.0156 17.1562 30.9062
Q13.0938 26.8125 13.0938 20.6562" id="ArialMT-38"/>
     <path d="
M37.25 0
L28.4688 0
L28.4688 56
Q25.2969 52.9844 20.1406 49.9531
Q14.9844 46.9219 10.8906 45.4062
L10.8906 53.9062
Q18.2656 57.375 23.7812 62.2969
Q29.2969 67.2344 31.5938 71.875
L37.25 71.875
z
" id="ArialMT-31"/>
     <path d="
M4.20312 18.8906
L12.9844 20.0625
Q14.5 12.5938 18.1406 9.29688
Q21.7812 6 27 6
Q33.2031 6 37.4688 10.2969
Q41.75 14.5938 41.75 20.9531
Q41.75 27 37.7969 30.9219
Q33.8438 34.8594 27.7344 34.8594
Q25.25 34.8594 21.5312 33.8906
L22.5156 41.6094
Q23.3906 41.5 23.9219 41.5
Q29.5469 41.5 34.0312 44.4219
Q38.5312 47.3594 38.5312 53.4688
Q38.5312 58.2969 35.25 61.4688
Q31.9844 64.6562 26.8125 64.6562
Q21.6875 64.6562 18.2656 61.4219
Q14.8438 58.2031 13.875 51.7656
L5.07812 53.3281
Q6.6875 62.1562 12.3906 67.0156
Q18.1094 71.875 26.6094 71.875
Q32.4688 71.875 37.3906 69.3594
Q42.3281 66.8438 44.9375 62.5
Q47.5625 58.1562 47.5625 53.2656
Q47.5625 48.6406 45.0625 44.8281
Q42.5781 41.0156 37.7031 38.7656
Q44.0469 37.3125 47.5625 32.6875
Q51.0781 28.0781 51.0781 21.1406
Q51.0781 11.7656 44.2344 5.25
Q37.4062 -1.26562 26.9531 -1.26562
Q17.5312 -1.26562 11.2969 4.34375
Q5.07812 9.96875 4.20312 18.8906" id="ArialMT-33"/>
     <path d="
M32.3281 0
L32.3281 17.1406
L1.26562 17.1406
L1.26562 25.2031
L33.9375 71.5781
L41.1094 71.5781
L41.1094 25.2031
L50.7812 25.2031
L50.7812 17.1406
L41.1094 17.1406
L41.1094 0
z

M32.3281 25.2031
L32.3281 57.4688
L9.90625 25.2031
z
" id="ArialMT-34"/>
     <path d="
M4.15625 18.75
L13.375 19.5312
Q14.4062 12.7969 18.1406 9.39062
Q21.875 6 27.1562 6
Q33.5 6 37.8906 10.7812
Q42.2812 15.5781 42.2812 23.4844
Q42.2812 31 38.0625 35.3438
Q33.8438 39.7031 27 39.7031
Q22.75 39.7031 19.3281 37.7656
Q15.9219 35.8438 13.9688 32.7656
L5.71875 33.8438
L12.6406 70.6094
L48.25 70.6094
L48.25 62.2031
L19.6719 62.2031
L15.8281 42.9688
Q22.2656 47.4688 29.3438 47.4688
Q38.7188 47.4688 45.1562 40.9688
Q51.6094 34.4688 51.6094 24.2656
Q51.6094 14.5469 45.9531 7.46875
Q39.0625 -1.21875 27.1562 -1.21875
Q17.3906 -1.21875 11.2031 4.25
Q5.03125 9.71875 4.15625 18.75" id="ArialMT-35"/>
     <path d="
M49.75 54.0469
L41.0156 53.375
Q39.8438 58.5469 37.7031 60.8906
Q34.125 64.6562 28.9062 64.6562
Q24.7031 64.6562 21.5312 62.3125
Q17.3906 59.2812 14.9844 53.4688
Q12.5938 47.6562 12.5 36.9219
Q15.6719 41.75 20.2656 44.0938
Q24.8594 46.4375 29.8906 46.4375
Q38.6719 46.4375 44.8438 39.9688
Q51.0312 33.5 51.0312 23.25
Q51.0312 16.5 48.125 10.7188
Q45.2188 4.9375 40.1406 1.85938
Q35.0625 -1.21875 28.6094 -1.21875
Q17.625 -1.21875 10.6875 6.85938
Q3.76562 14.9375 3.76562 33.5
Q3.76562 54.25 11.4219 63.6719
Q18.1094 71.875 29.4375 71.875
Q37.8906 71.875 43.2812 67.1406
Q48.6875 62.4062 49.75 54.0469
M13.875 23.1875
Q13.875 18.6562 15.7969 14.5
Q17.7188 10.3594 21.1875 8.17188
Q24.6562 6 28.4688 6
Q34.0312 6 38.0312 10.4844
Q42.0469 14.9844 42.0469 22.7031
Q42.0469 30.125 38.0781 34.3906
Q34.125 38.6719 28.125 38.6719
Q22.1719 38.6719 18.0156 34.3906
Q13.875 30.125 13.875 23.1875" id="ArialMT-36"/>
    </defs>
    <g style="fill:#262626;" transform="translate(404.074910114 649.359309836)scale(0.1 -0.1)">
     <use xlink:href="#ArialMT-34"/>
     <use x="55.615234375" xlink:href="#ArialMT-33"/>
     <use x="111.23046875" xlink:href="#ArialMT-36"/>
     <use x="166.845703125" xlink:href="#ArialMT-38"/>
     <use x="222.4609375" xlink:href="#ArialMT-31"/>
     <use x="278.076171875" xlink:href="#ArialMT-35"/>
    </g>
   </g>
   <g id="text_2">
    <!-- 11 -->
    <g style="fill:#262626;" transform="translate(590.496638744 434.58515625)scale(0.1 -0.1)">
     <use xlink:href="#ArialMT-31"/>
     <use x="48.240234375" xlink:href="#ArialMT-31"/>
    </g>
   </g>
   <g id="text_3">
    <!-- 24739 -->
    <defs>
     <path d="
M5.46875 16.5469
L13.9219 17.3281
Q14.9844 11.375 18.0156 8.6875
Q21.0469 6 25.7812 6
Q29.8281 6 32.875 7.85938
Q35.9375 9.71875 37.8906 12.8125
Q39.8438 15.9219 41.1562 21.1875
Q42.4844 26.4688 42.4844 31.9375
Q42.4844 32.5156 42.4375 33.6875
Q39.7969 29.5 35.2344 26.875
Q30.6719 24.2656 25.3438 24.2656
Q16.4531 24.2656 10.2969 30.7031
Q4.15625 37.1562 4.15625 47.7031
Q4.15625 58.5938 10.5781 65.2344
Q17 71.875 26.6562 71.875
Q33.6406 71.875 39.4219 68.1094
Q45.2188 64.3594 48.2188 57.3906
Q51.2188 50.4375 51.2188 37.25
Q51.2188 23.5312 48.2344 15.4062
Q45.2656 7.28125 39.375 3.03125
Q33.5 -1.21875 25.5938 -1.21875
Q17.1875 -1.21875 11.8594 3.4375
Q6.54688 8.10938 5.46875 16.5469
M41.4531 48.1406
Q41.4531 55.7188 37.4219 60.1562
Q33.4062 64.5938 27.7344 64.5938
Q21.875 64.5938 17.5312 59.8125
Q13.1875 55.0312 13.1875 47.4062
Q13.1875 40.5781 17.3125 36.2969
Q21.4375 32.0312 27.4844 32.0312
Q33.5938 32.0312 37.5156 36.2969
Q41.4531 40.5781 41.4531 48.1406" id="ArialMT-39"/>
     <path d="
M50.3438 8.45312
L50.3438 0
L3.03125 0
Q2.9375 3.17188 4.04688 6.10938
Q5.85938 10.9375 9.82812 15.625
Q13.8125 20.3125 21.3438 26.4688
Q33.0156 36.0312 37.1094 41.625
Q41.2188 47.2188 41.2188 52.2031
Q41.2188 57.4219 37.4688 61
Q33.7344 64.5938 27.7344 64.5938
Q21.3906 64.5938 17.5781 60.7812
Q13.7656 56.9844 13.7188 50.25
L4.6875 51.1719
Q5.60938 61.2812 11.6562 66.5781
Q17.7188 71.875 27.9375 71.875
Q38.2344 71.875 44.2344 66.1562
Q50.25 60.4531 50.25 52
Q50.25 47.7031 48.4844 43.5469
Q46.7344 39.4062 42.6562 34.8125
Q38.5781 30.2188 29.1094 22.2188
Q21.1875 15.5781 18.9375 13.2031
Q16.7031 10.8438 15.2344 8.45312
z
" id="ArialMT-32"/>
     <path d="
M4.73438 62.2031
L4.73438 70.6562
L51.0781 70.6562
L51.0781 63.8125
Q44.2344 56.5469 37.5156 44.4844
Q30.8125 32.4219 27.1562 19.6719
Q24.5156 10.6875 23.7812 0
L14.75 0
Q14.8906 8.45312 18.0625 20.4062
Q21.2344 32.375 27.1719 43.4844
Q33.1094 54.5938 39.7969 62.2031
z
" id="ArialMT-37"/>
    </defs>
    <g style="fill:#262626;" transform="translate(729.380458276 401.705008423)scale(0.1 -0.1)">
     <use xlink:href="#ArialMT-32"/>
     <use x="55.615234375" xlink:href="#ArialMT-34"/>
     <use x="111.23046875" xlink:href="#ArialMT-37"/>
     <use x="166.845703125" xlink:href="#ArialMT-33"/>
     <use x="222.4609375" xlink:href="#ArialMT-39"/>
    </g>
   </g>
   <g id="text_4">
    <!-- 23769 -->
    <g style="fill:#262626;" transform="translate(713.755350542 529.669129686)scale(0.1 -0.1)">
     <use xlink:href="#ArialMT-32"/>
     <use x="55.615234375" xlink:href="#ArialMT-33"/>
     <use x="111.23046875" xlink:href="#ArialMT-37"/>
     <use x="166.845703125" xlink:href="#ArialMT-36"/>
     <use x="222.4609375" xlink:href="#ArialMT-39"/>
    </g>
   </g>
   <g id="text_5">
    <!-- 16664 -->
    <g style="fill:#262626;" transform="translate(639.757896539 594.270658016)scale(0.1 -0.1)">
     <use xlink:href="#ArialMT-31"/>
     <use x="55.615234375" xlink:href="#ArialMT-36"/>
     <use x="111.23046875" xlink:href="#ArialMT-36"/>
     <use x="166.845703125" xlink:href="#ArialMT-36"/>
     <use x="222.4609375" xlink:href="#ArialMT-34"/>
    </g>
   </g>
   <g id="text_6">
    <!-- 24 -->
    <g style="fill:#262626;" transform="translate(699.080015318 342.3196275)scale(0.1 -0.1)">
     <use xlink:href="#ArialMT-32"/>
     <use x="55.615234375" xlink:href="#ArialMT-34"/>
    </g>
   </g>
   <g id="text_7">
    <!-- 66341 -->
    <g style="fill:#262626;" transform="translate(640.943388734 451.120333644)scale(0.1 -0.1)">
     <use xlink:href="#ArialMT-36"/>
     <use x="55.615234375" xlink:href="#ArialMT-36"/>
     <use x="111.23046875" xlink:href="#ArialMT-33"/>
     <use x="166.845703125" xlink:href="#ArialMT-34"/>
     <use x="222.4609375" xlink:href="#ArialMT-31"/>
    </g>
   </g>
   <g id="text_8">
    <!-- petMar -->
    <defs>
     <path d="
M40.4375 6.39062
Q35.5469 2.25 31.0312 0.53125
Q26.5156 -1.17188 21.3438 -1.17188
Q12.7969 -1.17188 8.20312 3
Q3.60938 7.17188 3.60938 13.6719
Q3.60938 17.4844 5.34375 20.625
Q7.07812 23.7812 9.89062 25.6875
Q12.7031 27.5938 16.2188 28.5625
Q18.7969 29.25 24.0312 29.8906
Q34.6719 31.1562 39.7031 32.9062
Q39.75 34.7188 39.75 35.2031
Q39.75 40.5781 37.25 42.7812
Q33.8906 45.75 27.25 45.75
Q21.0469 45.75 18.0938 43.5781
Q15.1406 41.4062 13.7188 35.8906
L5.125 37.0625
Q6.29688 42.5781 8.98438 45.9688
Q11.6719 49.3594 16.75 51.1875
Q21.8281 53.0312 28.5156 53.0312
Q35.1562 53.0312 39.2969 51.4688
Q43.4531 49.9062 45.4062 47.5312
Q47.3594 45.1719 48.1406 41.5469
Q48.5781 39.3125 48.5781 33.4531
L48.5781 21.7344
Q48.5781 9.46875 49.1406 6.21875
Q49.7031 2.98438 51.375 0
L42.1875 0
Q40.8281 2.73438 40.4375 6.39062
M39.7031 26.0312
Q34.9062 24.0781 25.3438 22.7031
Q19.9219 21.9219 17.6719 20.9375
Q15.4375 19.9688 14.2031 18.0938
Q12.9844 16.2188 12.9844 13.9219
Q12.9844 10.4062 15.6406 8.0625
Q18.3125 5.71875 23.4375 5.71875
Q28.5156 5.71875 32.4688 7.9375
Q36.4219 10.1562 38.2812 14.0156
Q39.7031 17 39.7031 22.7969
z
" id="ArialMT-61"/>
     <path d="
M42.0938 16.7031
L51.1719 15.5781
Q49.0312 7.625 43.2188 3.21875
Q37.4062 -1.17188 28.375 -1.17188
Q17 -1.17188 10.3281 5.82812
Q3.65625 12.8438 3.65625 25.4844
Q3.65625 38.5781 10.3906 45.7969
Q17.1406 53.0312 27.875 53.0312
Q38.2812 53.0312 44.875 45.9531
Q51.4688 38.875 51.4688 26.0312
Q51.4688 25.25 51.4219 23.6875
L12.75 23.6875
Q13.2344 15.1406 17.5781 10.5938
Q21.9219 6.0625 28.4219 6.0625
Q33.25 6.0625 36.6719 8.59375
Q40.0938 11.1406 42.0938 16.7031
M13.2344 30.9062
L42.1875 30.9062
Q41.6094 37.4531 38.875 40.7188
Q34.6719 45.7969 27.9844 45.7969
Q21.9219 45.7969 17.7969 41.75
Q13.6719 37.7031 13.2344 30.9062" id="ArialMT-65"/>
     <path d="
M25.7812 7.85938
L27.0469 0.09375
Q23.3438 -0.6875 20.4062 -0.6875
Q15.625 -0.6875 12.9844 0.828125
Q10.3594 2.34375 9.28125 4.8125
Q8.20312 7.28125 8.20312 15.1875
L8.20312 45.0156
L1.76562 45.0156
L1.76562 51.8594
L8.20312 51.8594
L8.20312 64.7031
L16.9375 69.9688
L16.9375 51.8594
L25.7812 51.8594
L25.7812 45.0156
L16.9375 45.0156
L16.9375 14.7031
Q16.9375 10.9375 17.4062 9.85938
Q17.875 8.79688 18.9219 8.15625
Q19.9688 7.51562 21.9219 7.51562
Q23.3906 7.51562 25.7812 7.85938" id="ArialMT-74"/>
     <path d="
M6.59375 -19.875
L6.59375 51.8594
L14.5938 51.8594
L14.5938 45.125
Q17.4375 49.0781 21 51.0469
Q24.5625 53.0312 29.6406 53.0312
Q36.2812 53.0312 41.3594 49.6094
Q46.4375 46.1875 49.0156 39.9531
Q51.6094 33.7344 51.6094 26.3125
Q51.6094 18.3594 48.75 11.9844
Q45.9062 5.60938 40.4531 2.21875
Q35.0156 -1.17188 29 -1.17188
Q24.6094 -1.17188 21.1094 0.6875
Q17.625 2.54688 15.375 5.375
L15.375 -19.875
z

M14.5469 25.6406
Q14.5469 15.625 18.5938 10.8438
Q22.6562 6.0625 28.4219 6.0625
Q34.2812 6.0625 38.4531 11.0156
Q42.625 15.9688 42.625 26.375
Q42.625 36.2812 38.5469 41.2031
Q34.4688 46.1406 28.8125 46.1406
Q23.1875 46.1406 18.8594 40.8906
Q14.5469 35.6406 14.5469 25.6406" id="ArialMT-70"/>
     <path d="
M6.5 0
L6.5 51.8594
L14.4062 51.8594
L14.4062 44
Q17.4375 49.5156 20 51.2656
Q22.5625 53.0312 25.6406 53.0312
Q30.0781 53.0312 34.6719 50.2031
L31.6406 42.0469
Q28.4219 43.9531 25.2031 43.9531
Q22.3125 43.9531 20.0156 42.2188
Q17.7188 40.4844 16.75 37.4062
Q15.2812 32.7188 15.2812 27.1562
L15.2812 0
z
" id="ArialMT-72"/>
     <path d="
M7.42188 0
L7.42188 71.5781
L21.6875 71.5781
L38.625 20.9062
Q40.9688 13.8125 42.0469 10.2969
Q43.2656 14.2031 45.8438 21.7812
L62.9844 71.5781
L75.7344 71.5781
L75.7344 0
L66.6094 0
L66.6094 59.9062
L45.7969 0
L37.25 0
L16.5469 60.9375
L16.5469 0
z
" id="ArialMT-4d"/>
    </defs>
    <g style="fill:#262626;" transform="translate(197.998312692 103.232249347)scale(0.12 -0.12)">
     <use xlink:href="#ArialMT-70"/>
     <use x="55.615234375" xlink:href="#ArialMT-65"/>
     <use x="111.23046875" xlink:href="#ArialMT-74"/>
     <use x="139.013671875" xlink:href="#ArialMT-4d"/>
     <use x="222.314453125" xlink:href="#ArialMT-61"/>
     <use x="277.9296875" xlink:href="#ArialMT-72"/>
    </g>
   </g>
   <g id="text_9">
    <!-- petMar_cds -->
    <defs>
     <path d="
M40.4375 19
L49.0781 17.875
Q47.6562 8.9375 41.8125 3.875
Q35.9844 -1.17188 27.4844 -1.17188
Q16.8438 -1.17188 10.375 5.78125
Q3.90625 12.75 3.90625 25.7344
Q3.90625 34.125 6.6875 40.4219
Q9.46875 46.7344 15.1562 49.875
Q20.8438 53.0312 27.5469 53.0312
Q35.9844 53.0312 41.3594 48.75
Q46.7344 44.4844 48.25 36.625
L39.7031 35.2969
Q38.4844 40.5312 35.375 43.1562
Q32.2812 45.7969 27.875 45.7969
Q21.2344 45.7969 17.0781 41.0312
Q12.9375 36.2812 12.9375 25.9844
Q12.9375 15.5312 16.9375 10.7969
Q20.9531 6.0625 27.3906 6.0625
Q32.5625 6.0625 36.0312 9.23438
Q39.5 12.4062 40.4375 19" id="ArialMT-63"/>
     <path d="
M3.07812 15.4844
L11.7656 16.8438
Q12.5 11.625 15.8438 8.84375
Q19.1875 6.0625 25.2031 6.0625
Q31.25 6.0625 34.1719 8.51562
Q37.1094 10.9844 37.1094 14.3125
Q37.1094 17.2812 34.5156 19
Q32.7188 20.1719 25.5312 21.9688
Q15.875 24.4219 12.1406 26.2031
Q8.40625 27.9844 6.46875 31.125
Q4.54688 34.2812 4.54688 38.0938
Q4.54688 41.5469 6.125 44.5
Q7.71875 47.4688 10.4531 49.4219
Q12.5 50.9219 16.0312 51.9688
Q19.5781 53.0312 23.6406 53.0312
Q29.7344 53.0312 34.3438 51.2656
Q38.9688 49.5156 41.1562 46.5
Q43.3594 43.5 44.1875 38.4844
L35.5938 37.3125
Q35.0156 41.3125 32.2031 43.5469
Q29.3906 45.7969 24.2656 45.7969
Q18.2188 45.7969 15.625 43.7969
Q13.0312 41.7969 13.0312 39.1094
Q13.0312 37.4062 14.1094 36.0312
Q15.1875 34.625 17.4844 33.6875
Q18.7969 33.2031 25.25 31.4531
Q34.5781 28.9531 38.25 27.3594
Q41.9375 25.7812 44.0312 22.75
Q46.1406 19.7344 46.1406 15.2344
Q46.1406 10.8438 43.5781 6.95312
Q41.0156 3.07812 36.1719 0.953125
Q31.3438 -1.17188 25.25 -1.17188
Q15.1406 -1.17188 9.84375 3.03125
Q4.54688 7.23438 3.07812 15.4844" id="ArialMT-73"/>
     <path d="
M-1.51562 -19.875
L-1.51562 -13.5312
L56.7344 -13.5312
L56.7344 -19.875
z
" id="ArialMT-5f"/>
     <path d="
M40.2344 0
L40.2344 6.54688
Q35.2969 -1.17188 25.7344 -1.17188
Q19.5312 -1.17188 14.3281 2.25
Q9.125 5.67188 6.26562 11.7969
Q3.42188 17.9219 3.42188 25.875
Q3.42188 33.6406 6 39.9688
Q8.59375 46.2969 13.7656 49.6562
Q18.9531 53.0312 25.3438 53.0312
Q30.0312 53.0312 33.6875 51.0469
Q37.3594 49.0781 39.6562 45.9062
L39.6562 71.5781
L48.3906 71.5781
L48.3906 0
z

M12.4531 25.875
Q12.4531 15.9219 16.6406 10.9844
Q20.8438 6.0625 26.5625 6.0625
Q32.3281 6.0625 36.3438 10.7656
Q40.375 15.4844 40.375 25.1406
Q40.375 35.7969 36.2656 40.7656
Q32.1719 45.75 26.1719 45.75
Q20.3125 45.75 16.375 40.9688
Q12.4531 36.1875 12.4531 25.875" id="ArialMT-64"/>
    </defs>
    <g style="fill:#262626;" transform="translate(661.466942393 297.518767702)scale(0.12 -0.12)">
     <use xlink:href="#ArialMT-70"/>
     <use x="55.615234375" xlink:href="#ArialMT-65"/>
     <use x="111.23046875" xlink:href="#ArialMT-74"/>
     <use x="139.013671875" xlink:href="#ArialMT-4d"/>
     <use x="222.314453125" xlink:href="#ArialMT-61"/>
     <use x="277.9296875" xlink:href="#ArialMT-72"/>
     <use x="311.23046875" xlink:href="#ArialMT-5f"/>
     <use x="366.845703125" xlink:href="#ArialMT-63"/>
     <use x="416.845703125" xlink:href="#ArialMT-64"/>
     <use x="472.4609375" xlink:href="#ArialMT-73"/>
    </g>
   </g>
   <g id="text_10">
    <!-- braFlo -->
    <defs>
     <path d="
M6.39062 0
L6.39062 71.5781
L15.1875 71.5781
L15.1875 0
z
" id="ArialMT-6c"/>
     <path d="
M14.7031 0
L6.54688 0
L6.54688 71.5781
L15.3281 71.5781
L15.3281 46.0469
Q20.9062 53.0312 29.5469 53.0312
Q34.3281 53.0312 38.5938 51.0938
Q42.875 49.1719 45.625 45.6719
Q48.3906 42.1875 49.9531 37.25
Q51.5156 32.3281 51.5156 26.7031
Q51.5156 13.375 44.9219 6.09375
Q38.3281 -1.17188 29.1094 -1.17188
Q19.9219 -1.17188 14.7031 6.5
z

M14.5938 26.3125
Q14.5938 17 17.1406 12.8438
Q21.2969 6.0625 28.375 6.0625
Q34.125 6.0625 38.3281 11.0625
Q42.5312 16.0625 42.5312 25.9844
Q42.5312 36.1406 38.5 40.9688
Q34.4688 45.7969 28.7656 45.7969
Q23 45.7969 18.7969 40.7969
Q14.5938 35.7969 14.5938 26.3125" id="ArialMT-62"/>
     <path d="
M3.32812 25.9219
Q3.32812 40.3281 11.3281 47.2656
Q18.0156 53.0312 27.6406 53.0312
Q38.3281 53.0312 45.1094 46.0156
Q51.9062 39.0156 51.9062 26.6562
Q51.9062 16.6562 48.9062 10.9062
Q45.9062 5.17188 40.1562 2
Q34.4219 -1.17188 27.6406 -1.17188
Q16.75 -1.17188 10.0312 5.8125
Q3.32812 12.7969 3.32812 25.9219
M12.3594 25.9219
Q12.3594 15.9688 16.7031 11.0156
Q21.0469 6.0625 27.6406 6.0625
Q34.1875 6.0625 38.5312 11.0312
Q42.875 16.0156 42.875 26.2188
Q42.875 35.8438 38.5 40.7969
Q34.125 45.75 27.6406 45.75
Q21.0469 45.75 16.7031 40.8125
Q12.3594 35.8906 12.3594 25.9219" id="ArialMT-6f"/>
     <path d="
M8.20312 0
L8.20312 71.5781
L56.5 71.5781
L56.5 63.1406
L17.6719 63.1406
L17.6719 40.9688
L51.2656 40.9688
L51.2656 32.5156
L17.6719 32.5156
L17.6719 0
z
" id="ArialMT-46"/>
    </defs>
    <g style="fill:#262626;" transform="translate(631.681508483 649.289579172)scale(0.12 -0.12)">
     <use xlink:href="#ArialMT-62"/>
     <use x="55.615234375" xlink:href="#ArialMT-72"/>
     <use x="88.916015625" xlink:href="#ArialMT-61"/>
     <use x="144.53125" xlink:href="#ArialMT-46"/>
     <use x="205.615234375" xlink:href="#ArialMT-6c"/>
     <use x="227.83203125" xlink:href="#ArialMT-6f"/>
    </g>
   </g>
  </g>
 </g>
 <defs>
  <clipPath id="p43aa28dcbb">
   <rect height="776.600626036" width="842.4" x="10.8" y="43.6996869822"/>
  </clipPath>
 </defs>
</svg>
