<?xml version="1.0" encoding="utf-8" standalone="no"?>
<!DOCTYPE svg PUBLIC "-//W3C//DTD SVG 1.1//EN"
  "http://www.w3.org/Graphics/SVG/1.1/DTD/svg11.dtd">
<!-- Created with matplotlib (http://matplotlib.org/) -->
<svg height="1728pt" version="1.1" viewBox="0 0 864 1728" width="864pt" xmlns="http://www.w3.org/2000/svg" xmlns:xlink="http://www.w3.org/1999/xlink">
 <defs>
  <style type="text/css">
*{stroke-linecap:butt;stroke-linejoin:round;}
  </style>
 </defs>
 <g id="figure_1">
  <g id="patch_1">
   <path d="
M0 1728
L864 1728
L864 0
L0 0
z
" style="fill:#ffffff;"/>
  </g>
  <g id="axes_1">
   <g id="patch_2">
    <path clip-path="url(#p82c4d4019c)" d="
M789.082 413.25
C786.335 371.628 775.619 330.919 757.517 293.339
C739.415 255.76 714.262 222.005 683.428 193.913
C652.593 165.822 616.648 143.912 577.55 129.379
C538.452 114.845 496.924 107.956 455.227 109.086
C413.53 110.217 372.436 119.346 334.183 135.977
C295.93 152.608 261.225 176.434 231.958 206.155
C202.692 235.877 179.405 270.945 163.366 309.45
C147.327 347.955 138.832 389.185 138.345 430.894
C137.858 472.604 145.386 514.021 160.521 552.89
C175.656 591.76 198.117 627.362 226.682 657.76
C255.246 688.157 289.384 712.786 327.239 730.307
C365.093 747.827 405.962 757.914 447.621 760.018
C489.28 762.123 530.958 756.206 570.385 742.59
C609.812 728.974 646.26 707.91 677.742 680.547
C709.224 653.183 735.159 620.025 754.134 582.879
C773.109 545.732 784.774 505.285 788.492 463.739
C788.533 463.367 788.572 462.996 788.61 462.624
C788.648 462.253 788.684 461.881 788.72 461.509
C785.275 507.344 773.03 552.089 752.654 593.291
C732.278 634.493 704.152 671.384 669.816 701.943
C635.481 732.502 595.576 756.159 552.289 771.617
C509.002 787.076 463.138 794.049 417.213 792.153
C371.287 790.257 326.154 779.528 284.289 760.554
C242.423 741.581 204.603 714.715 172.904 681.43
C141.204 648.146 116.213 609.062 99.3028 566.321
C82.3922 523.58 73.8759 477.978 74.2209 432.015
C74.566 386.051 83.7658 340.582 101.316 298.1
C118.867 255.618 144.441 216.913 176.637 184.108
C208.833 151.303 247.051 125.009 289.197 106.665
C331.343 88.3221 376.632 78.2719 422.58 77.0658
C468.529 75.8596 514.283 83.5199 557.333 99.6268
C600.383 115.734 639.929 139.987 673.801 171.058
C707.674 202.129 735.244 239.438 754.999 280.941
C774.753 322.444 786.326 367.368 789.082 413.25" style="fill:#ff0000;opacity:0.4;"/>
   </g>
   <g id="patch_3">
    <path clip-path="url(#p82c4d4019c)" d="
M789.404 450.54
C790.044 428.817 786.454 407.175 778.833 386.823
C771.212 366.471 759.705 347.793 744.955 331.833
C730.204 315.874 712.489 302.934 692.799 293.736
C673.109 284.539 651.816 279.258 630.11 278.189
C608.404 277.12 586.696 280.282 566.197 287.5
C545.698 294.718 526.797 305.854 510.549 320.287
C494.301 334.72 481.014 352.176 471.43 371.68
C461.846 391.185 456.146 412.369 454.649 434.05
C453.151 455.731 455.885 477.498 462.696 498.135
C469.508 518.772 480.269 537.889 494.378 554.419
C508.488 570.948 525.678 584.577 544.99 594.544
C564.302 604.512 585.369 610.629 607.016 612.554
C628.663 614.479 650.48 612.175 671.247 605.772
C692.015 599.369 711.341 588.988 728.145 575.208
C744.95 561.427 758.916 544.509 769.262 525.398
C779.609 506.286 786.14 485.344 788.492 463.739
C784.704 506.066 772.668 547.246 753.066 584.952
C733.463 622.657 706.67 656.165 674.2 683.581
C641.73 710.997 604.206 731.796 563.749 744.802
C523.291 757.809 480.677 762.773 438.313 759.414
C395.949 756.056 354.649 744.439 316.747 725.221
C278.844 706.002 245.066 679.55 217.322 647.36
C189.577 615.17 168.398 577.86 154.982 537.537
C141.565 497.213 136.169 454.652 139.097 412.256
C142.025 369.86 153.222 328.445 172.054 290.349
C190.887 252.253 216.994 218.208 248.901 190.138
C280.808 162.068 317.901 140.511 358.086 126.686
C398.271 112.861 440.776 107.032 483.199 109.53
C525.622 112.027 567.149 122.803 605.434 141.248
C643.72 159.693 678.028 185.453 706.42 217.073
C734.813 248.693 756.745 285.565 770.978 325.608
C785.21 365.65 791.47 408.094 789.404 450.54" style="fill:#b25900;opacity:0.4;"/>
   </g>
   <g id="patch_4">
    <path clip-path="url(#p82c4d4019c)" d="
M788.492 463.739
C788.689 461.542 788.863 459.344 789.015 457.144
C789.167 454.944 789.297 452.743 789.404 450.54
C790.044 428.817 786.454 407.175 778.833 386.823
C771.212 366.471 759.705 347.793 744.955 331.833
C730.204 315.874 712.489 302.934 692.799 293.736
C673.109 284.539 651.816 279.258 630.11 278.189
C608.404 277.12 586.696 280.282 566.197 287.5
C545.698 294.718 526.797 305.854 510.549 320.287
C494.301 334.72 481.014 352.176 471.43 371.68
C461.846 391.185 456.146 412.369 454.649 434.05
C453.151 455.731 455.885 477.498 462.696 498.135
C469.508 518.772 480.269 537.889 494.378 554.419
C508.488 570.948 525.678 584.577 544.99 594.544
C564.302 604.512 585.369 610.629 607.016 612.554
C628.663 614.479 650.48 612.175 671.247 605.772
C692.015 599.369 711.341 588.988 728.145 575.208
C744.95 561.427 758.916 544.509 769.262 525.398
C779.609 506.286 786.14 485.344 788.492 463.739" style="fill:#663366;opacity:0.4;"/>
   </g>
   <g id="patch_5">
    <path clip-path="url(#p82c4d4019c)" d="
M431.968 792.457
C526.847 792.457 617.852 754.762 684.941 687.673
C752.03 620.584 789.726 529.578 789.726 434.7
C789.726 339.822 752.03 248.816 684.941 181.727
C617.852 114.638 526.847 76.9426 431.968 76.9426
C337.09 76.9426 246.085 114.638 178.996 181.727
C111.906 248.816 74.2109 339.822 74.2109 434.7
C74.2109 529.578 111.906 620.584 178.996 687.673
C246.085 754.762 337.09 792.457 431.968 792.457
z
" style="fill:none;stroke:#000000;stroke-dasharray:6.000000,6.000000;stroke-dashoffset:0.0;stroke-width:0.5;"/>
   </g>
   <g id="patch_6">
    <path clip-path="url(#p82c4d4019c)" d="
M464.056 760.433
C550.441 760.433 633.3 726.112 694.384 665.028
C755.468 603.944 789.789 521.085 789.789 434.7
C789.789 348.315 755.468 265.456 694.384 204.372
C633.3 143.288 550.441 108.967 464.056 108.967
C377.67 108.967 294.811 143.288 233.728 204.372
C172.644 265.456 138.323 348.315 138.323 434.7
C138.323 521.085 172.644 603.944 233.728 665.028
C294.811 726.112 377.67 760.433 464.056 760.433
z
" style="fill:none;stroke:#000000;stroke-dasharray:6.000000,6.000000;stroke-dashoffset:0.0;stroke-width:0.5;"/>
   </g>
   <g id="patch_7">
    <path clip-path="url(#p82c4d4019c)" d="
M621.863 613.212
C666.315 613.212 708.952 595.552 740.384 564.12
C771.816 532.688 789.477 490.051 789.477 445.599
C789.477 401.148 771.816 358.511 740.384 327.079
C708.952 295.647 666.315 277.986 621.863 277.986
C577.412 277.986 534.775 295.647 503.343 327.079
C471.911 358.511 454.25 401.148 454.25 445.599
C454.25 490.051 471.911 532.688 503.343 564.12
C534.775 595.552 577.412 613.212 621.863 613.212
z
" style="fill:none;stroke:#000000;stroke-dasharray:6.000000,6.000000;stroke-dashoffset:0.0;stroke-width:0.5;"/>
   </g>
   <g id="text_1">
    <!-- 123268 -->
    <defs>
     <path d="
M19.1875 8.29688
L53.6094 8.29688
L53.6094 0
L7.32812 0
L7.32812 8.29688
Q12.9375 14.1094 22.625 23.8906
Q32.3281 33.6875 34.8125 36.5312
Q39.5469 41.8438 41.4219 45.5312
Q43.3125 49.2188 43.3125 52.7812
Q43.3125 58.5938 39.2344 62.25
Q35.1562 65.9219 28.6094 65.9219
Q23.9688 65.9219 18.8125 64.3125
Q13.6719 62.7031 7.8125 59.4219
L7.8125 69.3906
Q13.7656 71.7812 18.9375 73
Q24.125 74.2188 28.4219 74.2188
Q39.75 74.2188 46.4844 68.5469
Q53.2188 62.8906 53.2188 53.4219
Q53.2188 48.9219 51.5312 44.8906
Q49.8594 40.875 45.4062 35.4062
Q44.1875 33.9844 37.6406 27.2188
Q31.1094 20.4531 19.1875 8.29688" id="BitstreamVeraSans-Roman-32"/>
     <path d="
M40.5781 39.3125
Q47.6562 37.7969 51.625 33
Q55.6094 28.2188 55.6094 21.1875
Q55.6094 10.4062 48.1875 4.48438
Q40.7656 -1.42188 27.0938 -1.42188
Q22.5156 -1.42188 17.6562 -0.515625
Q12.7969 0.390625 7.625 2.20312
L7.625 11.7188
Q11.7188 9.32812 16.5938 8.10938
Q21.4844 6.89062 26.8125 6.89062
Q36.0781 6.89062 40.9375 10.5469
Q45.7969 14.2031 45.7969 21.1875
Q45.7969 27.6406 41.2812 31.2656
Q36.7656 34.9062 28.7188 34.9062
L20.2188 34.9062
L20.2188 43.0156
L29.1094 43.0156
Q36.375 43.0156 40.2344 45.9219
Q44.0938 48.8281 44.0938 54.2969
Q44.0938 59.9062 40.1094 62.9062
Q36.1406 65.9219 28.7188 65.9219
Q24.6562 65.9219 20.0156 65.0312
Q15.375 64.1562 9.8125 62.3125
L9.8125 71.0938
Q15.4375 72.6562 20.3438 73.4375
Q25.25 74.2188 29.5938 74.2188
Q40.8281 74.2188 47.3594 69.1094
Q53.9062 64.0156 53.9062 55.3281
Q53.9062 49.2656 50.4375 45.0938
Q46.9688 40.9219 40.5781 39.3125" id="BitstreamVeraSans-Roman-33"/>
     <path d="
M31.7812 34.625
Q24.75 34.625 20.7188 30.8594
Q16.7031 27.0938 16.7031 20.5156
Q16.7031 13.9219 20.7188 10.1562
Q24.75 6.39062 31.7812 6.39062
Q38.8125 6.39062 42.8594 10.1719
Q46.9219 13.9688 46.9219 20.5156
Q46.9219 27.0938 42.8906 30.8594
Q38.875 34.625 31.7812 34.625
M21.9219 38.8125
Q15.5781 40.375 12.0312 44.7188
Q8.5 49.0781 8.5 55.3281
Q8.5 64.0625 14.7188 69.1406
Q20.9531 74.2188 31.7812 74.2188
Q42.6719 74.2188 48.875 69.1406
Q55.0781 64.0625 55.0781 55.3281
Q55.0781 49.0781 51.5312 44.7188
Q48 40.375 41.7031 38.8125
Q48.8281 37.1562 52.7969 32.3125
Q56.7812 27.4844 56.7812 20.5156
Q56.7812 9.90625 50.3125 4.23438
Q43.8438 -1.42188 31.7812 -1.42188
Q19.7344 -1.42188 13.25 4.23438
Q6.78125 9.90625 6.78125 20.5156
Q6.78125 27.4844 10.7812 32.3125
Q14.7969 37.1562 21.9219 38.8125
M18.3125 54.3906
Q18.3125 48.7344 21.8438 45.5625
Q25.3906 42.3906 31.7812 42.3906
Q38.1406 42.3906 41.7188 45.5625
Q45.3125 48.7344 45.3125 54.3906
Q45.3125 60.0625 41.7188 63.2344
Q38.1406 66.4062 31.7812 66.4062
Q25.3906 66.4062 21.8438 63.2344
Q18.3125 60.0625 18.3125 54.3906" id="BitstreamVeraSans-Roman-38"/>
     <path d="
M12.4062 8.29688
L28.5156 8.29688
L28.5156 63.9219
L10.9844 60.4062
L10.9844 69.3906
L28.4219 72.9062
L38.2812 72.9062
L38.2812 8.29688
L54.3906 8.29688
L54.3906 0
L12.4062 0
z
" id="BitstreamVeraSans-Roman-31"/>
     <path d="
M33.0156 40.375
Q26.375 40.375 22.4844 35.8281
Q18.6094 31.2969 18.6094 23.3906
Q18.6094 15.5312 22.4844 10.9531
Q26.375 6.39062 33.0156 6.39062
Q39.6562 6.39062 43.5312 10.9531
Q47.4062 15.5312 47.4062 23.3906
Q47.4062 31.2969 43.5312 35.8281
Q39.6562 40.375 33.0156 40.375
M52.5938 71.2969
L52.5938 62.3125
Q48.875 64.0625 45.0938 64.9844
Q41.3125 65.9219 37.5938 65.9219
Q27.8281 65.9219 22.6719 59.3281
Q17.5312 52.7344 16.7969 39.4062
Q19.6719 43.6562 24.0156 45.9219
Q28.375 48.1875 33.5938 48.1875
Q44.5781 48.1875 50.9531 41.5156
Q57.3281 34.8594 57.3281 23.3906
Q57.3281 12.1562 50.6875 5.35938
Q44.0469 -1.42188 33.0156 -1.42188
Q20.3594 -1.42188 13.6719 8.26562
Q6.98438 17.9688 6.98438 36.375
Q6.98438 53.6562 15.1875 63.9375
Q23.3906 74.2188 37.2031 74.2188
Q40.9219 74.2188 44.7031 73.4844
Q48.4844 72.75 52.5938 71.2969" id="BitstreamVeraSans-Roman-36"/>
    </defs>
    <g style="fill:#262626;" transform="translate(770.187120073 468.075731526)scale(0.1 -0.1)">
     <use xlink:href="#BitstreamVeraSans-Roman-31"/>
     <use x="63.623046875" xlink:href="#BitstreamVeraSans-Roman-32"/>
     <use x="127.24609375" xlink:href="#BitstreamVeraSans-Roman-33"/>
     <use x="190.869140625" xlink:href="#BitstreamVeraSans-Roman-32"/>
     <use x="254.4921875" xlink:href="#BitstreamVeraSans-Roman-36"/>
     <use x="318.115234375" xlink:href="#BitstreamVeraSans-Roman-38"/>
    </g>
   </g>
   <g id="text_2">
    <!-- 439318 -->
    <defs>
     <path d="
M10.9844 1.51562
L10.9844 10.5
Q14.7031 8.73438 18.5 7.8125
Q22.3125 6.89062 25.9844 6.89062
Q35.75 6.89062 40.8906 13.4531
Q46.0469 20.0156 46.7812 33.4062
Q43.9531 29.2031 39.5938 26.9531
Q35.25 24.7031 29.9844 24.7031
Q19.0469 24.7031 12.6719 31.3125
Q6.29688 37.9375 6.29688 49.4219
Q6.29688 60.6406 12.9375 67.4219
Q19.5781 74.2188 30.6094 74.2188
Q43.2656 74.2188 49.9219 64.5156
Q56.5938 54.8281 56.5938 36.375
Q56.5938 19.1406 48.4062 8.85938
Q40.2344 -1.42188 26.4219 -1.42188
Q22.7031 -1.42188 18.8906 -0.6875
Q15.0938 0.046875 10.9844 1.51562
M30.6094 32.4219
Q37.25 32.4219 41.125 36.9531
Q45.0156 41.5 45.0156 49.4219
Q45.0156 57.2812 41.125 61.8438
Q37.25 66.4062 30.6094 66.4062
Q23.9688 66.4062 20.0938 61.8438
Q16.2188 57.2812 16.2188 49.4219
Q16.2188 41.5 20.0938 36.9531
Q23.9688 32.4219 30.6094 32.4219" id="BitstreamVeraSans-Roman-39"/>
     <path d="
M37.7969 64.3125
L12.8906 25.3906
L37.7969 25.3906
z

M35.2031 72.9062
L47.6094 72.9062
L47.6094 25.3906
L58.0156 25.3906
L58.0156 17.1875
L47.6094 17.1875
L47.6094 0
L37.7969 0
L37.7969 17.1875
L4.89062 17.1875
L4.89062 26.7031
z
" id="BitstreamVeraSans-Roman-34"/>
    </defs>
    <g style="fill:#262626;" transform="translate(278.371957793 425.912470227)scale(0.1 -0.1)">
     <use xlink:href="#BitstreamVeraSans-Roman-34"/>
     <use x="63.623046875" xlink:href="#BitstreamVeraSans-Roman-33"/>
     <use x="127.24609375" xlink:href="#BitstreamVeraSans-Roman-39"/>
     <use x="190.869140625" xlink:href="#BitstreamVeraSans-Roman-33"/>
     <use x="254.4921875" xlink:href="#BitstreamVeraSans-Roman-31"/>
     <use x="318.115234375" xlink:href="#BitstreamVeraSans-Roman-38"/>
    </g>
   </g>
   <g id="text_3">
    <!-- 158218 -->
    <defs>
     <path d="
M10.7969 72.9062
L49.5156 72.9062
L49.5156 64.5938
L19.8281 64.5938
L19.8281 46.7344
Q21.9688 47.4688 24.1094 47.8281
Q26.2656 48.1875 28.4219 48.1875
Q40.625 48.1875 47.75 41.5
Q54.8906 34.8125 54.8906 23.3906
Q54.8906 11.625 47.5625 5.09375
Q40.2344 -1.42188 26.9062 -1.42188
Q22.3125 -1.42188 17.5469 -0.640625
Q12.7969 0.140625 7.71875 1.70312
L7.71875 11.625
Q12.1094 9.23438 16.7969 8.0625
Q21.4844 6.89062 26.7031 6.89062
Q35.1562 6.89062 40.0781 11.3281
Q45.0156 15.7656 45.0156 23.3906
Q45.0156 31 40.0781 35.4375
Q35.1562 39.8906 26.7031 39.8906
Q22.75 39.8906 18.8125 39.0156
Q14.8906 38.1406 10.7969 36.2812
z
" id="BitstreamVeraSans-Roman-35"/>
    </defs>
    <g style="fill:#262626;" transform="translate(770.751877575 459.898827598)scale(0.1 -0.1)">
     <use xlink:href="#BitstreamVeraSans-Roman-31"/>
     <use x="63.623046875" xlink:href="#BitstreamVeraSans-Roman-35"/>
     <use x="127.24609375" xlink:href="#BitstreamVeraSans-Roman-38"/>
     <use x="190.869140625" xlink:href="#BitstreamVeraSans-Roman-32"/>
     <use x="254.4921875" xlink:href="#BitstreamVeraSans-Roman-31"/>
     <use x="318.115234375" xlink:href="#BitstreamVeraSans-Roman-38"/>
    </g>
   </g>
   <g id="text_4">
    <!-- all -->
    <defs>
     <path d="
M34.2812 27.4844
Q23.3906 27.4844 19.1875 25
Q14.9844 22.5156 14.9844 16.5
Q14.9844 11.7188 18.1406 8.90625
Q21.2969 6.10938 26.7031 6.10938
Q34.1875 6.10938 38.7031 11.4062
Q43.2188 16.7031 43.2188 25.4844
L43.2188 27.4844
z

M52.2031 31.2031
L52.2031 0
L43.2188 0
L43.2188 8.29688
Q40.1406 3.32812 35.5469 0.953125
Q30.9531 -1.42188 24.3125 -1.42188
Q15.9219 -1.42188 10.9531 3.29688
Q6 8.01562 6 15.9219
Q6 25.1406 12.1719 29.8281
Q18.3594 34.5156 30.6094 34.5156
L43.2188 34.5156
L43.2188 35.4062
Q43.2188 41.6094 39.1406 45
Q35.0625 48.3906 27.6875 48.3906
Q23 48.3906 18.5469 47.2656
Q14.1094 46.1406 10.0156 43.8906
L10.0156 52.2031
Q14.9375 54.1094 19.5781 55.0469
Q24.2188 56 28.6094 56
Q40.4844 56 46.3438 49.8438
Q52.2031 43.7031 52.2031 31.2031" id="BitstreamVeraSans-Roman-61"/>
     <path d="
M9.42188 75.9844
L18.4062 75.9844
L18.4062 0
L9.42188 0
z
" id="BitstreamVeraSans-Roman-6c"/>
    </defs>
    <g style="fill:#262626;" transform="translate(240.913324848 76.9425605516)scale(0.12 -0.12)">
     <use xlink:href="#BitstreamVeraSans-Roman-61"/>
     <use x="61.279296875" xlink:href="#BitstreamVeraSans-Roman-6c"/>
     <use x="89.0625" xlink:href="#BitstreamVeraSans-Roman-6c"/>
    </g>
   </g>
   <g id="text_5">
    <!-- not_lamp00 -->
    <defs>
     <path d="
M31.7812 66.4062
Q24.1719 66.4062 20.3281 58.9062
Q16.5 51.4219 16.5 36.375
Q16.5 21.3906 20.3281 13.8906
Q24.1719 6.39062 31.7812 6.39062
Q39.4531 6.39062 43.2812 13.8906
Q47.125 21.3906 47.125 36.375
Q47.125 51.4219 43.2812 58.9062
Q39.4531 66.4062 31.7812 66.4062
M31.7812 74.2188
Q44.0469 74.2188 50.5156 64.5156
Q56.9844 54.8281 56.9844 36.375
Q56.9844 17.9688 50.5156 8.26562
Q44.0469 -1.42188 31.7812 -1.42188
Q19.5312 -1.42188 13.0625 8.26562
Q6.59375 17.9688 6.59375 36.375
Q6.59375 54.8281 13.0625 64.5156
Q19.5312 74.2188 31.7812 74.2188" id="BitstreamVeraSans-Roman-30"/>
     <path d="
M50.9844 -16.6094
L50.9844 -23.5781
L-0.984375 -23.5781
L-0.984375 -16.6094
z
" id="BitstreamVeraSans-Roman-5f"/>
     <path d="
M54.8906 33.0156
L54.8906 0
L45.9062 0
L45.9062 32.7188
Q45.9062 40.4844 42.875 44.3281
Q39.8438 48.1875 33.7969 48.1875
Q26.5156 48.1875 22.3125 43.5469
Q18.1094 38.9219 18.1094 30.9062
L18.1094 0
L9.07812 0
L9.07812 54.6875
L18.1094 54.6875
L18.1094 46.1875
Q21.3438 51.125 25.7031 53.5625
Q30.0781 56 35.7969 56
Q45.2188 56 50.0469 50.1719
Q54.8906 44.3438 54.8906 33.0156" id="BitstreamVeraSans-Roman-6e"/>
     <path d="
M52 44.1875
Q55.375 50.25 60.0625 53.125
Q64.75 56 71.0938 56
Q79.6406 56 84.2812 50.0156
Q88.9219 44.0469 88.9219 33.0156
L88.9219 0
L79.8906 0
L79.8906 32.7188
Q79.8906 40.5781 77.0938 44.375
Q74.3125 48.1875 68.6094 48.1875
Q61.625 48.1875 57.5625 43.5469
Q53.5156 38.9219 53.5156 30.9062
L53.5156 0
L44.4844 0
L44.4844 32.7188
Q44.4844 40.625 41.7031 44.4062
Q38.9219 48.1875 33.1094 48.1875
Q26.2188 48.1875 22.1562 43.5312
Q18.1094 38.875 18.1094 30.9062
L18.1094 0
L9.07812 0
L9.07812 54.6875
L18.1094 54.6875
L18.1094 46.1875
Q21.1875 51.2188 25.4844 53.6094
Q29.7812 56 35.6875 56
Q41.6562 56 45.8281 52.9688
Q50 49.9531 52 44.1875" id="BitstreamVeraSans-Roman-6d"/>
     <path d="
M30.6094 48.3906
Q23.3906 48.3906 19.1875 42.75
Q14.9844 37.1094 14.9844 27.2969
Q14.9844 17.4844 19.1562 11.8438
Q23.3438 6.20312 30.6094 6.20312
Q37.7969 6.20312 41.9844 11.8594
Q46.1875 17.5312 46.1875 27.2969
Q46.1875 37.0156 41.9844 42.7031
Q37.7969 48.3906 30.6094 48.3906
M30.6094 56
Q42.3281 56 49.0156 48.375
Q55.7188 40.7656 55.7188 27.2969
Q55.7188 13.875 49.0156 6.21875
Q42.3281 -1.42188 30.6094 -1.42188
Q18.8438 -1.42188 12.1719 6.21875
Q5.51562 13.875 5.51562 27.2969
Q5.51562 40.7656 12.1719 48.375
Q18.8438 56 30.6094 56" id="BitstreamVeraSans-Roman-6f"/>
     <path d="
M18.3125 70.2188
L18.3125 54.6875
L36.8125 54.6875
L36.8125 47.7031
L18.3125 47.7031
L18.3125 18.0156
Q18.3125 11.3281 20.1406 9.42188
Q21.9688 7.51562 27.5938 7.51562
L36.8125 7.51562
L36.8125 0
L27.5938 0
Q17.1875 0 13.2344 3.875
Q9.28125 7.76562 9.28125 18.0156
L9.28125 47.7031
L2.6875 47.7031
L2.6875 54.6875
L9.28125 54.6875
L9.28125 70.2188
z
" id="BitstreamVeraSans-Roman-74"/>
     <path d="
M18.1094 8.20312
L18.1094 -20.7969
L9.07812 -20.7969
L9.07812 54.6875
L18.1094 54.6875
L18.1094 46.3906
Q20.9531 51.2656 25.2656 53.625
Q29.5938 56 35.5938 56
Q45.5625 56 51.7812 48.0938
Q58.0156 40.1875 58.0156 27.2969
Q58.0156 14.4062 51.7812 6.48438
Q45.5625 -1.42188 35.5938 -1.42188
Q29.5938 -1.42188 25.2656 0.953125
Q20.9531 3.32812 18.1094 8.20312
M48.6875 27.2969
Q48.6875 37.2031 44.6094 42.8438
Q40.5312 48.4844 33.4062 48.4844
Q26.2656 48.4844 22.1875 42.8438
Q18.1094 37.2031 18.1094 27.2969
Q18.1094 17.3906 22.1875 11.75
Q26.2656 6.10938 33.4062 6.10938
Q40.5312 6.10938 44.6094 11.75
Q48.6875 17.3906 48.6875 27.2969" id="BitstreamVeraSans-Roman-70"/>
    </defs>
    <g style="fill:#262626;" transform="translate(626.922510572 108.966731392)scale(0.12 -0.12)">
     <use xlink:href="#BitstreamVeraSans-Roman-6e"/>
     <use x="63.37890625" xlink:href="#BitstreamVeraSans-Roman-6f"/>
     <use x="124.560546875" xlink:href="#BitstreamVeraSans-Roman-74"/>
     <use x="163.76953125" xlink:href="#BitstreamVeraSans-Roman-5f"/>
     <use x="213.76953125" xlink:href="#BitstreamVeraSans-Roman-6c"/>
     <use x="241.552734375" xlink:href="#BitstreamVeraSans-Roman-61"/>
     <use x="302.83203125" xlink:href="#BitstreamVeraSans-Roman-6d"/>
     <use x="400.244140625" xlink:href="#BitstreamVeraSans-Roman-70"/>
     <use x="463.720703125" xlink:href="#BitstreamVeraSans-Roman-30"/>
     <use x="527.34375" xlink:href="#BitstreamVeraSans-Roman-30"/>
    </g>
   </g>
   <g id="text_6">
    <!-- novel -->
    <defs>
     <path d="
M2.98438 54.6875
L12.5 54.6875
L29.5938 8.79688
L46.6875 54.6875
L56.2031 54.6875
L35.6875 0
L23.4844 0
z
" id="BitstreamVeraSans-Roman-76"/>
     <path d="
M56.2031 29.5938
L56.2031 25.2031
L14.8906 25.2031
Q15.4844 15.9219 20.4844 11.0625
Q25.4844 6.20312 34.4219 6.20312
Q39.5938 6.20312 44.4531 7.46875
Q49.3125 8.73438 54.1094 11.2812
L54.1094 2.78125
Q49.2656 0.734375 44.1875 -0.34375
Q39.1094 -1.42188 33.8906 -1.42188
Q20.7969 -1.42188 13.1562 6.1875
Q5.51562 13.8125 5.51562 26.8125
Q5.51562 40.2344 12.7656 48.1094
Q20.0156 56 32.3281 56
Q43.3594 56 49.7812 48.8906
Q56.2031 41.7969 56.2031 29.5938
M47.2188 32.2344
Q47.125 39.5938 43.0938 43.9844
Q39.0625 48.3906 32.4219 48.3906
Q24.9062 48.3906 20.3906 44.1406
Q15.875 39.8906 15.1875 32.1719
z
" id="BitstreamVeraSans-Roman-65"/>
    </defs>
    <g style="fill:#262626;" transform="translate(606.586920182 639.091924371)scale(0.12 -0.12)">
     <use xlink:href="#BitstreamVeraSans-Roman-6e"/>
     <use x="63.37890625" xlink:href="#BitstreamVeraSans-Roman-6f"/>
     <use x="124.560546875" xlink:href="#BitstreamVeraSans-Roman-76"/>
     <use x="183.740234375" xlink:href="#BitstreamVeraSans-Roman-65"/>
     <use x="245.263671875" xlink:href="#BitstreamVeraSans-Roman-6c"/>
    </g>
   </g>
  </g>
  <g id="axes_2">
   <g id="patch_8">
    <path clip-path="url(#p19f6bcf572)" d="
M418.328 936.108
C367.74 939.67 318.541 954.27 274.198 978.879
C229.855 1003.49 191.436 1037.51 161.649 1078.56
C131.862 1119.6 111.423 1166.68 101.774 1216.46
C92.1247 1266.25 93.4967 1317.55 105.793 1366.75
C108.637 1391.8 114.423 1416.43 123.033 1440.12
C131.643 1463.82 143.016 1486.42 156.917 1507.45
C114.065 1457.24 86.4412 1395.82 77.3146 1330.44
C68.1879 1265.07 77.9327 1198.43 105.396 1138.4
C132.86 1078.38 176.914 1027.44 232.349 991.6
C287.783 955.765 352.321 936.508 418.328 936.108" style="fill:#ff0000;opacity:0.4;"/>
   </g>
   <g id="patch_9">
    <path clip-path="url(#p19f6bcf572)" d="
M639.242 1568.88
C656.073 1553.72 671.251 1536.81 684.52 1518.45
C697.789 1500.08 709.075 1480.37 718.19 1459.63
C749.557 1406.88 766.354 1346.74 766.856 1285.38
C767.358 1224.01 751.547 1163.6 721.047 1110.35
C690.546 1057.1 646.438 1012.9 593.254 982.289
C540.069 951.676 479.693 935.736 418.328 936.108
C494.352 930.755 570.063 950.573 633.715 992.485
C697.366 1034.4 745.485 1096.12 770.605 1168.07
C795.725 1240.02 796.476 1318.28 772.74 1390.7
C749.005 1463.12 702.078 1525.76 639.242 1568.88" style="fill:#008000;opacity:0.4;"/>
   </g>
   <g id="patch_10">
    <path clip-path="url(#p19f6bcf572)" d="
M418.328 936.108
C367.74 939.67 318.541 954.27 274.198 978.879
C229.855 1003.49 191.436 1037.51 161.649 1078.56
C131.862 1119.6 111.423 1166.68 101.774 1216.46
C92.1247 1266.25 93.4967 1317.55 105.793 1366.75
C100.24 1317.82 106.028 1268.26 122.71 1221.92
C139.391 1175.59 166.522 1133.71 201.991 1099.54
C237.461 1065.38 280.327 1039.84 327.255 1024.91
C374.184 1009.97 423.927 1006.05 472.618 1013.43
C521.308 1020.81 567.651 1039.31 608.042 1067.49
C648.433 1095.66 681.798 1132.77 705.543 1175.91
C729.289 1219.05 742.782 1267.09 744.975 1316.29
C747.168 1365.49 738.002 1414.54 718.19 1459.63
C749.557 1406.88 766.354 1346.74 766.856 1285.38
C767.358 1224.01 751.547 1163.6 721.047 1110.35
C690.546 1057.1 646.438 1012.9 593.254 982.289
C540.069 951.676 479.693 935.736 418.328 936.108" style="fill:#b25900;opacity:0.4;"/>
   </g>
   <g id="patch_11">
    <path clip-path="url(#p19f6bcf572)" d="
M156.917 1507.45
C189.21 1545.28 229.275 1575.72 274.382 1596.69
C319.489 1617.66 368.587 1628.67 418.328 1628.98
C457.207 1631.71 496.271 1627.89 533.879 1617.66
C571.488 1607.43 607.107 1590.94 639.242 1568.88
C604.951 1599.78 564.391 1622.92 520.341 1636.7
C476.29 1650.49 429.779 1654.61 383.991 1648.78
C338.203 1642.95 294.209 1627.3 255.021 1602.91
C215.834 1578.52 182.368 1545.96 156.917 1507.45" style="fill:#0000ff;opacity:0.4;"/>
   </g>
   <g id="patch_12">
    <path clip-path="url(#p19f6bcf572)" d="
M156.917 1507.45
C189.21 1545.28 229.275 1575.72 274.382 1596.69
C319.489 1617.66 368.587 1628.67 418.328 1628.98
C345.242 1623.83 275.626 1595.69 219.498 1548.59
C163.37 1501.5 123.559 1437.83 105.793 1366.75
C108.637 1391.8 114.423 1416.43 123.033 1440.12
C131.643 1463.82 143.016 1486.42 156.917 1507.45" style="fill:#b200b2;opacity:0.4;"/>
   </g>
   <g id="patch_13">
    <path clip-path="url(#p19f6bcf572)" d="
M639.242 1568.88
C656.073 1553.72 671.251 1536.81 684.52 1518.45
C697.789 1500.08 709.075 1480.37 718.19 1459.63
C687.313 1511.54 643.389 1554.49 590.792 1584.2
C538.195 1613.9 478.733 1629.34 418.328 1628.98
C457.207 1631.71 496.271 1627.89 533.879 1617.66
C571.488 1607.43 607.107 1590.94 639.242 1568.88" style="fill:#0059b2;opacity:0.4;"/>
   </g>
   <g id="patch_14">
    <path clip-path="url(#p19f6bcf572)" d="
M418.328 1628.98
C478.733 1629.34 538.195 1613.9 590.792 1584.2
C643.389 1554.49 687.313 1511.54 718.19 1459.63
C738.002 1414.54 747.168 1365.49 744.975 1316.29
C742.782 1267.09 729.289 1219.05 705.543 1175.91
C681.798 1132.77 648.433 1095.66 608.042 1067.49
C567.651 1039.31 521.308 1020.81 472.618 1013.43
C423.927 1006.05 374.184 1009.97 327.255 1024.91
C280.327 1039.84 237.461 1065.38 201.991 1099.54
C166.522 1133.71 139.391 1175.59 122.71 1221.92
C106.028 1268.26 100.24 1317.82 105.793 1366.75
C123.559 1437.83 163.37 1501.5 219.498 1548.59
C275.626 1595.69 345.242 1623.83 418.328 1628.98" style="fill:#663366;opacity:0.4;"/>
   </g>
   <g id="patch_15">
    <path clip-path="url(#p19f6bcf572)" d="
M420.427 1628.98
C512.305 1628.98 600.431 1592.48 665.398 1527.51
C730.365 1462.55 766.868 1374.42 766.868 1282.54
C766.868 1190.67 730.365 1102.54 665.398 1037.57
C600.431 972.605 512.305 936.102 420.427 936.102
C328.55 936.102 240.424 972.605 175.457 1037.57
C110.49 1102.54 73.9871 1190.67 73.9871 1282.54
C73.9871 1374.42 110.49 1462.55 175.457 1527.51
C240.424 1592.48 328.55 1628.98 420.427 1628.98
z
" style="fill:none;stroke:#000000;stroke-dasharray:6.000000,6.000000;stroke-dashoffset:0.0;stroke-width:0.5;"/>
   </g>
   <g id="patch_16">
    <path clip-path="url(#p19f6bcf572)" d="
M442.721 1629.83
C534.824 1629.83 623.167 1593.24 688.293 1528.11
C753.42 1462.99 790.013 1374.64 790.013 1282.54
C790.013 1190.44 753.42 1102.1 688.293 1036.97
C623.167 971.843 534.824 935.25 442.721 935.25
C350.618 935.25 262.275 971.843 197.149 1036.97
C132.022 1102.1 95.4295 1190.44 95.4295 1282.54
C95.4295 1374.64 132.022 1462.99 197.149 1528.11
C262.275 1593.24 350.618 1629.83 442.721 1629.83
z
" style="fill:none;stroke:#000000;stroke-dasharray:6.000000,6.000000;stroke-dashoffset:0.0;stroke-width:0.5;"/>
   </g>
   <g id="patch_17">
    <path clip-path="url(#p19f6bcf572)" d="
M424.52 1651.35
C509.59 1651.35 591.188 1617.55 651.341 1557.4
C711.495 1497.24 745.293 1415.65 745.293 1330.58
C745.293 1245.51 711.495 1163.91 651.341 1103.76
C591.188 1043.6 509.59 1009.8 424.52 1009.8
C339.45 1009.8 257.853 1043.6 197.699 1103.76
C137.546 1163.91 103.747 1245.51 103.747 1330.58
C103.747 1415.65 137.546 1497.24 197.699 1557.4
C257.853 1617.55 339.45 1651.35 424.52 1651.35
z
" style="fill:none;stroke:#000000;stroke-dasharray:6.000000,6.000000;stroke-dashoffset:0.0;stroke-width:0.5;"/>
   </g>
   <g id="text_7">
    <!-- 3039 -->
    <g style="fill:#262626;" transform="translate(82.0387023971 1365.05353596)scale(0.1 -0.1)">
     <use xlink:href="#BitstreamVeraSans-Roman-33"/>
     <use x="63.623046875" xlink:href="#BitstreamVeraSans-Roman-30"/>
     <use x="127.24609375" xlink:href="#BitstreamVeraSans-Roman-33"/>
     <use x="190.869140625" xlink:href="#BitstreamVeraSans-Roman-39"/>
    </g>
   </g>
   <g id="text_8">
    <!-- 4057 -->
    <defs>
     <path d="
M8.20312 72.9062
L55.0781 72.9062
L55.0781 68.7031
L28.6094 0
L18.3125 0
L43.2188 64.5938
L8.20312 64.5938
z
" id="BitstreamVeraSans-Roman-37"/>
    </defs>
    <g style="fill:#262626;" transform="translate(718.392561986 1461.34067771)scale(0.1 -0.1)">
     <use xlink:href="#BitstreamVeraSans-Roman-34"/>
     <use x="63.623046875" xlink:href="#BitstreamVeraSans-Roman-30"/>
     <use x="127.24609375" xlink:href="#BitstreamVeraSans-Roman-35"/>
     <use x="190.869140625" xlink:href="#BitstreamVeraSans-Roman-37"/>
    </g>
   </g>
   <g id="text_9">
    <!-- 18015 -->
    <g style="fill:#262626;" transform="translate(403.986823474 975.734792443)scale(0.1 -0.1)">
     <use xlink:href="#BitstreamVeraSans-Roman-31"/>
     <use x="63.623046875" xlink:href="#BitstreamVeraSans-Roman-38"/>
     <use x="127.24609375" xlink:href="#BitstreamVeraSans-Roman-30"/>
     <use x="190.869140625" xlink:href="#BitstreamVeraSans-Roman-31"/>
     <use x="254.4921875" xlink:href="#BitstreamVeraSans-Roman-35"/>
    </g>
   </g>
   <g id="text_10">
    <!-- 1917 -->
    <g style="fill:#262626;" transform="translate(406.580006395 1642.89232365)scale(0.1 -0.1)">
     <use xlink:href="#BitstreamVeraSans-Roman-31"/>
     <use x="63.623046875" xlink:href="#BitstreamVeraSans-Roman-39"/>
     <use x="127.24609375" xlink:href="#BitstreamVeraSans-Roman-31"/>
     <use x="190.869140625" xlink:href="#BitstreamVeraSans-Roman-37"/>
    </g>
   </g>
   <g id="text_11">
    <!-- 1767 -->
    <g style="fill:#262626;" transform="translate(151.610210225 1505.13941655)scale(0.1 -0.1)">
     <use xlink:href="#BitstreamVeraSans-Roman-31"/>
     <use x="63.623046875" xlink:href="#BitstreamVeraSans-Roman-37"/>
     <use x="127.24609375" xlink:href="#BitstreamVeraSans-Roman-36"/>
     <use x="190.869140625" xlink:href="#BitstreamVeraSans-Roman-37"/>
    </g>
   </g>
   <g id="text_12">
    <!-- 1362 -->
    <g style="fill:#262626;" transform="translate(623.336270657 1566.10591869)scale(0.1 -0.1)">
     <use xlink:href="#BitstreamVeraSans-Roman-31"/>
     <use x="63.623046875" xlink:href="#BitstreamVeraSans-Roman-33"/>
     <use x="127.24609375" xlink:href="#BitstreamVeraSans-Roman-36"/>
     <use x="190.869140625" xlink:href="#BitstreamVeraSans-Roman-32"/>
    </g>
   </g>
   <g id="text_13">
    <!-- 101752 -->
    <g style="fill:#262626;" transform="translate(396.066346179 1487.87697669)scale(0.1 -0.1)">
     <use xlink:href="#BitstreamVeraSans-Roman-31"/>
     <use x="63.623046875" xlink:href="#BitstreamVeraSans-Roman-30"/>
     <use x="127.24609375" xlink:href="#BitstreamVeraSans-Roman-31"/>
     <use x="190.869140625" xlink:href="#BitstreamVeraSans-Roman-37"/>
     <use x="254.4921875" xlink:href="#BitstreamVeraSans-Roman-35"/>
     <use x="318.115234375" xlink:href="#BitstreamVeraSans-Roman-32"/>
    </g>
   </g>
   <g id="text_14">
    <!-- homSap_pep -->
    <defs>
     <path d="
M53.5156 70.5156
L53.5156 60.8906
Q47.9062 63.5781 42.9219 64.8906
Q37.9375 66.2188 33.2969 66.2188
Q25.25 66.2188 20.875 63.0938
Q16.5 59.9688 16.5 54.2031
Q16.5 49.3594 19.4062 46.8906
Q22.3125 44.4375 30.4219 42.9219
L36.375 41.7031
Q47.4062 39.5938 52.6562 34.2969
Q57.9062 29 57.9062 20.125
Q57.9062 9.51562 50.7969 4.04688
Q43.7031 -1.42188 29.9844 -1.42188
Q24.8125 -1.42188 18.9688 -0.25
Q13.1406 0.921875 6.89062 3.21875
L6.89062 13.375
Q12.8906 10.0156 18.6562 8.29688
Q24.4219 6.59375 29.9844 6.59375
Q38.4219 6.59375 43.0156 9.90625
Q47.6094 13.2344 47.6094 19.3906
Q47.6094 24.75 44.3125 27.7812
Q41.0156 30.8125 33.5 32.3281
L27.4844 33.5
Q16.4531 35.6875 11.5156 40.375
Q6.59375 45.0625 6.59375 53.4219
Q6.59375 63.0938 13.4062 68.6562
Q20.2188 74.2188 32.1719 74.2188
Q37.3125 74.2188 42.625 73.2812
Q47.9531 72.3594 53.5156 70.5156" id="BitstreamVeraSans-Roman-53"/>
     <path d="
M54.8906 33.0156
L54.8906 0
L45.9062 0
L45.9062 32.7188
Q45.9062 40.4844 42.875 44.3281
Q39.8438 48.1875 33.7969 48.1875
Q26.5156 48.1875 22.3125 43.5469
Q18.1094 38.9219 18.1094 30.9062
L18.1094 0
L9.07812 0
L9.07812 75.9844
L18.1094 75.9844
L18.1094 46.1875
Q21.3438 51.125 25.7031 53.5625
Q30.0781 56 35.7969 56
Q45.2188 56 50.0469 50.1719
Q54.8906 44.3438 54.8906 33.0156" id="BitstreamVeraSans-Roman-68"/>
    </defs>
    <g style="fill:#262626;" transform="translate(171.106678556 936.101752865)scale(0.12 -0.12)">
     <use xlink:href="#BitstreamVeraSans-Roman-68"/>
     <use x="63.37890625" xlink:href="#BitstreamVeraSans-Roman-6f"/>
     <use x="124.560546875" xlink:href="#BitstreamVeraSans-Roman-6d"/>
     <use x="221.97265625" xlink:href="#BitstreamVeraSans-Roman-53"/>
     <use x="285.44921875" xlink:href="#BitstreamVeraSans-Roman-61"/>
     <use x="346.728515625" xlink:href="#BitstreamVeraSans-Roman-70"/>
     <use x="410.205078125" xlink:href="#BitstreamVeraSans-Roman-5f"/>
     <use x="460.205078125" xlink:href="#BitstreamVeraSans-Roman-70"/>
     <use x="523.681640625" xlink:href="#BitstreamVeraSans-Roman-65"/>
     <use x="585.205078125" xlink:href="#BitstreamVeraSans-Roman-70"/>
    </g>
   </g>
   <g id="text_15">
    <!-- danRer_pep -->
    <defs>
     <path d="
M45.4062 46.3906
L45.4062 75.9844
L54.3906 75.9844
L54.3906 0
L45.4062 0
L45.4062 8.20312
Q42.5781 3.32812 38.25 0.953125
Q33.9375 -1.42188 27.875 -1.42188
Q17.9688 -1.42188 11.7344 6.48438
Q5.51562 14.4062 5.51562 27.2969
Q5.51562 40.1875 11.7344 48.0938
Q17.9688 56 27.875 56
Q33.9375 56 38.25 53.625
Q42.5781 51.2656 45.4062 46.3906
M14.7969 27.2969
Q14.7969 17.3906 18.875 11.75
Q22.9531 6.10938 30.0781 6.10938
Q37.2031 6.10938 41.2969 11.75
Q45.4062 17.3906 45.4062 27.2969
Q45.4062 37.2031 41.2969 42.8438
Q37.2031 48.4844 30.0781 48.4844
Q22.9531 48.4844 18.875 42.8438
Q14.7969 37.2031 14.7969 27.2969" id="BitstreamVeraSans-Roman-64"/>
     <path d="
M44.3906 34.1875
Q47.5625 33.1094 50.5625 29.5938
Q53.5625 26.0781 56.5938 19.9219
L66.6094 0
L56 0
L46.6875 18.7031
Q43.0625 26.0312 39.6719 28.4219
Q36.2812 30.8125 30.4219 30.8125
L19.6719 30.8125
L19.6719 0
L9.8125 0
L9.8125 72.9062
L32.0781 72.9062
Q44.5781 72.9062 50.7344 67.6719
Q56.8906 62.4531 56.8906 51.9062
Q56.8906 45.0156 53.6875 40.4688
Q50.4844 35.9375 44.3906 34.1875
M19.6719 64.7969
L19.6719 38.9219
L32.0781 38.9219
Q39.2031 38.9219 42.8438 42.2188
Q46.4844 45.5156 46.4844 51.9062
Q46.4844 58.2969 42.8438 61.5469
Q39.2031 64.7969 32.0781 64.7969
z
" id="BitstreamVeraSans-Roman-52"/>
     <path d="
M41.1094 46.2969
Q39.5938 47.1719 37.8125 47.5781
Q36.0312 48 33.8906 48
Q26.2656 48 22.1875 43.0469
Q18.1094 38.0938 18.1094 28.8125
L18.1094 0
L9.07812 0
L9.07812 54.6875
L18.1094 54.6875
L18.1094 46.1875
Q20.9531 51.1719 25.4844 53.5781
Q30.0312 56 36.5312 56
Q37.4531 56 38.5781 55.875
Q39.7031 55.7656 41.0625 55.5156
z
" id="BitstreamVeraSans-Roman-72"/>
    </defs>
    <g style="fill:#262626;" transform="translate(616.36702773 935.250415437)scale(0.12 -0.12)">
     <use xlink:href="#BitstreamVeraSans-Roman-64"/>
     <use x="63.4765625" xlink:href="#BitstreamVeraSans-Roman-61"/>
     <use x="124.755859375" xlink:href="#BitstreamVeraSans-Roman-6e"/>
     <use x="188.134765625" xlink:href="#BitstreamVeraSans-Roman-52"/>
     <use x="253.1171875" xlink:href="#BitstreamVeraSans-Roman-65"/>
     <use x="314.640625" xlink:href="#BitstreamVeraSans-Roman-72"/>
     <use x="355.75390625" xlink:href="#BitstreamVeraSans-Roman-5f"/>
     <use x="405.75390625" xlink:href="#BitstreamVeraSans-Roman-70"/>
     <use x="469.23046875" xlink:href="#BitstreamVeraSans-Roman-65"/>
     <use x="530.75390625" xlink:href="#BitstreamVeraSans-Roman-70"/>
    </g>
   </g>
   <g id="text_16">
    <!-- braFlo_pep -->
    <defs>
     <path d="
M9.8125 72.9062
L51.7031 72.9062
L51.7031 64.5938
L19.6719 64.5938
L19.6719 43.1094
L48.5781 43.1094
L48.5781 34.8125
L19.6719 34.8125
L19.6719 0
L9.8125 0
z
" id="BitstreamVeraSans-Roman-46"/>
     <path d="
M48.6875 27.2969
Q48.6875 37.2031 44.6094 42.8438
Q40.5312 48.4844 33.4062 48.4844
Q26.2656 48.4844 22.1875 42.8438
Q18.1094 37.2031 18.1094 27.2969
Q18.1094 17.3906 22.1875 11.75
Q26.2656 6.10938 33.4062 6.10938
Q40.5312 6.10938 44.6094 11.75
Q48.6875 17.3906 48.6875 27.2969
M18.1094 46.3906
Q20.9531 51.2656 25.2656 53.625
Q29.5938 56 35.5938 56
Q45.5625 56 51.7812 48.0938
Q58.0156 40.1875 58.0156 27.2969
Q58.0156 14.4062 51.7812 6.48438
Q45.5625 -1.42188 35.5938 -1.42188
Q29.5938 -1.42188 25.2656 0.953125
Q20.9531 3.32812 18.1094 8.20312
L18.1094 0
L9.07812 0
L9.07812 75.9844
L18.1094 75.9844
z
" id="BitstreamVeraSans-Roman-62"/>
    </defs>
    <g style="fill:#262626;" transform="translate(392.341512614 1692.5450281)scale(0.12 -0.12)">
     <use xlink:href="#BitstreamVeraSans-Roman-62"/>
     <use x="63.4765625" xlink:href="#BitstreamVeraSans-Roman-72"/>
     <use x="104.58984375" xlink:href="#BitstreamVeraSans-Roman-61"/>
     <use x="165.869140625" xlink:href="#BitstreamVeraSans-Roman-46"/>
     <use x="223.388671875" xlink:href="#BitstreamVeraSans-Roman-6c"/>
     <use x="251.171875" xlink:href="#BitstreamVeraSans-Roman-6f"/>
     <use x="312.353515625" xlink:href="#BitstreamVeraSans-Roman-5f"/>
     <use x="362.353515625" xlink:href="#BitstreamVeraSans-Roman-70"/>
     <use x="425.830078125" xlink:href="#BitstreamVeraSans-Roman-65"/>
     <use x="487.353515625" xlink:href="#BitstreamVeraSans-Roman-70"/>
    </g>
   </g>
  </g>
 </g>
 <defs>
  <clipPath id="p82c4d4019c">
   <rect height="842.336589145" width="842.4" x="10.8" y="13.5317054276"/>
  </clipPath>
  <clipPath id="p19f6bcf572">
   <rect height="842.473434208" width="842.4" x="10.8" y="872.063282896"/>
  </clipPath>
 </defs>
</svg>
